<svg class="rotate" width="236" height="236" viewBox="0 0 236 236" fill="none" xmlns="http://www.w3.org/2000/svg">
<circle cx="118" cy="118" r="118" fill="#FDEADD"/>
<g clip-path="url(#clip0_561_71)">
<path d="M192.701 139.62L192.771 139.65C192.841 140.5 193.421 141.12 194.431 141.48L207.871 146.22C209.001 146.62 209.751 146.38 210.311 145.84L210.381 145.86L208.981 149.82L208.911 149.79C208.811 149.01 208.381 148.36 207.251 147.96L194.161 143.34C192.721 142.83 191.931 142.98 191.451 144.32C190.781 146.21 191.771 147.93 193.241 149.91L193.161 149.99L188.971 147.88L189.001 147.81C189.561 147.72 189.981 147.28 190.241 146.55L192.691 139.62H192.701Z" fill="#3B2321"/>
<path d="M185.7 155.36C186.08 154.6 186.92 154.32 188.06 154.89C188.17 154.95 188.31 155.01 188.44 155.08V155.06C187.76 153.59 187.48 151.86 188.06 150.7C188.65 149.52 190.18 149.08 191.59 149.79C193.49 150.74 194.54 153.56 193.38 157.59C194.46 158.16 195.42 158.64 196.03 158.94C197.15 159.5 198.01 159.34 198.42 158.52C199.45 156.46 196.24 155.33 196.96 153.9C197.16 153.5 197.64 153.37 198.07 153.59C199.3 154.21 199.68 156.97 198.73 158.87C197.9 160.52 196.46 161.06 195.03 160.34C193.17 159.41 189.52 157.5 187.49 156.48C186.75 156.11 186.28 156.1 186.04 156.59C185.89 156.88 185.88 157.18 185.99 157.57H185.9C185.51 156.91 185.38 156 185.7 155.36ZM188.65 152.14C188.3 152.83 188.23 153.81 188.73 155.22C190.05 155.88 191.69 156.73 193.14 157.46C193.94 153.86 192.76 152.35 191.29 151.61C190.11 151.02 189.13 151.17 188.65 152.13V152.14ZM199.73 159.71L199.71 159.59C202.07 158.62 203.29 157.8 204.16 157.57C204.7 157.45 205.36 157.69 205.49 158.26C205.61 158.91 205.18 159.33 204.63 159.48C203.77 159.69 202.32 159.47 199.73 159.71Z" fill="#3B2321"/>
<path d="M190.48 172.12C188.89 174.24 185.26 174.08 182.4 171.93C179.52 169.77 178.34 166.26 179.9 164.18C181.46 162.1 185.2 162.25 188.05 164.39C190.89 166.52 192.05 170.02 190.47 172.12H190.48ZM180.22 164.42C179.15 165.84 180.65 168.18 183.57 170.37C186.47 172.55 189.03 173.38 190.16 171.88C191.27 170.4 189.79 168.13 186.89 165.96C183.97 163.77 181.31 162.99 180.23 164.43L180.22 164.42Z" fill="#3B2321"/>
<path d="M173.84 175.6L173.86 175.58C173.51 173.8 173.54 171.62 174.56 170.59C175.54 169.59 176.9 169.77 177.99 170.84L183.36 176.12C184.07 176.82 184.61 176.96 185.28 176.78L185.33 176.83C184.72 177.45 184.35 178.47 184.4 179.38L184.35 179.43L177.25 172.45C176.48 171.7 175.58 171.47 174.83 172.24C174.36 172.72 173.94 173.86 174.03 175.73L178.97 180.59C179.68 181.29 180.2 181.45 180.89 181.25L180.94 181.3C180.33 181.92 179.96 182.94 180.01 183.85L179.96 183.9L172.61 176.68C171.9 175.98 171.36 175.88 170.64 176.08L170.59 176.03C171.22 175.39 171.67 174.5 171.72 173.56L171.77 173.51L172.97 174.68C173.31 175.01 173.67 175.36 173.86 175.59L173.84 175.6ZM183.03 182.66L183.05 182.54C185.59 182.34 187.01 181.94 187.91 181.99C188.46 182.04 189.01 182.48 188.96 183.06C188.88 183.72 188.33 183.98 187.76 183.95C186.88 183.89 185.56 183.23 183.03 182.66Z" fill="#3B2321"/>
<path d="M163.85 182.74L163.2 180.68L163.46 180.49L172.48 186.75C173.85 187.71 174.36 187.86 174.88 187.85L174.92 187.91L171.9 190.09L171.86 190.03C172.12 189.32 171.95 188.49 170.98 187.83L164.42 183.19L166.88 190.57C167.34 191.93 168.19 192.34 168.69 192.31L168.73 192.37L166.8 193.76L166.76 193.7C166.95 193.19 166.89 192.22 166.34 190.55L163.87 182.77L163.82 182.74L163.84 182.72L163.85 182.74Z" fill="#3B2321"/>
<path d="M162.2 196.8C159.89 198.09 156.63 196.47 154.89 193.34C153.14 190.19 153.49 186.51 155.76 185.24C158.03 183.97 161.38 185.63 163.13 188.75C164.86 191.85 164.5 195.52 162.2 196.79V196.8ZM155.96 185.6C154.41 186.46 154.82 189.21 156.6 192.4C158.37 195.57 160.37 197.37 162.01 196.46C163.63 195.56 163.19 192.88 161.43 189.71C159.65 186.52 157.54 184.72 155.96 185.6Z" fill="#3B2321"/>
<path d="M154.85 199.5L156.27 198.89L156.32 199C155.18 200.22 154.67 201.83 154.79 203.62L154.72 203.65L153.44 200.66L150.87 201.76L150.66 201.28L153.23 200.18L149.39 191.22C149.02 190.35 148.4 189.99 147.64 190.31C146.95 190.61 146.55 191.13 146.19 191.88L146.09 191.84C146.36 190.64 147.04 189.42 148.1 188.97C149.2 188.5 150.33 188.97 150.93 190.37L154.84 199.49L154.85 199.5Z" fill="#3B2321"/>
<path d="M146.2 200.81V200.79C146.2 202.45 145.36 204.07 144.26 204.43C143.57 204.66 142.8 204.31 142.56 203.6C142.36 202.98 142.64 202.42 143.16 202.24C143.9 202 144.43 202.74 145.02 202.54C145.57 202.36 145.89 201.59 146.03 200.44L143.63 193.2C143.37 192.42 142.81 191.92 142.17 191.66L142.15 191.59L145.52 190.47L145.54 190.54C145.14 191.15 144.96 191.89 145.22 192.67L147.68 200.1C147.98 201 148.38 201.34 149.16 201.48L149.18 201.55C148.3 201.84 147.46 202.62 147.07 203.44L147.02 203.46L146.48 201.82C146.36 201.46 146.24 201.03 146.17 200.82L146.2 200.81Z" fill="#3B2321"/>
<path d="M135.03 193.15C137.37 192.62 139.87 194.37 140.69 198C141.57 201.9 140.19 205.55 137.46 206.16C135.32 206.64 133.42 204.84 132.83 202.21L132.75 201.87L139.39 200.37C139.36 200.12 139.3 199.85 139.24 199.58C138.57 196.63 136.87 194.3 134.6 194.81C133.33 195.1 132.37 196.06 132.05 197.46L131.92 197.44C132.13 195.09 133.32 193.54 135.05 193.15H135.03ZM139.45 200.79L134.6 201.88C135.21 204.46 136.45 205.9 137.82 205.59C139.06 205.31 139.85 203.67 139.45 200.79Z" fill="#3B2321"/>
<path d="M124.45 205.17V205.15C124.03 206.76 122.81 208.11 121.66 208.19C120.94 208.24 120.28 207.7 120.23 206.95C120.19 206.3 120.61 205.82 121.16 205.79C121.93 205.74 122.26 206.6 122.89 206.56C123.46 206.52 123.97 205.86 124.4 204.78L123.91 197.17C123.86 196.35 123.44 195.72 122.89 195.31V195.24L126.43 195.01V195.09C125.89 195.58 125.53 196.25 125.59 197.07L126.09 204.88C126.15 205.83 126.45 206.26 127.18 206.59V206.67C126.26 206.73 125.24 207.27 124.66 207.96H124.61L124.5 206.24C124.48 205.87 124.47 205.41 124.46 205.19L124.45 205.17Z" fill="#3B2321"/>
<path d="M115.56 194.93C117.96 195.01 119.93 197.33 119.8 201.06C119.66 205.06 117.4 208.23 114.6 208.13C112.4 208.05 111.03 205.83 111.12 203.13V202.78L117.93 203.02C117.96 202.77 117.97 202.5 117.98 202.22C118.09 199.2 117.03 196.51 114.71 196.43C113.41 196.38 112.24 197.07 111.57 198.35L111.45 198.3C112.25 196.08 113.8 194.88 115.57 194.94L115.56 194.93ZM115.74 213.52C115.29 214.28 114.29 214.19 113.94 213.46L111.81 209.23L111.91 209.16L114.85 212.21H114.9L118.05 209.37L118.15 209.45L115.73 213.52H115.74ZM117.89 203.44L112.92 203.27C112.85 205.92 113.69 207.62 115.09 207.67C116.36 207.71 117.54 206.33 117.89 203.44Z" fill="#3B2321"/>
<path d="M105.69 196.13L106.66 194.2L106.98 194.25L109.05 205.03C109.36 206.67 109.62 207.14 109.99 207.5V207.57L106.3 207.02V206.95C106.99 206.62 107.45 205.91 107.22 204.76L105.78 196.86L102.38 203.86C101.76 205.16 102.08 206.04 102.46 206.37V206.44L100.1 206.09V206.02C100.6 205.79 101.24 205.05 102.01 203.47L105.68 196.18L105.66 196.13H105.68H105.69Z" fill="#3B2321"/>
<path d="M98.4202 192.35C100.74 192.96 102.15 195.66 101.2 199.26C100.18 203.13 97.2702 205.72 94.5602 205C92.4302 204.44 91.5902 201.96 92.2802 199.36L92.3702 199.02L98.9402 200.76C99.0302 200.53 99.1002 200.26 99.1702 199.99C99.9402 197.07 99.5102 194.21 97.2602 193.62C96.0002 193.29 94.7102 193.69 93.7702 194.79L93.6602 194.71C94.9402 192.72 96.7002 191.89 98.4202 192.35ZM98.8102 201.16L94.0002 199.89C93.3502 202.46 93.7902 204.31 95.1402 204.66C96.3702 204.99 97.8202 203.9 98.8102 201.16Z" fill="#3B2321"/>
<path d="M89.0803 184.19L92.1203 185.61L92.0903 185.68C91.4703 185.77 90.9703 186.07 90.5103 187.04L85.1503 198.5C84.6903 199.47 84.6903 200.08 85.1303 200.67L85.1003 200.74C84.3103 200.37 83.2003 200.38 82.3803 200.71L82.3103 200.68L83.3803 198.39C82.0603 199.21 80.4103 199.84 79.0303 199.2C77.1503 198.32 76.7003 195.46 78.0603 192.53C79.6503 189.13 83.0303 186.63 86.2003 188.11C86.8103 188.4 87.2703 188.78 87.6803 189.13L88.9903 186.32C89.4503 185.35 89.3503 184.78 89.0503 184.25L89.0803 184.18V184.19ZM86.0503 188.43C84.1703 187.55 81.5703 189.26 79.9903 192.72C78.6903 195.56 78.9303 197.69 80.4903 198.42C81.3503 198.82 82.1403 198.72 83.4703 198.13L86.7903 191.04C87.3603 189.82 87.0503 188.9 86.0503 188.43Z" fill="#3B2321"/>
<path d="M72.9607 192.67V192.65C71.7007 193.72 69.9207 194.12 68.9507 193.52C68.3307 193.14 68.1007 192.32 68.4907 191.68C68.8307 191.13 69.4507 190.98 69.9207 191.27C70.5807 191.68 70.3607 192.57 70.8907 192.89C71.3807 193.19 72.1807 192.95 73.1507 192.31L77.1507 185.82C77.5807 185.12 77.6007 184.37 77.3907 183.71L77.4307 183.65L80.4507 185.51L80.4107 185.57C79.6807 185.65 79.0007 186 78.5707 186.7L74.4707 193.36C73.9707 194.17 73.9707 194.7 74.3707 195.38L74.3307 195.44C73.5407 194.96 72.4007 194.81 71.5307 195.04L71.4907 195.01L72.3907 193.54C72.5907 193.22 72.8407 192.85 72.9607 192.66V192.67Z" fill="#3B2321"/>
<path d="M71.6204 179.18C73.5304 180.63 73.8004 183.66 71.5404 186.63C69.1204 189.81 65.4404 191.1 63.2104 189.4C61.4604 188.07 61.6204 185.46 63.2604 183.31L63.4704 183.03L68.8804 187.15C69.0504 186.97 69.2204 186.75 69.3804 186.53C71.2104 184.12 71.9004 181.32 70.0504 179.91C69.0204 179.12 67.6604 179 66.3804 179.66L66.3104 179.54C68.2504 178.19 70.2004 178.1 71.6104 179.18H71.6204ZM68.6104 187.47L64.6504 184.46C63.0704 186.58 62.7704 188.46 63.8804 189.31C64.8904 190.08 66.6504 189.63 68.6104 187.47Z" fill="#3B2321"/>
<path d="M65.5303 177.35L60.0403 182.93C59.3603 183.63 59.2703 184.14 59.4903 184.88L59.4403 184.93C58.7803 184.28 57.7503 183.86 56.8003 183.91L56.7603 183.87L57.9003 182.71C58.2303 182.37 58.5503 182.05 58.7803 181.85L58.7603 181.83C56.9603 182.16 54.8503 182.06 53.8403 181.06C52.8603 180.1 53.0103 178.7 54.0803 177.61L59.8503 171.75C60.4303 171.16 60.6903 170.51 60.6303 169.82L60.6803 169.77L63.0903 172.14L63.0403 172.19C62.2603 172.13 61.6303 172.34 61.0703 172.91L55.7003 178.36C54.9503 179.13 54.7403 180.05 55.4903 180.78C55.9903 181.27 57.0903 181.72 58.9603 181.64L64.3603 176.15C64.9203 175.58 65.1303 174.94 65.0503 174.16L65.1003 174.11L67.6303 176.6L67.5803 176.65C66.8203 176.57 66.1103 176.75 65.5303 177.34V177.35Z" fill="#3B2321"/>
<path d="M56.0309 172.41C53.0609 174.7 48.9309 175.41 46.8009 172.66C46.3909 172.13 46.1409 171.56 45.9209 171.03L42.6609 173.55C41.9309 174.12 41.5709 174.8 41.6209 175.43L41.5609 175.48C41.0109 174.77 40.0509 174.31 39.1609 174.21L39.1309 174.17L52.5409 163.8C53.3709 163.16 53.7109 162.58 53.6109 161.87L53.6709 161.82C54.2109 162.51 55.0709 162.98 55.9609 163.18L56.0009 163.24L55.1109 163.93C54.7709 164.19 54.3609 164.48 54.0709 164.71V164.75C55.5409 164.65 57.3009 164.81 58.2409 166.01C59.5209 167.67 58.6009 170.44 56.0509 172.41H56.0309ZM53.8309 164.91L47.5809 169.74C46.5109 170.57 46.3909 171.55 47.0709 172.44C48.3109 174.04 51.4009 173.71 54.3909 171.36C56.8309 169.44 57.6009 167.42 56.5509 166.06C55.9709 165.31 55.2409 165.05 53.8309 164.91Z" fill="#3B2321"/>
<path d="M48.0102 154.28L50.1402 153.91L50.2902 154.2L42.8602 162.28C41.7302 163.5 41.5002 163.99 41.4402 164.51L41.3702 164.55L39.6202 161.26L39.6902 161.22C40.3602 161.57 41.2102 161.52 41.9902 160.65L47.4802 154.79L39.8302 156.22C38.4102 156.49 37.9002 157.27 37.8502 157.78L37.7802 157.82L36.6602 155.72L36.7302 155.68C37.2102 155.94 38.1802 156.01 39.9102 155.68L47.9502 154.3L47.9802 154.26V154.28H48.0102Z" fill="#3B2321"/>
<path d="M32.8305 155.91C32.1605 156.2 31.4405 155.96 31.1905 155.39C30.9305 154.79 31.2605 154.08 31.9205 153.8C32.5605 153.52 33.3005 153.78 33.5505 154.38C33.8005 154.95 33.4605 155.64 32.8205 155.92L32.8305 155.91ZM47.8205 149.95C47.2805 149.58 46.5705 149.56 45.7205 149.93L38.7105 152.93C37.9705 153.25 37.2805 153.71 37.2405 154.51L37.1705 154.54C36.8105 153.69 35.9505 152.97 35.1305 152.64L35.1105 152.59L45.0405 148.34C45.8905 147.98 46.4105 147.48 46.5305 146.94L46.6005 146.91L47.8905 149.92L47.8205 149.95Z" fill="#3B2321"/>
<path d="M45.1302 141.71C45.8802 143.99 44.3702 146.64 40.8302 147.8C37.0302 149.04 33.2702 148.01 32.4002 145.35C31.7202 143.26 33.3302 141.2 35.9002 140.37L36.2302 140.26L38.3402 146.72C38.5902 146.67 38.8502 146.58 39.1102 146.5C41.9902 145.56 44.1502 143.64 43.4302 141.43C43.0302 140.19 41.9802 139.33 40.5502 139.14V139.01C42.9202 139.01 44.5802 140.04 45.1302 141.73V141.71ZM37.9402 146.82L36.3902 142.09C33.8802 142.94 32.5702 144.31 33.0002 145.64C33.4002 146.85 35.1002 147.48 37.9302 146.82H37.9402Z" fill="#3B2321"/>
<path d="M43.7402 97.2599L43.6702 97.2399C43.5902 96.3899 43.0102 95.7699 41.9902 95.4299L28.5002 90.8299C27.3702 90.4399 26.6202 90.6899 26.0602 91.2399L25.9902 91.2199L27.3502 87.2499L27.4202 87.2699C27.5302 88.0499 27.9602 88.6999 29.1002 89.0799L42.2302 93.5599C43.6702 94.0499 44.4602 93.8999 44.9202 92.5499C45.5702 90.6599 44.5702 88.9399 43.0702 86.9799L43.1502 86.8999L47.3602 88.9699L47.3402 89.0399C46.7802 89.1399 46.3602 89.5799 46.1102 90.3099L43.7302 97.2699L43.7402 97.2599Z" fill="#3B2321"/>
<path d="M36.4902 77.2498L36.5102 77.3698C34.1602 78.3698 32.9502 79.1998 32.0802 79.4398C31.5402 79.5698 30.8802 79.3298 30.7402 78.7598C30.6102 78.1098 31.0402 77.6798 31.5902 77.5298C32.4502 77.3098 33.9002 77.5198 36.4802 77.2498H36.4902ZM50.5802 81.4498C50.2102 82.2098 49.3702 82.4998 48.2302 81.9398C48.1202 81.8798 47.9802 81.8198 47.8502 81.7498V81.7698C48.5502 83.2298 48.8402 84.9598 48.2702 86.1298C47.6902 87.3198 46.1602 87.7698 44.7502 87.0798C42.8402 86.1498 41.7602 83.3398 42.8702 79.2898C41.7802 78.7298 40.8102 78.2598 40.2102 77.9598C39.0902 77.4098 38.2302 77.5798 37.8202 78.4098C36.8102 80.4798 40.0302 81.5798 39.3302 83.0098C39.1302 83.4198 38.6502 83.5398 38.2302 83.3398C36.9902 82.7398 36.5902 79.9798 37.5202 78.0698C38.3302 76.4098 39.7702 75.8598 41.2002 76.5598C43.0702 77.4698 46.7402 79.3398 48.7902 80.3398C49.5302 80.6998 50.0002 80.7098 50.2402 80.2098C50.3802 79.9198 50.3902 79.6198 50.2802 79.2298H50.3702C50.7702 79.8798 50.9102 80.7898 50.5902 81.4398L50.5802 81.4498ZM47.6602 84.6998C48.0002 83.9998 48.0602 83.0298 47.5502 81.6198C46.2202 80.9698 44.5702 80.1398 43.1102 79.4298C42.3502 83.0398 43.5402 84.5398 45.0302 85.2598C46.2202 85.8398 47.1902 85.6698 47.6602 84.7098V84.6998Z" fill="#3B2321"/>
<path d="M45.6001 64.7497C47.1701 62.6097 50.8001 62.7297 53.6801 64.8497C56.5801 66.9797 57.8001 70.4797 56.2601 72.5697C54.7201 74.6697 50.9901 74.5597 48.1001 72.4497C45.2401 70.3497 44.0401 66.8697 45.5901 64.7497H45.6001ZM55.9401 72.3297C56.9901 70.8997 55.4701 68.5797 52.5301 66.4197C49.6101 64.2797 47.0301 63.4697 45.9201 64.9897C44.8301 66.4797 46.3401 68.7397 49.2601 70.8797C52.2001 73.0397 54.8801 73.7897 55.9401 72.3397V72.3297Z" fill="#3B2321"/>
<path d="M52.9409 54.1301V54.2501C50.3809 54.4801 48.9809 54.8901 48.0709 54.8601C47.5209 54.8201 46.9609 54.3901 47.0109 53.8001C47.0909 53.1401 47.6309 52.8701 48.1909 52.8901C49.0809 52.9401 50.4009 53.5901 52.9409 54.1201V54.1301ZM62.2009 61.0901L62.1809 61.1101C62.5509 62.8901 62.5409 65.0701 61.5409 66.1101C60.5709 67.1201 59.2009 66.9501 58.1009 65.9001L52.6709 60.6801C51.9509 59.9901 51.4209 59.8601 50.7509 60.0501L50.7009 60.0001C51.3109 59.3701 51.6609 58.3501 51.6009 57.4301L51.6509 57.3801L58.8209 64.2801C59.6009 65.0301 60.5009 65.2401 61.2509 64.4601C61.7209 63.9701 62.1209 62.8301 62.0109 60.9601L57.0209 56.1601C56.3009 55.4701 55.7809 55.3201 55.1009 55.5301L55.0509 55.4801C55.6609 54.8501 56.0109 53.8301 55.9509 52.9201L56.0009 52.8701L63.4309 60.0101C64.1509 60.7001 64.6809 60.8001 65.4009 60.5901L65.4509 60.6401C64.8309 61.2901 64.3809 62.1801 64.3509 63.1201L64.3009 63.1701L63.0909 62.0101C62.7509 61.6801 62.3909 61.3301 62.1909 61.1101L62.2009 61.0901Z" fill="#3B2321"/>
<path d="M72.12 53.8401L72.79 55.8901L72.53 56.0801L63.45 49.9201C62.07 48.9801 61.56 48.8301 61.04 48.8401L61 48.7801L64 46.5701L64.04 46.6301C63.79 47.3401 63.97 48.1701 64.94 48.8201L71.54 53.3901L69 46.0401C68.53 44.6801 67.67 44.2901 67.17 44.3201L67.12 44.2601L69.03 42.8501L69.07 42.9101C68.89 43.4201 68.95 44.3901 69.53 46.0501L72.08 53.8001L72.13 53.8301L72.11 53.8501L72.12 53.8401Z" fill="#3B2321"/>
<path d="M73.6107 39.7599C75.9107 38.4399 79.1807 40.0299 80.9507 43.1299C82.7407 46.2499 82.4307 49.9399 80.1707 51.2399C77.9107 52.5299 74.5407 50.9199 72.7707 47.8099C71.0107 44.7299 71.3307 41.0599 73.6107 39.7599ZM79.9807 50.8899C81.5207 50.0099 81.0807 47.2699 79.2607 44.0999C77.4607 40.9499 75.4307 39.1699 73.8107 40.1099C72.2007 41.0299 72.6707 43.6999 74.4707 46.8499C76.2807 50.0199 78.4207 51.7899 79.9807 50.8999V50.8899Z" fill="#3B2321"/>
<path d="M80.9407 36.9798L79.5207 37.5998L79.4707 37.4898C80.5907 36.2598 81.0907 34.6498 80.9507 32.8498L81.0207 32.8198L82.3307 35.7898L84.8907 34.6598L85.1007 35.1398L82.5407 36.2698L86.4707 45.1898C86.8507 46.0598 87.4707 46.4098 88.2307 46.0798C88.9207 45.7798 89.3107 45.2498 89.6607 44.4898L89.7607 44.5298C89.5007 45.7398 88.8407 46.9598 87.7807 47.4198C86.6807 47.8998 85.5507 47.4498 84.9407 46.0498L80.9407 36.9698V36.9798Z" fill="#3B2321"/>
<path d="M89.5705 35.5797V35.5997C89.5705 33.9397 90.3805 32.3097 91.4605 31.9397C92.1405 31.6997 92.9205 32.0397 93.1705 32.7497C93.3805 33.3597 93.1005 33.9397 92.5805 34.1197C91.8505 34.3697 91.3005 33.6297 90.7105 33.8397C90.1705 34.0297 89.8505 34.7997 89.7205 35.9497L92.2005 43.1597C92.4705 43.9397 93.0305 44.4297 93.6805 44.6897L93.7005 44.7597L90.3405 45.9097L90.3205 45.8397C90.7205 45.2297 90.8805 44.4797 90.6205 43.6997L88.0805 36.2997C87.7705 35.3997 87.3605 35.0697 86.5805 34.9397L86.5605 34.8697C87.4305 34.5697 88.2705 33.7797 88.6505 32.9597L88.7005 32.9397L89.2605 34.5697C89.3805 34.9197 89.5005 35.3597 89.5805 35.5697L89.5705 35.5797Z" fill="#3B2321"/>
<path d="M100.84 43.1101C98.5005 43.6601 95.9905 41.9501 95.1305 38.3201C94.2105 34.4301 95.5505 30.7701 98.2805 30.1201C100.42 29.6101 102.33 31.4001 102.96 34.0201L103.04 34.3601L96.4205 35.9301C96.4505 36.1801 96.5205 36.4501 96.5805 36.7201C97.2805 39.6601 99.0105 41.9801 101.27 41.4401C102.53 41.1401 103.49 40.1701 103.8 38.7601L103.93 38.7801C103.74 41.1401 102.57 42.7001 100.84 43.1101ZM96.3405 35.5201L101.18 34.3701C100.54 31.8001 99.2805 30.3701 97.9205 30.7001C96.6805 30.9901 95.9105 32.6401 96.3405 35.5201Z" fill="#3B2321"/>
<path d="M111.28 30.9801V31.0101C111.69 29.4001 112.89 28.0301 114.03 27.9501C114.75 27.9001 115.42 28.4201 115.48 29.1701C115.53 29.8201 115.11 30.3001 114.56 30.3401C113.79 30.4001 113.45 29.5501 112.83 29.5901C112.26 29.6301 111.75 30.3001 111.33 31.3801L111.9 38.9801C111.96 39.8001 112.39 40.4201 112.94 40.8301V40.9001L109.4 41.1701V41.1001C109.94 40.6101 110.28 39.9301 110.22 39.1101L109.63 31.3101C109.56 30.3601 109.25 29.9301 108.52 29.6101V29.5301C109.44 29.4601 110.45 28.9101 111.02 28.2101H111.07L111.2 29.9301C111.23 30.3101 111.24 30.7601 111.25 30.9801H111.28Z" fill="#3B2321"/>
<path d="M120.26 41.13C117.86 41.07 115.87 38.78 115.95 35.05C116.04 31.05 118.27 27.85 121.07 27.92C123.27 27.97 124.67 30.18 124.6 32.88V33.23L117.8 33.07C117.77 33.32 117.76 33.59 117.76 33.87C117.69 36.89 118.78 39.57 121.1 39.62C122.4 39.65 123.57 38.95 124.22 37.67L124.34 37.72C123.56 39.95 122.03 41.17 120.26 41.12V41.13ZM119.87 22.54C120.31 21.78 121.31 21.85 121.67 22.58L123.85 26.78L123.75 26.85L120.77 23.83H120.72L117.6 26.71L117.5 26.63L119.87 22.54ZM117.83 32.64L122.8 32.76C122.84 30.11 121.98 28.42 120.58 28.38C119.31 28.35 118.15 29.75 117.83 32.64Z" fill="#3B2321"/>
<path d="M130.141 39.8199L129.191 41.7599L128.871 41.7199L126.691 30.9699C126.361 29.3399 126.101 28.8699 125.721 28.5099V28.4399L129.421 28.9499V29.0199C128.731 29.3499 128.281 30.0699 128.521 31.2199L130.041 39.0999L133.371 32.0699C133.981 30.7699 133.651 29.8899 133.271 29.5599V29.4799L135.631 29.8099V29.8799C135.131 30.1199 134.501 30.8599 133.751 32.4499L130.151 39.7699L130.171 39.8199H130.151H130.141Z" fill="#3B2321"/>
<path d="M137.42 43.5198C135.09 42.9298 133.66 40.2498 134.57 36.6398C135.55 32.7598 138.43 30.1398 141.15 30.8198C143.28 31.3598 144.16 33.8198 143.5 36.4398L143.41 36.7798L136.82 35.1098C136.73 35.3498 136.67 35.6098 136.6 35.8798C135.86 38.8098 136.33 41.6698 138.58 42.2298C139.84 42.5498 141.13 42.1298 142.06 41.0198L142.17 41.0998C140.92 43.0998 139.15 43.9498 137.43 43.5098L137.42 43.5198ZM136.94 34.7098L141.77 35.9298C142.39 33.3498 141.93 31.5098 140.57 31.1698C139.33 30.8598 137.89 31.9598 136.94 34.7198V34.7098Z" fill="#3B2321"/>
<path d="M146.87 51.5702L143.82 50.1802L143.85 50.1102C144.47 50.0102 144.97 49.7102 145.41 48.7302L150.65 37.2102C151.1 36.2302 151.1 35.6302 150.65 35.0402L150.68 34.9702C151.48 35.3302 152.58 35.3102 153.4 34.9702L153.47 35.0002L152.42 37.3002C153.73 36.4702 155.38 35.8202 156.76 36.4502C158.65 37.3102 159.13 40.1702 157.8 43.1002C156.25 46.5102 152.89 49.0502 149.71 47.6002C149.1 47.3202 148.63 46.9502 148.22 46.5902L146.94 49.4102C146.49 50.3902 146.59 50.9502 146.9 51.4802L146.87 51.5502V51.5702ZM149.86 47.3002C151.75 48.1602 154.33 46.4202 155.88 42.9502C157.15 40.0902 156.88 37.9702 155.31 37.2502C154.44 36.8602 153.66 36.9602 152.33 37.5702L149.09 44.6902C148.53 45.9202 148.85 46.8402 149.86 47.2902V47.3002Z" fill="#3B2321"/>
<path d="M162.91 42.9299V42.9499C164.16 41.8699 165.93 41.4499 166.91 42.0399C167.53 42.4099 167.77 43.2299 167.38 43.8699C167.05 44.4299 166.43 44.5799 165.96 44.2999C165.3 43.8999 165.51 43.0099 164.97 42.6899C164.48 42.3899 163.68 42.6499 162.72 43.2899L158.8 49.8299C158.37 50.5399 158.36 51.2899 158.58 51.9399L158.54 51.9999L155.5 50.1699L155.54 50.1099C156.26 50.0199 156.94 49.6699 157.37 48.9599L161.4 42.2499C161.89 41.4399 161.88 40.9099 161.48 40.2299L161.52 40.1699C162.31 40.6499 163.46 40.7799 164.33 40.5399L164.37 40.5699L163.48 42.0499C163.29 42.3699 163.03 42.7399 162.92 42.9399L162.91 42.9299Z" fill="#3B2321"/>
<path d="M164.371 56.3901C162.441 54.9601 162.141 51.9301 164.371 48.9401C166.761 45.7301 170.421 44.4101 172.671 46.0801C174.441 47.3901 174.301 50.0001 172.691 52.1701L172.481 52.4501L167.021 48.3901C166.851 48.5801 166.691 48.8001 166.521 49.0201C164.711 51.4501 164.061 54.2601 165.921 55.6501C166.961 56.4301 168.321 56.5301 169.601 55.8601L169.671 55.9701C167.741 57.3401 165.791 57.4501 164.371 56.3901ZM167.291 48.0601L171.281 51.0301C172.841 48.8901 173.121 47.0101 171.991 46.1701C170.971 45.4101 169.221 45.8801 167.281 48.0601H167.291Z" fill="#3B2321"/>
<path d="M170.49 58.1598L175.92 52.5198C176.6 51.8198 176.67 51.2998 176.45 50.5598L176.5 50.5098C177.17 51.1498 178.2 51.5598 179.15 51.4998L179.19 51.5398L178.06 52.7098C177.73 53.0498 177.42 53.3798 177.19 53.5698L177.21 53.5898C179.01 53.2398 181.11 53.3198 182.14 54.3098C183.13 55.2598 183 56.6598 181.94 57.7598L176.23 63.6798C175.66 64.2698 175.41 64.9298 175.47 65.6198L175.42 65.6698L172.99 63.3298L173.04 63.2798C173.82 63.3398 174.45 63.1098 175.01 62.5398L180.32 57.0298C181.07 56.2598 181.26 55.3298 180.5 54.5998C180 54.1098 178.89 53.6798 177.02 53.7798L171.68 59.3298C171.13 59.9098 170.92 60.5498 171.01 61.3198L170.96 61.3698L168.4 58.9098L168.45 58.8598C169.21 58.9298 169.92 58.7398 170.49 58.1498V58.1598Z" fill="#3B2321"/>
<path d="M180.051 62.9898C182.991 60.6598 187.121 59.9198 189.271 62.6398C189.691 63.1698 189.941 63.7298 190.171 64.2598L193.411 61.6998C194.131 61.1198 194.481 60.4398 194.431 59.8098L194.491 59.7598C195.051 60.4698 196.011 60.9198 196.911 60.9998L196.941 61.0398L183.651 71.5598C182.831 72.2098 182.491 72.7998 182.611 73.4998L182.551 73.5498C182.011 72.8598 181.131 72.4098 180.251 72.2098L180.201 72.1498L181.081 71.4498C181.411 71.1898 181.821 70.8998 182.121 70.6598V70.6298C180.651 70.7398 178.891 70.6098 177.941 69.4098C176.641 67.7598 177.531 64.9798 180.061 62.9798L180.051 62.9898ZM182.331 70.4598L188.531 65.5598C189.591 64.7198 189.701 63.7398 189.001 62.8598C187.741 61.2698 184.661 61.6398 181.691 64.0198C179.271 65.9598 178.521 67.9898 179.591 69.3498C180.181 70.0998 180.921 70.3398 182.321 70.4698L182.331 70.4598Z" fill="#3B2321"/>
<path d="M188.26 81.0402L186.14 81.4302L185.98 81.1402L193.31 72.9802C194.43 71.7402 194.65 71.2502 194.71 70.7402L194.78 70.7002L196.56 73.9702L196.49 74.0102C195.82 73.6702 194.97 73.7302 194.2 74.6102L188.78 80.5302L196.41 79.0102C197.82 78.7202 198.33 77.9302 198.37 77.4302L198.43 77.3902L199.57 79.4702L199.5 79.5102C199.02 79.2602 198.04 79.1902 196.32 79.5402L188.3 81.0202L188.27 81.0702V81.0502L188.26 81.0402Z" fill="#3B2321"/>
<path d="M188.48 85.3301C189.02 85.6901 189.74 85.7001 190.58 85.3301L197.56 82.2501C198.29 81.9301 198.99 81.4601 199.01 80.6501L199.08 80.6201C199.45 81.4701 200.32 82.1801 201.14 82.5001L201.16 82.5501L191.28 86.9101C190.43 87.2801 189.92 87.7801 189.8 88.3301L189.73 88.3601L188.41 85.3601L188.48 85.3301ZM203.4 79.2101C204.06 78.9201 204.79 79.1401 205.04 79.7101C205.3 80.3001 204.99 81.0201 204.33 81.3101C203.69 81.5901 202.95 81.3401 202.69 80.7501C202.44 80.1801 202.76 79.4901 203.4 79.2101Z" fill="#3B2321"/>
<path d="M191.28 93.5701C190.51 91.3001 191.98 88.6301 195.51 87.4401C199.3 86.1501 203.07 87.1501 203.97 89.8001C204.68 91.8801 203.08 93.9601 200.53 94.8201L200.2 94.9301L198.02 88.4901C197.77 88.5501 197.51 88.6401 197.25 88.7201C194.39 89.6901 192.24 91.6301 192.99 93.8301C193.41 95.0601 194.46 95.9201 195.9 96.0901V96.2201C193.53 96.2601 191.86 95.2401 191.29 93.5601L191.28 93.5701ZM198.42 88.3801L200.02 93.0901C202.52 92.2201 203.82 90.8301 203.37 89.5001C202.96 88.2901 201.25 87.6801 198.42 88.3801Z" fill="#3B2321"/>
<path d="M31.42 123.51C31.31 121.68 31.25 119.84 31.25 118.03C31.25 115.8 31.33 113.56 31.5 111.35L32.49 111.43C32.32 113.61 32.24 115.84 32.24 118.04C32.24 119.83 32.3 121.66 32.41 123.46L31.42 123.52V123.51Z" fill="#3B2321"/>
<path d="M205.23 123.86L204.24 123.79C204.37 121.89 204.43 119.95 204.43 118.02C204.43 115.83 204.35 113.61 204.18 111.43L205.17 111.36C205.34 113.56 205.42 115.8 205.42 118.02C205.42 119.97 205.36 121.93 205.23 123.85V123.86Z" fill="#3B2321"/>
<g clip-path="url(#clip1_561_71)">
<path d="M131 117.613C130.998 117.903 130.946 118.155 130.842 118.372C130.737 118.586 130.581 118.765 130.375 118.905C129.95 119.192 129.442 119.34 128.867 119.346C128.817 119.349 128.765 119.349 128.712 119.349C128.238 119.349 127.596 119.253 126.806 119.061C125.96 118.854 124.937 118.631 123.677 118.381C122.442 118.137 120.391 117.864 119.683 117.792C119.141 117.736 118.471 117.666 118.163 117.634C118.376 117.915 118.855 118.553 119.076 118.854C119.093 118.876 120.688 121.032 121.609 122.083C122.465 123.061 123.167 123.854 123.754 124.512L123.904 124.677C124.418 125.251 124.729 125.597 125.062 126.181V126.184C125.301 126.653 125.399 127.145 125.351 127.65C125.307 128.107 124.992 128.517 124.439 128.835C124.153 128.999 123.874 129.082 123.604 129.082C123.399 129.082 123.2 129.035 123.006 128.94C122.546 128.715 122.165 128.35 121.87 127.856C121.607 127.45 121.344 126.801 121.088 125.927C120.838 125.076 120.518 124.078 120.111 122.878C119.709 121.696 118.917 119.779 118.624 119.124C118.4 118.624 118.127 118.014 118.001 117.73C117.863 118.055 117.55 118.791 117.401 119.13C117.232 119.516 116.281 121.732 115.871 122.937C115.446 124.186 115.108 125.191 114.839 126.01L114.779 126.196C114.537 126.941 114.391 127.39 114.047 127.976C113.76 128.419 113.383 128.75 112.922 128.961C112.767 129.034 112.599 129.068 112.422 129.068C112.118 129.068 111.787 128.966 111.438 128.763C110.938 128.473 110.666 128.074 110.631 127.575C110.597 127.064 110.722 126.552 111.002 126.049C111.222 125.621 111.651 125.068 112.282 124.409C112.9 123.763 113.624 122.965 114.433 122.038C115.229 121.126 116.509 119.473 116.94 118.875C117.26 118.43 117.654 117.888 117.836 117.637C117.484 117.681 116.689 117.777 116.324 117.817C115.814 117.873 113.485 118.152 112.263 118.396C111.091 118.627 110.023 118.843 109.086 119.039L108.902 119.078C108.148 119.238 107.687 119.336 107.028 119.336H106.987C106.459 119.31 105.984 119.147 105.571 118.854C105.195 118.586 105 118.109 105 117.47C105.002 116.883 105.206 116.461 105.625 116.179C106.048 115.892 106.556 115.743 107.133 115.735C107.617 115.71 108.311 115.808 109.194 116.022C110.052 116.233 111.075 116.455 112.323 116.701C113.539 116.942 115.599 117.216 116.315 117.29C116.68 117.328 117.104 117.371 117.436 117.406C117.595 117.422 117.735 117.437 117.836 117.448C117.624 117.167 117.143 116.527 116.924 116.23C116.62 115.815 115.216 113.942 114.391 113C113.628 112.126 112.906 111.309 112.246 110.57L112.109 110.419C111.588 109.84 111.274 109.49 110.939 108.902L110.936 108.899C110.697 108.429 110.601 107.936 110.648 107.433C110.693 106.974 111.008 106.564 111.561 106.248C112.063 105.958 112.545 105.924 112.994 106.143C113.455 106.368 113.837 106.733 114.13 107.227C114.393 107.632 114.656 108.28 114.912 109.155C115.166 110.026 115.495 111.052 115.889 112.204C116.287 113.374 117.08 115.298 117.376 115.959C117.597 116.45 117.872 117.066 117.998 117.352C118.137 117.026 118.45 116.291 118.599 115.953C118.806 115.48 119.731 113.317 120.129 112.145C120.548 110.914 120.886 109.909 121.158 109.074L121.221 108.881C121.465 108.139 121.61 107.692 121.953 107.106C122.241 106.661 122.62 106.331 123.078 106.12C123.497 105.93 124.011 105.997 124.562 106.319C125.062 106.609 125.334 107.008 125.369 107.507C125.403 108.016 125.278 108.53 124.998 109.033C124.777 109.464 124.346 110.017 123.718 110.675C123.1 111.321 122.376 112.118 121.567 113.045C120.76 113.967 119.485 115.618 119.06 116.209C118.867 116.473 118.627 116.805 118.43 117.077C118.324 117.224 118.229 117.353 118.163 117.445C118.514 117.401 119.309 117.305 119.674 117.265C120.189 117.209 122.528 116.928 123.737 116.688C124.956 116.447 126.025 116.231 126.914 116.043L127.111 116.001C127.864 115.842 128.323 115.746 128.986 115.746H129.013C129.54 115.773 130.016 115.937 130.429 116.23C130.805 116.497 131.002 116.975 131 117.613Z" fill="#3B2321"/>
</g>
</g>
<defs>
<clipPath id="clip0_561_71">
<rect width="184.39" height="192.05" fill="white" transform="translate(26 22)"/>
</clipPath>
<clipPath id="clip1_561_71">
<rect width="26" height="23.0814" fill="white" transform="translate(105 106)"/>
</clipPath>
</defs>
</svg>