<svg width="95" height="135" viewBox="0 0 95 135" fill="none" xmlns="http://www.w3.org/2000/svg">
<g clip-path="url(#clip0_263_3110)">
<path fill-rule="evenodd" clip-rule="evenodd" d="M46.7978 76.5892C46.2956 76.3472 46.5038 76.8207 43.4517 77.1512C42.5801 77.2448 42.6217 77.4322 43.5246 74.2006C44.6538 70.1729 45.3693 63.5978 42.4084 76.8806C42.2939 77.3879 42.1924 77.2943 40.5714 77.4322C41.1751 77.1069 41.0606 76.4955 41.1204 75.9907C42.7232 62.2526 40.9357 55.5709 41.0554 57.5614C41.9322 71.0029 40.5376 75.1945 40.6053 77.4322C36.4422 78.2804 34.1525 75.4963 32.4457 71.6091C27.0935 59.4218 28.8915 56.9031 28.2332 56.8875C27.5333 56.8719 28.9253 67.688 33.947 75.1763C32.1959 74.2709 25.4543 64.1728 26.9687 53.1824C27.385 50.0757 22.9643 59.8563 32.2453 73.9846C29.6252 72.322 19.535 63.0176 16.9409 53.4998C16.1291 50.5285 17.2271 37.5553 21.3459 34.1755C28.855 28.0142 29.4509 31.7323 33.0103 33.4912C34.3242 34.1416 35.4457 34.5736 36.0051 35.8355C36.6816 37.3576 37.5792 38.0367 37.0641 39.3533C36.6165 40.4955 36.8169 41.146 36.9912 43.4487C37.0354 44.0419 37.0224 44.5883 37.4621 44.6586C38.3962 44.8095 38.3312 41.8433 40.8186 42.4365C44.4457 43.2978 45.0233 44.6533 46.5012 43.904C49.7197 42.2726 52.8134 43.6984 54.2809 44.2787C55.2774 44.6742 55.9695 45.309 56.5237 46.9196C57.7362 50.4452 58.2722 49.8155 59.4691 52.342C61.3867 56.3931 61.7718 56.4426 61.7796 57.6317C61.8082 61.8129 61.8004 64.0428 58.9461 67.1442C58.4882 67.6412 48.7284 76.7947 47.9765 75.7878C47.7111 75.4261 49.6131 74.7678 51.5671 69.7253C51.757 69.2362 51.9314 68.9994 51.7232 68.9135C51.5203 68.8303 51.6451 68.747 49.9617 72.2518C49.1265 73.9872 46.8967 76.1078 48.0337 74.4582C51.143 69.9439 52.0354 63.6889 51.2991 65.3905C50.9634 66.1659 50.4092 70.6438 46.9253 75.3975C46.4387 76.0636 46.7718 76.6126 46.8004 76.5918L46.7978 76.5892ZM35.6538 74.5076C36.1586 74.1902 32.62 70.1078 31.0615 61.7167C31.0094 61.4434 30.718 61.4408 30.7362 61.7245C30.96 65.6429 34.8472 74.4608 35.6538 74.5076ZM52.9721 71.0965C59.9088 58.9092 57.3199 58.0063 57.234 60.2726C57.0987 64.0636 51.6738 71.5961 52.9721 71.0965ZM43.535 65.2709C43.2982 65.2032 43.2488 65.4374 43.1994 66.218C42.8533 71.734 41.6174 75.6525 41.4665 76.5631C41.4249 76.7999 41.7423 76.7843 41.7865 76.6542C42.96 73.4851 43.8706 65.5128 43.535 65.2683V65.2709ZM58.764 56.8147C58.4621 56.8485 58.8758 57.9361 58.5012 60.0722C57.7362 64.4513 56.0085 66.3168 56.5784 66.4703C57.5645 66.7409 60.0077 56.6768 58.764 56.8147ZM23.5732 64.675C23.6278 64.5241 23.7241 64.623 23.4014 63.845C20.3832 56.5987 21.4448 55.0167 20.6616 54.6499C20.071 55.7141 22.8811 64.7765 23.5758 64.675H23.5732ZM39.9288 68.5545C39.6582 68.5727 39.8039 69.0748 39.8169 69.3532C40.0979 75.0879 38.8724 76.4538 39.463 76.4799C40.215 76.5059 40.5532 68.5102 39.9288 68.5545ZM38.7215 68.1486C38.2479 68.1694 39.1118 68.8797 38.7787 75.4781C38.7709 75.6395 38.7605 76.1702 38.9296 76.2067C39.4994 76.3264 39.3017 68.1304 38.7215 68.1486ZM38.2974 45.283C37.8134 44.9005 37.5272 52.1052 37.8576 52.165C38.1985 52.2249 38.3598 46.3212 38.2974 45.283ZM48.6373 70.6594C49.0875 69.6004 50.3026 64.8702 49.9201 64.8311C49.7484 64.8129 49.6703 65.1278 49.6365 65.2969C48.6764 70.0506 47.8516 71.0263 48.6373 70.6594ZM37.3503 50.3775C37.4439 50.0393 37.4257 50.747 37.4257 46.7999C37.4257 46.5293 37.1239 46.4148 37.1083 46.8442C36.9912 50.2162 36.9027 50.5857 37.3503 50.3801V50.3775ZM35.4613 71.0367C35.5159 70.7323 35.7267 71.2448 34.4465 68.1772C34.3815 68.0133 34.1161 68.0887 34.1837 68.3255C34.3086 68.7626 34.9903 71.1304 35.4587 71.0367H35.4613ZM45.947 75.1191C46.0146 75.002 47.136 73.0818 46.8082 72.9361C46.6157 72.8476 46.7067 72.8424 45.6009 75.0176C45.4656 75.283 45.7544 75.4053 45.947 75.1165V75.1191ZM44.5055 75.0202C44.849 74.5441 45.0805 72.3793 44.7475 73.0089C44.5497 73.3758 43.9513 75.2908 44.5055 75.0202ZM39.4214 65.1017C39.3355 65.2813 39.4994 66.78 39.6321 66.8762C40.1655 67.2587 39.705 64.5111 39.4214 65.1017ZM38.7995 44.7782C38.5732 45.0749 38.7553 46.074 38.9322 45.884C39.195 45.603 39.0285 45.2778 39.0389 44.9708C39.0467 44.7548 38.8698 44.786 38.7995 44.7808V44.7782ZM39.6634 44.159C39.3199 44.2058 39.3251 44.6638 39.4318 44.9344C39.5905 45.335 39.8793 44.3567 39.6634 44.159Z" fill="white"/>
<path fill-rule="evenodd" clip-rule="evenodd" d="M62.693 73.9901C61.6678 74.5105 60.5828 74.7967 59.4484 74.9372C60.5724 74.1618 61.712 73.4411 62.8101 72.6553C69.4579 67.8834 75.4059 59.2009 74.9558 58.886C74.3001 58.4307 69.7337 68.7993 59.1232 74.4949C58.6912 74.7264 58.2775 75.2182 57.6817 74.8982C57.9341 74.4428 58.4258 74.3336 58.8369 74.141C64.6652 71.4038 73.5898 62.3388 76.3192 51.4914C76.595 50.3934 76.5507 49.2772 76.686 48.174C76.699 48.0647 76.6574 47.971 76.5299 47.9866C76.0798 48.0439 75.8768 64.9146 56.948 74.6198C56.8231 74.6822 56.3964 74.8123 56.3131 74.6302C56.0269 74.0395 61.7745 71.7889 68.8985 59.9736C68.9401 59.9034 69 59.638 68.9532 59.6016C68.7112 59.4064 68.7554 59.7369 66.8378 62.69C63.4657 67.8886 54.8899 76.2251 54.5906 74.3023C54.5386 73.9745 55.2333 74.0109 58.0095 71.4506C58.3218 71.1644 60.6687 68.9034 60.2992 68.625C60.2368 68.5781 53.8361 75.3353 53.0971 74.2009C52.8994 73.8964 53.3235 73.6961 53.5291 73.5244C61.6288 66.8323 62.3209 67.5322 62.5915 58.017C62.6487 55.9849 61.8473 55.7455 60.2212 52.0196C59.2845 49.8756 57.5022 48.5174 58.4649 46.6935C59.6878 44.3752 58.8994 42.9728 61.9332 37.9277C62.9558 36.226 63.5074 36.5487 64.0564 36.7672C66.1145 37.5946 69.1249 36.2026 67.0017 31.6128C66.3825 30.2755 67.0486 28.4671 68.3339 27.7958C70.2151 26.8097 71.8439 29.9867 75.4579 26.7265C77.4172 24.9442 76.6366 27.0959 82.1813 38.7056C84.8924 44.383 84.7025 47.7108 83.8309 50.6926C80.8855 60.7672 71.4432 70.0066 63.0364 73.9719C61.7199 74.6042 64.9696 72.0881 66.1275 71.1957C72.0156 66.6501 73.1891 63.7438 72.2992 64.6857C71.6982 65.3127 70.0095 67.4671 68.2975 68.8904C61.3218 74.6952 61.7563 73.6154 62.693 73.9901ZM70.4883 31.5218C69.5412 31.4515 71.3053 32.9997 73.5872 40.0378C73.595 40.0664 74.1414 41.7369 74.4536 41.6198C74.8335 41.4767 71.8127 34.0352 70.4909 31.5218H70.4883ZM80.1622 56.4324C82.111 53.5599 84.1223 46.4984 83.235 46.4984C82.9228 46.4984 83.1257 47.0083 82.8031 48.7022C81.7493 54.1714 78.4319 57.4992 80.1648 56.4324H80.1622ZM66.5074 61.1341C65.1023 63.3431 64.9072 63.507 65.0737 63.6631C65.3599 63.9337 66.9575 61.272 66.6661 61.1315C66.5646 61.082 66.4892 61.1627 66.5074 61.1367V61.1341ZM72.5308 34.2772C72.7545 34.1757 72.3773 33.0517 72.1119 32.7811C71.758 32.4272 72.1795 34.4437 72.5308 34.2772ZM71.2064 36.1948C71.1804 36.1896 70.8864 36.0725 70.9566 36.3431C71.0425 36.6892 71.0399 37.0821 71.3755 37.3136C71.7398 37.5686 71.2532 36.3405 71.2064 36.1974V36.1948ZM82.0303 42.5461C82.0512 41.2165 81.2342 41.5886 81.7545 42.5617C81.8118 42.6684 81.9002 42.6527 82.0303 42.5461ZM72.9029 32.102C72.9783 31.9147 72.778 31.3553 72.5386 31.4932C72.3799 31.5816 72.7103 32.4194 72.9029 32.102Z" fill="white"/>
<path fill-rule="evenodd" clip-rule="evenodd" d="M11.5136 37.8625C11.8597 38.6639 13.5431 38.3517 16.707 40.6648C16.8085 40.7402 16.962 40.8261 16.8683 40.9666C16.6654 41.2658 14.6853 39.7047 14.4668 40.108C14.3263 40.3682 14.6697 40.3734 14.8128 40.4592C16.387 41.3725 17.0141 41.4011 16.7799 42.3248C15.5414 47.1956 15.6845 52.0221 15.4841 52.108C15.099 52.2693 13.0435 49.5321 11.9039 46.8417C11.001 44.6978 10.923 43.2589 8.21961 38.9814C8.0765 38.755 6.65066 36.4939 6.77555 35.206C6.89784 33.9727 7.9334 31.5451 5.03748 28.6648C0.55439 24.2025 0.585613 23.7654 1.54572 22.2407C4.91779 16.9042 5.42776 15.6214 11.6906 14.0317C14.6255 13.2875 14.6281 9.36386 18.0106 9.15831C20.1207 9.03341 24.9447 10.886 27.5752 13.2927C28.7513 14.3699 30.6584 17.4272 29.5709 17.9397C29.1441 18.1401 28.8085 18.7203 28.3922 18.6527C27.8848 18.5694 28.1424 17.5833 27.4139 17.154C27.3462 17.6327 27.2916 17.0291 27.838 18.7567C27.9655 19.1678 27.6767 19.3552 27.4425 18.9181C24.5127 13.402 22.9282 13.4515 23.6411 14.1592C25.3558 15.8478 27.0028 18.8868 27.2213 19.4228C27.3436 19.7246 27.1277 19.9146 26.9013 19.6622C25.7044 18.3092 27.0548 20.3907 26.5709 20.4116C25.7747 20.4454 26.1025 21.2364 25.7356 21.5824C25.1164 22.1704 24.5752 23.8851 24.1927 23.8955C23.7998 23.9059 23.7504 23.3205 23.5761 22.9848C22.9698 21.8374 20.7712 18.6318 20.3081 18.3456C18.8692 17.4532 24.7183 24.4289 23.7842 24.8374C23.2066 25.0924 23.2014 21.8582 18.4451 18.023C18.0366 17.6952 17.5839 17.8617 18.6116 18.7021C21.7157 21.2207 24.1094 25.9354 23.2508 26.3361C22.9646 26.4662 21.8094 23.3907 21.2265 23.6041C20.8076 23.755 24.0678 27.5252 22.7408 28.2199C22.4234 28.3864 22.2777 27.9363 22.1034 27.7333C17.9663 22.9952 15.5518 22.5035 17.2378 23.755C18.2552 24.507 23.6229 29.1852 22.6498 29.82C22.3584 30.01 22.2777 29.6327 22.158 29.4792C16.9828 22.951 10.6888 20.5677 10.5899 21.4107C10.5249 21.9519 11.6333 20.6743 17.7686 25.4957C20.0323 27.2754 22.6029 30.637 22.7669 31.0351C23.0687 31.7689 22.3532 32.2893 21.864 31.6076C19.8605 28.8079 16.0956 25.6388 15.8146 26.0317C15.5596 26.3907 18.7599 27.9493 21.4763 31.7949C22.2075 32.8279 21.1771 32.2216 19.4156 34.8625C18.9733 35.5208 19.0592 35.0603 17.217 33.8322C16.9204 33.6344 16.6576 33.8816 17.0349 34.1522C17.2925 34.337 18.3983 35.0135 18.6715 35.4454C18.8536 35.7342 18.583 35.7888 18.4321 35.6665C14.5605 32.5182 7.78769 32.461 7.84493 33.0438C7.89957 33.4835 13.413 32.4037 18.289 36.0412C18.4633 36.1713 18.5362 36.3873 18.3931 36.5746C18.1797 36.8556 18.0626 36.5668 17.9351 36.4601C15.8432 34.7012 12.5674 33.8322 10.5769 34.0377C10.348 34.0638 10.3193 34.3864 10.6108 34.4046C12.5934 34.5373 14.4382 34.7246 16.7461 36.0464C18.3254 36.9597 18.1693 37.0846 17.805 38.2476C16.5275 42.3248 18.3488 39.4393 11.5136 37.8651V37.8625ZM17.243 18.7671C18.3176 19.5815 18.4269 19.7325 18.57 19.4801C18.6897 19.2719 17.6645 18.6032 17.4668 18.4627C17.2664 18.3196 16.9958 17.9397 16.8449 18.1245C16.5873 18.4445 17.1181 18.5096 17.2404 18.7671H17.243ZM12.3332 31.7767C12.034 31.7298 11.5579 31.4228 11.472 31.7559C11.3913 32.0759 11.9768 31.9926 12.2578 32.0993C13.1736 32.4506 13.2517 31.9172 12.3306 31.7741L12.3332 31.7767Z" fill="white"/>
<path fill-rule="evenodd" clip-rule="evenodd" d="M34.9487 30.4261C33.8013 31.0818 33.8637 32.2917 33.5307 32.1876C33.1768 32.0784 34.0277 30.6655 34.3087 30.3403C34.4127 30.2206 34.6131 30.0463 34.4622 29.9214C34.2436 29.7392 34.1395 30.0411 34.0173 30.1582C32.9895 31.1443 33.4032 32.3958 32.1361 31.7531C31.5454 31.4539 31.522 31.3915 31.9487 30.6577C33.7649 27.5484 35.1231 27.283 34.764 27.0489C34.2879 26.7444 32.3416 29.2163 31.9019 29.937C28.8993 34.8598 33.3824 22.6725 40.9982 21.7618C43.3477 21.4912 35.8126 19.9691 30.6478 30.3715C30.3694 30.9257 29.4145 30.0827 29.1439 29.7366C28.967 29.5103 29.0866 29.3672 29.633 28.3602C29.8282 27.9986 29.5602 27.8112 29.3338 28.2015C28.6053 29.4582 28.6391 29.7653 28.2098 29.5623C27.4292 29.198 29.797 25.6152 30.4578 24.819C30.7024 24.525 31.1005 24.3273 31.1369 23.8824C30.6166 23.8719 30.4422 24.3429 30.1664 24.6395C27.411 27.5797 27.973 30.0098 26.9088 29.6508C26.6226 29.5545 26.8048 29.3073 26.8646 29.146C28.2827 25.3446 30.0962 22.3628 33.908 20.3906C36.8559 18.8581 29.5992 19.9743 26.3546 29.3438C26.1803 29.8433 26.2818 29.9188 24.5437 30.6473C23.6357 31.0298 23.568 21.5953 31.0147 18.283C36.8169 15.702 36.8221 11.6222 45.2341 11.0784C46.829 10.9769 48.7336 10.9197 50.4951 11.9864C51.6894 12.7124 51.1716 13.6282 50.9166 14.5727C50.4587 16.2796 52.1369 15.8112 49.9305 18.9908C49.2124 20.0289 46.1239 22.1313 46.4544 26.898C46.4882 27.4079 46.6157 27.7774 46.1734 27.8008C44.7866 27.8763 41.5888 32.3177 41.1023 33.0541C39.4943 35.4973 39.2601 37.9144 39.8169 40.6256C40.0068 41.5519 39.2029 40.9326 38.1361 42.0931C37.5428 42.741 37.5324 40.6907 37.8212 39.7618C38.5316 37.4773 37.6859 35.2163 36.2315 33.9856C34.9487 32.9006 37.5585 29.9344 38.7579 28.9405C42.3642 25.9639 37.8577 28.3368 36.2809 31.1859C35.1933 33.1503 35.4665 33.1061 34.5819 32.7861C33.4813 32.3932 34.4778 31.6464 34.9487 30.4209V30.4261ZM42.5281 15.767C41.875 15.9387 39.3538 16.8052 39.666 17.3073C39.9002 17.6794 39.8117 17.0159 42.45 16.1287C42.8559 15.9934 42.7623 15.7046 42.5281 15.767ZM25.5272 29.2267C25.6235 27.6707 26.261 26.7757 26.0372 26.7731C25.5298 26.7627 25.1916 28.4539 25.1994 29.159C25.1994 29.3958 25.5012 29.2371 25.5272 29.2267ZM41.8542 24.1946C41.032 24.3507 39.6946 24.9361 39.7987 25.2405C39.9262 25.6074 40.3711 24.9726 41.9453 24.4782C42.0572 24.4418 42.1248 24.1425 41.8542 24.1946Z" fill="white"/>
<path fill-rule="evenodd" clip-rule="evenodd" d="M76.5479 64.9901C85.0327 54.3822 81.632 55.3709 89.5835 47.4585C90.1949 46.8548 87.5123 47.8566 84.5566 52.4047C83.7162 53.7057 84.0882 52.1966 84.6789 51.2989C87.9417 46.3475 88.2825 46.8678 88.5557 46.4593C88.7196 46.2096 88.397 46.2174 88.3606 46.2408C86.2478 47.6068 84.7959 50.9528 84.9651 49.488C85.9356 41.0994 81.8168 38.8852 83.3467 37.5478C85.1524 35.9633 87.5384 34.6493 89.724 33.7829C90.0414 33.658 89.9243 33.39 89.5809 33.4836C85.1784 34.7352 82.959 37.8887 82.5687 37.3397C82.1316 36.723 88.0431 33.2234 88.0717 33.2026C88.5843 32.7837 87.1481 32.8202 82.8107 36.2911C81.9885 36.952 82.358 37.1367 79.9538 32.089C79.5453 31.2304 80.9113 29.7239 81.2678 29.4429C81.6476 29.1437 81.3172 28.5062 79.8835 30.5461C79.5973 30.952 79.3424 30.6658 79.5089 30.2833C79.8315 29.5339 81.7127 27.5253 84.1767 26.6562C86.5496 25.821 83.9347 25.8288 81.6112 27.5331C80.2322 28.5452 80.0162 29.024 79.4516 29.5522C79.1914 29.7941 78.4941 29.7213 80.2348 27.7308C80.4456 27.4914 80.1776 27.3379 80.0084 27.5097C78.9495 28.6077 78.9599 28.73 78.7829 28.6493C78.1117 28.3449 79.6598 26.8124 78.645 27.3509C78.4369 27.4602 78.3458 27.3223 78.3068 27.135C77.9842 25.5218 77.2608 25.2174 78.1455 24.6918C81.874 22.475 92.3675 23.3648 91.5297 29.8019C90.9729 34.1029 96.5774 32.919 89.0475 37.3865C86.0371 39.174 86.2452 40.9407 87.5201 40.4047C88.933 39.8089 90.3874 40.1133 91.8211 40.1237C92.8723 40.1315 93.4681 41.1463 93.1299 42.174C92.9659 42.671 92.9321 43.1679 93.07 43.6675C94.2565 47.9919 89.3831 46.9277 84.7153 60.1792C80.3857 72.481 71.0319 72.2625 70.9954 72.1115C70.9356 71.8722 76.5661 69.4524 83.5861 57.4394C85.4516 54.2495 85.4386 54.5175 85.2747 54.3769C84.6893 53.8826 77.1463 69.1168 69.8376 72.0855C68.4404 72.6684 72.6034 69.9338 76.5557 64.9927L76.5479 64.9901ZM82.436 32.7187C81.3536 33.8895 81.2027 33.9598 81.4681 34.1836C81.8298 34.488 83.0006 31.6363 87.1819 30.0179C90.2235 28.847 85.4334 29.3544 82.4334 32.7187H82.436ZM83.8749 38.0162C83.5418 38.2764 83.75 38.5652 84.07 38.3466C86.3987 36.7594 86.6303 36.9208 86.5392 36.7048C86.3571 36.2729 84.1793 37.8002 83.8749 38.0136V38.0162ZM86.5653 52.3266C86.6693 52.0665 87.1351 51.9546 87.1325 51.5201C86.7005 51.4836 85.5661 52.7612 85.8653 53.0214C86.0241 53.1567 86.0839 53.0083 86.5653 52.324V52.3266ZM83.1177 34.6753C83.253 34.8418 83.8645 34.3917 83.9737 34.285C84.2157 34.0483 84.8558 34.0196 84.6867 33.6528C84.593 33.4498 82.9642 34.3267 83.1203 34.6753H83.1177Z" fill="white"/>
<path fill-rule="evenodd" clip-rule="evenodd" d="M58.9824 41.4219C58.743 41.081 59.5028 36.8295 58.9746 36.8191C58.5348 36.8113 59.2712 37.2745 57.7413 45.356C57.057 48.9908 58.6051 33.382 57.5435 33.6292C57.3067 33.6838 57.7335 45.6188 56.7057 44.6509C56.1099 44.0889 56.8384 39.5667 56.3935 39.4314C56.1749 39.3612 56.2087 39.689 56.1853 40.2068C56.0032 44.2163 56.1437 43.9145 55.5192 43.6647C54.7543 43.3603 54.429 42.8191 54.325 41.9995C54.0466 39.7879 53.9815 37.5763 54.2287 35.349C54.2885 34.7324 53.8904 34.6804 53.763 36.2519C53.292 41.9501 54.6554 42.9987 53.4793 42.5797C52.1862 42.1166 50.8254 42.2675 49.4906 42.1947C48.6294 42.1478 48.6164 42.1556 48.4707 41.3334C47.6901 36.918 48.1897 37.0273 47.8228 37.0611C47.2504 37.1131 48.1298 41.8538 48.1324 41.8798C48.1949 42.3039 47.6979 42.3404 47.599 41.9917C46.3449 37.4722 47.5028 34.238 47.1697 34.1183C46.4386 33.8556 46.4802 40.199 47.1203 41.8668C47.5548 43.0091 45.0596 43.1808 43.7742 42.5199C42.9494 42.0932 42.2365 41.4557 41.2972 41.2372C40.9902 41.1643 40.933 40.8703 40.8913 40.6023C40.5218 38.232 40.1784 37.1626 41.3727 35.1175C47.2504 25.0715 46.4308 30.5225 49.0379 28.2641C50.7812 26.7549 54.2053 27.2233 56.4091 27.8634C58.2174 28.3889 58.6077 27.3013 60.5539 27.3638C61.7404 27.4028 62.573 27.8972 63.0023 29.0602C63.5019 30.408 65.6901 36.6162 64.3735 36.0125C61.2382 34.5789 58.9538 41.4193 58.9798 41.4193L58.9824 41.4219ZM52.6415 41.2814C52.9616 41.3699 53.0604 41.5442 52.8237 39.6812C52.7924 39.4497 52.9902 39.0229 52.6519 39.0307C52.259 39.0386 52.5401 40.8989 52.6441 41.2814H52.6415ZM45.8349 39.5745C45.6866 39.7983 45.8271 41.6509 46.0067 41.8382C46.514 42.3794 46.1446 39.1036 45.8349 39.5745ZM61.2955 32.7341C61.2564 32.7263 61.2122 32.7055 61.1966 32.7185C61.155 32.7549 61.0899 32.8148 61.1003 32.8486C61.4776 34.2849 61.8159 33.2857 61.2955 32.7367V32.7341Z" fill="white"/>
<path fill-rule="evenodd" clip-rule="evenodd" d="M38.9656 11.5885C39.4132 10.8938 42.5745 9.15574 43.2978 8.75765C44.6846 7.99529 47.1382 6.01784 46.8312 5.74464C46.7063 5.63276 46.571 5.74204 46.4826 5.8357C44.7237 7.71428 42.3637 8.6978 40.2666 10.0664C36.7566 12.3587 31.3447 18.8296 33.5901 14.4012C35.1721 11.2867 37.9847 9.50439 41.1929 7.14967C44.081 5.03172 46.558 1.03779 51.8425 2.44542C54.5745 3.17395 56.4453 4.85479 57.5511 7.43588C57.7306 7.85218 57.715 8.06814 57.2466 8.2867C53.2683 10.1315 52.5242 12.6111 51.8997 12.2832C50.5389 11.5677 54.1868 8.81489 55.7167 8.04212C57.8893 6.94412 55.2276 7.29017 52.7167 9.6449C51.3871 10.8938 51.3976 11.6067 50.6248 11.1904C45.3273 8.33874 39.6213 12.7724 44.4375 8.8331C44.6716 8.64576 44.3464 8.52347 44.2579 8.59373C43.5034 9.20257 42.5329 9.55903 42.0515 10.4827C41.9813 10.6232 41.8928 10.7013 41.7627 10.7299C40.4643 11.0083 39.4574 11.7212 38.9656 11.5859V11.5885ZM48.408 4.80275C47.9604 5.15661 48.231 5.35435 48.5485 5.141C49.7167 4.35522 50.4401 4.34741 50.3126 4.08202C50.1643 3.77239 48.7644 4.55296 48.408 4.80275ZM52.1833 8.03432C52.0662 8.20084 51.7228 8.35175 51.9153 8.5651C52.0662 8.73423 52.2302 8.4194 52.3837 8.31532C52.4669 8.25808 52.5554 8.19824 52.6152 8.12018C52.8234 7.85999 53.4296 7.66484 53.2137 7.40205C53.0524 7.20431 52.7271 7.55036 52.1807 8.03432H52.1833Z" fill="white"/>
<path fill-rule="evenodd" clip-rule="evenodd" d="M49.3973 23.2968C49.5014 22.3419 50.2689 21.5249 51.0807 20.4582C51.1822 20.3281 51.0885 20.1329 50.8439 20.2656C50.6124 20.3879 48.804 22.459 48.2368 24.6706C48.242 24.6446 47.8882 24.5848 48.0495 24.1685C50.131 18.7695 50.8622 20.4425 52.621 17.8224C54.2524 15.3948 54.1744 14.9213 56.4849 13.9638C57.9732 13.3445 56.8179 14.7496 58.1163 15.5978C61.5144 17.8224 62.0478 15.5197 63.0001 16.9482C67.6158 23.8484 69.8613 21.2231 71.1284 26.6793C71.2117 27.0436 71.1024 27.1997 70.7121 27.041C68.9688 26.3359 68.6722 27.0722 68.6124 26.185C68.589 25.8363 68.5213 23.9733 68.17 23.9941C67.6939 24.0228 68.6618 26.7886 67.9801 26.8562C67.6158 26.8927 67.0824 22.3497 66.4424 22.6334C66.2108 22.7374 67.7537 26.7209 67.2177 27.1607C66.6739 26.5544 67.1137 24.7175 65.5135 21.6941C65.4146 21.5093 65.3184 21.1242 65.0816 21.2491C64.8318 21.3818 65.092 21.6628 65.1961 21.8476C65.4198 22.2379 66.6219 25.3706 66.1952 25.5189C66.1145 25.5475 65.0608 24.9699 65.2793 24.0228C65.4276 23.3775 64.9333 22.2223 64.5144 21.9725C64.3921 22.394 64.3739 21.8424 64.8396 23.5804C64.9099 23.8406 63.0599 24.5119 61.902 22.3367C60.536 19.7713 58.569 18.5952 55.6028 19.1364C51.8249 19.8259 53.6748 21.59 49.5508 24.8242C49.1917 25.1052 49.1683 24.8111 49.2672 24.5926C50.6306 21.5718 51.5022 21.4495 51.1536 21.1997C50.857 20.9889 49.3713 23.3046 49.3999 23.2942L49.3973 23.2968Z" fill="white"/>
<path fill-rule="evenodd" clip-rule="evenodd" d="M75.9911 20.9815C75.1923 19.8887 74.2634 18.9286 73.7326 17.6718C73.2955 16.6415 72.4759 16.0326 71.4143 15.6267C67.1498 13.9953 65.6069 16.2902 63.4603 14.128C60.7673 11.4195 62.279 10.2642 60.0778 9.25467C58.4542 8.51052 60.4811 7.85744 56.8202 4.18876C56.5756 3.94157 56.0032 3.68919 56.1724 3.43941C56.2348 3.34834 73.9226 12.3561 74.9165 15.6996C75.554 17.841 76.946 21.7334 75.9911 20.9763V20.9815ZM67.1056 13.4984C67.449 13.0222 68.3467 11.5522 68.227 10.8913C67.7274 11.2347 67.5661 12.429 66.5722 13.4984C66.403 13.6831 66.4733 14.0994 67.1056 13.4984ZM66.6164 12.2963C66.7153 11.8306 67.0847 11.4116 67.0926 10.8652C67.0978 10.285 65.7135 12.6371 66.6164 12.2963Z" fill="white"/>
<path fill-rule="evenodd" clip-rule="evenodd" d="M68.937 15.7828C70.1235 15.9051 71.9501 16.7403 72.2207 17.3101C73.173 19.3136 76.1912 21.8088 76.8468 24.3717C77.2553 25.9693 76.2744 24.481 74.1148 26.5833C73.303 27.3717 72.2987 27.3795 72.1062 27.1869C71.7939 26.8721 71.7653 25.5165 72.0775 25.1158C72.5693 24.4836 74.3958 21.9727 74.2293 21.187C73.6517 21.5955 71.8928 25.6518 71.3152 24.6839C70.8052 23.8253 71.8928 23.6796 72.7827 21.52C73.1469 20.6353 73.2276 20.37 73.0376 20.3127C72.676 20.2086 72.9232 21.1011 71.2814 23.219C71.1435 23.396 71.0004 23.7082 70.7428 23.4792C69.7124 22.5556 71.3386 22.2928 72.2805 19.8886C72.4574 19.4307 72.1504 19.3292 71.9501 19.7897C71.5988 20.6145 71.0576 21.3118 70.4644 21.9727C69.9726 22.5191 69.9648 22.5243 69.3976 22.1497C65.9865 19.8912 66.2102 19.9458 66.7853 19.402C67.3083 18.8973 67.5216 18.762 67.5086 18.4263C67.0168 18.4602 66.2987 19.683 65.9266 19.2095C65.5832 18.7724 67.6075 17.7706 67.2172 17.3882C67.0845 17.2581 67.0715 17.3648 65.7367 18.5096C65.3334 18.8556 64.8911 18.3353 65.2632 17.971C67.277 15.9988 66.9908 15.5824 68.9344 15.7854L68.937 15.7828Z" fill="white"/>
<path fill-rule="evenodd" clip-rule="evenodd" d="M50.8773 25.4644C50.3335 25.7714 50.6665 26.2762 49.4228 26.7966C49.2719 26.8616 49.1002 26.8018 49.2198 26.5468C49.9666 24.9362 51.7879 24.8321 53.5338 21.1973C54.2649 19.6752 57.304 19.951 58.7324 20.4193C61.5945 21.3612 59.5364 22.8079 63.7099 25.0611C64.9119 25.7116 66.2285 26.232 66.5433 27.7905C66.6006 28.0793 66.4757 28.2511 66.1895 27.9779C64.5997 26.4531 62.7393 25.2901 60.9388 24.0412C60.2936 23.5936 59.6691 23.5624 58.9692 23.9735C57.1426 25.0429 55.7376 23.6535 54.4679 25.7714C54.036 26.4896 54.0178 26.6821 52.7584 26.3907C51.7359 26.1513 53.8304 24.7827 54.5069 24.382C54.944 24.1244 54.7255 23.8694 54.3092 24.0932C53.1149 24.7307 52.1756 25.7038 51.6292 26.1123C51.2571 26.3907 50.7341 26.1747 51.2858 25.6543C53.5702 23.5078 55.108 22.8755 57.1348 22.3421C58.6544 21.9388 54.8868 21.4028 50.8799 25.4618L50.8773 25.4644ZM55.9484 21.7021C55.964 21.6266 55.9848 21.585 55.9718 21.5642C55.5971 21.0412 52.5555 23.552 55.9484 21.7021Z" fill="white"/>
<path fill-rule="evenodd" clip-rule="evenodd" d="M65.8746 33.3508C65.5545 33.0334 65.6144 32.4896 65.297 32.2138C64.597 31.6102 63.8815 29.2632 63.8737 29.232C63.2258 26.7966 61.1807 26.1722 58.7532 26.781C57.8607 27.0048 54.5719 27.2077 55.1105 26.193C56.0524 24.4341 57.0957 25.9276 59.4921 24.5798C60.1608 24.2051 61.2692 25.1366 62.1721 25.8209C65.3074 28.1938 64.7115 27.5538 65.3932 28.173C66.6083 29.2788 65.1252 29.8929 65.8095 31.3864C66.2779 32.4141 65.7081 33.3716 65.8746 33.3508ZM65.2293 30.9259C65.3984 30.5356 64.865 29.3205 64.5008 29.1097C64.3603 29.4298 64.8676 30.8192 65.2293 30.9259Z" fill="white"/>
<path fill-rule="evenodd" clip-rule="evenodd" d="M53.693 13.5241C52.4857 14.8042 52.4207 15.5354 52.1475 15.4053C51.739 15.2075 53.3366 12.1997 57.7624 9.60563C58.1839 9.35845 58.5612 9.18412 58.889 9.67588C59.1232 10.0271 59.8803 9.91786 59.7659 10.4408C59.706 10.7166 59.131 10.8858 58.798 11.1147C56.1284 12.9595 57.268 12.871 56.2637 13.2431C52.9827 14.4608 52.7641 16.9534 52.3322 16.649C52.2125 16.5631 52.3114 16.3914 52.3634 16.2769C53.922 12.8606 56.399 11.9994 56.131 11.6403C55.8708 11.2891 54.1093 13.0792 53.6956 13.5267L53.693 13.5241Z" fill="white"/>
<path fill-rule="evenodd" clip-rule="evenodd" d="M59.2396 13.6102C59.0418 13.3812 58.459 14.4168 58.165 13.9588C58.0011 13.7013 57.936 13.3942 58.2431 13.1444C59.9265 11.7706 60.0462 11.7498 59.9577 11.6483C59.7235 11.3882 59.6143 11.6171 57.8241 12.9649C57.4989 13.2095 57.1789 12.9233 57.5093 12.598C57.9855 12.1271 60.1346 10.298 60.3324 11.0941C60.8215 13.082 61.4928 13.1991 60.9594 13.5581C59.0965 14.8149 59.3306 15.6527 58.5293 15.0829C57.897 14.6327 59.518 13.9276 59.2422 13.6076L59.2396 13.6102Z" fill="white"/>
<path fill-rule="evenodd" clip-rule="evenodd" d="M58.1187 8.69249C58.3736 9.28312 54.7362 10.2016 52.5011 13.6127C51.8871 14.5546 51.8689 13.4774 52.2696 12.9622C53.979 10.7636 57.6945 7.71417 58.1187 8.69249Z" fill="white"/>
<path fill-rule="evenodd" clip-rule="evenodd" d="M64.0459 17.0214C63.5775 16.501 63.0389 15.2911 61.3061 15.8245C60.6192 16.0353 60.6556 15.6528 60.6504 15.7179C60.7363 15.4863 60.9184 15.3302 61.0875 15.1636C61.9227 14.3388 61.9149 14.3519 62.8516 14.9529C64.3867 15.939 65.097 15.8584 64.4674 16.4906C64.3945 16.5661 63.9834 17.0526 64.0459 17.0188V17.0214ZM62.4093 15.1767C62.5082 14.8644 62.339 14.8748 62.2323 14.9763C62.058 15.1454 62.2376 15.2963 62.4093 15.1767Z" fill="white"/>
<path fill-rule="evenodd" clip-rule="evenodd" d="M64.0225 17.0342C64.8629 16.9353 65.0997 15.944 65.516 15.9466C65.836 15.9466 66.2627 15.6968 66.4448 15.996C66.6088 16.2666 66.1925 16.48 66.0077 16.6933C64.1734 18.7957 64.2306 16.9249 64.0225 17.0368V17.0342Z" fill="white"/>
<path fill-rule="evenodd" clip-rule="evenodd" d="M60.6474 15.7517C60.2389 15.8323 59.7108 15.8583 59.5963 15.4863C59.4922 15.1428 60.9076 13.9746 61.2355 13.8237C61.5217 13.6936 61.7975 13.9616 61.5269 14.2322C59.7784 15.9936 60.6631 15.3718 60.6474 15.7517Z" fill="white"/>
<path fill-rule="evenodd" clip-rule="evenodd" d="M65.6124 35.8304C65.5786 35.8356 65.5005 35.7498 65.5031 35.7108C65.5447 35.2632 65.2195 34.8287 65.4927 34.376C65.4667 34.3786 65.9636 35.7862 65.6124 35.8304Z" fill="white"/>
<path fill-rule="evenodd" clip-rule="evenodd" d="M66.5853 33.749C67.0042 33.9806 66.731 34.5114 66.6295 34.3344C66.2652 33.7204 66.7934 33.7204 66.5853 33.749Z" fill="white"/>
<path fill-rule="evenodd" clip-rule="evenodd" d="M65.4926 34.376C65.2168 34.2329 65.3287 33.9233 65.222 33.71L65.2012 33.723C65.6955 33.9467 65.3989 34.3891 65.4926 34.3786V34.376Z" fill="white"/>
<path fill-rule="evenodd" clip-rule="evenodd" d="M65.9662 34.0351C65.9246 33.8088 65.7451 33.6032 65.8752 33.3508H65.8465C66.2394 33.6657 65.9376 33.9519 65.9662 34.0351Z" fill="white"/>
<path fill-rule="evenodd" clip-rule="evenodd" d="M48.843 23.9841C48.9159 24.723 48.8716 24.4394 48.882 24.468C48.8612 24.2052 48.8378 23.958 48.843 23.9841Z" fill="white"/>
<path fill-rule="evenodd" clip-rule="evenodd" d="M49.3711 23.3076C49.2905 23.6666 48.8325 23.9294 48.8429 23.9841C49.4804 23.1983 49.4102 23.2946 49.3711 23.3076Z" fill="white"/>
<path fill-rule="evenodd" clip-rule="evenodd" d="M48.8931 24.5021C48.6858 24.3131 48.7619 24.788 48.8826 24.4706L48.8931 24.5021Z" fill="white"/>
<path fill-rule="evenodd" clip-rule="evenodd" d="M48.2361 24.6734C47.9577 24.8451 47.9577 24.8425 48.2361 24.6682V24.6734Z" fill="white"/>
<path fill-rule="evenodd" clip-rule="evenodd" d="M48.3846 25.8885C48.0984 25.402 48.1972 25.5737 48.1946 25.5685C48.3716 25.8703 48.3794 25.9145 48.3846 25.8885Z" fill="white"/>
<path fill-rule="evenodd" clip-rule="evenodd" d="M48.3847 25.8939C47.9554 26.573 48.0491 26.5001 48.0465 26.4715C48.2364 25.9954 48.3873 25.8653 48.3847 25.8939Z" fill="white"/>
<path fill-rule="evenodd" clip-rule="evenodd" d="M58.7506 41.958C58.8053 41.8643 58.8911 41.4246 58.9614 41.4246C59.0473 41.6952 58.67 41.8253 58.7506 41.958Z" fill="white"/>
<path fill-rule="evenodd" clip-rule="evenodd" d="M48.1841 25.5425C48.4287 25.7376 48.2517 25.2224 48.1971 25.5685L48.1841 25.5425Z" fill="white"/>
<path fill-rule="evenodd" clip-rule="evenodd" d="M65.1827 32.8721C65.115 33.0776 65.2763 33.1921 65.357 33.3378L65.3882 33.3248C65.7031 32.8799 65.2139 32.9553 65.1827 32.8721Z" fill="white"/>
<path fill-rule="evenodd" clip-rule="evenodd" d="M46.7979 76.5894C46.8083 76.5634 46.9175 76.2225 46.9696 76.2537C47.0346 76.2876 47.1699 76.311 46.7979 76.5894Z" fill="white"/>
<path fill-rule="evenodd" clip-rule="evenodd" d="M66.2935 33.3274C66.4262 33.4419 66.6785 33.4731 66.5849 33.7489C66.6291 33.7437 66.2987 33.2858 66.2935 33.3274Z" fill="white"/>
<path fill-rule="evenodd" clip-rule="evenodd" d="M65.3574 33.3378C65.1362 33.879 65.2507 33.6917 65.2221 33.7073C65.4198 33.2467 65.3964 33.3196 65.3574 33.3378Z" fill="white"/>
<path fill-rule="evenodd" clip-rule="evenodd" d="M65.9556 34.0066C65.9921 34.051 66.0496 34.111 65.966 34.0353L65.9556 34.0066Z" fill="white"/>
<path fill-rule="evenodd" clip-rule="evenodd" d="M48.0439 26.4321C48.0802 26.4632 48.0802 26.4477 48.0465 26.4684V26.4321H48.0439Z" fill="white"/>
<path fill-rule="evenodd" clip-rule="evenodd" d="M58.7275 41.9189C58.845 41.9346 58.7484 41.8327 58.751 41.9554L58.7275 41.9189Z" fill="white"/>
<path fill-rule="evenodd" clip-rule="evenodd" d="M66.3459 33.3537C66.3905 33.2829 66.3722 33.275 66.2935 33.3275C66.2987 33.2829 66.2856 33.2829 66.3459 33.3537Z" fill="white"/>
<path fill-rule="evenodd" clip-rule="evenodd" d="M65.1966 32.9092C65.0681 32.8672 65.2176 32.7859 65.1389 32.8935C65.1074 32.9355 65.1625 32.9564 65.1835 32.8725L65.1966 32.9092Z" fill="white"/>
<path fill-rule="evenodd" clip-rule="evenodd" d="M2.71919 27.871C0.931683 26.133 -0.455133 25.2509 0.140703 23.2969C0.931683 20.7106 4.82153 15.2414 7.54053 14.6039C9.03402 14.2553 9.56221 13.6438 10.4 13.5762C14.8024 13.2301 13.9308 6.75135 20.2899 8.65595C24.5804 9.93869 29.4928 12.3793 30.4581 16.7323C30.6116 17.4192 30.6533 17.3905 31.348 17.1252C31.9464 16.8962 32.2664 16.5605 32.3133 15.8684C32.4668 13.5814 35.3133 10.4721 37.348 9.05404C47.2768 2.13557 46.6108 -3.76035 61.1424 5.12776C74.6333 13.3784 75.4035 11.5675 77.7894 22.8233C78.2187 24.858 78.2447 22.5501 83.0531 22.8624C87.5153 23.1512 88.4234 23.6742 89.7556 24.3585C91.5509 25.2821 92.8388 28.6126 92.6203 30.6369C92.5136 31.6204 93.0548 31.969 93.3878 32.5336C95.1493 35.5206 92.8206 36.1347 88.8241 38.8589C86.9039 40.1702 93.5283 37.8676 94.1476 41.4764C94.2855 42.27 93.8302 41.3307 94.1372 43.9248C94.5821 47.6871 92.6931 46.9014 87.4035 56.5362C85.1606 60.6238 83.7478 71.6845 71.6463 73.6646C68.7087 74.1459 67.4806 73.5995 65.8675 74.3671C61.4026 76.4955 59.524 76.4304 57.1927 76.0037C54.8432 75.5718 59.0817 76.8103 55.8892 97.956C53.1884 115.857 42.1537 139.73 42.3046 133.657C42.3124 133.248 41.5552 135.655 46.7929 124.41C57.7677 100.826 56.2977 75.2908 54.8952 75.6186C54.4971 75.7123 54.7625 76.0609 54.7885 76.2925C55.4911 82.4798 55.0045 93.8814 54.2474 93.655C53.6775 93.4911 55.387 90.5275 54.4295 76.4746C54.4165 76.2847 54.3254 75.4261 53.9481 75.5093C52.7539 75.7721 54.8484 73.204 54.1979 88.8857C54.1901 89.0705 54.1693 89.4477 53.995 89.3827C53.6463 89.2552 54.2812 74.989 53.0843 75.4703C52.7487 75.6082 53.4356 80.2916 53.3523 81.0332C53.3367 81.1919 53.0973 81.1685 53.0765 81.0644C52.6055 78.8658 52.8813 75.4235 52.2491 75.577C51.7417 75.7045 52.733 77.8537 52.1346 77.7704C51.9499 77.7444 51.9551 77.4165 51.7547 76.1676C51.6585 75.5718 51.0158 75.7799 51.0964 76.2665C52.7487 86.2656 50.7946 103.641 47.5344 112.449C43.6342 122.96 39.2291 130.907 38.5917 131.489C38.2586 131.796 37.8788 131.453 38.0349 131.089C38.217 130.667 42.06 124.235 44.5657 118.178C51.3722 101.737 51.5674 83.172 50.5162 77.0575C50.2144 75.3038 49.2543 78.4781 39.2396 78.7617C32.8493 78.9387 19.9542 64.1546 16.5067 56.3541C16.2075 55.6802 16.1008 54.9335 15.8406 54.2544C15.596 53.6169 13.0045 52.6464 11.1338 47.2578C9.90566 43.7192 7.76949 40.7244 6.58042 38.4842C4.20228 33.9959 9.21876 33.8762 2.71659 27.8684L2.71919 27.871ZM66.2942 33.3298C66.328 33.309 66.2135 33.1763 66.609 33.7487C66.4009 33.9543 66.5153 34.1494 66.6272 34.3368C66.7287 34.5163 67.0045 33.9855 66.583 33.7513C66.6767 33.4755 66.4269 33.4443 66.2916 33.3298H66.2942ZM65.1832 32.8745C65.1624 32.9578 65.1077 32.9369 65.1389 32.8953C65.217 32.7886 65.0687 32.8693 65.1962 32.9109C65.6931 32.9421 65.4434 33.1971 65.2222 33.7097C65.3289 33.9231 65.217 34.2327 65.4928 34.3758C65.2196 34.8285 65.5448 35.263 65.5032 35.7106C65.4902 35.8433 65.7634 35.9213 65.7244 35.6117C65.6697 35.1928 65.7166 34.7505 65.4668 34.3784C65.5396 34.0896 65.4954 33.8528 65.2014 33.7201C65.2534 33.5926 65.3055 33.4651 65.3575 33.3376C65.2768 33.1919 65.1155 33.0748 65.1832 32.8719V32.8745ZM58.7513 41.9578C58.746 41.6429 58.5249 42.7201 59.5526 40.1442C60.4711 37.8467 62.1311 34.9898 64.374 36.015C65.6905 36.6186 63.4997 30.4105 63.0028 29.0627C62.5735 27.8997 61.7408 27.4053 60.5544 27.3663C58.6107 27.3064 58.2179 28.3914 56.4095 27.8658C54.2057 27.2258 50.7816 26.7574 49.0383 28.2665C46.5119 30.4521 47.217 25.1338 41.3731 35.1199C40.1762 37.165 40.5223 38.2344 40.8918 40.6048C40.9334 40.8728 40.9906 41.1668 41.2977 41.2396C42.2369 41.4582 42.9499 42.0956 43.7747 42.5224C45.0782 43.1937 47.5474 42.9907 47.1207 41.8693C46.4078 40.0193 46.4885 33.8762 47.1702 34.1208C47.472 34.2301 46.4 37.6672 47.5995 41.9942C47.6984 42.3428 48.1953 42.3064 48.1329 41.8823C48.1277 41.8537 47.2456 37.1156 47.8232 37.0636C48.1849 37.0297 47.6983 36.9621 48.4711 41.3359C48.6168 42.1581 48.6298 42.1503 49.4911 42.1971C50.8258 42.27 52.1866 42.1191 53.4798 42.5822C54.6402 42.9959 53.2977 41.8953 53.7634 36.2544C53.779 36.054 53.8883 34.943 54.1355 34.956C54.5466 34.9794 53.0114 42.6707 55.5197 43.6672C56.1624 43.9222 56.0062 44.2006 56.1858 40.2093C56.2092 39.6915 56.1806 39.3637 56.3939 39.4339C56.8493 39.5744 56.0947 44.0783 56.7062 44.6533C57.7677 45.6551 57.2578 33.6993 57.544 33.6316C58.4833 33.4105 57.3957 45.8528 57.4087 45.897C58.2361 45.5744 58.72 36.8164 58.975 36.8216C59.3783 36.8294 58.9386 41.6429 58.7513 41.9578ZM48.0496 26.4712C48.0834 26.4504 48.0834 26.4634 48.047 26.4348C48.4581 25.7843 48.4347 25.9768 48.1979 25.5709C48.2526 25.2249 48.4243 25.7375 48.1849 25.5449C48.5127 26.0991 48.3801 25.6412 48.0496 26.4738V26.4712ZM48.8822 24.4677C48.7651 24.7826 48.6871 24.3142 48.8926 24.499C48.877 24.3272 48.8588 24.1555 48.8406 23.9838C49.7539 22.8988 50.8206 20.9656 51.1511 21.1997C51.3644 21.3533 48.7495 24.59 49.3011 24.9569C49.3974 25.0219 51.6819 23.3281 52.4598 21.4651C53.7244 18.4495 59.3861 17.7288 61.655 21.9023C62.3497 23.1772 62.9481 24.1035 64.4885 23.8173C65.0427 23.7132 64.9152 23.9786 64.4416 22.2353C64.4208 22.1598 64.4859 22.061 64.5119 21.9725C64.5925 22.0219 64.7096 22.048 64.746 22.1208C66.0132 24.6863 64.4312 24.1009 65.9377 25.3914C66.9186 26.2266 65.5734 22.5137 65.1936 21.8502C64.348 20.3749 66.315 21.4833 66.9264 26.3541C67.0487 27.3402 67.4338 27.3272 67.3193 26.6715C66.635 22.7505 66.1277 22.7739 66.4399 22.6334C67.0852 22.3472 67.6446 26.8901 67.9776 26.8563C68.3523 26.8199 68.2586 26.7262 68.0349 24.2908C67.9984 23.8771 68.2664 23.9239 68.3497 24.1919C68.8388 25.7583 68.2794 26.7288 69.0522 26.6898C70.3922 26.6221 71.3497 27.6447 71.1259 26.6794C70.0123 21.8944 67.8527 22.93 65.6957 20.2839C62.6281 16.5137 62.6853 16.2587 61.8866 16.4851C59.8414 17.0679 57.4035 15.5276 57.4087 14.492C57.4113 13.8129 57.1537 13.6828 56.4824 13.9612C55.4442 14.3906 54.4477 14.8849 53.8493 15.9439C50.7478 21.4209 50.4668 17.8849 48.0444 24.1659C47.9663 24.3689 47.9872 24.5692 48.2317 24.6603C47.9507 24.8346 47.9507 24.8372 48.2317 24.6655C48.799 22.4565 50.6177 20.3749 50.8389 20.2605C51.086 20.1252 51.1745 20.3255 51.0756 20.453C50.3991 21.3428 49.4989 22.316 49.3922 23.2917C48.7209 24.1217 48.8276 23.8485 48.877 24.4625L48.8822 24.4677ZM66.0106 34.074C65.8857 33.9179 66.263 33.6837 65.8466 33.3532C65.9741 32.6924 66.1094 32.0471 65.8102 31.3862C65.1259 29.8927 66.609 29.2761 65.3939 28.1728C64.7799 27.616 65.1181 28.0532 62.1728 25.8207C61.4442 25.2691 60.1823 24.1945 59.4928 24.5796C57.1589 25.8936 56.0323 24.4703 55.1112 26.1928C54.5674 27.2153 57.8796 26.9994 58.7539 26.7808C64.361 25.3732 63.5752 30.7253 65.295 32.211C65.6151 32.4868 65.5552 33.0332 65.8753 33.3506C65.714 33.6629 66.0444 34.1052 66.0106 34.074ZM60.6506 15.7513C61.132 16.2483 62.6229 14.8069 63.851 16.7999C64.4911 17.8199 64.6472 18.2518 66.008 16.6906C66.1927 16.4773 66.609 16.2639 66.4451 15.9933C66.263 15.6967 65.8362 15.9439 65.5162 15.9439C65.0947 15.9439 64.8683 16.9326 64.0227 17.0315C64.6055 16.316 65.0192 16.0766 64.3297 15.7722C61.9438 14.7236 62.3653 13.9014 61.0878 15.1633C60.9186 15.3298 60.7365 15.486 60.6506 15.7175C59.8675 15.1607 61.9594 14.3437 61.5925 13.8858C61.2022 13.3992 58.0722 16.2665 60.648 15.754L60.6506 15.7513ZM84.1433 44.3879C82.72 38.2787 79.923 35.2839 77.7009 28.2171C76.0383 22.9326 75.1797 30.1659 69.9785 27.7331C68.0739 26.8407 66.0704 29.5961 67.0045 31.6126C67.9334 33.6212 68.3289 35.8537 66.3098 36.7461C64.1736 37.6906 63.7703 35.6872 62.485 37.1911C61.4885 38.3567 59.9559 41.3489 59.4043 43.7947C58.6394 47.2084 57.6194 47.224 58.5457 49.061C63.2708 58.4252 62.5969 54.6889 62.4746 61.8545C62.3783 67.6386 57.4763 70.2613 53.5292 73.5215C52.1762 74.6403 53.7816 75.5249 60.0548 68.7652C60.3436 68.453 60.4763 68.7392 60.2916 68.9707C58.72 70.9482 56.7998 72.6759 54.825 73.9976C54.2526 74.3801 54.6532 76.0141 60.4061 70.3341C67.5275 63.3012 68.459 59.1954 68.9559 59.5987C69.1849 59.7886 66.8744 63.4105 66.7027 63.6472C60.6897 71.9681 54.9785 74.9187 56.4668 74.7262C59.0271 74.3957 71.9741 66.4417 75.851 51.6082C76.3323 49.7609 76.1034 49.6802 76.4026 48.1113C76.4312 47.9499 76.7174 47.9057 76.6888 48.1685C74.3757 67.0323 58.0982 74.1511 57.6845 74.8927C58.5431 75.3558 64.8033 71.6065 70.7799 64.3914C74.7322 59.6221 74.5214 58.5761 74.9585 58.8806C75.2265 59.0679 71.1311 66.8788 59.4512 74.9317C68.1103 73.8675 86.9767 56.5779 84.1433 44.3827V44.3879ZM40.5717 77.4321C42.1745 77.2942 42.2942 77.3879 42.4087 76.8805C43.2491 73.1078 42.8302 75.9439 44.217 69.2049C44.243 69.0826 44.2768 68.8979 44.4486 68.9265C44.6229 68.9577 44.5526 69.1321 44.537 69.2517C43.6368 76.2509 41.8493 77.3255 43.4546 77.1511C44.3211 77.0575 45.1927 76.9794 46.0279 76.675C46.9568 76.3367 46.72 76.8051 46.9256 76.433C46.9568 76.3784 47.1624 76.3576 46.9724 76.2535C46.9204 76.2223 46.8111 76.5631 46.8007 76.5891C46.5743 76.1676 46.629 75.8034 46.9282 75.3949C50.8701 70.0167 51.4243 63.5614 51.5804 65.4296C51.596 65.6455 50.7608 70.4981 48.034 74.4556C46.8944 76.1078 49.1268 73.9846 49.962 72.2492C51.6428 68.747 51.5179 68.8276 51.7235 68.9109C51.9369 68.9968 51.7469 69.2517 51.5674 69.7227C49.6003 74.799 47.7062 75.4183 47.9768 75.7851C48.3228 76.2483 51.1303 74.224 51.7313 73.6256C58.7044 66.6993 61.8449 67.394 61.7799 57.629C61.7721 56.4322 61.3974 56.4139 59.4694 52.3394C58.2413 49.7505 57.7469 50.4738 56.524 46.917C55.9724 45.3064 55.2803 44.6715 54.2812 44.2761C52.8449 43.7088 49.7747 42.244 46.5015 43.9014C44.4772 44.9265 40.5405 40.5345 38.6567 43.2509C38.0167 44.172 37.9334 44.7314 37.4624 44.6559C37.0227 44.5857 37.0383 44.0549 36.9915 43.446C36.812 41.1043 36.6194 40.4799 37.0644 39.3506C37.5795 38.0341 36.6923 37.3758 36.0054 35.8329C35.2847 34.2119 34.6706 34.7661 29.6125 31.2223C27.3488 29.6351 23.4954 32.414 21.3488 34.1754C17.2118 37.5709 16.1528 50.6013 16.9438 53.4998C19.4078 62.5414 29.2977 72.1112 32.2482 73.9846C31.5379 72.9022 30.9239 72.041 30.3853 71.1329C25.1997 62.4191 26.2534 52.7401 26.8935 52.6672C27.4659 52.5995 24.6272 63.0904 32.2743 73.204C37.3922 79.9898 28.5405 68.8094 28.0878 57.7904C28.0644 57.1789 28.0722 56.8797 28.2413 56.8849C28.4182 56.8875 28.3974 57.1945 28.426 57.5952C28.8475 63.4729 30.5232 67.2119 32.4538 71.6065C33.6246 74.2708 35.1702 76.9014 38.0063 77.4087C39.5648 77.6897 40.8241 77.4217 40.5769 77.4296L40.5717 77.4321ZM11.5136 37.8624C18.2968 39.4261 16.5327 42.3038 17.805 38.2448C18.1667 37.0896 18.328 36.9595 16.7461 36.0436C14.5995 34.8103 12.8016 34.5475 10.6108 34.4018C10.322 34.381 10.3454 34.061 10.577 34.0349C12.3749 33.8476 15.6689 34.5527 17.9351 36.4573C18.0652 36.564 18.1797 36.8554 18.3931 36.5718C18.5388 36.3819 18.4633 36.1659 18.289 36.0384C13.1841 32.2344 7.9126 33.5978 7.84495 33.041C7.7799 32.3801 14.688 32.6169 18.4321 35.6637C18.5934 35.7938 18.8458 35.721 18.6715 35.4426C18.3957 35.0055 17.3159 34.3524 17.0349 34.1494C16.6602 33.8814 16.9204 33.6316 17.217 33.8294C19.0696 35.0653 18.9707 35.5206 19.4156 34.8597C21.1719 32.2292 22.2075 32.8251 21.4763 31.7921C18.8198 28.0297 15.5648 26.3827 15.8146 26.0289C16.0982 25.6282 19.8814 28.8337 21.864 31.6048C22.3532 32.2865 23.0713 31.7661 22.7669 31.0323C22.6056 30.6447 20.0401 27.2804 17.7686 25.4929C11.7972 20.8016 10.5275 21.9179 10.59 21.4079C10.6862 20.5961 16.8892 22.8285 22.158 29.4764C22.2803 29.6299 22.3584 30.0072 22.6498 29.8173C23.6229 29.1824 18.2734 24.5198 17.2378 23.7522C15.5648 22.5111 17.9143 22.9352 22.1034 27.7305C22.2777 27.9335 22.4234 28.381 22.7409 28.2171C24.0678 27.525 20.8259 23.7496 21.2266 23.6013C21.838 23.3775 22.9464 26.4738 23.2508 26.3333C24.1017 25.9378 21.7287 21.2284 18.6116 18.6993C17.5371 17.8225 18.0782 17.7236 18.4451 18.0202C23.1728 21.832 23.2404 25.074 23.7842 24.8346C24.7261 24.4235 18.864 17.4452 20.3081 18.3428C20.6854 18.577 22.7981 21.512 23.5761 22.982C23.753 23.3177 23.8024 23.9031 24.1927 23.8927C24.5856 23.8823 25.0852 22.1963 25.7357 21.5796C26.0999 21.2336 25.7747 20.4426 26.5709 20.4088C27.0418 20.3879 25.72 18.3246 26.9013 19.6594C28.0722 20.9786 26.1103 16.5866 23.6411 14.1564C22.9568 13.4773 24.4607 13.3056 27.4425 18.9153C27.6819 19.3576 27.9655 19.1624 27.838 18.7539C27.289 17.0133 27.3488 17.6169 27.4139 17.1512C28.145 17.5831 27.8796 18.5666 28.3922 18.6499C28.8111 18.7175 29.1442 18.1373 29.5709 17.9369C30.6429 17.4322 28.8163 14.4244 27.5752 13.2899C24.9525 10.891 20.1312 9.02802 18.0106 9.15552C14.6177 9.36107 14.6359 13.2821 11.6906 14.0289C5.48242 15.6056 4.93862 16.8676 1.54573 22.2379C0.575222 23.7756 0.557009 24.2023 5.03749 28.6594C7.92301 31.5293 6.89786 33.9621 6.77557 35.2006C6.65328 36.4417 8.07912 38.7548 8.21962 38.976C10.9074 43.2301 11.0167 44.7236 11.9039 46.8363C13.0488 49.5423 15.1069 52.2613 15.4841 52.1026C15.8016 51.9673 15.3358 50.8355 15.8536 47.8198C16.1684 45.9881 16.322 44.1303 16.7825 42.3194C17.1338 40.9404 14.1936 40.6074 14.4694 40.1026C14.688 39.7019 16.6706 41.2604 16.871 40.9612C16.9646 40.8207 16.8111 40.7349 16.7096 40.6594C13.5457 38.3489 11.8701 38.6715 11.5162 37.8571L11.5136 37.8624ZM34.949 30.4261C34.4807 31.6464 33.4815 32.3983 34.5821 32.7912C35.4876 33.1165 35.217 33.1139 36.2812 31.1911C37.8293 28.3966 42.3827 25.956 38.7582 28.9456C37.5353 29.9552 34.949 32.9057 36.2318 33.9907C37.6498 35.1876 38.5448 37.4408 37.8215 39.7669C37.5327 40.6984 37.5483 42.7409 38.1363 42.0983C39.2187 40.9196 40.0097 41.5727 39.8172 40.6308C39.263 37.9274 39.4919 35.5076 41.1025 33.0592C41.4642 32.5102 44.6515 27.8892 46.1736 27.806C46.6186 27.7826 46.4885 27.4105 46.4546 26.9031C46.1242 22.1468 49.2153 20.0289 49.9308 18.9959C52.1372 15.8138 50.4564 16.2899 50.9169 14.5779C51.2057 13.5059 51.6533 12.6941 50.4954 11.9916C48.8458 10.9925 47.0531 10.9664 45.2343 11.0835C36.8796 11.6221 36.7027 15.7566 31.0149 18.2882C23.5709 21.6004 23.6359 31.0349 24.544 30.6525C26.2899 29.9213 26.1832 29.8407 26.3549 29.3489C29.0947 21.4339 34.4937 19.5267 34.5978 19.891C34.7643 20.5024 30.0288 20.669 26.8649 29.1512C26.805 29.3125 26.6229 29.5597 26.9091 29.6559C27.9915 30.0228 27.3801 27.6186 30.1667 24.6447C33.3462 21.2414 26.9221 28.969 28.2075 29.5701C28.6394 29.7704 28.603 29.466 29.3315 28.2093C29.5579 27.819 29.8285 28.0037 29.6307 28.368C29.0999 29.3463 28.9568 29.5102 29.1416 29.7444C29.446 30.1321 30.3749 30.9205 30.6455 30.3793C35.7842 20.0315 43.2023 21.5172 40.9958 21.7696C33.3514 22.6828 28.8996 34.8676 31.8996 29.9447C33.8146 26.8042 35.6827 26.5389 34.3428 27.6395C33.3228 28.4747 32.6021 29.5467 31.9464 30.6655C31.5197 31.3992 31.5431 31.4591 32.1337 31.7609C33.4035 32.4036 32.9794 31.1572 34.0149 30.1659C34.1372 30.0462 34.2439 29.747 34.4599 29.9291C34.6082 30.054 34.4104 30.2284 34.3063 30.348C34.0331 30.6603 33.1771 32.0861 33.5284 32.1954C33.8614 32.2969 33.8016 31.087 34.9464 30.4339L34.949 30.4261ZM69.8328 72.0852C77.243 69.0748 84.674 53.8719 85.2699 54.3767C85.5977 54.6577 78.2525 66.4625 73.1814 70.4877C71.3913 71.9109 70.9568 71.9707 70.9906 72.1138C71.0609 72.3975 73.8319 71.7444 73.8917 71.7288C84.4373 68.9525 83.7243 58.3263 89.6021 50.3619C91.5977 47.6559 93.8458 46.5059 93.0678 43.6672C92.9299 43.1676 92.9637 42.6707 93.1276 42.1737C93.4633 41.1486 92.8701 40.1312 91.8189 40.1234C90.3852 40.113 88.9308 39.8086 87.5179 40.4044C86.2534 40.9378 86.0192 39.1841 89.0453 37.3862C96.5205 32.9526 90.9785 34.048 91.5275 29.8016C92.3601 23.4062 81.9238 22.4435 78.1433 24.6915C77.2586 25.2197 77.9819 25.5137 78.3046 27.1347C78.341 27.322 78.4347 27.4599 78.6428 27.3506C79.6576 26.8121 78.1094 28.3446 78.7807 28.649C78.9577 28.7297 78.9473 28.6074 80.0062 27.5094C80.1754 27.3376 80.4407 27.4911 80.2326 27.7305C78.5518 29.6533 79.1658 29.8173 79.4494 29.5519C80.0635 28.9794 80.2118 28.5579 81.609 27.5328C83.8987 25.8546 86.5604 25.8155 84.1745 26.6559C81.6897 27.5328 79.8137 29.5727 79.5067 30.283C79.3401 30.6655 79.5977 30.9517 79.8813 30.5458C81.3202 28.4981 81.635 29.1486 81.2655 29.4426C80.8753 29.7496 79.5405 31.2223 79.9516 32.0887C83.55 39.6421 80.6021 36.028 87.9316 32.989C88.0539 32.9395 88.1944 33.1009 88.0695 33.2023C88.0409 33.2258 82.1294 36.7253 82.5665 37.3394C82.949 37.878 85.2387 34.7166 89.5786 33.4833C89.9221 33.3897 90.0392 33.6551 89.7217 33.7826C87.5335 34.649 85.1502 35.9656 83.3445 37.5475C82.426 38.3515 83.2742 38.453 84.6532 43.0974C85.9178 47.3619 84.3488 50.8719 85.2907 49.623C88.3922 45.5172 88.772 46.1234 88.5509 46.459C88.3089 46.8207 87.8302 46.5085 84.674 51.2986C84.0704 52.2171 83.7191 53.695 84.5518 52.4044C87.4867 47.8875 90.2395 46.8051 89.5786 47.4582C81.6506 55.3524 85.0019 54.4183 76.5431 64.9898C72.5856 69.9387 68.446 72.6576 69.825 72.0826L69.8328 72.0852ZM38.9664 11.5883C39.4581 11.7236 40.4624 11.0081 41.7634 10.7323C41.8935 10.7036 41.9794 10.623 42.0522 10.4851C42.531 9.56141 43.5041 9.20235 44.2586 8.5961C44.3497 8.52325 44.6697 8.65074 44.4382 8.83548C39.6168 12.7774 45.354 8.35673 50.6255 11.1928C51.3983 11.6091 51.3827 10.8988 52.7174 9.64728C55.2465 7.27434 57.8692 6.9543 55.7174 8.0445C54.2734 8.77303 50.5318 11.5675 51.9004 12.2856C52.5301 12.6161 53.256 10.139 57.2473 8.28908C57.7157 8.07052 57.7313 7.85716 57.5518 7.43826C56.446 4.85716 54.5752 3.17633 51.8432 2.4478C46.5561 1.03757 44.0791 5.03409 41.1936 7.15205C37.8996 9.56662 35.152 11.3307 33.5908 14.4036C31.3506 18.8216 36.7027 12.3975 40.2673 10.0688C42.3644 8.69758 44.7244 7.71666 46.4833 5.83808C46.5717 5.74441 46.707 5.63513 46.8319 5.74702C47.1363 6.01762 44.7374 7.96905 43.2985 8.76003C42.5726 9.15812 39.4139 10.8962 38.9664 11.5909V11.5883ZM76.2959 20.7262C75.1797 13.1416 73.5613 13.329 60.2317 5.52325C59.8441 5.29689 56.3887 3.1269 56.1728 3.44173C55.91 3.82681 58.9308 5.3177 59.2716 8.19541C59.4408 9.63166 61.2153 9.01761 61.6472 11.2032C61.988 12.9257 63.9447 15.4105 66.2708 15.1009C68.8909 14.7522 72.7079 15.2492 73.733 17.6716C73.9802 18.257 76.5431 22.3446 76.2985 20.7262H76.2959ZM65.2664 17.9682C64.8943 18.3324 65.3367 18.8528 65.74 18.5068C67.0774 17.3593 67.0878 17.2553 67.2205 17.3853C67.6107 17.7704 65.5839 18.7696 65.9299 19.2067C66.3046 19.6854 67.0045 18.4573 67.5119 18.4235C67.5249 18.7383 67.3636 18.8502 66.7885 19.3992C66.2161 19.9404 65.9533 19.8676 69.4009 22.1468C69.9681 22.5215 69.9759 22.5163 70.4676 21.9699C71.0609 21.309 71.6021 20.6117 71.9533 19.7869C72.1511 19.329 72.4581 19.4304 72.2838 19.8858C71.3341 22.3082 69.7079 22.5449 70.746 23.4764C71.0036 23.7054 71.1467 23.3931 71.2846 23.2162C72.9264 21.0983 72.6793 20.2058 73.0409 20.3099C73.2907 20.3827 73.0175 20.9552 72.7859 21.5172C71.8987 23.6742 70.8085 23.8225 71.3185 24.6811C71.8935 25.6464 73.668 21.5848 74.2326 21.1841C74.3991 21.9725 72.5726 24.4807 72.0808 25.113C71.7686 25.5137 71.7972 26.8693 72.1094 27.1841C72.2994 27.3767 73.3037 27.3715 74.1181 26.5805C76.2959 24.4599 77.2586 25.9716 76.8501 24.3689C76.1944 21.806 73.1736 19.3082 72.2239 17.3073C71.995 16.8285 70.3792 15.9283 68.9403 15.78C66.9681 15.577 67.2101 16.0662 65.269 17.9656L65.2664 17.9682ZM50.8779 25.4617C54.8874 21.4027 58.6524 21.9413 57.1329 22.342C55.1528 22.8624 53.5995 23.4764 51.2838 25.6542C50.727 26.1798 51.2656 26.3827 51.6272 26.1121C52.158 25.714 53.1181 24.7279 54.3072 24.0931C54.7235 23.8719 54.9447 24.1243 54.5049 24.3819C53.7946 24.8008 51.7365 26.1512 52.7565 26.3905C54.0184 26.6846 54.0366 26.4868 54.4659 25.7713C55.7382 23.6481 57.1563 25.0323 58.9672 23.9734C59.6697 23.5623 60.2942 23.5935 60.9369 24.041C62.7348 25.2899 64.5977 26.453 66.1875 27.9777C66.4737 28.2535 66.5986 28.0766 66.5414 27.7904C66.2291 26.2526 64.949 25.7323 63.7079 25.061C59.5318 22.8051 61.6029 21.3637 58.7304 20.4192C57.3072 19.9508 54.2682 19.6646 53.5318 21.1971C51.7807 24.8424 49.9646 24.9283 49.2179 26.5467C49.1034 26.7912 49.2621 26.8641 49.4208 26.7964C50.7036 26.2631 50.3159 25.7817 50.8753 25.4643L50.8779 25.4617ZM55.4234 12.3767C51.8614 15.4261 51.9837 17.7496 52.7955 16.2171C54.2317 13.4929 56.4876 13.4383 56.8336 12.845C57.6194 11.4946 59.6905 10.7973 59.7686 10.4357C59.8831 9.91527 59.1285 10.022 58.8918 9.67069C58.5639 9.17893 58.1866 9.35326 57.7651 9.60044C51.6923 13.1599 51.6923 16.4981 52.4468 15.1893C54.1615 12.1919 57.622 10.4981 55.4234 12.3767ZM58.5301 15.0827C59.3289 15.6525 59.1129 14.8043 60.9603 13.5579C61.4911 13.2015 60.8172 13.0558 60.3332 11.0939C60.1381 10.3056 58.0123 12.1009 57.5101 12.5978C57.1797 12.9231 57.4997 13.2093 57.825 12.9647C59.6203 11.6117 59.7244 11.3853 59.9585 11.6481C60.0496 11.7522 59.9273 11.7678 58.2439 13.1442C57.9395 13.394 58.0019 13.701 58.1658 13.9586C58.4572 14.414 59.0427 13.3784 59.2404 13.61C59.524 13.9352 57.8874 14.6299 58.5275 15.0853L58.5301 15.0827ZM52.0019 13.8181C52.0019 14.8225 52.7851 12.1347 56.8675 9.69671C58.0123 9.01241 58.2621 9.02282 58.119 8.69238C57.6715 7.65682 52.0149 12.1035 52.0019 13.8181Z" fill="#BC90CC"/>
<path fill-rule="evenodd" clip-rule="evenodd" d="M54.1871 95.0863C54.0648 99.4991 51.7387 109.496 49.6104 114.741C49.2669 115.587 48.9391 115.363 49.2149 114.681C53.8411 103.238 53.2192 94.363 54.1897 95.0889L54.1871 95.0863Z" fill="#BC90CC"/>
<path fill-rule="evenodd" clip-rule="evenodd" d="M49.2849 116.396C49.8495 116.997 43.7975 129.236 43.2485 130.199C43.0793 130.498 42.7333 130.42 42.9388 129.996C49.4956 116.193 48.8191 116.185 49.2849 116.396Z" fill="#BC90CC"/>
<path fill-rule="evenodd" clip-rule="evenodd" d="M53.4821 90.8841C53.8411 94.9665 51.5072 101.718 52.8056 94.4487C53.3546 91.3837 52.9383 90.689 53.4821 90.8841Z" fill="#BC90CC"/>
<path fill-rule="evenodd" clip-rule="evenodd" d="M53.2867 86.5469C53.2711 86.9528 52.9121 86.9268 52.9121 86.5261C52.8938 79.5192 53.4559 82.1445 53.2867 86.5469Z" fill="#BC90CC"/>
<path fill-rule="evenodd" clip-rule="evenodd" d="M41.1936 59.5727C41.0844 57.6134 40.9491 57.3585 41.191 57.3402C41.982 57.2778 42.0158 76.6542 40.5718 77.4322C40.6004 77.4322 41.727 69.1087 41.1962 59.5727H41.1936Z" fill="#BC90CC"/>
<path fill-rule="evenodd" clip-rule="evenodd" d="M35.6538 74.5078C34.8394 74.461 30.9573 65.6197 30.7362 61.7247C30.7179 61.4437 31.012 61.4437 31.0614 61.7169C32.6277 70.1418 36.1585 74.1904 35.6538 74.5078Z" fill="#BC90CC"/>
<path fill-rule="evenodd" clip-rule="evenodd" d="M52.969 71.0943C51.6863 71.5886 57.0957 64.0015 57.231 60.2703C57.3168 58.0145 59.8875 58.9382 52.969 71.0943Z" fill="#BC90CC"/>
<path fill-rule="evenodd" clip-rule="evenodd" d="M43.5352 65.2684C43.8838 65.5208 42.9575 73.4878 41.7867 76.6543C41.7424 76.7844 41.425 76.8 41.4666 76.5633C41.6358 75.5381 42.8509 71.7497 43.1995 66.2181C43.2437 65.5312 43.2854 65.2007 43.5352 65.271V65.2684Z" fill="#BC90CC"/>
<path fill-rule="evenodd" clip-rule="evenodd" d="M56.5783 66.4679C56.0449 66.3248 57.757 64.3344 58.5011 60.0698C58.9044 57.7619 58.4335 56.8487 58.7639 56.8122C60.0258 56.6717 57.5644 66.7359 56.5783 66.4679Z" fill="#BC90CC"/>
<path fill-rule="evenodd" clip-rule="evenodd" d="M23.5734 64.6753C22.8917 64.7716 20.0687 55.7195 20.6619 54.6501C21.4113 54.9988 20.4824 56.8383 23.4017 63.8453C23.7244 64.6207 23.6307 64.5244 23.5734 64.6753Z" fill="#BC90CC"/>
<path fill-rule="evenodd" clip-rule="evenodd" d="M39.4633 76.4774C38.8753 76.4513 40.093 75.0177 39.8172 69.3507C39.8042 69.0723 39.6585 68.5702 39.9291 68.5519C40.5717 68.5077 40.2023 76.5008 39.4633 76.4774Z" fill="#BC90CC"/>
<path fill-rule="evenodd" clip-rule="evenodd" d="M39.127 76.1391C38.2241 76.4696 39.3586 74.1591 38.591 68.4479C38.5156 67.8833 39.5121 67.1053 39.1868 75.8633C39.1842 75.9596 39.1452 76.0533 39.127 76.1391Z" fill="#BC90CC"/>
<path fill-rule="evenodd" clip-rule="evenodd" d="M37.8574 52.1625C37.501 52.1001 37.8652 45.3377 38.2035 45.2102C38.4455 45.14 38.2061 52.2224 37.8574 52.1625Z" fill="#BC90CC"/>
<path fill-rule="evenodd" clip-rule="evenodd" d="M48.6373 70.6595C47.8515 71.0264 48.6737 70.0663 49.6364 65.297C49.7483 64.7402 50.0892 64.6075 49.9851 65.271C49.7405 66.8451 49.1551 69.4418 48.6373 70.6595Z" fill="#BC90CC"/>
<path fill-rule="evenodd" clip-rule="evenodd" d="M37.3473 50.3777C37.0975 50.4922 37.0116 50.3361 37.0168 50.0577C37.1859 42.5902 37.6829 49.1652 37.3473 50.3777Z" fill="#BC90CC"/>
<path fill-rule="evenodd" clip-rule="evenodd" d="M35.4585 71.037C34.9876 71.1332 34.3059 68.7577 34.1836 68.3258C34.1134 68.089 34.3787 68.0135 34.4464 68.1775C35.7187 71.2295 35.5158 70.7273 35.4611 71.037H35.4585Z" fill="#BC90CC"/>
<path fill-rule="evenodd" clip-rule="evenodd" d="M45.9468 75.119C45.7543 75.4104 45.4655 75.2829 45.6008 75.0201C46.7066 72.8397 46.6181 72.8502 46.8081 72.9386C47.1359 73.0843 45.9625 75.093 45.9468 75.1216V75.119Z" fill="#BC90CC"/>
<path fill-rule="evenodd" clip-rule="evenodd" d="M44.5052 75.0178C43.9614 75.2884 44.5494 73.3734 44.7472 73.0065C45.0802 72.3769 44.8487 74.5521 44.5052 75.0178Z" fill="#BC90CC"/>
<path fill-rule="evenodd" clip-rule="evenodd" d="M39.6868 65.1175C39.7857 65.6509 40.0797 67.1964 39.6322 66.8738C39.4917 66.7723 39.2939 64.9978 39.4735 65.0342C39.5333 65.0499 39.5906 65.0785 39.6894 65.1175H39.6868Z" fill="#BC90CC"/>
<path fill-rule="evenodd" clip-rule="evenodd" d="M38.7996 44.7758C38.8412 44.7784 39.0468 44.7342 39.039 44.9657C39.0286 45.2728 39.1951 45.598 38.9323 45.879C38.7528 46.0741 38.5784 45.0646 38.7996 44.7732V44.7758Z" fill="#BC90CC"/>
<path fill-rule="evenodd" clip-rule="evenodd" d="M39.6637 44.1565C39.877 44.3516 39.5934 45.3326 39.4321 44.9319C39.3228 44.6561 39.3202 44.2033 39.6637 44.1565Z" fill="#BC90CC"/>
<path fill-rule="evenodd" clip-rule="evenodd" d="M62.6929 73.9898C61.1864 73.3861 65.1049 72.9022 71.758 65.2942C72.3304 64.6411 72.4241 64.4772 72.5308 64.6541C72.6088 64.7842 72.5724 64.8259 72.0572 65.4893C68.4952 70.0687 62.1596 74.0262 62.6929 73.9898Z" fill="#BC90CC"/>
<path fill-rule="evenodd" clip-rule="evenodd" d="M70.4907 31.5218C71.815 34.0404 74.8306 41.4793 74.4534 41.6198C74.1359 41.7395 73.5973 40.0638 73.5869 40.0378C71.3701 33.2026 69.528 31.4515 70.4881 31.5218H70.4907Z" fill="#BC90CC"/>
<path fill-rule="evenodd" clip-rule="evenodd" d="M80.1644 56.4324C78.4289 57.5018 81.7359 54.2416 82.8027 48.7021C83.1175 47.0577 82.925 46.4983 83.2346 46.4983C83.9371 46.4983 82.4931 52.9953 80.1618 56.4324H80.1644Z" fill="#BC90CC"/>
<path fill-rule="evenodd" clip-rule="evenodd" d="M66.5096 61.134C66.4914 61.1601 66.8713 61.0065 66.6944 61.3916C66.5799 61.6388 65.4064 63.9727 65.076 63.6631C64.9147 63.5122 65.0395 63.4471 66.5096 61.134Z" fill="#BC90CC"/>
<path fill-rule="evenodd" clip-rule="evenodd" d="M72.3589 34.2404C72.1169 33.936 71.7916 32.4555 72.1169 32.7808C72.3458 33.0123 72.9183 34.3757 72.3589 34.2404Z" fill="#BC90CC"/>
<path fill-rule="evenodd" clip-rule="evenodd" d="M71.2092 36.1949C72.021 38.685 70.6446 36.4473 71.0192 36.1689C71.0531 36.1429 71.1311 36.1819 71.2092 36.1949Z" fill="#BC90CC"/>
<path fill-rule="evenodd" clip-rule="evenodd" d="M82.033 42.5432C81.778 42.7514 81.6661 42.4548 81.6687 42.2856C81.6739 42.0827 81.4423 41.8693 81.6947 41.6794C81.8144 41.5909 82.0408 41.976 82.033 42.5432Z" fill="#BC90CC"/>
<path fill-rule="evenodd" clip-rule="evenodd" d="M72.9077 32.0994C72.7672 32.3284 72.6163 32.0057 72.5252 31.7508C72.2988 31.1237 73.0846 31.6493 72.9077 32.0994Z" fill="#BC90CC"/>
<path fill-rule="evenodd" clip-rule="evenodd" d="M17.2425 18.7673C17.1202 18.5097 16.5868 18.4446 16.847 18.1246C16.9979 17.9399 17.2659 18.3197 17.4689 18.4628C17.664 18.6034 18.6918 19.272 18.5721 19.4802C18.4264 19.7352 18.3093 19.5739 17.2451 18.7673H17.2425Z" fill="#BC90CC"/>
<path fill-rule="evenodd" clip-rule="evenodd" d="M12.9186 32.1982C12.6844 32.271 12.4633 32.18 12.2577 32.1019C11.9741 31.9926 11.3913 32.0785 11.4719 31.7585C11.5422 31.4827 13.2542 31.8521 12.9186 32.1982Z" fill="#BC90CC"/>
<path fill-rule="evenodd" clip-rule="evenodd" d="M42.705 15.9935C42.1403 16.3005 41.0658 16.493 40.012 17.297C39.6946 17.539 39.4812 17.2164 39.7882 16.9796C40.3867 16.519 42.7492 15.343 42.7024 15.9935H42.705Z" fill="#BC90CC"/>
<path fill-rule="evenodd" clip-rule="evenodd" d="M25.5272 29.2242C25.4986 29.2346 25.1994 29.3959 25.1994 29.1565C25.1916 28.5164 25.5116 26.7601 26.0372 26.7706C26.2896 26.7706 25.6313 27.5615 25.5272 29.2242Z" fill="#BC90CC"/>
<path fill-rule="evenodd" clip-rule="evenodd" d="M42.0228 24.4108C41.825 24.5799 41.5596 24.4993 40.0349 25.3293C39.871 25.4177 39.6915 25.1992 39.8632 25.0613C40.3185 24.7022 42.0904 23.7994 42.0228 24.4082V24.4108Z" fill="#BC90CC"/>
<path fill-rule="evenodd" clip-rule="evenodd" d="M87.9234 29.3803C88.1809 29.336 88.1862 29.5702 88.0196 29.6509C86.7603 30.2519 84.481 30.8581 82.0456 33.7307C81.8817 33.9232 81.6554 34.3395 81.4706 34.1834C80.9971 33.7827 84.9364 29.9032 87.9234 29.3803Z" fill="#BC90CC"/>
<path fill-rule="evenodd" clip-rule="evenodd" d="M83.8745 38.016C84.1686 37.8078 86.3542 36.2727 86.5389 36.7072C86.6274 36.9206 86.414 36.7488 84.0697 38.349C83.747 38.5702 83.5415 38.2788 83.8745 38.0186V38.016Z" fill="#BC90CC"/>
<path fill-rule="evenodd" clip-rule="evenodd" d="M86.5655 52.3266C86.0893 53.0031 86.0269 53.1618 85.8655 53.0239C85.5715 52.7689 86.6878 51.4836 87.1327 51.5226C87.1327 51.9571 86.6695 52.069 86.5655 52.3292V52.3266Z" fill="#BC90CC"/>
<path fill-rule="evenodd" clip-rule="evenodd" d="M83.1178 34.6752C82.9669 34.3343 84.5905 33.447 84.6842 33.6526C84.8559 34.0195 84.2158 34.0455 83.9712 34.2849C83.8593 34.3941 83.2531 34.8469 83.1152 34.6752H83.1178Z" fill="#BC90CC"/>
<path fill-rule="evenodd" clip-rule="evenodd" d="M52.6392 41.2841C52.5455 40.9381 52.2879 39.0387 52.647 39.0335C52.9852 39.0283 52.7901 39.4524 52.8187 39.684C53.0737 41.6796 52.8187 41.3336 52.6366 41.2841H52.6392Z" fill="#BC90CC"/>
<path fill-rule="evenodd" clip-rule="evenodd" d="M46.004 41.841C45.8245 41.6536 45.684 39.8011 45.8323 39.5773C46.1445 39.1064 46.5062 42.377 46.004 41.841Z" fill="#BC90CC"/>
<path fill-rule="evenodd" clip-rule="evenodd" d="M61.293 32.7341C61.8134 33.2831 61.4751 34.2848 61.0978 32.8459C61.09 32.8121 61.1525 32.7523 61.1941 32.7158C61.2097 32.7028 61.2539 32.7237 61.293 32.7315V32.7341Z" fill="#BC90CC"/>
<path fill-rule="evenodd" clip-rule="evenodd" d="M48.4086 4.80261C48.7676 4.55283 50.1649 3.77486 50.3132 4.08188C50.4381 4.34468 49.7147 4.35769 48.5491 5.14086C48.2342 5.35161 47.961 5.15647 48.4086 4.80261Z" fill="#BC90CC"/>
<path fill-rule="evenodd" clip-rule="evenodd" d="M52.1839 8.03435C52.7485 7.53478 53.0581 7.20955 53.2169 7.40209C53.4328 7.66228 52.824 7.85742 52.6184 8.12021C52.556 8.19827 52.4701 8.26072 52.3868 8.31536C52.2307 8.41943 52.0694 8.73687 51.9185 8.56514C51.726 8.34918 52.072 8.20087 52.1865 8.03435H52.1839Z" fill="#BC90CC"/>
<path fill-rule="evenodd" clip-rule="evenodd" d="M66.5172 13.7586C66.3298 13.527 66.7097 13.7924 67.9924 11.0552C68.0263 10.9797 68.146 10.9433 68.224 10.8887C68.3515 11.5834 66.9257 14.2685 66.5172 13.7586Z" fill="#BC90CC"/>
<path fill-rule="evenodd" clip-rule="evenodd" d="M66.6163 12.2935C65.7447 12.6214 67.0951 10.2666 67.0925 10.8625C67.0847 11.4089 66.7152 11.8278 66.6163 12.2935Z" fill="#BC90CC"/>
<path fill-rule="evenodd" clip-rule="evenodd" d="M55.946 21.702C52.5557 23.5493 55.6 21.0463 55.9694 21.5641C55.9825 21.5823 55.959 21.6265 55.946 21.702Z" fill="#BC90CC"/>
<path fill-rule="evenodd" clip-rule="evenodd" d="M65.2272 30.9258C64.863 30.8191 64.3582 29.4271 64.4987 29.1096C64.8656 29.3204 65.3989 30.5355 65.2272 30.9258Z" fill="#BC90CC"/>
<path fill-rule="evenodd" clip-rule="evenodd" d="M62.4063 15.1763C62.232 15.3012 62.0551 15.1451 62.2294 14.9786C62.3361 14.8745 62.5052 14.8641 62.4063 15.1763Z" fill="#BC90CC"/>
</g>
<defs>
<clipPath id="clip0_263_3110">
<rect width="94.1994" height="133.985" fill="white" transform="translate(0 0.636963)"/>
</clipPath>
</defs>
</svg>