<svg width="138" height="152" viewBox="0 0 138 152" fill="none" xmlns="http://www.w3.org/2000/svg">
<path fill-rule="evenodd" clip-rule="evenodd" d="M68.7978 84.9522C68.2956 84.7102 68.5038 85.1838 65.4517 85.5142C64.5801 85.6079 64.6217 85.7952 65.5246 82.5636C66.6538 78.5359 67.3693 71.9609 64.4084 85.2436C64.2939 85.751 64.1924 85.6573 62.5714 85.7952C63.1751 85.47 63.0606 84.8585 63.1204 84.3537C64.7232 70.6157 62.9357 63.934 63.0554 65.9244C63.9322 79.3659 62.5376 83.5576 62.6053 85.7952C58.4422 86.6434 56.1525 83.8594 54.4457 79.9721C49.0935 67.7848 50.8915 65.2662 50.2332 65.2505C49.5333 65.2349 50.9253 76.0511 55.947 83.5394C54.1959 82.6339 47.4543 72.5359 48.9687 61.5454C49.385 58.4388 44.9643 68.2193 54.2453 82.3477C51.6252 80.6851 41.535 71.3806 38.9409 61.8629C38.1291 58.8915 39.2271 45.9184 43.3459 42.5385C50.855 36.3772 51.4509 40.0953 55.0103 41.8542C56.3243 42.5047 57.4457 42.9366 58.0051 44.1985C58.6816 45.7206 59.5792 46.3997 59.0641 47.7163C58.6165 48.8585 58.8169 49.509 58.9912 51.8117C59.0354 52.4049 59.0224 52.9513 59.4621 53.0216C60.3962 53.1725 60.3312 50.2063 62.8186 50.7996C66.4457 51.6608 67.0233 53.0164 68.5012 52.267C71.7197 50.6356 74.8134 52.0615 76.2809 52.6417C77.2774 53.0372 77.9695 53.6721 78.5237 55.2826C79.7362 58.8082 80.2722 58.1786 81.4691 60.705C83.3867 64.7562 83.7718 64.8056 83.7796 65.9947C83.8082 70.176 83.8004 72.4058 80.9461 75.5073C80.4882 76.0042 70.7284 85.1577 69.9765 84.1508C69.7111 83.7891 71.6131 83.1309 73.5671 78.0884C73.757 77.5992 73.9314 77.3624 73.7232 77.2766C73.5203 77.1933 73.6451 77.11 71.9617 80.6148C71.1265 82.3503 68.8967 84.4708 70.0337 82.8212C73.143 78.3069 74.0354 72.0519 73.2991 73.7536C72.9634 74.5289 72.4092 79.0068 68.9253 83.7605C68.4387 84.4266 68.7718 84.9756 68.8004 84.9548L68.7978 84.9522ZM57.6538 82.8707C58.1586 82.5532 54.62 78.4708 53.0615 70.0797C53.0094 69.8065 52.718 69.8039 52.7362 70.0875C52.96 74.006 56.8472 82.8238 57.6538 82.8707ZM74.9721 79.4596C81.9088 67.2722 79.3199 66.3694 79.234 68.6356C79.0987 72.4266 73.6738 79.9591 74.9721 79.4596ZM65.535 73.6339C65.2982 73.5662 65.2488 73.8004 65.1994 74.581C64.8533 80.097 63.6174 84.0155 63.4665 84.9262C63.4249 85.1629 63.7423 85.1473 63.7865 85.0172C64.96 81.8481 65.8706 73.8759 65.535 73.6313V73.6339ZM80.764 65.1777C80.4621 65.2115 80.8758 66.2991 80.5012 68.4353C79.7362 72.8143 78.0085 74.6799 78.5784 74.8334C79.5645 75.104 82.0077 65.0398 80.764 65.1777ZM45.5732 73.0381C45.6278 72.8871 45.7241 72.986 45.4014 72.208C42.3832 64.9617 43.4448 63.3798 42.6616 63.0129C42.071 64.0771 44.8811 73.1395 45.5758 73.0381H45.5732ZM61.9288 76.9175C61.6582 76.9357 61.8039 77.4379 61.8169 77.7163C62.0979 83.4509 60.8724 84.8169 61.463 84.8429C62.215 84.8689 62.5532 76.8733 61.9288 76.9175ZM60.7215 76.5116C60.2479 76.5324 61.1118 77.2427 60.7787 83.8412C60.7709 84.0025 60.7605 84.5333 60.9296 84.5697C61.4994 84.6894 61.3017 76.4934 60.7215 76.5116ZM60.2974 53.646C59.8134 53.2636 59.5272 60.4682 59.8576 60.5281C60.1985 60.5879 60.3598 54.6842 60.2974 53.646ZM70.6373 79.0224C71.0875 77.9635 72.3026 73.2332 71.9201 73.1942C71.7484 73.176 71.6703 73.4908 71.6365 73.6599C70.6764 78.4136 69.8516 79.3893 70.6373 79.0224ZM59.3503 58.7406C59.4439 58.4023 59.4257 59.11 59.4257 55.163C59.4257 54.8924 59.1239 54.7779 59.1083 55.2072C58.9912 58.5793 58.9027 58.9487 59.3503 58.7432V58.7406ZM57.4613 79.3997C57.5159 79.0953 57.7267 79.6079 56.4465 76.5402C56.3815 76.3763 56.1161 76.4518 56.1837 76.6885C56.3086 77.1257 56.9903 79.4934 57.4587 79.3997H57.4613ZM67.947 83.4821C68.0146 83.365 69.136 81.4448 68.8082 81.2991C68.6157 81.2106 68.7067 81.2054 67.6009 83.3806C67.4656 83.646 67.7544 83.7683 67.947 83.4795V83.4821ZM66.5055 83.3832C66.849 82.9071 67.0805 80.7423 66.7475 81.372C66.5497 81.7388 65.9513 83.6538 66.5055 83.3832ZM61.4214 73.4648C61.3355 73.6443 61.4994 75.143 61.6321 75.2393C62.1655 75.6218 61.705 72.8741 61.4214 73.4648ZM60.7995 53.1413C60.5732 53.4379 60.7553 54.437 60.9322 54.2471C61.195 53.9661 61.0285 53.6408 61.0389 53.3338C61.0467 53.1179 60.8698 53.1491 60.7995 53.1439V53.1413ZM61.6634 52.522C61.3199 52.5689 61.3251 53.0268 61.4318 53.2974C61.5905 53.6981 61.8793 52.7198 61.6634 52.522Z" fill="#F8ECFD"/>
<path fill-rule="evenodd" clip-rule="evenodd" d="M84.693 82.3533C83.6678 82.8737 82.5828 83.1599 81.4484 83.3004C82.5724 82.5251 83.712 81.8043 84.8101 81.0186C91.4579 76.2467 97.4059 67.5641 96.9558 67.2493C96.3001 66.7939 91.7337 77.1625 81.1232 82.8581C80.6912 83.0897 80.2775 83.5814 79.6817 83.2614C79.9341 82.8061 80.4258 82.6968 80.8369 82.5042C86.6652 79.767 95.5898 70.702 98.3192 59.8547C98.595 58.7566 98.5507 57.6404 98.686 56.5372C98.699 56.4279 98.6574 56.3343 98.5299 56.3499C98.0798 56.4071 97.8768 73.2779 78.948 82.983C78.8231 83.0454 78.3964 83.1755 78.3131 82.9934C78.0269 82.4028 83.7745 80.1521 90.8985 68.3369C90.9401 68.2666 91 68.0012 90.9532 67.9648C90.7112 67.7696 90.7554 68.1001 88.8378 71.0533C85.4657 76.2519 76.8899 84.5884 76.5906 82.6656C76.5386 82.3377 77.2333 82.3742 80.0095 79.8139C80.3218 79.5277 82.6687 77.2666 82.2992 76.9882C82.2368 76.9414 75.8361 83.6985 75.0971 82.5641C74.8994 82.2597 75.3235 82.0593 75.5291 81.8876C83.6288 75.1955 84.3209 75.8954 84.5915 66.3802C84.6487 64.3481 83.8473 64.1088 82.2212 60.3828C81.2845 58.2389 79.5022 56.8807 80.4649 55.0567C81.6878 52.7384 80.8994 51.336 83.9332 46.2909C84.9558 44.5893 85.5074 44.9119 86.0564 45.1305C88.1145 45.9579 91.1249 44.5658 89.0017 39.9761C88.3825 38.6387 89.0486 36.8304 90.3339 36.1591C92.2151 35.173 93.8439 38.3499 97.4579 35.0897C99.4172 33.3074 98.6366 35.4592 104.181 47.0689C106.892 52.7462 106.702 56.0741 105.831 59.0559C102.886 69.1304 93.4432 78.3698 85.0364 82.3351C83.7199 82.9674 86.9696 80.4513 88.1275 79.5589C94.0156 75.0134 95.1891 72.107 94.2992 73.0489C93.6982 73.676 92.0095 75.8304 90.2975 77.2536C83.3218 83.0585 83.7563 81.9787 84.693 82.3533ZM92.4883 39.885C91.5412 39.8148 93.3053 41.3629 95.5872 48.4011C95.595 48.4297 96.1414 50.1001 96.4536 49.983C96.8335 49.8399 93.8127 42.3985 92.4909 39.885H92.4883ZM102.162 64.7957C104.111 61.9232 106.122 54.8616 105.235 54.8616C104.923 54.8616 105.126 55.3716 104.803 57.0654C103.749 62.5346 100.432 65.8625 102.165 64.7957H102.162ZM88.5074 69.4973C87.1023 71.7063 86.9072 71.8703 87.0737 72.0264C87.3599 72.297 88.9575 69.6352 88.6661 69.4947C88.5646 69.4453 88.4892 69.5259 88.5074 69.4999V69.4973ZM94.5308 42.6404C94.7545 42.539 94.3773 41.4149 94.1119 41.1443C93.758 40.7905 94.1795 42.807 94.5308 42.6404ZM93.2064 44.558C93.1804 44.5528 92.8864 44.4358 92.9566 44.7063C93.0425 45.0524 93.0399 45.4453 93.3755 45.6769C93.7398 45.9319 93.2532 44.7037 93.2064 44.5606V44.558ZM104.03 50.9093C104.051 49.5797 103.234 49.9518 103.755 50.9249C103.812 51.0316 103.9 51.016 104.03 50.9093ZM94.9029 40.4652C94.9783 40.2779 94.778 39.7185 94.5386 39.8564C94.3799 39.9449 94.7103 40.7827 94.9029 40.4652Z" fill="#F8ECFD"/>
<path fill-rule="evenodd" clip-rule="evenodd" d="M33.5136 46.2254C33.8597 47.0268 35.5431 46.7145 38.707 49.0276C38.8085 49.1031 38.962 49.1889 38.8683 49.3295C38.6654 49.6287 36.6853 48.0675 36.4668 48.4708C36.3263 48.731 36.6697 48.7362 36.8128 48.8221C38.387 49.7353 39.0141 49.764 38.7799 50.6876C37.5414 55.5584 37.6845 60.385 37.4841 60.4708C37.099 60.6321 35.0435 57.8949 33.9039 55.2046C33.001 53.0606 32.923 51.6217 30.2196 47.3442C30.0765 47.1178 28.6507 44.8568 28.7755 43.5688C28.8978 42.3355 29.9334 39.9079 27.0375 37.0276C22.5544 32.5654 22.5856 32.1282 23.5457 30.6035C26.9178 25.267 27.4278 23.9843 33.6906 22.3945C36.6255 21.6504 36.6281 17.7267 40.0106 17.5211C42.1207 17.3963 46.9447 19.2488 49.5752 21.6556C50.7513 22.7328 52.6584 25.79 51.5709 26.3026C51.1441 26.5029 50.8085 27.0831 50.3922 27.0155C49.8848 26.9322 50.1424 25.9461 49.4139 25.5168C49.3462 25.9956 49.2916 25.3919 49.838 27.1196C49.9655 27.5307 49.6767 27.718 49.4425 27.2809C46.5127 21.7649 44.9282 21.8143 45.6411 22.522C47.3558 24.2106 49.0028 27.2497 49.2213 27.7857C49.3436 28.0875 49.1277 28.2774 48.9013 28.025C47.7044 26.672 49.0548 28.7536 48.5709 28.7744C47.7747 28.8082 48.1025 29.5992 47.7356 29.9452C47.1164 30.5333 46.5752 32.2479 46.1927 32.2583C45.7998 32.2687 45.7504 31.6833 45.5761 31.3477C44.9698 30.2002 42.7712 26.9947 42.3081 26.7085C40.8692 25.816 46.7183 32.7917 45.7842 33.2002C45.2066 33.4552 45.2014 30.221 40.4451 26.3858C40.0366 26.058 39.5839 26.2245 40.6116 27.0649C43.7157 29.5836 46.1095 34.2982 45.2508 34.6989C44.9646 34.829 43.8094 31.7536 43.2265 31.9669C42.8076 32.1178 46.0678 35.888 44.7408 36.5827C44.4234 36.7492 44.2777 36.2991 44.1034 36.0962C39.9663 31.3581 37.5518 30.8663 39.2378 32.1178C40.2552 32.8698 45.6229 37.548 44.6498 38.1829C44.3584 38.3728 44.2777 37.9955 44.158 37.842C38.9828 31.3138 32.6888 28.9305 32.5899 29.7735C32.5249 30.3147 33.6333 29.0372 39.7686 33.8585C42.0323 35.6382 44.6029 38.9999 44.7669 39.398C45.0687 40.1317 44.3532 40.6521 43.864 39.9704C41.8605 37.1707 38.0956 34.0016 37.8146 34.3945C37.5596 34.7536 40.7599 36.3121 43.4763 40.1577C44.2075 41.1907 43.1771 40.5844 41.4156 43.2254C40.9733 43.8837 41.0591 43.4231 39.217 42.195C38.9204 41.9973 38.6576 42.2445 39.0349 42.5151C39.2925 42.6998 40.3983 43.3763 40.6715 43.8082C40.8536 44.097 40.583 44.1517 40.4321 44.0294C36.5605 40.8811 29.7877 40.8238 29.8449 41.4066C29.8996 41.8464 35.413 40.7666 40.289 44.404C40.4633 44.5341 40.5362 44.7501 40.3931 44.9374C40.1797 45.2184 40.0626 44.9296 39.9351 44.8229C37.8432 43.0641 34.5674 42.195 32.5769 42.4006C32.348 42.4266 32.3193 42.7492 32.6108 42.7674C34.5934 42.9001 36.4382 43.0875 38.7461 44.4092C40.3254 45.3225 40.1693 45.4474 39.805 46.6105C38.5275 50.6876 40.3488 47.8021 33.5136 46.228V46.2254ZM39.243 27.13C40.3176 27.9444 40.4269 28.0953 40.57 27.8429C40.6897 27.6348 39.6645 26.9661 39.4668 26.8256C39.2664 26.6825 38.9958 26.3026 38.8449 26.4873C38.5873 26.8073 39.1181 26.8724 39.2404 27.13H39.243ZM34.3332 40.1395C34.034 40.0927 33.5579 39.7857 33.472 40.1187C33.3913 40.4387 33.9768 40.3555 34.2578 40.4622C35.1736 40.8134 35.2517 40.28 34.3306 40.1369L34.3332 40.1395Z" fill="#F8ECFD"/>
<path fill-rule="evenodd" clip-rule="evenodd" d="M56.9487 38.7892C55.8013 39.4449 55.8637 40.6548 55.5307 40.5507C55.1768 40.4414 56.0277 39.0286 56.3087 38.7033C56.4127 38.5836 56.6131 38.4093 56.4622 38.2844C56.2436 38.1023 56.1395 38.4041 56.0173 38.5212C54.9895 39.5073 55.4032 40.7588 54.1361 40.1162C53.5454 39.8169 53.522 39.7545 53.9487 39.0208C55.7649 35.9115 57.1231 35.6461 56.764 35.4119C56.2879 35.1075 54.3416 37.5793 53.9019 38.3C50.8993 43.2228 55.3824 31.0355 62.9982 30.1248C65.3477 29.8542 57.8126 28.3321 52.6478 38.7345C52.3694 39.2888 51.4145 38.4457 51.1439 38.0997C50.967 37.8733 51.0866 37.7302 51.633 36.7233C51.8282 36.3616 51.5602 36.1743 51.3338 36.5646C50.6053 37.8213 50.6391 38.1283 50.2098 37.9254C49.4292 37.5611 51.797 33.9783 52.4578 33.1821C52.7024 32.8881 53.1005 32.6903 53.1369 32.2454C52.6166 32.235 52.4422 32.7059 52.1664 33.0025C49.411 35.9427 49.973 38.3729 48.9088 38.0138C48.6226 37.9175 48.8048 37.6704 48.8646 37.509C50.2827 33.7077 52.0962 30.7259 55.908 28.7536C58.8559 27.2211 51.5992 28.3373 48.3546 37.7068C48.1803 38.2064 48.2818 38.2818 46.5437 39.0103C45.6357 39.3928 45.568 29.9583 53.0147 26.6461C58.8169 24.065 58.8221 19.9852 67.2341 19.4414C68.829 19.3399 70.7336 19.2827 72.4951 20.3495C73.6894 21.0754 73.1716 21.9913 72.9166 22.9358C72.4587 24.6426 74.1369 24.1743 71.9305 27.3538C71.2124 28.392 68.1239 30.4943 68.4544 35.261C68.4882 35.771 68.6157 36.1404 68.1734 36.1639C66.7866 36.2393 63.5888 40.6808 63.1023 41.4171C61.4943 43.8603 61.2601 46.2775 61.8169 48.9887C62.0068 49.9149 61.2029 49.2957 60.1361 50.4561C59.5428 51.104 59.5324 49.0537 59.8212 48.1248C60.5316 45.8404 59.6859 43.5793 58.2315 42.3486C56.9487 41.2636 59.5585 38.2974 60.7579 37.3035C64.3642 34.3269 59.8577 36.6999 58.2809 39.5489C57.1933 41.5134 57.4665 41.4691 56.5819 41.1491C55.4813 40.7562 56.4778 40.0095 56.9487 38.784V38.7892ZM64.5281 24.13C63.875 24.3018 61.3538 25.1682 61.666 25.6704C61.9002 26.0424 61.8117 25.379 64.45 24.4917C64.8559 24.3564 64.7623 24.0676 64.5281 24.13ZM47.5272 37.5897C47.6235 36.0338 48.261 35.1387 48.0372 35.1361C47.5298 35.1257 47.1916 36.8169 47.1994 37.5221C47.1994 37.7588 47.5012 37.6001 47.5272 37.5897ZM63.8542 32.5576C63.032 32.7137 61.6946 33.2992 61.7987 33.6036C61.9262 33.9705 62.3711 33.3356 63.9453 32.8412C64.0572 32.8048 64.1248 32.5056 63.8542 32.5576Z" fill="#F8ECFD"/>
<path fill-rule="evenodd" clip-rule="evenodd" d="M98.5479 73.3532C107.033 62.7452 103.632 63.7339 111.583 55.8215C112.195 55.2179 109.512 56.2196 106.557 60.7677C105.716 62.0687 106.088 60.5596 106.679 59.6619C109.942 54.7105 110.283 55.2309 110.556 54.8224C110.72 54.5726 110.397 54.5804 110.361 54.6038C108.248 55.9698 106.796 59.3159 106.965 57.851C107.936 49.4625 103.817 47.2482 105.347 45.9109C107.152 44.3263 109.538 43.0123 111.724 42.1459C112.041 42.021 111.924 41.753 111.581 41.8467C107.178 43.0982 104.959 46.2517 104.569 45.7027C104.132 45.086 110.043 41.5865 110.072 41.5657C110.584 41.1468 109.148 41.1832 104.811 44.6541C103.988 45.315 104.358 45.4998 101.954 40.4521C101.545 39.5934 102.911 38.0869 103.268 37.8059C103.648 37.5067 103.317 36.8692 101.884 38.9091C101.597 39.315 101.342 39.0288 101.509 38.6463C101.832 37.897 103.713 35.8883 106.177 35.0193C108.55 34.1841 105.935 34.1919 103.611 35.8961C102.232 36.9083 102.016 37.387 101.452 37.9152C101.191 38.1572 100.494 38.0843 102.235 36.0939C102.446 35.8545 102.178 35.701 102.008 35.8727C100.949 36.9707 100.96 37.093 100.783 37.0123C100.112 36.7079 101.66 35.1754 100.645 35.714C100.437 35.8233 100.346 35.6854 100.307 35.498C99.9842 33.8848 99.2608 33.5804 100.145 33.0548C103.874 30.838 114.367 31.7279 113.53 38.165C112.973 42.4659 118.577 41.2821 111.047 45.7495C108.037 47.537 108.245 49.3037 109.52 48.7677C110.933 48.1719 112.387 48.4763 113.821 48.4867C114.872 48.4945 115.468 49.5093 115.13 50.537C114.966 51.034 114.932 51.531 115.07 52.0305C116.256 56.3549 111.383 55.2907 106.715 68.5422C102.386 80.8441 93.0319 80.6255 92.9954 80.4746C92.9356 80.2352 98.5661 77.8154 105.586 65.8024C107.452 62.6125 107.439 62.8805 107.275 62.74C106.689 62.2456 99.1463 77.4798 91.8376 80.4486C90.4404 81.0314 94.6034 78.2968 98.5557 73.3558L98.5479 73.3532ZM104.436 41.0817C103.354 42.2526 103.203 42.3228 103.468 42.5466C103.83 42.851 105.001 39.9993 109.182 38.3809C112.224 37.2101 107.433 37.7175 104.433 41.0817H104.436ZM105.875 46.3792C105.542 46.6394 105.75 46.9282 106.07 46.7096C108.399 45.1225 108.63 45.2838 108.539 45.0678C108.357 44.6359 106.179 46.1632 105.875 46.3766V46.3792ZM108.565 60.6897C108.669 60.4295 109.135 60.3176 109.132 59.8831C108.701 59.8467 107.566 61.1242 107.865 61.3844C108.024 61.5197 108.084 61.3714 108.565 60.6871V60.6897ZM105.118 43.0384C105.253 43.2049 105.864 42.7547 105.974 42.6481C106.216 42.4113 106.856 42.3827 106.687 42.0158C106.593 41.8129 104.964 42.6897 105.12 43.0384H105.118Z" fill="#F8ECFD"/>
<path fill-rule="evenodd" clip-rule="evenodd" d="M80.9824 49.7849C80.743 49.4441 81.5028 45.1926 80.9746 45.1822C80.5348 45.1744 81.2712 45.6375 79.7413 53.719C79.057 57.3539 80.6051 41.745 79.5435 41.9922C79.3067 42.0469 79.7335 53.9818 78.7057 53.0139C78.1099 52.4519 78.8384 47.9298 78.3935 47.7945C78.1749 47.7242 78.2087 48.0521 78.1853 48.5698C78.0032 52.5794 78.1437 52.2776 77.5192 52.0278C76.7543 51.7234 76.429 51.1822 76.325 50.3626C76.0466 48.1509 75.9815 45.9393 76.2287 43.7121C76.2885 43.0954 75.8904 43.0434 75.763 44.6149C75.292 50.3131 76.6554 51.3617 75.4793 50.9428C74.1862 50.4796 72.8254 50.6306 71.4906 50.5577C70.6294 50.5109 70.6164 50.5187 70.4707 49.6965C69.6901 45.281 70.1897 45.3903 69.8228 45.4241C69.2504 45.4762 70.1298 50.2169 70.1324 50.2429C70.1949 50.667 69.6979 50.7034 69.599 50.3548C68.3449 45.8352 69.5028 42.6011 69.1697 42.4814C68.4386 42.2186 68.4802 48.562 69.1203 50.2299C69.5548 51.3721 67.0596 51.5438 65.7742 50.8829C64.9494 50.4562 64.2365 49.8188 63.2972 49.6002C62.9902 49.5273 62.933 49.2333 62.8913 48.9653C62.5218 46.595 62.1784 45.5256 63.3727 43.4805C69.2504 33.4346 68.4308 38.8855 71.0379 36.6271C72.7812 35.118 76.2053 35.5863 78.4091 36.2264C80.2174 36.752 80.6077 35.6644 82.5539 35.7268C83.7404 35.7659 84.573 36.2602 85.0023 37.4233C85.5019 38.7711 87.6901 44.9792 86.3735 44.3756C83.2382 42.9419 80.9538 49.7823 80.9798 49.7823L80.9824 49.7849ZM74.6415 49.6444C74.9616 49.7329 75.0604 49.9072 74.8237 48.0443C74.7924 47.8127 74.9902 47.386 74.6519 47.3938C74.259 47.4016 74.5401 49.262 74.6441 49.6444H74.6415ZM67.8349 47.9376C67.6866 48.1613 67.8271 50.0139 68.0067 50.2012C68.514 50.7424 68.1446 47.4666 67.8349 47.9376ZM83.2955 41.0972C83.2564 41.0894 83.2122 41.0685 83.1966 41.0816C83.155 41.118 83.0899 41.1778 83.1003 41.2117C83.4776 42.6479 83.8159 41.6488 83.2955 41.0998V41.0972Z" fill="#F8ECFD"/>
<path fill-rule="evenodd" clip-rule="evenodd" d="M60.9656 19.9516C61.4132 19.2568 64.5745 17.5188 65.2978 17.1207C66.6846 16.3583 69.1382 14.3809 68.8312 14.1077C68.7063 13.9958 68.571 14.1051 68.4826 14.1987C66.7237 16.0773 64.3637 17.0608 62.2666 18.4294C58.7566 20.7217 53.3447 27.1927 55.5901 22.7642C57.1721 19.6497 59.9847 17.8674 63.1929 15.5127C66.081 13.3948 68.558 9.4008 73.8425 10.8085C76.5745 11.537 78.4453 13.2178 79.5511 15.7989C79.7306 16.2152 79.715 16.4312 79.2466 16.6497C75.2683 18.4945 74.5242 20.9741 73.8997 20.6463C72.5389 19.9307 76.1868 17.1779 77.7167 16.4052C79.8893 15.3072 77.2276 15.6532 74.7167 18.0079C73.3871 19.2568 73.3976 19.9698 72.6248 19.5535C67.3273 16.7018 61.6213 21.1354 66.4375 17.1961C66.6716 17.0088 66.3464 16.8865 66.2579 16.9568C65.5034 17.5656 64.5329 17.9221 64.0515 18.8457C63.9813 18.9863 63.8928 19.0643 63.7627 19.0929C62.4643 19.3713 61.4574 20.0843 60.9656 19.949V19.9516ZM70.408 13.1658C69.9604 13.5196 70.231 13.7174 70.5485 13.504C71.7167 12.7183 72.4401 12.7105 72.3126 12.4451C72.1643 12.1354 70.7644 12.916 70.408 13.1658ZM74.1833 16.3974C74.0662 16.5639 73.7228 16.7148 73.9153 16.9281C74.0662 17.0973 74.2302 16.7824 74.3837 16.6784C74.4669 16.6211 74.5554 16.5613 74.6152 16.4832C74.8234 16.223 75.4296 16.0279 75.2137 15.7651C75.0524 15.5673 74.7271 15.9134 74.1807 16.3974H74.1833Z" fill="#F8ECFD"/>
<path fill-rule="evenodd" clip-rule="evenodd" d="M71.3973 31.6599C71.5014 30.705 72.2689 29.888 73.0807 28.8212C73.1822 28.6911 73.0885 28.496 72.8439 28.6287C72.6124 28.7509 70.804 30.8221 70.2368 33.0337C70.242 33.0077 69.8882 32.9478 70.0495 32.5315C72.131 27.1326 72.8622 28.8056 74.621 26.1855C76.2524 23.7579 76.1744 23.2843 78.4849 22.3268C79.9732 21.7076 78.8179 23.1126 80.1163 23.9608C83.5144 26.1855 84.0478 23.8828 85.0001 25.3112C89.6158 32.2115 91.8613 29.5862 93.1284 35.0424C93.2117 35.4066 93.1024 35.5627 92.7121 35.404C90.9688 34.6989 90.6722 35.4352 90.6124 34.548C90.589 34.1993 90.5213 32.3364 90.17 32.3572C89.6939 32.3858 90.6618 35.1516 89.9801 35.2193C89.6158 35.2557 89.0824 30.7128 88.4424 30.9964C88.2108 31.1005 89.7537 35.084 89.2177 35.5237C88.6739 34.9175 89.1137 33.0805 87.5135 30.0571C87.4146 29.8724 87.3184 29.4873 87.0816 29.6122C86.8318 29.7449 87.092 30.0259 87.1961 30.2106C87.4198 30.6009 88.6219 33.7336 88.1952 33.8819C88.1145 33.9105 87.0608 33.3329 87.2793 32.3858C87.4276 31.7405 86.9333 30.5853 86.5144 30.3355C86.3921 30.757 86.3739 30.2054 86.8396 31.9435C86.9099 32.2037 85.0599 32.875 83.902 30.6998C82.536 28.1343 80.569 26.9582 77.6028 27.4994C73.8249 28.1889 75.6748 29.953 71.5508 33.1872C71.1917 33.4682 71.1683 33.1742 71.2672 32.9556C72.6306 29.9348 73.5022 29.8125 73.1536 29.5627C72.857 29.352 71.3713 31.6677 71.3999 31.6573L71.3973 31.6599Z" fill="#F8ECFD"/>
<path fill-rule="evenodd" clip-rule="evenodd" d="M97.9911 29.3445C97.1923 28.2517 96.2634 27.2916 95.7326 26.0349C95.2955 25.0045 94.4759 24.3957 93.4143 23.9898C89.1498 22.3584 87.6069 24.6533 85.4603 22.4911C82.7673 19.7825 84.279 18.6272 82.0778 17.6177C80.4542 16.8736 82.4811 16.2205 78.8202 12.5518C78.5756 12.3046 78.0032 12.0522 78.1724 11.8024C78.2348 11.7114 95.9226 20.7192 96.9165 24.0626C97.554 26.204 98.946 30.0964 97.9911 29.3393V29.3445ZM89.1056 21.8614C89.449 21.3853 90.3467 19.9152 90.227 19.2543C89.7274 19.5978 89.5661 20.792 88.5722 21.8614C88.403 22.0462 88.4733 22.4625 89.1056 21.8614ZM88.6164 20.6593C88.7153 20.1936 89.0847 19.7747 89.0926 19.2283C89.0978 18.6481 87.7135 21.0002 88.6164 20.6593Z" fill="#F8ECFD"/>
<path fill-rule="evenodd" clip-rule="evenodd" d="M90.937 24.1458C92.1235 24.2681 93.9501 25.1033 94.2207 25.6731C95.173 27.6766 98.1912 30.1718 98.8468 32.7347C99.2553 34.3323 98.2744 32.844 96.1148 34.9463C95.303 35.7347 94.2987 35.7425 94.1062 35.55C93.7939 35.2352 93.7653 33.8796 94.0775 33.4789C94.5693 32.8466 96.3958 30.3358 96.2293 29.55C95.6517 29.9585 93.8928 34.0149 93.3152 33.047C92.8052 32.1883 93.8928 32.0426 94.7827 29.883C95.1469 28.9984 95.2276 28.733 95.0376 28.6757C94.676 28.5717 94.9232 29.4641 93.2814 31.5821C93.1435 31.759 93.0004 32.0712 92.7428 31.8423C91.7124 30.9186 93.3386 30.6558 94.2805 28.2516C94.4574 27.7937 94.1504 27.6922 93.9501 28.1528C93.5988 28.9776 93.0576 29.6749 92.4644 30.3358C91.9726 30.8822 91.9648 30.8874 91.3976 30.5127C87.9865 28.2542 88.2102 28.3089 88.7853 27.7651C89.3083 27.2603 89.5216 27.125 89.5086 26.7894C89.0168 26.8232 88.2987 28.0461 87.9266 27.5725C87.5832 27.1354 89.6075 26.1337 89.2172 25.7512C89.0845 25.6211 89.0715 25.7278 87.7367 26.8726C87.3334 27.2187 86.8911 26.6983 87.2632 26.334C89.277 24.3618 88.9908 23.9455 90.9344 24.1484L90.937 24.1458Z" fill="#F8ECFD"/>
<path fill-rule="evenodd" clip-rule="evenodd" d="M72.8773 33.8274C72.3335 34.1345 72.6665 34.6392 71.4228 35.1596C71.2719 35.2247 71.1002 35.1648 71.2198 34.9098C71.9666 33.2993 73.7879 33.1952 75.5338 29.5603C76.2649 28.0382 79.304 28.314 80.7324 28.7823C83.5945 29.7242 81.5364 31.1709 85.7099 33.4242C86.9119 34.0746 88.2285 34.595 88.5433 36.1536C88.6006 36.4424 88.4757 36.6141 88.1895 36.3409C86.5997 34.8162 84.7393 33.6531 82.9388 32.4042C82.2936 31.9567 81.6691 31.9255 80.9692 32.3366C79.1426 33.4059 77.7376 32.0165 76.4679 34.1345C76.036 34.8526 76.0178 35.0451 74.7584 34.7537C73.7359 34.5144 75.8304 33.1457 76.5069 32.7451C76.944 32.4875 76.7255 32.2325 76.3092 32.4562C75.1149 33.0937 74.1756 34.0668 73.6292 34.4753C73.2571 34.7537 72.7341 34.5378 73.2858 34.0174C75.5702 31.8708 77.108 31.2385 79.1348 30.7052C80.6544 30.3019 76.8868 29.7659 72.8799 33.8248L72.8773 33.8274ZM77.9484 30.0651C77.964 29.9896 77.9848 29.948 77.9718 29.9272C77.5971 29.4042 74.5555 31.915 77.9484 30.0651Z" fill="#F8ECFD"/>
<path fill-rule="evenodd" clip-rule="evenodd" d="M87.8746 41.7139C87.5545 41.3964 87.6144 40.8526 87.297 40.5768C86.597 39.9732 85.8815 37.6263 85.8737 37.595C85.2258 35.1597 83.1807 34.5352 80.7532 35.1441C79.8607 35.3678 76.5719 35.5708 77.1105 34.556C78.0524 32.7971 79.0957 34.2906 81.4921 32.9428C82.1608 32.5682 83.2692 33.4996 84.1721 34.1839C87.3074 36.5569 86.7115 35.9168 87.3932 36.5361C88.6083 37.6419 87.1252 38.2559 87.8095 39.7494C88.2779 40.7772 87.7081 41.7347 87.8746 41.7139ZM87.2293 39.2889C87.3984 38.8986 86.865 37.6835 86.5008 37.4728C86.3603 37.7928 86.8676 39.1822 87.2293 39.2889Z" fill="#F8ECFD"/>
<path fill-rule="evenodd" clip-rule="evenodd" d="M75.693 21.8873C74.4857 23.1675 74.4207 23.8986 74.1475 23.7685C73.739 23.5708 75.3366 20.563 79.7624 17.9689C80.1839 17.7217 80.5612 17.5474 80.889 18.0391C81.1232 18.3904 81.8803 18.2811 81.7659 18.8041C81.706 19.0799 81.131 19.249 80.798 19.478C78.1284 21.3227 79.268 21.2343 78.2637 21.6063C74.9827 22.824 74.7641 25.3167 74.3322 25.0122C74.2125 24.9264 74.3114 24.7546 74.3634 24.6402C75.922 21.2239 78.399 20.3626 78.131 20.0036C77.8708 19.6523 76.1093 21.4424 75.6956 21.8899L75.693 21.8873Z" fill="#F8ECFD"/>
<path fill-rule="evenodd" clip-rule="evenodd" d="M81.2396 21.9734C81.0418 21.7445 80.459 22.78 80.165 22.3221C80.0011 22.0645 79.936 21.7575 80.2431 21.5077C81.9265 20.1339 82.0462 20.1131 81.9577 20.0116C81.7235 19.7514 81.6143 19.9804 79.8241 21.3281C79.4989 21.5727 79.1789 21.2865 79.5093 20.9613C79.9855 20.4903 82.1346 18.6612 82.3324 19.4574C82.8215 21.4452 83.4928 21.5623 82.9594 21.9214C81.0965 23.1781 81.3306 24.0159 80.5293 23.4461C79.897 22.996 81.518 22.2909 81.2422 21.9708L81.2396 21.9734Z" fill="#F8ECFD"/>
<path fill-rule="evenodd" clip-rule="evenodd" d="M80.1187 17.0553C80.3736 17.646 76.7362 18.5644 74.5011 21.9755C73.8871 22.9174 73.8689 21.8402 74.2696 21.3251C75.979 19.1264 79.6945 16.077 80.1187 17.0553Z" fill="#F8ECFD"/>
<path fill-rule="evenodd" clip-rule="evenodd" d="M86.0459 25.3846C85.5775 24.8643 85.0389 23.6544 83.3061 24.1878C82.6192 24.3985 82.6556 24.016 82.6504 24.0811C82.7363 23.8495 82.9184 23.6934 83.0875 23.5269C83.9227 22.7021 83.9149 22.7151 84.8516 23.3161C86.3867 24.3023 87.097 24.2216 86.4674 24.8539C86.3945 24.9293 85.9834 25.4159 86.0459 25.382V25.3846ZM84.4093 23.5399C84.5082 23.2277 84.339 23.2381 84.2323 23.3395C84.058 23.5087 84.2376 23.6596 84.4093 23.5399Z" fill="#F8ECFD"/>
<path fill-rule="evenodd" clip-rule="evenodd" d="M86.0225 25.3972C86.8629 25.2983 87.0997 24.307 87.516 24.3096C87.836 24.3096 88.2627 24.0598 88.4448 24.359C88.6088 24.6296 88.1925 24.843 88.0077 25.0564C86.1734 27.1587 86.2306 25.2879 86.0225 25.3998V25.3972Z" fill="#F8ECFD"/>
<path fill-rule="evenodd" clip-rule="evenodd" d="M82.6474 24.1147C82.2389 24.1954 81.7108 24.2214 81.5963 23.8493C81.4922 23.5059 82.9076 22.3376 83.2355 22.1867C83.5217 22.0566 83.7975 22.3246 83.5269 22.5952C81.7784 24.3567 82.6631 23.7348 82.6474 24.1147Z" fill="#F8ECFD"/>
<path fill-rule="evenodd" clip-rule="evenodd" d="M87.6124 44.1933C87.5786 44.1985 87.5005 44.1126 87.5031 44.0736C87.5447 43.6261 87.2195 43.1915 87.4927 42.7388C87.4667 42.7414 87.9636 44.149 87.6124 44.1933Z" fill="#F8ECFD"/>
<path fill-rule="evenodd" clip-rule="evenodd" d="M88.5853 42.1118C89.0042 42.3434 88.731 42.8742 88.6295 42.6973C88.2652 42.0832 88.7934 42.0832 88.5853 42.1118Z" fill="#F8ECFD"/>
<path fill-rule="evenodd" clip-rule="evenodd" d="M87.4926 42.7393C87.2168 42.5962 87.3287 42.2866 87.222 42.0732L87.2012 42.0862C87.6955 42.31 87.3989 42.7523 87.4926 42.7419V42.7393Z" fill="#F8ECFD"/>
<path fill-rule="evenodd" clip-rule="evenodd" d="M87.9662 42.3982C87.9246 42.1718 87.7451 41.9663 87.8752 41.7139H87.8465C88.2394 42.0287 87.9376 42.3149 87.9662 42.3982Z" fill="#F8ECFD"/>
<path fill-rule="evenodd" clip-rule="evenodd" d="M70.843 32.3471C70.9159 33.086 70.8716 32.8024 70.882 32.8311C70.8612 32.5683 70.8378 32.3211 70.843 32.3471Z" fill="#F8ECFD"/>
<path fill-rule="evenodd" clip-rule="evenodd" d="M71.3711 31.6706C71.2905 32.0297 70.8325 32.2925 70.8429 32.3471C71.4804 31.5613 71.4102 31.6576 71.3711 31.6706Z" fill="#F8ECFD"/>
<path fill-rule="evenodd" clip-rule="evenodd" d="M70.8931 32.8653C70.6858 32.6764 70.7619 33.1513 70.8826 32.8338L70.8931 32.8653Z" fill="#F8ECFD"/>
<path fill-rule="evenodd" clip-rule="evenodd" d="M70.2361 33.0365C69.9577 33.2082 69.9577 33.2057 70.2361 33.0312V33.0365Z" fill="#F8ECFD"/>
<path fill-rule="evenodd" clip-rule="evenodd" d="M70.3846 34.2515C70.0984 33.765 70.1972 33.9367 70.1946 33.9315C70.3716 34.2333 70.3794 34.2776 70.3846 34.2515Z" fill="#F8ECFD"/>
<path fill-rule="evenodd" clip-rule="evenodd" d="M70.3847 34.2567C69.9554 34.9358 70.0491 34.863 70.0465 34.8343C70.2364 34.3582 70.3873 34.2281 70.3847 34.2567Z" fill="#F8ECFD"/>
<path fill-rule="evenodd" clip-rule="evenodd" d="M80.7506 50.321C80.8053 50.2273 80.8911 49.7876 80.9614 49.7876C81.0473 50.0582 80.67 50.1883 80.7506 50.321Z" fill="#F8ECFD"/>
<path fill-rule="evenodd" clip-rule="evenodd" d="M70.1841 33.9055C70.4287 34.1006 70.2517 33.5855 70.1971 33.9315L70.1841 33.9055Z" fill="#F8ECFD"/>
<path fill-rule="evenodd" clip-rule="evenodd" d="M87.1827 41.2349C87.115 41.4405 87.2763 41.5549 87.357 41.7006L87.3882 41.6876C87.7031 41.2427 87.2139 41.3182 87.1827 41.2349Z" fill="#F8ECFD"/>
<path fill-rule="evenodd" clip-rule="evenodd" d="M68.7979 84.9524C68.8083 84.9264 68.9175 84.5855 68.9696 84.6168C69.0346 84.6506 69.1699 84.674 68.7979 84.9524Z" fill="#F8ECFD"/>
<path fill-rule="evenodd" clip-rule="evenodd" d="M88.2935 41.6902C88.4262 41.8047 88.6785 41.8359 88.5849 42.1117C88.6291 42.1065 88.2987 41.6486 88.2935 41.6902Z" fill="#F8ECFD"/>
<path fill-rule="evenodd" clip-rule="evenodd" d="M87.3574 41.7008C87.1362 42.242 87.2507 42.0547 87.2221 42.0703C87.4198 41.6098 87.3964 41.6826 87.3574 41.7008Z" fill="#F8ECFD"/>
<path fill-rule="evenodd" clip-rule="evenodd" d="M87.9556 42.3696C87.9921 42.414 88.0496 42.4741 87.966 42.3983L87.9556 42.3696Z" fill="#F8ECFD"/>
<path fill-rule="evenodd" clip-rule="evenodd" d="M70.0439 34.7954C70.0802 34.8264 70.0802 34.8109 70.0465 34.8316V34.7954H70.0439Z" fill="#F8ECFD"/>
<path fill-rule="evenodd" clip-rule="evenodd" d="M80.7275 50.2821C80.845 50.2978 80.7484 50.196 80.751 50.3187L80.7275 50.2821Z" fill="#F8ECFD"/>
<path fill-rule="evenodd" clip-rule="evenodd" d="M88.3459 41.7165C88.3905 41.6457 88.3722 41.6378 88.2935 41.6903C88.2987 41.6457 88.2856 41.6457 88.3459 41.7165Z" fill="#F8ECFD"/>
<path fill-rule="evenodd" clip-rule="evenodd" d="M87.1966 41.2723C87.0681 41.2303 87.2176 41.1489 87.1389 41.2565C87.1074 41.2985 87.1625 41.3195 87.1835 41.2355L87.1966 41.2723Z" fill="#F8ECFD"/>
<path fill-rule="evenodd" clip-rule="evenodd" d="M24.7192 36.2341C22.9317 34.496 21.5449 33.6139 22.1407 31.6599C22.9317 29.0736 26.8215 23.6044 29.5405 22.9669C31.034 22.6183 31.5622 22.0068 32.4 21.9392C36.8024 21.5931 35.9308 15.1144 42.2899 17.019C46.5804 18.3017 51.4928 20.7423 52.4581 25.0953C52.6116 25.7822 52.6533 25.7536 53.348 25.4882C53.9464 25.2592 54.2664 24.9236 54.3133 24.2315C54.4668 21.9444 57.3133 18.8351 59.348 17.4171C69.2768 10.4986 68.6108 4.60269 83.1424 13.4908C96.6333 21.7414 97.4035 19.9305 99.7894 31.1864C100.219 33.2211 100.245 30.9132 105.053 31.2254C109.515 31.5142 110.423 32.0372 111.756 32.7215C113.551 33.6452 114.839 36.9756 114.62 38.9999C114.514 39.9834 115.055 40.3321 115.388 40.8967C117.149 43.8837 114.821 44.4977 110.824 47.2219C108.904 48.5333 115.528 46.2306 116.148 49.8394C116.285 50.633 115.83 49.6937 116.137 52.2878C116.582 56.0502 114.693 55.2644 109.403 64.8993C107.161 68.9869 105.748 80.0476 93.6463 82.0276C90.7087 82.509 89.4806 81.9626 87.8675 82.7301C83.4026 84.8585 81.524 84.7935 79.1927 84.3667C76.8432 83.9348 81.0817 85.1733 77.8892 106.319C75.1884 124.22 64.1537 148.093 64.3046 142.02C64.3124 141.611 63.5552 144.018 68.7929 132.773C79.7677 109.189 78.2977 83.6538 76.8952 83.9817C76.4971 84.0753 76.7625 84.424 76.7885 84.6555C77.4911 90.8429 77.0045 102.244 76.2474 102.018C75.6775 101.854 77.387 98.8906 76.4295 84.8377C76.4165 84.6477 76.3254 83.7891 75.9481 83.8724C74.7539 84.1352 76.8484 81.5671 76.1979 97.2488C76.1901 97.4335 76.1693 97.8108 75.995 97.7457C75.6463 97.6182 76.2812 83.352 75.0843 83.8333C74.7487 83.9712 75.4356 88.6547 75.3523 89.3962C75.3367 89.5549 75.0973 89.5315 75.0765 89.4274C74.6055 87.2288 74.8813 83.7865 74.2491 83.94C73.7417 84.0675 74.733 86.2167 74.1346 86.1334C73.9499 86.1074 73.9551 85.7796 73.7547 84.5307C73.6585 83.9348 73.0158 84.143 73.0964 84.6295C74.7487 94.6287 72.7946 112.004 69.5344 120.812C65.6342 131.323 61.2291 139.27 60.5917 139.852C60.2586 140.159 59.8788 139.816 60.0349 139.452C60.217 139.03 64.06 132.598 66.5657 126.541C73.3722 110.1 73.5674 91.535 72.5162 85.4205C72.2144 83.6668 71.2543 86.8412 61.2396 87.1248C54.8493 87.3017 41.9542 72.5177 38.5067 64.7171C38.2075 64.0432 38.1008 63.2965 37.8406 62.6174C37.596 61.9799 35.0045 61.0094 33.1338 55.6209C31.9057 52.0823 29.7695 49.0875 28.5804 46.8472C26.2023 42.359 31.2188 42.2393 24.7166 36.2315L24.7192 36.2341ZM88.2942 41.6929C88.328 41.6721 88.2135 41.5394 88.609 42.1118C88.4009 42.3173 88.5153 42.5125 88.6272 42.6998C88.7287 42.8793 89.0045 42.3485 88.583 42.1144C88.6767 41.8386 88.4269 41.8074 88.2916 41.6929H88.2942ZM87.1832 41.2375C87.1623 41.3208 87.1077 41.3 87.1389 41.2583C87.217 41.1517 87.0687 41.2323 87.1962 41.274C87.6931 41.3052 87.4434 41.5602 87.2222 42.0727C87.3289 42.2861 87.217 42.5957 87.4928 42.7388C87.2196 43.1916 87.5448 43.6261 87.5032 44.0736C87.4902 44.2063 87.7634 44.2844 87.7244 43.9747C87.6697 43.5558 87.7166 43.1135 87.4668 42.7414C87.5396 42.4526 87.4954 42.2158 87.2014 42.0832C87.2534 41.9557 87.3055 41.8282 87.3575 41.7007C87.2768 41.555 87.1155 41.4379 87.1832 41.2349V41.2375ZM80.7513 50.3208C80.746 50.006 80.5249 51.0831 81.5526 48.5073C82.4711 46.2098 84.1311 43.3529 86.374 44.378C87.6905 44.9817 85.4997 38.7735 85.0028 37.4257C84.5735 36.2627 83.7408 35.7683 82.5544 35.7293C80.6107 35.6695 80.2179 36.7544 78.4095 36.2289C76.2057 35.5888 72.7816 35.1205 71.0383 36.6296C68.5119 38.8152 69.217 33.4969 63.3731 43.483C62.1762 45.5281 62.5223 46.5975 62.8918 48.9678C62.9334 49.2358 62.9906 49.5298 63.2977 49.6027C64.2369 49.8212 64.9499 50.4587 65.7747 50.8854C67.0782 51.5567 69.5474 51.3537 69.1207 50.2323C68.4078 48.3824 68.4885 42.2393 69.1702 42.4838C69.472 42.5931 68.4 46.0302 69.5995 50.3572C69.6984 50.7059 70.1953 50.6694 70.1329 50.2453C70.1277 50.2167 69.2456 45.4786 69.8232 45.4266C70.1849 45.3928 69.6983 45.3251 70.4711 49.6989C70.6168 50.5211 70.6298 50.5133 71.4911 50.5602C72.8258 50.633 74.1866 50.4821 75.4798 50.9452C76.6402 51.359 75.2977 50.2583 75.7634 44.6174C75.779 44.4171 75.8883 43.306 76.1355 43.3191C76.5466 43.3425 75.0114 51.0337 77.5197 52.0302C78.1624 52.2852 78.0062 52.5636 78.1858 48.5723C78.2092 48.0545 78.1806 47.7267 78.3939 47.7969C78.8493 47.9374 78.0947 52.4413 78.7062 53.0164C79.7677 54.0181 79.2578 42.0623 79.544 41.9947C80.4833 41.7735 79.3957 54.2158 79.4087 54.2601C80.2361 53.9374 80.72 45.1794 80.975 45.1846C81.3783 45.1924 80.9386 50.006 80.7513 50.3208ZM70.0496 34.8342C70.0834 34.8134 70.0834 34.8264 70.047 34.7978C70.4581 34.1473 70.4347 34.3399 70.1979 33.934C70.2526 33.5879 70.4243 34.1005 70.1849 33.908C70.5127 34.4622 70.3801 34.0042 70.0496 34.8368V34.8342ZM70.8822 32.8308C70.7651 33.1456 70.6871 32.6773 70.8926 32.862C70.877 32.6903 70.8588 32.5185 70.8406 32.3468C71.7539 31.2618 72.8206 29.3286 73.1511 29.5628C73.3644 29.7163 70.7495 32.9531 71.3011 33.3199C71.3974 33.385 73.6819 31.6911 74.4598 29.8282C75.7244 26.8126 81.3861 26.0918 83.655 30.2653C84.3497 31.5402 84.9481 32.4665 86.4885 32.1803C87.0427 32.0762 86.9152 32.3416 86.4416 30.5983C86.4208 30.5229 86.4859 30.424 86.5119 30.3355C86.5925 30.385 86.7096 30.411 86.746 30.4839C88.0132 33.0493 86.4312 32.4639 87.9377 33.7544C88.9186 34.5897 87.5734 30.8767 87.1936 30.2133C86.348 28.738 88.315 29.8464 88.9264 34.7172C89.0487 35.7033 89.4338 35.6903 89.3193 35.0346C88.635 31.1135 88.1277 31.1369 88.4399 30.9964C89.0852 30.7102 89.6446 35.2531 89.9776 35.2193C90.3523 35.1829 90.2586 35.0892 90.0349 32.6538C89.9984 32.2401 90.2664 32.287 90.3497 32.555C90.8388 34.1213 90.2794 35.0918 91.0522 35.0528C92.3922 34.9852 93.3497 36.0077 93.1259 35.0424C92.0123 30.2575 89.8527 31.293 87.6957 28.6469C84.6281 24.8767 84.6853 24.6218 83.8865 24.8481C81.8415 25.431 79.4035 23.8906 79.4087 22.8551C79.4113 22.176 79.1537 22.0459 78.4824 22.3243C77.4442 22.7536 76.4477 23.248 75.8493 24.3069C72.7478 29.7839 72.4668 26.2479 70.0444 32.529C69.9663 32.7319 69.9872 32.9322 70.2317 33.0233C69.9507 33.1976 69.9507 33.2002 70.2317 33.0285C70.799 30.8195 72.6177 28.738 72.8389 28.6235C73.086 28.4882 73.1745 28.6885 73.0756 28.816C72.3991 29.7059 71.4989 30.679 71.3922 31.6547C70.7209 32.4847 70.8276 32.2115 70.877 32.8256L70.8822 32.8308ZM88.0106 42.437C87.8857 42.2809 88.263 42.0467 87.8467 41.7163C87.9741 41.0554 88.1094 40.4101 87.8102 39.7492C87.1259 38.2557 88.609 37.6391 87.3939 36.5359C86.7799 35.9791 87.1181 36.4162 84.1728 34.1838C83.4442 33.6322 82.1823 32.5576 81.4928 32.9427C79.1589 34.2566 78.0323 32.8334 77.1112 34.5558C76.5674 35.5784 79.8796 35.3624 80.7539 35.1439C86.361 33.7362 85.5752 39.0884 87.295 40.574C87.6151 40.8498 87.5552 41.3962 87.8753 41.7137C87.714 42.0259 88.0444 42.4682 88.0106 42.437ZM82.6506 24.1144C83.132 24.6113 84.6229 23.1699 85.851 25.163C86.4911 26.1829 86.6472 26.6148 88.008 25.0537C88.1927 24.8403 88.609 24.627 88.4451 24.3564C88.263 24.0597 87.8362 24.3069 87.5162 24.3069C87.0947 24.3069 86.8683 25.2957 86.0227 25.3945C86.6055 24.679 87.0192 24.4396 86.3297 24.1352C83.9438 23.0866 84.3653 22.2644 83.0878 23.5264C82.9186 23.6929 82.7365 23.849 82.6506 24.0806C81.8675 23.5238 83.9594 22.7068 83.5925 22.2488C83.2022 21.7623 80.0722 24.6296 82.648 24.117L82.6506 24.1144ZM106.143 52.751C104.72 46.6417 101.923 43.6469 99.7009 36.5801C98.0383 31.2956 97.1797 38.5289 91.9785 36.0962C90.0739 35.2037 88.0704 37.9591 89.0045 39.9756C89.9334 41.9843 90.3289 44.2167 88.3098 45.1092C86.1736 46.0537 85.7703 44.0502 84.485 45.5541C83.4885 46.7198 81.9559 49.7119 81.4043 52.1577C80.6394 55.5714 79.6194 55.587 80.5457 57.424C85.2708 66.7883 84.5969 63.0519 84.4746 70.2176C84.3783 76.0016 79.4763 78.6243 75.5292 81.8845C74.1762 83.0033 75.7816 83.888 82.0548 77.1282C82.3436 76.816 82.4763 77.1022 82.2916 77.3338C80.72 79.3112 78.7998 81.0389 76.825 82.3607C76.2526 82.7432 76.6532 84.3771 82.4061 78.6972C89.5275 71.6642 90.459 67.5584 90.9559 67.9617C91.1849 68.1517 88.8744 71.7735 88.7027 72.0103C82.6897 80.3312 76.9785 83.2817 78.4668 83.0892C81.0271 82.7588 93.9741 74.8047 97.851 59.9713C98.3323 58.1239 98.1034 58.0432 98.4026 56.4743C98.4312 56.313 98.7174 56.2687 98.6888 56.5315C96.3757 75.3954 80.0982 82.5142 79.6845 83.2557C80.5431 83.7189 86.8033 79.9695 92.7799 72.7544C96.7322 67.9851 96.5214 66.9392 96.9585 67.2436C97.2265 67.4309 93.1311 75.2419 81.4512 83.2948C90.1103 82.2306 108.977 64.9409 106.143 52.7458V52.751ZM62.5717 85.7952C64.1745 85.6573 64.2942 85.751 64.4087 85.2436C65.2491 81.4708 64.8302 84.3069 66.217 77.568C66.243 77.4457 66.2768 77.2609 66.4486 77.2895C66.6229 77.3208 66.5526 77.4951 66.537 77.6148C65.6368 84.6139 63.8493 85.6885 65.4546 85.5142C66.3211 85.4205 67.1927 85.3424 68.0279 85.038C68.9568 84.6998 68.72 85.1681 68.9256 84.7961C68.9568 84.7414 69.1624 84.7206 68.9724 84.6165C68.9204 84.5853 68.8111 84.9261 68.8007 84.9522C68.5743 84.5307 68.629 84.1664 68.9282 83.7579C72.8701 78.3798 73.4243 71.9244 73.5804 73.7926C73.596 74.0085 72.7608 78.8611 70.034 82.8186C68.8944 84.4708 71.1268 82.3477 71.962 80.6122C73.6428 77.11 73.5179 77.1907 73.7235 77.2739C73.9369 77.3598 73.7469 77.6148 73.5674 78.0857C71.6003 83.1621 69.7062 83.7813 69.9768 84.1482C70.3228 84.6113 73.1303 82.587 73.7313 81.9886C80.7044 75.0623 83.8449 75.757 83.7799 65.9921C83.7721 64.7952 83.3974 64.777 81.4694 60.7024C80.2413 58.1135 79.7469 58.8368 78.524 55.28C77.9724 53.6694 77.2803 53.0346 76.2812 52.6391C74.8449 52.0719 71.7747 50.607 68.5015 52.2644C66.4772 53.2896 62.5405 48.8975 60.6567 51.6139C60.0167 52.535 59.9334 53.0944 59.4624 53.019C59.0227 52.9487 59.0383 52.4179 58.9915 51.8091C58.812 49.4674 58.6194 48.8429 59.0644 47.7137C59.5795 46.3971 58.6923 45.7388 58.0054 44.1959C57.2847 42.5749 56.6706 43.1291 51.6125 39.5853C49.3488 37.9982 45.4954 40.777 43.3488 42.5385C39.2118 45.934 38.1528 58.9643 38.9438 61.8628C41.4078 70.9045 51.2977 80.4743 54.2482 82.3477C53.5379 81.2653 52.9239 80.404 52.3853 79.496C47.1997 70.7822 48.2534 61.1031 48.8935 61.0302C49.4659 60.9626 46.6272 71.4535 54.2743 81.5671C59.3922 88.3529 50.5405 77.1725 50.0878 66.1534C50.0644 65.5419 50.0722 65.2427 50.2413 65.2479C50.4182 65.2505 50.3974 65.5576 50.426 65.9582C50.8475 71.836 52.5232 75.5749 54.4538 79.9695C55.6246 82.6339 57.1702 85.2644 60.0063 85.7718C61.5648 86.0528 62.8241 85.7848 62.5769 85.7926L62.5717 85.7952ZM33.5136 46.2254C40.2968 47.7891 38.5327 50.6668 39.805 46.6079C40.1667 45.4526 40.328 45.3225 38.7461 44.4067C36.5995 43.1734 34.8016 42.9106 32.6108 42.7649C32.322 42.744 32.3454 42.424 32.577 42.398C34.3749 42.2106 37.6689 42.9158 39.9351 44.8204C40.0652 44.927 40.1797 45.2184 40.3931 44.9348C40.5388 44.7449 40.4633 44.5289 40.289 44.4015C35.1841 40.5975 29.9126 41.9609 29.8449 41.4041C29.7799 40.7432 36.688 40.9799 40.4321 44.0268C40.5934 44.1569 40.8458 44.084 40.6715 43.8056C40.3957 43.3685 39.3159 42.7154 39.0349 42.5125C38.6602 42.2445 38.9204 41.9947 39.217 42.1924C41.0696 43.4283 40.9707 43.8837 41.4156 43.2228C43.1719 40.5923 44.2075 41.1881 43.4763 40.1551C40.8198 36.3928 37.5648 34.7458 37.8146 34.3919C38.0982 33.9912 41.8814 37.1968 43.864 39.9678C44.3532 40.6495 45.0713 40.1291 44.7669 39.3954C44.6056 39.0077 42.0401 35.6434 39.7686 33.8559C33.7972 29.1647 32.5275 30.2809 32.59 29.7709C32.6862 28.9591 38.8892 31.1916 44.158 37.8394C44.2803 37.993 44.3584 38.3702 44.6498 38.1803C45.6229 37.5454 40.2734 32.8828 39.2378 32.1152C37.5648 30.8741 39.9143 31.2982 44.1034 36.0936C44.2777 36.2965 44.4234 36.744 44.7409 36.5801C46.0678 35.888 42.8259 32.1126 43.2266 31.9643C43.838 31.7406 44.9464 34.8368 45.2508 34.6963C46.1017 34.3008 43.7287 29.5914 40.6116 27.0623C39.5371 26.1855 40.0782 26.0866 40.4451 26.3832C45.1728 30.195 45.2404 33.437 45.7842 33.1976C46.7261 32.7865 40.864 25.8082 42.3081 26.7059C42.6854 26.9401 44.7981 29.875 45.5761 31.3451C45.753 31.6807 45.8024 32.2662 46.1927 32.2557C46.5856 32.2453 47.0852 30.5593 47.7357 29.9427C48.0999 29.5966 47.7747 28.8056 48.5709 28.7718C49.0418 28.751 47.72 26.6877 48.9013 28.0224C50.0722 29.3416 48.1103 24.9496 45.6411 22.5194C44.9568 21.8403 46.4607 21.6686 49.4425 27.2783C49.6819 27.7206 49.9655 27.5255 49.838 27.117C49.289 25.3763 49.3488 25.98 49.4139 25.5142C50.145 25.9461 49.8796 26.9296 50.3922 27.0129C50.8111 27.0806 51.1442 26.5003 51.5709 26.3C52.6429 25.7952 50.8163 22.7874 49.5752 21.653C46.9525 19.254 42.1312 17.3911 40.0106 17.5186C36.6177 17.7241 36.6359 21.6452 33.6906 22.3919C27.4824 23.9687 26.9386 25.2306 23.5457 30.6009C22.5752 32.1387 22.557 32.5654 27.0375 37.0224C29.923 39.8923 28.8979 42.3251 28.7756 43.5636C28.6533 44.8047 30.0791 47.1178 30.2196 47.339C32.9074 51.5931 33.0167 53.0866 33.9039 55.1994C35.0488 57.9053 37.1069 60.6243 37.4841 60.4656C37.8016 60.3303 37.3358 59.1985 37.8536 56.1829C38.1684 54.3511 38.322 52.4934 38.7825 50.6825C39.1338 49.3034 36.1936 48.9704 36.4694 48.4656C36.688 48.0649 38.6706 49.6235 38.871 49.3243C38.9646 49.1838 38.8111 49.0979 38.7096 49.0224C35.5457 46.7119 33.8701 47.0346 33.5162 46.2202L33.5136 46.2254ZM56.949 38.7891C56.4807 40.0094 55.4815 40.7614 56.5821 41.1543C57.4876 41.4795 57.217 41.4769 58.2812 39.5541C59.8293 36.7597 64.3827 34.3191 60.7582 37.3087C59.5353 38.3182 56.949 41.2688 58.2317 42.3538C59.6498 43.5506 60.5448 45.8039 59.8215 48.13C59.5327 49.0615 59.5483 51.104 60.1363 50.4613C61.2187 49.2826 62.0097 49.9357 61.8172 48.9938C61.263 46.2904 61.4919 43.8707 63.1025 41.4223C63.4642 40.8733 66.6515 36.2523 68.1736 36.169C68.6186 36.1456 68.4885 35.7735 68.4546 35.2662C68.1242 30.5099 71.2153 28.3919 71.9308 27.359C74.1372 24.1768 72.4564 24.653 72.9169 22.9409C73.2057 21.8689 73.6533 21.0571 72.4954 20.3546C70.8458 19.3555 69.0531 19.3295 67.2343 19.4466C58.8796 19.9852 58.7027 24.1196 53.0149 26.6512C45.5709 29.9635 45.6359 39.398 46.544 39.0155C48.2899 38.2844 48.1832 38.2037 48.3549 37.7119C51.0947 29.7969 56.4937 27.8898 56.5978 28.254C56.7643 28.8655 52.0288 29.032 48.8649 37.5142C48.805 37.6755 48.6229 37.9227 48.9091 38.019C49.9915 38.3858 49.3801 35.9817 52.1667 33.0077C55.3462 29.6044 48.9221 37.3321 50.2075 37.9331C50.6394 38.1335 50.603 37.829 51.3315 36.5723C51.5579 36.182 51.8285 36.3668 51.6307 36.731C51.0999 37.7093 50.9568 37.8733 51.1416 38.1074C51.446 38.4951 52.3749 39.2835 52.6455 38.7423C57.7842 28.3945 65.2023 29.8802 62.9958 30.1326C55.3514 31.0459 50.8996 43.2306 53.8996 38.3078C55.8146 35.1673 57.6827 34.9019 56.3428 36.0025C55.3228 36.8377 54.6021 37.9097 53.9464 39.0285C53.5197 39.7623 53.5431 39.8221 54.1337 40.1239C55.4035 40.7666 54.9794 39.5203 56.0149 38.5289C56.1372 38.4093 56.2439 38.11 56.4599 38.2922C56.6082 38.4171 56.4104 38.5914 56.3063 38.7111C56.0331 39.0233 55.1771 40.4492 55.5284 40.5584C55.8614 40.6599 55.8016 39.45 56.9464 38.7969L56.949 38.7891ZM91.8328 80.4483C99.243 77.4379 106.674 62.2349 107.27 62.7397C107.598 63.0207 100.253 74.8255 95.1814 78.8507C93.3913 80.2739 92.9568 80.3338 92.9906 80.4769C93.0609 80.7605 95.8319 80.1074 95.8917 80.0918C106.437 77.3156 105.724 66.6894 111.602 58.7249C113.598 56.019 115.846 54.8689 115.068 52.0302C114.93 51.5307 114.964 51.0337 115.128 50.5367C115.463 49.5116 114.87 48.4942 113.819 48.4864C112.385 48.476 110.931 48.1716 109.518 48.7674C108.253 49.3008 108.019 47.5472 111.045 45.7492C118.521 41.3156 112.978 42.411 113.527 38.1647C114.36 31.7692 103.924 30.8065 100.143 33.0545C99.2586 33.5827 99.982 33.8767 100.305 35.4977C100.341 35.6851 100.435 35.823 100.643 35.7137C101.658 35.1751 100.109 36.7076 100.781 37.012C100.958 37.0927 100.947 36.9704 102.006 35.8724C102.175 35.7007 102.441 35.8542 102.233 36.0936C100.552 38.0164 101.166 38.1803 101.449 37.9149C102.063 37.3425 102.212 36.921 103.609 35.8958C105.899 34.2176 108.56 34.1786 106.174 35.019C103.69 35.8958 101.814 37.9357 101.507 38.646C101.34 39.0285 101.598 39.3147 101.881 38.9088C103.32 36.8611 103.635 37.5116 103.266 37.8056C102.875 38.1126 101.54 39.5853 101.952 40.4518C105.55 48.0051 102.602 44.391 109.932 41.352C110.054 41.3026 110.194 41.4639 110.07 41.5654C110.041 41.5888 104.129 45.0884 104.567 45.7024C104.949 46.241 107.239 43.0797 111.579 41.8464C111.922 41.7527 112.039 42.0181 111.722 42.1456C109.534 43.012 107.15 44.3286 105.344 45.9106C104.426 46.7145 105.274 46.816 106.653 51.4604C107.918 55.7249 106.349 59.2349 107.291 57.986C110.392 53.8802 110.772 54.4864 110.551 54.8221C110.309 55.1838 109.83 54.8715 106.674 59.6616C106.07 60.5801 105.719 62.058 106.552 60.7674C109.487 56.2505 112.24 55.1681 111.579 55.8212C103.651 63.7154 107.002 62.7813 98.5431 73.3529C94.5856 78.3017 90.446 81.0207 91.825 80.4457L91.8328 80.4483ZM60.9664 19.9513C61.4581 20.0866 62.4624 19.3711 63.7634 19.0953C63.8935 19.0667 63.9794 18.986 64.0522 18.8481C64.531 17.9244 65.5041 17.5654 66.2586 16.9591C66.3497 16.8863 66.6697 17.0138 66.4382 17.1985C61.6168 21.1404 67.354 16.7198 72.6255 19.5558C73.3983 19.9722 73.3827 19.2618 74.7174 18.0103C77.2465 15.6374 79.8692 15.3173 77.7174 16.4075C76.2734 17.1361 72.5318 19.9305 73.9004 20.6486C74.5301 20.9791 75.256 18.5021 79.2473 16.6521C79.7157 16.4336 79.7313 16.2202 79.5518 15.8013C78.446 13.2202 76.5752 11.5394 73.8432 10.8108C68.5561 9.4006 66.0791 13.3971 63.1936 15.5151C59.8996 17.9297 57.152 19.6937 55.5908 22.7666C53.3506 27.1846 58.7027 20.7605 62.2673 18.4318C64.3644 17.0606 66.7244 16.0797 68.4833 14.2011C68.5717 14.1075 68.707 13.9982 68.8319 14.1101C69.1363 14.3807 66.7374 16.3321 65.2985 17.1231C64.5726 17.5212 61.4139 19.2592 60.9664 19.9539V19.9513ZM98.2959 29.0892C97.1797 21.5047 95.5613 21.692 82.2317 13.8863C81.8441 13.6599 78.3887 11.4899 78.1728 11.8048C77.91 12.1898 80.9308 13.6807 81.2716 16.5584C81.4408 17.9947 83.2153 17.3807 83.6472 19.5663C83.988 21.2887 85.9447 23.7735 88.2708 23.4639C90.8909 23.1153 94.7079 23.6122 95.733 26.0346C95.9802 26.62 98.5431 30.7076 98.2985 29.0892H98.2959ZM87.2664 26.3312C86.8944 26.6955 87.3367 27.2159 87.74 26.8698C89.0774 25.7224 89.0878 25.6183 89.2205 25.7484C89.6107 26.1335 87.5839 27.1326 87.9299 27.5697C88.3046 28.0485 89.0045 26.8204 89.5119 26.7865C89.5249 27.1014 89.3636 27.2133 88.7885 27.7623C88.2161 28.3035 87.9533 28.2306 91.4009 30.5099C91.9681 30.8845 91.9759 30.8793 92.4676 30.3329C93.0609 29.6721 93.6021 28.9747 93.9533 28.1499C94.1511 27.692 94.4581 27.7935 94.2838 28.2488C93.3341 30.6712 91.7079 30.908 92.746 31.8394C93.0036 32.0684 93.1467 31.7562 93.2846 31.5793C94.9264 29.4613 94.6793 28.5688 95.0409 28.6729C95.2907 28.7458 95.0175 29.3182 94.7859 29.8802C93.8987 32.0372 92.8085 32.1855 93.3185 33.0441C93.8935 34.0094 95.668 29.9479 96.2326 29.5472C96.3991 30.3355 94.5726 32.8438 94.0808 33.476C93.7686 33.8767 93.7972 35.2323 94.1094 35.5472C94.2994 35.7397 95.3037 35.7345 96.1181 34.9435C98.2959 32.823 99.2586 34.3347 98.8501 32.7319C98.1944 30.169 95.1736 27.6712 94.2239 25.6703C93.995 25.1916 92.3792 24.2913 90.9403 24.143C88.9681 23.9401 89.2101 24.4292 87.269 26.3286L87.2664 26.3312ZM72.8779 33.8247C76.8874 29.7657 80.6524 30.3043 79.1329 30.705C77.1528 31.2254 75.5995 31.8394 73.2838 34.0172C72.727 34.5428 73.2656 34.7458 73.6272 34.4752C74.158 34.0771 75.1181 33.091 76.3072 32.4561C76.7235 32.2349 76.9447 32.4873 76.5049 32.7449C75.7946 33.1638 73.7365 34.5142 74.7565 34.7536C76.0184 35.0476 76.0366 34.8499 76.4659 34.1343C77.7382 32.0112 79.1563 33.3954 80.9672 32.3364C81.6697 31.9253 82.2942 31.9565 82.9369 32.4041C84.7348 33.653 86.5977 34.816 88.1875 36.3407C88.4737 36.6165 88.5986 36.4396 88.5414 36.1534C88.2291 34.6157 86.949 34.0953 85.7079 33.424C81.5318 31.1682 83.6029 29.7267 80.7304 28.7822C79.3072 28.3139 76.2682 28.0277 75.5318 29.5602C73.7807 33.2054 71.9646 33.2913 71.2179 34.9097C71.1034 35.1543 71.2621 35.2271 71.4208 35.1595C72.7036 34.6261 72.3159 34.1447 72.8753 33.8273L72.8779 33.8247ZM77.4234 20.7397C73.8614 23.7891 73.9837 26.1127 74.7955 24.5801C76.2317 21.8559 78.4876 21.8013 78.8336 21.2081C79.6194 19.8577 81.6905 19.1604 81.7686 18.7987C81.8831 18.2783 81.1285 18.385 80.8918 18.0337C80.5639 17.542 80.1866 17.7163 79.7651 17.9635C73.6923 21.5229 73.6923 24.8611 74.4468 23.5524C76.1615 20.555 79.622 18.8611 77.4234 20.7397ZM80.5301 23.4457C81.3289 24.0155 81.1129 23.1673 82.9603 21.921C83.4911 21.5645 82.8172 21.4188 82.3332 19.457C82.1381 18.6686 80.0123 20.4639 79.5101 20.9609C79.1797 21.2861 79.4997 21.5723 79.825 21.3277C81.6203 19.9748 81.7244 19.7484 81.9585 20.0112C82.0496 20.1153 81.9273 20.1309 80.2439 21.5073C79.9395 21.7571 80.0019 22.0641 80.1658 22.3217C80.4572 22.777 81.0427 21.7414 81.2404 21.973C81.524 22.2983 79.8874 22.993 80.5275 23.4483L80.5301 23.4457ZM74.0019 22.1812C74.0019 23.1855 74.7851 20.4977 78.8675 18.0597C80.0123 17.3754 80.2621 17.3859 80.119 17.0554C79.6715 16.0199 74.0149 20.4665 74.0019 22.1812Z" fill="#BC90CC"/>
<path fill-rule="evenodd" clip-rule="evenodd" d="M76.1871 103.449C76.0648 107.862 73.7387 117.859 71.6104 123.104C71.2669 123.95 70.9391 123.726 71.2149 123.044C75.8411 111.601 75.2192 102.726 76.1897 103.452L76.1871 103.449Z" fill="#BC90CC"/>
<path fill-rule="evenodd" clip-rule="evenodd" d="M71.2849 124.759C71.8495 125.36 65.7975 137.599 65.2485 138.562C65.0793 138.861 64.7333 138.783 64.9388 138.359C71.4956 124.556 70.8191 124.548 71.2849 124.759Z" fill="#BC90CC"/>
<path fill-rule="evenodd" clip-rule="evenodd" d="M75.4821 99.2472C75.8411 103.33 73.5072 110.082 74.8056 102.812C75.3546 99.7467 74.9383 99.052 75.4821 99.2472Z" fill="#BC90CC"/>
<path fill-rule="evenodd" clip-rule="evenodd" d="M75.2867 94.9099C75.2711 95.3158 74.9121 95.2898 74.9121 94.8891C74.8938 87.8822 75.4559 90.5075 75.2867 94.9099Z" fill="#BC90CC"/>
<path fill-rule="evenodd" clip-rule="evenodd" d="M63.1936 67.9357C63.0844 65.9765 62.9491 65.7215 63.191 65.7033C63.982 65.6408 64.0158 85.0172 62.5718 85.7952C62.6004 85.7952 63.727 77.4717 63.1962 67.9357H63.1936Z" fill="#BC90CC"/>
<path fill-rule="evenodd" clip-rule="evenodd" d="M57.6538 82.8709C56.8394 82.8241 52.9573 73.9828 52.7362 70.0877C52.7179 69.8067 53.012 69.8067 53.0614 70.0799C54.6277 78.5049 58.1585 82.5535 57.6538 82.8709Z" fill="#BC90CC"/>
<path fill-rule="evenodd" clip-rule="evenodd" d="M74.969 79.4573C73.6863 79.9517 79.0957 72.3645 79.231 68.6334C79.3168 66.3775 81.8875 67.3012 74.969 79.4573Z" fill="#BC90CC"/>
<path fill-rule="evenodd" clip-rule="evenodd" d="M65.5352 73.6312C65.8838 73.8836 64.9575 81.8506 63.7867 85.0172C63.7424 85.1473 63.425 85.1629 63.4666 84.9261C63.6358 83.9009 64.8509 80.1126 65.1995 74.5809C65.2437 73.894 65.2854 73.5636 65.5352 73.6338V73.6312Z" fill="#BC90CC"/>
<path fill-rule="evenodd" clip-rule="evenodd" d="M78.5783 74.831C78.0449 74.6879 79.757 72.6974 80.5011 68.4329C80.9044 66.125 80.4335 65.2117 80.7639 65.1753C82.0258 65.0348 79.5644 75.099 78.5783 74.831Z" fill="#BC90CC"/>
<path fill-rule="evenodd" clip-rule="evenodd" d="M45.5734 73.0383C44.8917 73.1346 42.0687 64.0826 42.6619 63.0132C43.4113 63.3618 42.4824 65.2014 45.4017 72.2083C45.7244 72.9837 45.6307 72.8874 45.5734 73.0383Z" fill="#BC90CC"/>
<path fill-rule="evenodd" clip-rule="evenodd" d="M61.4633 84.8406C60.8753 84.8146 62.093 83.3809 61.8172 77.714C61.8042 77.4356 61.6585 76.9334 61.9291 76.9152C62.5717 76.8709 62.2023 84.864 61.4633 84.8406Z" fill="#BC90CC"/>
<path fill-rule="evenodd" clip-rule="evenodd" d="M61.127 84.5022C60.2241 84.8326 61.3586 82.5221 60.591 76.8109C60.5156 76.2463 61.5121 75.4684 61.1868 84.2264C61.1842 84.3226 61.1452 84.4163 61.127 84.5022Z" fill="#BC90CC"/>
<path fill-rule="evenodd" clip-rule="evenodd" d="M59.8574 60.5256C59.501 60.4631 59.8652 53.7008 60.2035 53.5733C60.4455 53.503 60.2061 60.5854 59.8574 60.5256Z" fill="#BC90CC"/>
<path fill-rule="evenodd" clip-rule="evenodd" d="M70.6373 79.0226C69.8515 79.3894 70.6737 78.4293 71.6364 73.66C71.7483 73.1032 72.0892 72.9705 71.9851 73.634C71.7405 75.2082 71.1551 77.8049 70.6373 79.0226Z" fill="#BC90CC"/>
<path fill-rule="evenodd" clip-rule="evenodd" d="M59.3473 58.7405C59.0975 58.855 59.0116 58.6989 59.0168 58.4205C59.1859 50.953 59.6829 57.528 59.3473 58.7405Z" fill="#BC90CC"/>
<path fill-rule="evenodd" clip-rule="evenodd" d="M57.4585 79.4002C56.9876 79.4965 56.3059 77.1209 56.1836 76.689C56.1134 76.4522 56.3787 76.3768 56.4464 76.5407C57.7187 79.5927 57.5158 79.0906 57.4611 79.4002H57.4585Z" fill="#BC90CC"/>
<path fill-rule="evenodd" clip-rule="evenodd" d="M67.9468 83.4823C67.7543 83.7737 67.4655 83.6462 67.6008 83.3834C68.7066 81.203 68.6181 81.2134 68.8081 81.3019C69.1359 81.4476 67.9625 83.4562 67.9468 83.4848V83.4823Z" fill="#BC90CC"/>
<path fill-rule="evenodd" clip-rule="evenodd" d="M66.5052 83.381C65.9614 83.6516 66.5494 81.7366 66.7472 81.3698C67.0802 80.7401 66.8487 82.9153 66.5052 83.381Z" fill="#BC90CC"/>
<path fill-rule="evenodd" clip-rule="evenodd" d="M61.6868 73.4807C61.7857 74.0141 62.0797 75.5597 61.6322 75.237C61.4917 75.1356 61.2939 73.3611 61.4735 73.3975C61.5333 73.4131 61.5906 73.4417 61.6894 73.4807H61.6868Z" fill="#BC90CC"/>
<path fill-rule="evenodd" clip-rule="evenodd" d="M60.7996 53.1388C60.8412 53.1414 61.0468 53.0972 61.039 53.3288C61.0286 53.6358 61.1951 53.961 60.9323 54.242C60.7528 54.4372 60.5784 53.4276 60.7996 53.1362V53.1388Z" fill="#BC90CC"/>
<path fill-rule="evenodd" clip-rule="evenodd" d="M61.6637 52.5195C61.877 52.7147 61.5934 53.6956 61.4321 53.2949C61.3228 53.0191 61.3202 52.5664 61.6637 52.5195Z" fill="#BC90CC"/>
<path fill-rule="evenodd" clip-rule="evenodd" d="M84.6929 82.3528C83.1864 81.7492 87.1049 81.2652 93.758 73.6572C94.3304 73.0042 94.4241 72.8402 94.5308 73.0172C94.6088 73.1473 94.5724 73.1889 94.0572 73.8524C90.4952 78.4317 84.1596 82.3892 84.6929 82.3528Z" fill="#BC90CC"/>
<path fill-rule="evenodd" clip-rule="evenodd" d="M92.4907 39.8848C93.815 42.4035 96.8306 49.8423 96.4534 49.9828C96.1359 50.1025 95.5973 48.4269 95.5869 48.4009C93.3701 41.5657 91.528 39.8146 92.4881 39.8848H92.4907Z" fill="#BC90CC"/>
<path fill-rule="evenodd" clip-rule="evenodd" d="M102.164 64.7954C100.429 65.8648 103.736 62.6046 104.803 57.0651C105.118 55.4207 104.925 54.8613 105.235 54.8613C105.937 54.8613 104.493 61.3583 102.162 64.7954H102.164Z" fill="#BC90CC"/>
<path fill-rule="evenodd" clip-rule="evenodd" d="M88.5096 69.4973C88.4914 69.5233 88.8713 69.3698 88.6944 69.7549C88.5799 70.002 87.4064 72.336 87.076 72.0263C86.9147 71.8754 87.0395 71.8104 88.5096 69.4973Z" fill="#BC90CC"/>
<path fill-rule="evenodd" clip-rule="evenodd" d="M94.3589 42.6033C94.1169 42.2989 93.7916 40.8184 94.1169 41.1436C94.3458 41.3752 94.9183 42.7386 94.3589 42.6033Z" fill="#BC90CC"/>
<path fill-rule="evenodd" clip-rule="evenodd" d="M93.2092 44.5578C94.021 47.0478 92.6446 44.8101 93.0192 44.5317C93.0531 44.5057 93.1311 44.5448 93.2092 44.5578Z" fill="#BC90CC"/>
<path fill-rule="evenodd" clip-rule="evenodd" d="M104.033 50.9063C103.778 51.1144 103.666 50.8178 103.669 50.6487C103.674 50.4457 103.442 50.2324 103.695 50.0424C103.814 49.954 104.041 50.339 104.033 50.9063Z" fill="#BC90CC"/>
<path fill-rule="evenodd" clip-rule="evenodd" d="M94.9077 40.4622C94.7672 40.6912 94.6163 40.3686 94.5252 40.1136C94.2988 39.4865 95.0846 40.0121 94.9077 40.4622Z" fill="#BC90CC"/>
<path fill-rule="evenodd" clip-rule="evenodd" d="M39.2425 27.1303C39.1202 26.8727 38.5868 26.8077 38.847 26.4876C38.9979 26.3029 39.2659 26.6828 39.4689 26.8259C39.664 26.9664 40.6918 27.6351 40.5721 27.8432C40.4264 28.0982 40.3093 27.9369 39.2451 27.1303H39.2425Z" fill="#BC90CC"/>
<path fill-rule="evenodd" clip-rule="evenodd" d="M34.9186 40.5614C34.6844 40.6343 34.4633 40.5432 34.2577 40.4651C33.9741 40.3559 33.3913 40.4417 33.4719 40.1217C33.5422 39.8459 35.2542 40.2154 34.9186 40.5614Z" fill="#BC90CC"/>
<path fill-rule="evenodd" clip-rule="evenodd" d="M64.705 24.3563C64.1403 24.6633 63.0658 24.8559 62.012 25.6599C61.6946 25.9018 61.4812 25.5792 61.7882 25.3424C62.3867 24.8819 64.7492 23.7058 64.7024 24.3563H64.705Z" fill="#BC90CC"/>
<path fill-rule="evenodd" clip-rule="evenodd" d="M47.5272 37.5874C47.4986 37.5978 47.1994 37.7591 47.1994 37.5197C47.1916 36.8797 47.5116 35.1234 48.0372 35.1338C48.2896 35.1338 47.6313 35.9248 47.5272 37.5874Z" fill="#BC90CC"/>
<path fill-rule="evenodd" clip-rule="evenodd" d="M64.0228 32.7736C63.825 32.9428 63.5596 32.8621 62.0349 33.6921C61.871 33.7806 61.6915 33.562 61.8632 33.4241C62.3185 33.0651 64.0904 32.1622 64.0228 32.771V32.7736Z" fill="#BC90CC"/>
<path fill-rule="evenodd" clip-rule="evenodd" d="M109.923 37.7433C110.181 37.6991 110.186 37.9332 110.02 38.0139C108.76 38.6149 106.481 39.2212 104.046 42.0937C103.882 42.2862 103.655 42.7025 103.471 42.5464C102.997 42.1457 106.936 38.2663 109.923 37.7433Z" fill="#BC90CC"/>
<path fill-rule="evenodd" clip-rule="evenodd" d="M105.875 46.379C106.169 46.1708 108.354 44.6357 108.539 45.0702C108.627 45.2836 108.414 45.1119 106.07 46.712C105.747 46.9332 105.541 46.6418 105.875 46.3816V46.379Z" fill="#BC90CC"/>
<path fill-rule="evenodd" clip-rule="evenodd" d="M108.565 60.6896C108.089 61.3661 108.027 61.5248 107.866 61.3869C107.572 61.1319 108.688 59.8466 109.133 59.8856C109.133 60.3202 108.67 60.432 108.565 60.6922V60.6896Z" fill="#BC90CC"/>
<path fill-rule="evenodd" clip-rule="evenodd" d="M105.118 43.038C104.967 42.6971 106.59 41.8099 106.684 42.0154C106.856 42.3823 106.216 42.4083 105.971 42.6477C105.859 42.757 105.253 43.2097 105.115 43.038H105.118Z" fill="#BC90CC"/>
<path fill-rule="evenodd" clip-rule="evenodd" d="M74.6392 49.6472C74.5455 49.3011 74.2879 47.4017 74.647 47.3965C74.9852 47.3913 74.7901 47.8154 74.8187 48.047C75.0737 50.0427 74.8187 49.6966 74.6366 49.6472H74.6392Z" fill="#BC90CC"/>
<path fill-rule="evenodd" clip-rule="evenodd" d="M68.004 50.2038C67.8245 50.0165 67.684 48.1639 67.8323 47.9401C68.1445 47.4692 68.5062 50.7398 68.004 50.2038Z" fill="#BC90CC"/>
<path fill-rule="evenodd" clip-rule="evenodd" d="M83.293 41.0971C83.8134 41.6461 83.4751 42.6478 83.0978 41.209C83.09 41.1752 83.1525 41.1153 83.1941 41.0789C83.2097 41.0659 83.2539 41.0867 83.293 41.0945V41.0971Z" fill="#BC90CC"/>
<path fill-rule="evenodd" clip-rule="evenodd" d="M70.4086 13.1654C70.7676 12.9157 72.1649 12.1377 72.3132 12.4447C72.4381 12.7075 71.7147 12.7205 70.5491 13.5037C70.2342 13.7145 69.961 13.5193 70.4086 13.1654Z" fill="#BC90CC"/>
<path fill-rule="evenodd" clip-rule="evenodd" d="M74.1839 16.3974C74.7485 15.8978 75.0581 15.5726 75.2169 15.7651C75.4328 16.0253 74.824 16.2205 74.6184 16.4833C74.556 16.5613 74.4701 16.6238 74.3868 16.6784C74.2307 16.7825 74.0694 17.0999 73.9185 16.9282C73.726 16.7122 74.072 16.5639 74.1865 16.3974H74.1839Z" fill="#BC90CC"/>
<path fill-rule="evenodd" clip-rule="evenodd" d="M88.5172 22.1214C88.3298 21.8898 88.7097 22.1552 89.9924 19.418C90.0263 19.3426 90.146 19.3061 90.224 19.2515C90.3515 19.9462 88.9257 22.6314 88.5172 22.1214Z" fill="#BC90CC"/>
<path fill-rule="evenodd" clip-rule="evenodd" d="M88.6163 20.6566C87.7447 20.9844 89.0951 18.6297 89.0925 19.2255C89.0847 19.7719 88.7152 20.1908 88.6163 20.6566Z" fill="#BC90CC"/>
<path fill-rule="evenodd" clip-rule="evenodd" d="M77.946 30.065C74.5557 31.9124 77.6 29.4093 77.9694 29.9271C77.9825 29.9453 77.959 29.9896 77.946 30.065Z" fill="#BC90CC"/>
<path fill-rule="evenodd" clip-rule="evenodd" d="M87.2272 39.2888C86.863 39.1821 86.3582 37.7901 86.4987 37.4727C86.8656 37.6834 87.3989 38.8985 87.2272 39.2888Z" fill="#BC90CC"/>
<path fill-rule="evenodd" clip-rule="evenodd" d="M84.4063 23.5396C84.232 23.6645 84.0551 23.5084 84.2294 23.3418C84.3361 23.2378 84.5052 23.2273 84.4063 23.5396Z" fill="#BC90CC"/>
</svg>
