<svg width="70" height="109" viewBox="0 0 70 109" fill="none" xmlns="http://www.w3.org/2000/svg">
<path d="M57.4957 7.17467C57.4905 7.19208 57.4852 7.19905 57.4974 7.17467C57.4974 7.17467 57.4974 7.17467 57.4957 7.17467ZM7.6668 85.4809C7.65287 85.5332 7.61457 85.6568 7.64068 85.5889C7.65113 85.5523 7.65635 85.5157 7.6668 85.4809ZM57.4957 7.17467C57.4905 7.19208 57.4852 7.19905 57.4974 7.17467C57.4974 7.17467 57.4974 7.17467 57.4957 7.17467ZM46.6632 1.63484C45.5246 2.45833 45.5542 2.75952 44.2589 3.40543C39.6314 5.73662 39.7915 12.288 43.815 13.8723C46.2175 14.8176 46.7276 16.2853 47.7113 16.7762C48.648 17.2498 47.2273 18.559 48.4791 21.5257C48.8273 22.3509 49.4175 23.2875 48.9074 26.4265C48.4547 29.2226 47.5268 32.8386 47.2465 33.6151C46.5274 35.619 45.4881 40.6365 45.3923 40.9185C43.035 47.9539 33.9488 60.3967 31.0431 62.2509C29.3143 63.3547 28.7955 63.8752 26.6035 65.4108C26.4399 65.1897 27.2791 62.9839 27.3452 62.8219C29.1106 58.4851 26.4973 58.5861 28.5186 56.3768C31.487 53.1438 33.7068 49.7993 31.6019 45.5391C30.5469 43.4012 30.8446 42.5882 30.4355 41.8099C29.6015 40.2187 27.9946 40.8176 26.5983 41.951C23.1425 44.7592 22.5557 45.3076 22.3103 46.5454C21.5721 50.2659 20.2977 51.8798 22.742 55.3531C23.5603 56.5126 24.3437 57.8828 26.1387 58.2466C28.8808 58.8072 25.9994 62.761 25.5259 64.7562C24.5022 69.0181 19.4881 70.6338 17.4929 73.6022C15.7937 76.1179 15.5831 75.9473 15.1722 76.7603C14.9372 77.2304 13.9901 77.1468 12.8532 77.7614C7.40739 80.6862 7.66506 81.7239 6.90598 86.4977C6.61176 88.3414 6.70403 88.5764 7.14102 90.0528C7.30293 90.5855 4.51038 96.4022 4.3624 96.8914C3.17678 100.814 3.61377 99.8633 2.35504 103.131C0.802073 107.195 -0.291269 107.416 0.0586701 107.708C0.587931 108.149 2.70498 104.043 3.96545 99.6874C5.13192 95.6535 4.14826 98.615 7.39694 90.8136C7.47529 91.658 8.17168 90.7631 7.13405 92.6486C5.72211 95.1974 5.92407 96.3778 5.62287 97.2291C3.44838 103.469 3.93063 102.315 3.09496 104.174C1.20076 108.394 0.742879 108.241 1.0963 108.46C1.94242 108.99 5.09187 99.9294 5.09884 99.912C6.34887 96.8966 6.19566 95.4429 6.84679 94.1371C8.53207 90.7561 8.70617 90.9024 8.81759 90.0615C9.01258 88.5729 11.4134 83.0697 12.2874 83.6024C13.4834 84.3319 14.0249 83.834 13.964 84.3388C13.7707 85.9771 13.6071 87.3124 15.0834 88.6095C16.7234 90.0528 17.5069 89.7533 19.5351 90.8223C23.6978 93.0142 26.0064 88.6669 28.1008 86.6735C28.6179 86.1843 27.6272 85.8709 27.0458 85.1014C24.2515 81.4209 18.642 80.4669 15.5779 82.6727C14.979 83.1097 14.8031 83.3186 14.4793 83.3064C13.8578 83.2838 12.3622 82.9739 12.7383 82.4829C14.4706 80.2266 14.8728 76.8073 19.2722 77.0493C21.8715 77.1973 20.9157 78.5274 24.0826 80.298C25.8828 81.306 28.8442 81.125 30.1099 80.5626C32.1434 79.6556 32.3123 77.9825 35.0247 77.0754C37.6171 76.2102 40.4061 72.1397 35.7298 70.9437C32.7075 70.1637 30.7262 69.3837 28.4264 70.4127C26.137 71.4311 22.7438 70.8514 21.3614 75.0037C20.7242 76.9205 20.2959 76.003 16.9706 76.2432C18.642 73.9817 19.0581 73.2487 20.2994 72.4496C22.3782 71.1108 25.6269 67.9074 25.6739 67.8673C26.5304 67.1622 34.6992 61.3909 37.5108 57.1655C39.8281 53.6852 39.7759 53.5703 40.5506 52.8774C44.4174 49.4146 43.5068 48.8679 45.8989 47.3184C48.7037 45.4974 49.1877 45.0482 50.1957 45.0969C55.7773 45.3616 54.9225 43.1714 56.6182 43.4186C57.5305 43.5492 57.8543 43.0443 59.954 42.7936C62.4749 42.4889 63.4742 41.9422 65.1787 40.4729C66.8274 39.0522 67.0467 37.2381 67.4907 35.4083C67.973 33.4114 66.7769 32.5809 65.8002 31.9194C67.4141 30.5457 68.6293 29.9016 68.2341 27.4433C67.9973 25.9565 66.6411 26.0487 65.8577 25.7806C64.4457 25.3088 64.1323 26.1689 62.6751 26.0174C59.3603 25.6675 54.4751 28.6184 53.7734 30.4395C52.6383 33.3801 55.02 39.0818 47.1089 45.2083C46.0156 46.0545 44.7394 46.629 43.6565 47.5291C43.5538 46.9911 46.3429 43.2306 47.2952 38.65C47.5703 37.3269 50.3715 29.052 49.985 26.195C49.9572 25.9948 50.1156 23.3485 50.1522 22.8976C50.4186 19.7446 52.2518 18.7157 53.6255 16.0972C53.8065 15.7543 53.9232 15.6446 55.981 13.5014C56.5016 12.9617 56.3954 13.3587 57.6715 12.7981C58.932 12.2427 59.2767 12.0181 60.0131 12.1052C62.2468 12.3733 63.0564 12.5961 65.1769 11.4976C67.8824 10.0961 68.49 7.88848 69.7766 4.30378C70.1596 3.23655 69.9594 2.19196 69.7261 1.15085C69.6286 0.710378 69.3431 0.388295 68.8243 0.365662C68.3194 0.346511 68.1227 -0.0330249 66.1797 0.00527691C62.6507 0.0783985 62.2155 2.47226 59.8007 4.12446C57.2328 5.87764 55.3891 8.56224 55.9392 11.6229C56.27 13.4544 53.5819 12.8468 49.3165 20.7962C48.681 20.0267 49.118 17.5179 48.97 16.2034C48.7751 14.5164 53.514 12.4481 51.4318 7.62385C50.6884 5.89331 50.6693 4.49703 49.1494 3.3828C47.0219 1.82635 47.3057 1.16129 46.6545 1.63484H46.6632ZM56.1882 12.7615C56.2805 12.8607 56.0698 13 56.0176 12.9739C55.8887 12.906 56.1064 12.664 56.1882 12.7615ZM57.4748 7.16597C57.5322 7.19731 57.5079 7.05803 57.2606 8.00164C56.3623 11.3914 57.2676 11.0101 56.5277 12.1382C55.6659 8.87388 57.4765 7.18338 57.473 7.16597H57.4748ZM57.8352 6.56185C58.1416 6.60711 57.0744 9.69737 57.2815 10.5609C57.3372 10.8012 57.2467 10.9509 57.003 11.1406C56.9856 9.51282 57.3999 8.03646 57.8352 6.56185ZM58.7126 9.22034C58.5542 9.67299 58.3975 9.72348 57.4556 10.4704C57.3059 9.93937 58.004 7.24954 58.1816 6.35815C58.2774 5.87764 58.7091 5.65827 59.0208 5.34838C59.3185 5.05589 59.4752 7.07544 58.7144 9.22034H58.7126ZM59.7555 4.77037C60.1315 7.09807 58.5977 10.4617 59.019 8.86692C60.0532 4.95839 58.6674 5.48591 59.7555 4.77037ZM61.5713 3.37061C61.8064 3.82849 62.0849 5.16731 61.8603 6.89437C61.7576 7.70219 61.4686 7.48109 59.947 8.60403C59.6284 8.83732 59.2837 9.08976 59.409 8.71545C60.5755 5.2857 59.4038 4.77037 60.4049 4.25852C60.8332 4.03915 61.1848 3.7101 61.5713 3.37235V3.37061ZM62.7465 1.96911C62.9171 5.20736 61.9474 7.58903 62.064 6.59667C62.4714 3.31664 60.8053 3.5273 62.7465 1.96911ZM64.0018 1.10732C63.1887 3.10598 63.6013 6.69416 62.3443 7.07544C62.2277 6.9466 62.3374 6.84214 62.3739 6.74117C63.6744 2.96148 62.1128 1.9726 63.6292 1.22049C63.718 1.17696 63.7911 1.09514 64.0018 1.10906V1.10732ZM66.5923 0.466639C66.4217 0.926261 65.5704 2.37476 65.3127 4.7164C65.2622 5.15861 63.4725 6.40516 63.1992 6.57055C62.8927 6.31288 63.3367 6.83518 63.6013 4.03741C63.8729 1.15607 63.9043 0.386554 66.5923 0.466639ZM67.3183 0.658148C66.0666 2.38173 65.6835 4.62238 65.5251 4.57015C65.4346 4.54404 65.7636 2.60109 66.5941 0.840952C66.8013 0.397 66.8135 0.402223 67.3549 0.513646C67.3427 0.562394 67.3479 0.621587 67.3201 0.658148H67.3183ZM68.8347 0.753903C66.6237 3.42806 65.0516 5.98732 66.427 2.68988C67.529 0.0313916 67.5952 0.5032 68.8347 0.753903ZM69.2195 1.48338C68.8521 1.96041 68.3751 2.28946 67.8354 2.5419C69.028 0.0992904 69.5694 0.997641 69.2195 1.48338ZM69.216 3.30619C68.4134 3.68399 66.265 4.91313 65.8716 4.66765C66.7038 3.81979 67.4559 2.91621 68.5214 2.3678C68.8469 2.20067 69.021 1.85247 69.3483 1.61569C69.5172 2.15018 69.7226 3.0642 69.2143 3.30619H69.216ZM65.3058 5.21954C65.6975 4.85568 66.2442 4.8905 66.709 4.70073C67.092 4.54578 67.2121 4.47962 69.4894 3.35668C69.5816 4.0879 66.6098 5.20561 65.3058 5.21954ZM68.0931 6.50787C64.0279 5.92638 62.8179 7.25476 64.7278 5.66872C64.9663 5.46676 65.3267 5.51029 66.3173 5.28744C69.5903 4.54404 69.989 2.30861 68.5597 6.24324C68.4726 6.4835 68.3386 6.5427 68.0931 6.50787ZM68.0739 7.08762C63.5247 6.48176 63.7197 7.02495 63.4777 6.74465C63.4464 6.7551 63.4342 6.87 63.3576 6.80036C64.1167 6.40167 68.403 6.46435 68.3177 6.82648C68.2881 6.95531 68.2759 7.11548 68.0757 7.08762H68.0739ZM60.0567 8.83558C62.9798 5.92812 68.255 7.07021 68.1122 7.42712C66.6411 11.1006 67.8372 7.6813 60.0567 8.83558ZM60.7949 9.31957C59.1479 9.55461 59.2018 9.62773 59.0417 9.52501C59.9801 8.24016 67.0798 8.88259 66.9005 9.47278C66.6324 10.3363 65.6627 8.61099 60.7949 9.31957ZM65.7044 10.1779C62.4766 9.19596 60.9898 9.81924 60.72 9.53546C60.6416 9.45363 60.6904 9.43448 60.6068 9.5076C60.478 9.62425 60.3735 9.61554 60.3805 9.57898C60.3979 9.59117 64.1201 8.85299 66.4757 9.86276C66.1275 10.3102 66.1292 10.305 65.7044 10.1779ZM62.9189 11.2991C60.2778 10.2876 58.5211 10.977 57.151 11.461C57.7446 10.1936 58.3644 10.0264 59.2889 9.90281C62.7865 9.43448 65.7793 10.2266 65.8124 10.4443C65.828 10.547 64.4318 11.8806 62.9189 11.2991ZM57.292 12.4586C56.2491 12.906 56.5712 12.5961 56.9003 11.8893C57.4069 10.7977 62.8997 10.6967 63.3332 11.6699C63.3576 11.7413 62.5846 11.8858 62.0101 11.8562C59.2645 11.7657 60.4571 11.0832 57.2937 12.4586H57.292ZM54.5238 14.318C54.5099 14.2971 54.5029 14.3145 54.5847 14.2466C54.5969 14.2657 54.6091 14.2535 54.5238 14.318ZM25.7905 71.6383C26.0586 71.9743 24.6293 74.6171 23.0345 76.0848C22.4965 76.5792 22.3312 76.6367 21.4607 76.5026C22.749 75.425 23.1007 74.1662 23.3531 73.6439C24.1766 71.9935 24.2288 72.0997 25.7905 71.6383ZM26.4016 71.4468C26.5687 71.4346 26.7272 71.3284 26.903 71.4015C26.4469 73.8859 24.4656 76.0082 22.7768 76.5061C24.0251 75.5399 25.6356 73.3706 25.9698 71.8577C26.0273 71.5983 26.1404 71.4642 26.4016 71.4468ZM29.6834 70.7434C27.3104 73.442 28.2366 75.5851 23.7083 76.5444C22.4878 76.8143 26.0203 75.4824 26.8299 72.2442C27.1467 70.9854 27.6412 71.1857 28.9034 70.6982C29.4623 70.4823 30.0855 70.296 29.6834 70.7417V70.7434ZM29.0688 72.9458C28.8338 73.3636 28.0085 74.4831 27.6447 74.6276C27.5628 74.4883 28.6858 72.1711 29.9149 70.7173C30.1447 70.4475 30.4215 70.3221 30.7732 70.3395C31.252 70.3674 31.3181 70.3343 31.2781 70.3482C31.205 70.7051 30.3066 70.7365 29.0705 72.9441L29.0688 72.9458ZM33.9262 71.2588C33.2472 71.6766 32.2844 72.6638 31.6942 72.8152C30.1169 73.2226 29.0862 73.8581 28.5012 74.1279C31.4191 69.6397 31.2659 70.3012 34.1612 70.975C34.1699 71.1979 34.0167 71.2031 33.9262 71.2588ZM34.8785 71.2205C34.2848 71.6035 33.9679 71.6401 33.0591 72.4618C32.9216 72.5854 32.7771 72.6446 32.5595 72.575C33.766 71.4921 34.4241 70.9245 34.8785 71.2205ZM35.5905 71.6731C33.5536 72.3173 34.4223 72.6272 33.3011 72.5158C34.9899 70.9419 35.4965 71.3493 35.9561 71.4677C35.8447 71.6244 35.7072 71.6348 35.5905 71.6731ZM37.6519 73.045C37.6188 73.0381 35.9944 72.5872 34.3527 72.5123C34.7357 72.0579 36.2051 71.5199 36.67 71.7341C37.4464 72.0945 38.296 73.1774 37.6519 73.045ZM37.6397 73.3375C37.5666 73.1547 37.8242 73.1965 37.8973 73.2505C37.9792 73.3114 37.8556 73.5464 37.6397 73.3375ZM37.6031 73.7937C37.429 73.7484 36.2556 73.0555 36.3218 73.0833C36.5916 72.5262 38.3309 73.9834 37.6031 73.7937ZM33.423 72.723C33.3777 72.8117 34.2831 72.763 34.3823 72.756C35.8308 72.6463 36.5411 73.4629 37.3594 73.8633C37.4569 73.9103 37.6223 73.9347 37.577 74.1001C37.248 75.2752 33.4265 73.0712 33.423 72.723ZM36.1738 74.9897C34.9237 74.7564 34.2291 74.2811 32.7928 73.5168C32.2705 73.24 31.6002 73.059 31.7656 73.0015C31.7656 73.0015 31.7656 72.9963 31.7656 72.9945V73.0015C33.1392 72.5715 33.9192 73.3793 35.2406 74.1297C36.468 74.8278 37.1696 74.4761 37.2253 74.692C37.3159 75.0576 36.5585 75.0611 36.1738 74.988V74.9897ZM33.5988 74.5527C32.9146 74.1001 32.1364 73.4576 31.0779 73.301C31.8857 73.1025 32.4376 73.5377 34.0672 74.3995C36.1511 75.4946 36.811 75.0402 36.8005 75.2787C36.7831 75.6739 35.1013 75.4668 33.5971 74.5527H33.5988ZM34.6173 76.7429C34.384 76.8178 31.729 74.4135 27.7926 74.9375C27.7805 74.9949 29.6921 73.3375 30.8115 73.4838C32.6291 73.7327 32.6639 74.3403 34.2221 75.089C35.7211 75.801 36.2051 75.4685 36.4001 75.7053C35.9213 76.2537 35.2893 76.5322 34.6173 76.7446V76.7429ZM26.9796 75.4006C27.6795 74.5127 32.7823 75.3362 34.0045 76.6054C34.0828 76.6837 34.2743 76.7359 34.196 76.8596C33.7416 77.5873 33.2576 75.3536 26.9796 75.3989V75.4006ZM31.9606 78.0904C29.2829 77.9024 28.5517 77.0511 25.8044 76.285C25.3657 76.1649 25.6843 76.0831 26.4695 75.6269C27.0318 75.2979 33.4369 76.1127 33.6284 77.1364C32.1016 78.1792 32.5664 78.134 31.9606 78.0904ZM24.6362 76.5792C25.1324 76.1544 25.5241 76.2572 28.9347 77.6047C30.7105 78.3081 31.9414 78.1548 32.0981 78.3237C30.6635 80.5104 25.9803 76.87 24.6345 76.581L24.6362 76.5792ZM23.8876 76.769C23.8302 76.9013 23.7431 76.5845 24.4221 76.6994C24.9548 76.7916 25.411 76.9988 27.474 78.1844C29.4831 79.337 30.9908 79.0532 31.1597 79.2134C29.3143 82.0164 25.4719 77.5002 23.8876 76.769ZM29.2168 80.4321C29.1994 80.439 29.2168 80.4077 29.2168 80.3903C29.2168 80.4042 29.2168 80.4181 29.2168 80.4321ZM24.7616 79.6695C23.5638 78.1601 23.468 77.7718 22.5436 77.0371C21.875 76.5148 23.8998 76.8508 24.6763 77.4463C26.6053 78.9331 26.8769 79.5024 28.8251 80.1674C28.973 80.2179 29.1907 80.1866 29.2098 80.4303C27.5698 80.5 25.8305 81.0135 24.7616 79.6678V79.6695ZM22.0996 77.0841C22.0369 76.8891 22.0491 77.0511 22.1031 77.0807C22.5488 76.7568 24.2758 79.3979 24.8747 80.0908C23.7274 79.9254 22.5993 76.971 22.0996 77.0824V77.0841ZM21.5094 77.0319C21.2134 76.7325 21.304 76.8891 21.2692 76.8491C21.1769 76.7551 21.5112 76.863 21.6678 76.9657C22.9126 77.7788 23.0659 78.6737 23.7152 79.4084C22.4983 79.1124 22.5592 78.1078 21.5077 77.0319H21.5094ZM21.1142 77.1085C21.2134 77.0754 21.2883 77.1573 21.3162 77.2513C21.4189 77.4114 21.3405 77.0911 21.7201 77.5908C21.5895 77.5281 21.4467 77.2722 21.3475 77.3052C21.1838 77.0511 20.9906 77.1468 21.1142 77.1085ZM20.665 76.8073C20.8165 76.9048 20.7886 76.9309 20.8444 76.9344C20.8774 76.957 20.9384 76.9222 20.9697 76.9675C21.0028 76.9988 21.0167 77.0424 21.0289 77.0598C20.8322 76.8595 20.5849 76.9953 20.2385 76.8143C20.0522 76.7203 20.0226 76.5967 19.9913 76.6715C20.0052 76.6263 20.3691 76.6106 20.6633 76.8073H20.665ZM23.8075 72.4252C23.2069 73.2365 22.3364 76.2624 20.9749 76.5044C21.835 75.4772 22.4722 72.7769 23.8075 72.4252ZM13.8978 78.55C13.0325 79.4084 13.0029 80.1396 11.8173 81.8283C11.5074 82.2723 11.6885 81.7482 9.99798 81.3896C9.02999 81.1824 13.2206 78.0956 13.8961 78.55H13.8978ZM12.1202 82.3646C12.0019 82.2636 12.0924 82.1121 12.27 81.8719C13.2066 80.6009 14.1468 77.9755 15.1182 78.1548C13.6958 79.5354 12.552 82.7232 12.1202 82.3628V82.3646ZM21.0202 82.1243C20.9801 82.1051 19.3697 82.53 17.7402 83.592C17.0664 84.0324 15.9661 84.8072 15.3272 84.3528C15.4194 84.0342 15.9052 84.5077 17.331 83.0801C17.7367 82.6745 18.4017 82.0094 18.8561 81.9937C21.0568 81.9015 20.9506 82.0982 20.9923 82.093C21.0672 81.9937 21.0707 82.1661 21.0202 82.1226V82.1243ZM21.7444 82.3994C19.946 82.6501 18.4923 84.8124 16.3247 84.6313C19.0755 83.0139 19.3541 82.6396 21.5495 82.2218C21.9899 82.14 22.3277 82.3193 21.7444 82.3994ZM15.9348 84.7863C19.7615 85.265 20.3534 80.8099 24.255 83.2368C19.5874 85.1049 19.3941 88.5277 15.9348 84.7863ZM25.3535 84.2501C23.2382 84.647 21.8698 86.2174 20.759 87.1662C20.2594 87.5858 19.1051 87.0409 18.5306 86.7379C22.1884 85.3451 23.7361 82.0216 25.4823 84.1822C25.4388 84.2065 25.3988 84.2413 25.3535 84.2501ZM25.6721 84.8751C22.3329 85.8935 22.1275 87.6398 20.8339 87.3891C21.9917 86.2296 25.4388 83.3447 26.0795 84.7253C25.9629 84.8159 25.8114 84.8333 25.6721 84.8751ZM27.5036 86.3218C25.7069 86.2209 24.4412 87.4343 22.2528 87.4657C22.0282 87.4674 21.7131 87.4726 21.9551 87.2602C23.0711 86.2661 24.3002 85.4687 25.7383 85.023C26.2884 84.8542 26.2919 84.8489 26.6471 85.2842C27.2582 86.0328 28.1234 86.3671 27.5036 86.3236V86.3218ZM24.9165 87.2237C25.4162 86.7954 26.7776 86.4489 27.6046 86.5377C27.5315 86.731 27.3696 86.7902 27.286 86.9172C26.7411 87.7686 25.9246 87.4361 24.9165 87.2237ZM24.1139 87.4587C24.4082 87.0426 24.4325 87.4395 26.5061 87.6519C26.2049 88.2369 24.8974 87.7355 24.1139 87.4587ZM25.5259 88.4215C24.7633 88.3257 24.0756 88.0263 23.3566 87.6398C23.7501 87.2933 24.7459 88.0611 26.0534 88.0942C25.8793 88.4545 25.8758 88.465 25.5276 88.4215H25.5259ZM21.3527 87.7007C22.991 87.6311 22.9962 87.6084 23.1425 87.7007C23.9102 88.1777 24.7389 88.4876 25.6808 88.606C24.6919 90.098 23.8876 90.8362 21.3527 87.699V87.7007ZM23.4471 90.3C21.6121 89.6349 21.2378 88.8689 20.275 87.6519C21.2309 87.4378 21.4903 88.2352 22.3242 89.0169C23.4001 90.0249 23.952 89.9309 24.0199 90.1607C23.8841 90.4079 23.6735 90.3818 23.4471 90.3ZM19.8816 90.4271C18.3199 88.6582 18.8248 88.1708 17.8638 86.9225C17.3641 86.294 18.3617 86.8859 18.3808 86.8946C19.6814 87.4622 19.9042 87.4291 20.2663 87.9618C21.1978 89.3529 22.2737 90.0771 23.2974 90.4079C24.0269 90.6604 20.8043 91.4786 19.8816 90.4271ZM18.3042 89.372C17.7367 87.8017 17.1273 87.7564 16.3126 85.5802C17.8272 86.2313 18.3042 88.5329 19.4829 90.2512C18.9275 90.0336 18.4905 89.8926 18.3042 89.372ZM16.0566 88.021C15.5256 86.4472 15.8111 86.4977 15.2714 84.5895C15.6875 84.8768 15.9713 85.0143 16.1176 85.5018C16.8 87.7738 19.5299 90.4741 17.4738 89.5165C16.2621 88.9542 16.4814 89.2746 16.0566 88.0193V88.021ZM14.9824 84.7097C15.604 85.3782 15.1861 86.2574 16.0323 88.4963C16.2238 89.09 14.6342 86.8389 14.9824 84.7097ZM14.4253 84.0847C14.7317 84.2187 14.7613 84.7358 14.7491 84.983C14.6499 86.8215 15.6231 88.1777 15.5848 88.4058C13.7672 87.2289 14.3348 85.2163 14.4236 84.0847H14.4253ZM14.5037 83.6546C15.3393 83.7521 16.4031 82.1922 18.0884 82.1069C17.4076 82.7719 16.8244 83.4091 16.0653 83.8392C14.9024 84.4955 14.4218 83.5833 13.9814 83.7556C13.9413 83.7922 14.0075 83.6007 14.5037 83.6546ZM13.3111 83.491C13.2571 83.5972 13.0256 83.5833 13.3111 83.491C13.3268 83.4683 13.3198 83.4596 13.3302 83.4962C13.4382 83.585 13.5931 83.5206 13.6488 83.6947C13.6662 83.6982 13.6523 83.6895 13.6697 83.6999C13.762 83.5954 13.7864 83.7173 13.8038 83.726C13.8786 83.7069 13.9326 83.7225 13.9692 83.7591C13.7672 83.6842 13.8177 83.7817 13.802 83.726C13.13 83.592 13.4103 83.4579 13.3111 83.4927V83.491ZM7.51533 85.9075C7.62501 86.4298 7.00348 87.7477 7.85482 89.7759C7.91924 89.9117 7.96277 90.1137 8.15602 90.058C8.36145 90.0005 8.28659 89.8073 8.24132 89.6645C8.10901 89.2363 8.24829 89.6837 8.49203 88.3814C8.91683 86.1268 9.19016 86.0694 11.0495 83.2786C11.1505 83.1254 11.2428 82.9948 11.4604 83.1201C11.6954 83.2577 11.7146 83.3204 11.5196 83.538C8.91335 86.4472 8.59823 90.3331 7.9941 91.0504C7.86179 91.0033 6.60653 88.5695 7.51533 85.9092V85.9075ZM8.11075 85.3921C8.81759 82.8207 8.42935 81.6908 10.7257 82.7424C11.0391 82.8851 10.8511 82.9478 9.73335 84.5286C7.81652 87.2498 8.31967 88.2334 7.93665 88.7923C7.68943 87.7233 7.82175 86.4437 8.11075 85.3921ZM18.2294 76.7185C18.3408 76.574 18.4505 76.4556 18.5898 76.5723C18.6594 76.6332 18.595 76.527 18.8387 76.6297C18.8561 76.6367 18.8979 76.6698 18.9206 76.6646C18.9031 76.6471 18.9206 76.6332 18.9275 76.6489C18.9484 76.7168 18.8805 76.6175 18.7134 76.6297C18.6577 76.6332 18.6107 76.5932 18.5915 76.6001C18.4714 76.6176 18.5027 76.5201 18.4679 76.5288C18.2555 76.9257 10.5185 78.0991 9.35556 81.2434C9.04392 82.093 10.1146 81.2939 11.9009 82.7215C12.5033 83.2055 12.8306 83.3291 12.8637 83.3517C12.9664 83.43 12.9176 83.4527 12.9699 83.4666C13.1213 83.3848 13.1265 83.5571 13.1683 83.5624C13.1648 83.5658 12.9768 83.4823 12.9699 83.4666C12.9054 83.5067 12.7592 83.3186 12.7279 83.2977C12.0872 83.4997 8.75492 79.727 8.015 84.022C7.97147 84.2709 7.64939 85.7752 7.51707 85.8779C8.25177 86.6126 5.31994 80.4303 14.8867 77.455C15.9173 77.1364 17.9961 76.1701 18.2294 76.7185ZM22.0195 52.7799C22.8378 53.5773 23.3061 54.0944 24.3838 54.6236C24.9984 54.9231 26.2867 56.1348 26.1979 56.5822C25.559 56.389 24.7929 55.5568 24.0391 55.1181C23.1721 54.6201 22.2981 54.7107 22.0213 52.7782L22.0195 52.7799ZM21.8141 50.884C25.0645 55.5498 25.3309 53.7531 25.6634 55.4332C24.3751 53.9185 21.2587 53.4659 21.8141 50.884ZM22.8813 46.5559C23.0345 48.1837 23.71 50.4923 24.5892 51.502C25.0523 52.0365 24.8347 52.1932 25.2856 54.3068C24.1923 53.9255 22.6306 51.8816 22.0021 50.8509C21.7862 50.4957 21.7949 50.2433 22.0526 49.4163C22.8674 46.8693 22.5279 46.6255 22.8831 46.5559H22.8813ZM22.8447 46.5419C22.8622 46.5454 22.89 46.5367 22.8796 46.5559L22.8447 46.5419ZM24.0791 47.4699C24.2689 50.0762 24.9009 49.385 24.7755 51.4237C23.381 49.7523 22.8447 46.105 22.9927 45.8386C24.0704 43.9061 23.9485 45.7028 24.0809 47.4716L24.0791 47.4699ZM24.6327 44.2229C24.9862 44.3257 24.8887 45.6297 24.8417 45.9953C24.5335 48.4797 25.1063 49.4773 24.8016 49.9299C24.2062 48.4431 24.2741 47.5065 24.1226 45.7428C24.0617 44.9959 23.7361 44.8097 24.1749 44.5189C24.3298 44.4162 24.4552 44.1707 24.631 44.2229H24.6327ZM27.3139 42.1999C27.7422 45.7132 26.2989 45.0047 25.1568 48.6294C25.0123 49.1256 24.9165 48.2116 24.913 47.6893C24.9009 46.3696 25.263 45.1579 24.873 44.2055C24.7772 43.9635 24.7581 44.0506 26.8804 42.2434C27.0632 42.0868 27.286 41.9614 27.3156 42.1999H27.3139ZM28.0085 41.5314C28.0503 42.4976 28.1687 43.3733 27.5524 44.1498C27.6342 43.4778 27.5663 42.818 27.4619 42.1599C27.3974 41.7681 27.7474 41.7681 28.0085 41.5314ZM28.247 43.1052C28.1008 41.413 28.16 41.4356 28.3811 41.3451C28.5987 41.2563 28.8494 41.0352 29.0462 41.1884C29.3561 41.4287 28.6248 42.6143 28.247 43.1052ZM30.0472 43.0478C29.4205 43.6101 28.2732 44.1237 27.8327 44.2316C28.7136 42.8058 29.128 42.2591 29.2411 41.4652C29.3473 40.6992 30.6914 42.468 30.0472 43.0478ZM26.9953 45.5635C27.676 44.0001 29.0705 44.3065 30.2039 43.0809C30.3989 43.1627 30.3745 43.3194 30.4024 43.4447C30.6009 44.3866 28.3463 44.4475 26.9953 45.5635ZM30.1708 44.8253C27.5385 45.4852 26.8908 46.4862 26.513 46.4149C27.8083 44.7592 28.839 45.0238 30.2265 44.1307C30.6148 43.8747 30.9804 44.6251 30.1708 44.8253ZM31.4 47.2436C27.723 50.494 26.4573 49.5051 25.061 51.2339C24.8016 49.1203 25.6791 46.9006 27.9894 45.7985C28.4838 45.5618 30.5974 44.7226 30.7767 44.8427C30.9334 44.9489 31.5532 46.5489 31.5601 46.5663C31.682 46.8588 31.6228 47.0468 31.4 47.2453V47.2436ZM31.7221 47.6771C30.3101 49.6183 26.6749 50.2537 25.4301 51.6831C24.9931 52.1862 25.0105 51.5943 25.216 51.314C25.8009 50.5288 26.459 50.3808 27.9528 49.7506C30.5243 48.6729 31.5305 47.0486 31.7551 47.2244C31.9205 47.3532 31.83 47.5291 31.7203 47.6771H31.7221ZM31.5828 49.6026C29.0479 51.8259 28.3968 50.4801 25.2734 52.7225C24.5265 51.516 28.6005 50.1266 29.4535 49.6131C31.9049 48.128 31.2746 48.2272 31.9275 47.7693C32.0093 48.229 31.9902 48.6224 31.9641 49.0142C31.9466 49.2788 31.7621 49.4459 31.581 49.6026H31.5828ZM25.8567 55.0275C25.5085 54.4408 25.3657 53.8158 25.2821 53.1716C25.1829 52.4004 27.7439 51.5612 28.5952 51.3593C30.6931 50.8613 31.588 49.7314 31.8213 49.6305C31.837 49.7872 31.8039 51.2113 31.2607 51.5055C29.8801 52.2472 28.0033 51.6239 25.8549 55.0275H25.8567ZM26.0708 55.6055C25.7539 54.93 27.3435 52.7016 29.8104 52.1445C30.3362 52.0261 30.8568 51.8816 31.4052 51.6204C31.2102 52.564 27.9667 51.6239 26.0708 55.6055ZM26.4712 56.3907C26.1404 56.0948 26.2292 55.6195 26.4329 55.2956C28.0416 52.7103 29.4518 52.571 31.1649 52.1096C30.7732 54.1797 28.4229 52.1671 26.4712 56.3907ZM28.738 55.28C27.4915 55.851 27.1833 56.718 26.9309 57.0018C26.0342 56.4221 27.9929 53.5634 30.3989 53.3858C30.1134 53.9568 29.3386 55.0032 28.738 55.2817V55.28ZM27.3435 57.6146C26.6297 57.0262 28.0712 55.7727 28.6736 55.5759C28.0851 56.187 27.5837 56.7999 27.3435 57.6146ZM27.2146 58.2066C25.6564 57.2438 25.5433 58.5617 23.0084 54.9283C23.5394 54.9666 23.9398 55.2382 24.3194 55.5202C26.9674 57.4928 26.8142 56.7685 27.2146 58.2048V58.2066ZM46.3812 6.67849C46.3446 5.22477 47.3196 4.21325 47.9237 3.0433C48.6932 3.28878 47.5564 4.39954 46.3812 6.67849ZM46.4108 7.46194C46.6093 6.03258 48.0351 4.57886 48.345 3.39847C49.4854 3.73274 49.0693 4.10183 46.4108 7.46194ZM48.4652 7.66563C47.0375 9.32654 47.337 10.6253 47.0706 10.8482C45.1764 8.02602 47.041 7.39056 49.0397 4.17669C49.2956 3.76059 49.8632 4.73207 50.0512 5.16383C50.2566 5.62693 49.226 6.78469 48.4652 7.66563ZM48.1553 10.1709C47.6243 11.1528 47.6991 11.5533 47.5215 11.5359C47.2987 11.5167 47.3144 11.071 47.3265 10.8464C47.5111 8.17052 49.1111 7.63255 50.2183 5.58863C50.4168 5.98384 50.483 6.33726 50.577 6.68023C50.7876 7.43756 48.8151 8.94352 48.1535 10.1709H48.1553ZM50.7929 7.35574C50.5752 8.41252 48.4965 10.002 47.8123 11.891C47.7322 11.6542 47.8123 11.4418 47.8802 11.2347C48.5609 9.1594 49.9171 8.69108 50.6014 7.28262C50.6849 7.1207 50.8207 7.21646 50.7929 7.35748V7.35574ZM51.3273 9.39095C50.6205 10.7925 49.6177 11.9537 48.5104 12.9704C48.3468 12.9844 48.345 12.8938 48.305 12.8468C47.1751 11.6003 49.7622 9.62251 50.9182 7.59599C51.1219 7.9616 51.5467 8.95222 51.3291 9.38921L51.3273 9.39095ZM51.2925 10.688C50.3054 12.0634 50.6101 11.6925 48.8621 13.3256C48.6602 13.5136 48.5313 13.2525 48.641 13.1236C49.1685 12.4795 50.3211 11.6333 51.3413 9.70781C51.5276 9.34221 51.7191 10.0926 51.2925 10.6863V10.688ZM48.9683 14.741C48.5365 13.4631 48.6288 13.8392 50.4255 12.093C50.7929 11.7361 51.0453 11.2817 51.3778 10.8743C51.5624 11.5759 49.9311 14.1247 48.9683 14.7393V14.741ZM56.9107 37.6472C55.504 39.4596 55.5684 40.9795 55.6415 42.1616C55.6972 43.1157 53.5854 43.967 52.8855 44.1254C51.5171 44.4353 51.4631 43.9548 50.2723 43.8695C50.1156 43.6031 51.5084 42.5551 52.4485 39.8652C53.0196 38.2392 55.0774 37.8196 56.909 37.649L56.9107 37.6472ZM56.2979 42.912C56.7296 42.3131 57.2485 42.6003 57.7742 42.7327C57.393 43.0391 56.8794 43.0965 56.2979 42.912ZM51.8723 44.5677C51.8723 44.5677 51.8758 44.5711 51.8758 44.5746C51.874 44.5746 51.8723 44.5729 51.8705 44.5694V44.5659L51.8723 44.5677ZM59.12 42.3949C58.394 42.7866 58.0406 42.7431 57.1788 42.3235C57.1248 42.3392 57.1283 42.3705 57.0935 42.3357C57.0935 42.3357 57.1057 42.3166 57.1144 42.3113C57.3721 42.0902 58.7858 42.334 59.1183 42.3949H59.12ZM57.4452 33.6778C57.621 33.5089 57.8508 33.5298 58.0615 33.4984C60.1907 33.199 61.58 34.1426 63.234 33.8675C63.2775 34.9591 60.1228 33.4549 57.5183 33.7178C57.4992 33.7178 57.4678 33.6969 57.4452 33.6795C57.2397 33.8849 57.3042 33.528 57.4452 33.6795V33.6778ZM54.1565 37.393C55.6189 35.2325 60.5616 36.9003 60.4031 36.5452C60.3909 36.54 60.4101 36.5121 60.4031 36.5452C60.4031 36.5452 60.4066 36.5469 60.4084 36.5452C60.4275 36.5452 60.4205 36.5904 60.3996 36.58C60.3909 36.5748 60.4101 36.5452 60.3875 36.5748C59.7851 37.6141 58.4358 35.6956 54.1547 37.3913L54.1565 37.393ZM58.448 36.9648C58.448 36.9648 58.4149 36.9247 58.4393 36.9386C58.4828 36.9874 58.3975 36.9717 58.448 36.9648ZM55.3438 36.3206C56.4876 34.7345 56.4058 34.8373 56.7192 34.7537C58.7161 34.2088 59.4317 34.8512 62.3704 35.2029C61.3537 37.7343 58.354 35.37 55.3421 36.3206H55.3438ZM56.7087 34.5552C57.1719 32.9344 60.9672 34.51 62.9067 34.3951C62.3931 36.0385 60.4588 33.9424 56.7087 34.5552ZM58.2826 33.3174C58.2878 33.3348 58.3035 33.3487 58.2861 33.3539C58.2861 33.3418 58.2826 33.3296 58.2826 33.3174ZM58.6621 33.1224C60.7722 32.7968 61.4825 33.3696 63.4272 33.4236C63.5474 33.4305 63.624 33.5176 63.4725 33.6586C63.0181 34.0799 59.0069 33.0423 58.3679 33.3052C58.2164 33.3922 58.3279 33.1764 58.6621 33.1207V33.1224ZM64.9175 32.6454C65.1143 32.8282 64.6198 33.1816 64.6059 34.8286C64.6041 35.2795 64.4892 35.316 63.5648 36.5922C63.3506 36.3484 63.9617 33.2791 64.9175 32.6436V32.6454ZM62.7221 37.4644C63.1278 35.1628 62.7639 35.3474 63.7406 34.1217C63.9095 34.1652 63.8381 34.1217 63.7685 34.3306C63.093 36.3206 63.6083 36.8864 62.7221 37.4644ZM62.2033 37.9554C62.4122 37.205 62.4035 36.4059 62.7169 35.5702C62.8266 36.2005 62.5254 37.5863 62.2033 37.9554ZM61.2736 38.8085C61.1274 38.6814 61.1935 38.5351 61.2075 38.4098C61.3415 37.2364 61.3572 36.6113 62.3826 36.1082C61.8969 38.6849 61.9456 38.2896 61.2736 38.8102V38.8085ZM60.7165 39.188C60.7444 38.3575 60.8889 37.595 61.2771 36.8864C60.7861 39.4004 61.2371 38.8537 60.7165 39.188ZM60.5407 39.2994C60.5372 39.477 60.2726 39.5693 60.2934 39.3221C60.337 38.6761 60.4815 37.3809 60.9742 36.9473C60.7026 37.985 60.5389 38.3854 60.5389 39.2994H60.5407ZM60.0358 39.7312C59.2767 40.1751 59.026 40.5616 59.1688 39.8165C59.308 39.0731 59.5448 38.3575 59.8147 37.6507C59.9365 37.3251 60.1141 37.118 60.5616 37.1615C60.2987 37.9589 60.1159 38.7406 60.1124 39.5501C60.1124 39.6215 60.0985 39.6929 60.0358 39.7312ZM58.8449 40.3788C58.6099 40.0202 59.1914 38.1364 59.3463 37.6002C59.4055 37.3983 59.5048 37.2607 59.7955 37.3408C59.3342 38.3088 59.0573 39.3273 58.8449 40.3771V40.3788ZM58.5733 40.5129C58.5281 40.6974 58.2478 40.8245 58.2948 40.4763C58.3557 39.9958 58.744 37.595 59.214 37.4818C58.3836 40.4241 58.6656 40.1699 58.5733 40.5129ZM57.8056 41.0926C57.1579 41.5383 56.8811 42.2817 57.1666 40.9046C57.386 39.8391 57.7707 38.8259 58.1903 37.8248C58.3279 37.4975 58.5368 37.3809 58.8919 37.4592C58.7788 38.0442 58.394 38.2618 58.1189 40.5442C58.0894 40.7827 58.0145 40.9499 57.8056 41.0926ZM57.9797 37.8387C57.9866 37.8109 57.9866 37.8265 57.9797 37.8387V37.8387ZM56.8985 41.8291C56.8881 42.1442 56.3884 42.6265 56.6739 41.0404C57.0256 39.0818 57.971 37.8579 57.9797 37.8405C57.8369 38.4794 56.9577 39.9819 56.8985 41.8291ZM55.8853 42.8772C56.3814 42.1651 55.6398 41.7229 56.2526 39.7904C56.9455 37.6194 58.213 37.0953 57.7673 37.8109C55.6276 41.2232 57.0569 42.3897 55.8853 42.8789V42.8772ZM55.5353 43.2602C55.5353 43.2602 55.5545 43.194 55.5754 43.1766C55.746 43.0408 55.645 43.3699 55.5353 43.2602ZM53.7804 37.9153C52.8681 38.2409 56.0698 36.2318 58.4288 36.9334C58.2635 37.2659 56.8115 36.775 53.7804 37.9153ZM54.059 35.4675C53.9963 35.9828 53.4322 38.2409 52.943 38.18C53.4218 36.5591 53.8187 35.9532 53.7369 33.3348C53.6742 31.5729 54.2487 34.0207 54.059 35.4692V35.4675ZM55.2254 29.3601C55.2742 30.2167 54.9869 30.8591 54.818 32.4486C54.529 35.1472 55.7808 35.612 55.1314 36.1604C54.4141 36.7611 53.5645 37.649 53.81 37.0744C55.1314 33.9598 53.1798 32.8142 54.2853 30.3664C54.4733 29.952 54.7519 29.616 55.2272 29.3601H55.2254ZM56.5817 28.3712C56.5677 29.3497 56.3623 29.6648 55.9357 31.465C55.1993 34.5796 55.8644 35.283 55.6798 35.5424C55.5301 35.753 55.4448 35.5546 55.3456 35.2986C54.7083 33.7074 54.9573 32.4521 55.2481 30.7808C55.5997 28.7664 54.9138 29.5586 56.5817 28.3712ZM57.7986 27.6243C58.0267 27.8071 57.2345 30.1662 57.0448 30.6241C55.8226 33.5785 56.6687 34.4838 55.8626 35.2098C55.5719 33.69 55.9375 31.9403 56.3658 30.4552C56.9507 28.4304 56.5486 28.2859 57.0273 28.0335C57.2833 27.8977 57.5044 27.6922 57.7969 27.6243H57.7986ZM61.2614 26.5258C59.4525 29.4437 59.8182 30.6746 59.3655 31.0053C57.0448 32.7063 56.3797 35.2725 56.4302 34.0364C56.5468 31.4301 57.5879 30.4761 57.9866 27.8994C58.0371 27.5739 58.1764 27.3806 58.488 27.2587C58.8397 27.1212 60.9237 26.3465 61.2597 26.5258H61.2614ZM61.9543 26.7538C60.2186 29.0328 60.5145 30.1436 59.7677 30.6345C60.095 29.1303 60.5633 27.781 61.4216 26.585C61.6201 26.3082 61.8673 26.3134 62.1737 26.4126C62.1493 26.5728 62.0292 26.6546 61.9543 26.7538ZM64.5136 28.1762C64.4649 28.2441 64.3308 28.2476 64.2368 28.279C64.78 27.4694 65.3493 26.7347 66.2215 26.3116C65.6505 26.9314 65.0202 27.4972 64.5136 28.1762ZM64.9332 28.0265C65.6278 27.0707 66.7177 25.7267 67.4872 26.733C68.1331 27.5756 67.4959 27.4294 64.9332 28.0265ZM60.7879 29.9869C60.4014 30.2358 60.478 30.2236 60.377 30.1105C60.619 29.388 61.9369 26.2803 62.7204 26.4196C64.0122 26.6459 64.679 25.6518 65.7793 26.2159C65.9099 26.4004 65.6574 26.1393 64.3273 27.7619C63.4429 28.843 63.2166 28.4531 60.7879 29.9886V29.9869ZM67.67 28.0143C67.3288 28.0561 66.9893 28.0457 66.5488 27.9377C67.7797 27.4537 67.811 27.3858 67.8389 27.6139C67.8598 27.7688 67.9451 27.9795 67.67 28.0143ZM67.6839 28.5175C60.2168 29.3984 65.6104 27.9917 66.2111 28.0787C67.7484 28.3051 67.858 28.0195 67.8563 28.3068C67.8563 28.4252 67.8093 28.5035 67.6839 28.5192V28.5175ZM63.0198 29.0589C63.3854 28.4687 62.9519 29.4332 67.4959 28.6985C67.6143 28.6811 67.8163 28.6341 67.8093 28.7525C67.7814 29.1338 64.3708 29.529 63.0198 29.0589ZM60.9324 30.4047C60.3161 30.45 61.9056 29.5481 62.4418 29.2435C62.9049 28.9875 63.4969 29.872 67.0415 29.1965C67.724 29.0659 67.5882 29.0885 67.6979 29.1094C67.5464 31.5973 64.7312 30.1296 60.9324 30.4047ZM59.8321 31.0019C60.2604 30.1244 64.3325 30.7042 66.4026 30.7668C65.459 32.0499 63.8364 30.5753 59.8321 31.0019ZM64.3552 31.935C61.5504 31.1011 59.517 31.7192 58.8519 31.7905C59.6963 30.3873 63.4864 31.4127 65.5495 31.4719C65.1717 31.841 64.9053 32.0987 64.3569 31.935H64.3552ZM63.812 33.1746C63.3994 33.6569 60.6974 32.4382 58.1137 33.0667C57.9692 33.1015 57.8282 33.1694 57.6263 33.1311C57.9327 32.6314 58.2147 32.177 58.8275 32.0099C60.8854 31.4493 63.429 31.7192 64.6581 32.1753C64.3604 32.5287 64.0888 32.856 63.812 33.1746ZM65.6017 32.4591C65.0951 33.5559 65.4868 33.9232 64.7922 34.7781C64.8078 32.2101 65.8298 31.9507 65.6017 32.4591ZM65.5199 33.5959C65.4381 32.8125 65.8072 32.0273 66.2703 32.7359C66.3782 32.8961 66.0544 32.9883 65.5199 33.5959ZM66.6672 33.3191C64.7486 35.0444 65.499 33.8641 66.3382 33.004C66.5192 32.8212 66.8448 33.159 66.6672 33.3191ZM66.6602 33.5124C66.8674 33.3505 66.9214 33.3713 67.0172 33.6221C67.0972 33.8345 67.0938 34.0103 66.8901 34.167C64.4753 36.0333 63.4516 36.0594 66.662 33.5141L66.6602 33.5124ZM66.8448 35.0619C66.2111 35.5319 64.867 36.0089 64.1967 36.2196C64.2716 35.5302 65.0777 35.9515 66.9458 34.3306C66.9789 34.301 67.0328 34.2976 67.0781 34.2819C67.2052 34.7903 67.2052 34.7937 66.843 35.0619H66.8448ZM66.554 36.8533C63.0076 37.0692 62.6246 38.1086 63.8416 36.5643C63.9199 36.4651 65.2762 36.0751 66.2233 35.6172C66.763 35.3561 67.2591 34.7781 67.0938 35.424C66.7699 36.7593 66.7595 36.8394 66.554 36.8516V36.8533ZM62.7639 37.9989C62.7413 38.0041 62.7065 37.971 62.6716 37.9536C62.7308 37.649 66.6098 36.7437 66.6515 37.1197C66.702 37.5811 64.9941 37.4261 62.7639 37.9989ZM62.36 39.726C60.4588 39.8182 60.3039 39.86 60.7827 39.4735C62.6386 37.9832 61.9195 38.2705 66.561 37.5114C66.3486 38.1364 66.225 38.7232 65.5112 39C64.4892 39.3952 63.4516 39.672 62.36 39.7277V39.726ZM64.8374 39.9018C62.8562 40.3075 60.0306 40.304 60.0358 40.0446C60.0462 39.6581 62.8196 40.4467 65.7793 39.0696C65.6157 39.5345 65.3249 39.8026 64.8374 39.9018ZM63.8433 40.6765C60.3579 40.9429 59.0277 40.398 59.6023 40.2866C59.9609 40.2134 61.9578 40.7061 64.78 40.062C65.2309 39.968 64.6651 40.6104 63.8433 40.6765ZM61.0212 42.1355C58.5159 41.3764 57.8143 41.9335 57.4487 41.7438C57.816 41.1501 59.0643 40.5077 59.3167 40.5843C61.5731 41.2807 63.7754 40.7009 63.9565 40.882C63.9826 41.1797 61.627 42.3131 61.0212 42.1355ZM57.729 42.0484C57.5862 42.0467 57.6297 41.8761 57.5549 41.9701C57.5288 42.0049 57.3616 42.139 57.3268 42.1512C57.3129 42.1303 57.2815 42.0989 57.2885 42.092C57.332 42.0276 57.3042 42.1755 57.3355 42.1425C57.379 42.1007 57.574 41.9579 57.5862 41.9214C57.675 42.0606 58.7335 41.6393 60.6416 42.1773C60.5563 42.7361 58.7562 42.0676 57.7307 42.0502L57.729 42.0484ZM52.1926 44.7609C52.257 44.6251 52.3911 44.6199 52.5321 44.5955C54.0572 44.357 55.0461 43.5387 54.5464 43.9966C53.8431 44.6425 52.2727 44.7156 52.1926 44.7609ZM51.9924 44.6512C51.9506 44.6634 51.9315 44.6634 51.8984 44.6077C51.928 44.6356 52.4416 44.8828 51.9924 44.6512ZM26.9883 62.129C26.9813 62.1116 26.9831 62.129 27.1032 62.0751C27.0649 62.0942 27.0283 62.1116 26.9883 62.129ZM43.2143 13.0488C44.7777 12.6013 48.5888 15.4183 48.5835 16.0259C48.5783 17.0966 48.6845 16.8772 48.5296 17.0809C48.4199 17.2515 48.6567 16.9643 48.6027 17.645C48.5191 18.747 48.486 20.8536 49.2834 21.6232C49.4035 21.7415 49.5707 21.6893 49.5864 21.5239C49.6943 20.4428 50.133 20.1642 52.8211 16.1321C53.1606 15.622 53.7073 14.9708 54.1425 14.7132C53.0004 16.186 52.076 17.8156 50.9583 19.3146C50.2166 20.307 49.8196 21.4647 49.7413 22.72C49.5846 25.1469 49.4627 24.5968 49.5219 24.6577C49.4314 24.7273 49.6386 24.4644 49.5794 25.2966C49.4732 26.7521 49.7152 27.0881 49.5324 27.976C47.6382 37.2607 47.5111 35.4675 46.8582 38.5595C46.0469 42.4367 45.462 42.3392 43.9316 45.8003C43.0368 47.8268 42.6415 47.8999 42.6485 48.6398C42.6607 49.5417 43.3832 48.0113 45.6291 46.6568C49.6734 44.2038 50.3315 42.2783 50.8242 42.1372C50.6275 42.7953 49.9137 43.342 49.6543 43.8765C49.3113 44.5764 49.9206 44.1411 51.0749 44.4319C51.3378 44.498 51.5833 44.6477 51.8671 44.5694C51.7382 45.1317 50.1295 44.0471 48.1309 45.4068C41.5987 49.8446 45.9964 46.9911 39.9952 52.9105C39.3058 53.5895 39.4016 53.593 37.1905 56.9235C34.4502 61.0426 25.8723 67.1744 25.4632 67.507C24.6554 68.1616 25.7505 67.4007 21.2047 71.3354C20.4283 72.0109 19.2792 72.4287 18.2015 73.9051C16.3038 76.4957 16.3509 76.6471 15.7241 76.7307C15.7816 76.3007 15.9887 76.5566 17.8934 73.7275C19.5525 71.2536 22.9353 70.3413 25.4789 66.2743C25.7783 65.799 26.0029 63.9449 26.8908 62.4616C27.0492 62.2004 26.9517 62.0193 27.0649 62.2056C27.1467 62.3014 27.1102 62.1987 26.2292 64.8345C25.7 66.4049 25.7139 66.7392 28.4002 64.6465C33.5292 60.6492 31.252 64.0842 40.7769 50.9362C41.6596 49.7175 41.6544 49.4477 43.862 45.3372C46.235 40.9255 45.9372 40.0811 46.3063 38.6883C46.3116 38.6709 48.2319 31.1916 48.6097 30.194C48.8586 29.5307 48.8534 28.6655 49.0101 28.0126C49.4662 26.1584 49.4332 24.9049 49.4401 24.8301C49.4593 24.6768 49.5341 24.689 49.508 24.6612C49.508 24.6612 49.461 24.5585 49.5568 24.5271C49.5568 24.5236 49.4993 24.4627 49.4871 24.4209C49.4227 24.1981 49.7605 23.4912 48.8203 21.2732C47.7705 18.7888 48.6114 16.9625 48.6114 16.9451C46.2506 15.3016 46.4125 14.4503 44.1423 13.5606C43.8393 13.4422 43.5538 13.2925 43.2143 13.0557V13.0488ZM42.2429 12.0965C44.0204 12.6658 46.7607 12.9443 48.3328 14.8159C48.4808 14.9917 48.688 15.2355 48.5209 15.3956C48.1448 15.7456 46.6685 12.9495 43.2004 12.8416C42.7303 12.8259 42.5458 12.4934 42.2429 12.0965ZM41.6945 11.0362C43.4546 12.5996 46.8339 12.0338 48.406 14.4799C48.0926 14.6487 47.7357 13.4562 44.9466 12.6431C42.6137 11.9607 41.879 12.1626 41.6927 11.0362H41.6945ZM41.6004 7.76661C42.1314 8.11307 42.3438 8.44211 43.7262 9.63992C45.4167 11.0971 46.8339 10.8569 47.0219 11.212C47.539 12.187 48.2545 12.6031 48.3886 14.1247C45.5786 11.4714 43.3519 12.4586 41.6927 10.8133C41.0155 10.1413 40.9772 7.35574 41.6004 7.76661ZM43.6931 8.31502C45.3035 10.4443 46.6162 10.4303 46.7033 10.8273C44.9379 10.5505 43.9891 9.70433 42.6955 8.48216C41.6091 7.45149 41.2836 7.60818 41.4786 7.1886C41.8424 6.41386 41.6892 5.66175 43.6948 8.31328L43.6931 8.31502ZM42.4674 5.88112C43.6061 6.68023 44.2624 8.56747 46.2802 10.1674C46.2941 10.1518 46.2872 10.1587 46.2924 10.1761C46.3864 10.2336 46.4543 10.2597 46.416 10.3224C46.2524 10.204 46.3237 10.2092 46.2802 10.1674C45.7353 10.7454 42.8191 6.8996 42.1401 6.36337C41.8842 6.15968 42.2063 5.69831 42.4674 5.88112ZM44.6211 4.0496C45.26 4.77037 46.1653 6.0883 46.0887 6.98142C45.9407 8.82687 46.3324 9.61728 46.2941 9.84187C45.6726 9.90803 43.4685 6.34074 42.5406 5.74532C42.1454 5.49288 43.6792 4.19236 44.0848 3.95732C44.2972 3.83371 44.4557 3.86157 44.6228 4.0496H44.6211ZM45.4149 3.49248C45.7022 4.02 46.5396 5.66698 46.1026 6.08481C45.3819 4.12098 44.2189 3.89813 44.8004 3.5952C45.0563 3.4594 45.267 3.22611 45.4132 3.49074L45.4149 3.49248ZM45.7092 3.22437C46.0852 3.778 46.3951 4.35775 46.3533 5.05763C46.0922 4.46918 45.8276 3.89639 45.495 3.35668C45.3888 3.18955 45.6221 3.09379 45.7074 3.22437H45.7092ZM47.1821 2.06487C47.7792 2.90751 47.9585 2.63243 47.579 3.36713C47.5703 3.38454 46.9958 4.35949 46.9279 4.35253C46.9923 4.33164 46.9714 4.33686 46.9853 4.31945C46.7033 4.11575 47.3074 3.65439 47.1612 2.49315C47.1542 2.42874 47.1612 2.35561 47.041 2.29468C46.9488 2.65855 47.055 3.03634 46.9348 3.38106C46.268 5.31181 46.8095 4.3299 45.8032 3.09728C45.69 2.95974 45.7579 2.91621 46.7956 2.00045C46.947 1.8664 47.0724 1.9134 47.1838 2.06661L47.1821 2.06487ZM57.4939 7.18686C57.4939 7.18686 57.4957 7.17816 57.4974 7.17467C57.4974 7.17467 57.4974 7.17467 57.4957 7.17467C57.4905 7.19382 57.4765 7.19383 57.4939 7.1886V7.18686ZM57.4957 7.17293C57.4905 7.19034 57.4852 7.19731 57.4974 7.17293C57.4974 7.17293 57.4974 7.17293 57.4957 7.17293Z" fill="#73B195"/>
</svg>