<svg width="70" height="109" viewBox="0 0 70 109" fill="none" xmlns="http://www.w3.org/2000/svg">
<path d="M57.4947 7.17467C57.4895 7.19208 57.4843 7.19905 57.4964 7.17467C57.4964 7.17467 57.4964 7.17467 57.4947 7.17467ZM7.66582 85.4809C7.65189 85.5332 7.61359 85.6568 7.63971 85.5889C7.65015 85.5523 7.65538 85.5157 7.66582 85.4809ZM57.4947 7.17467C57.4895 7.19208 57.4843 7.19905 57.4964 7.17467C57.4964 7.17467 57.4964 7.17467 57.4947 7.17467ZM46.6623 1.63484C45.5237 2.45833 45.5532 2.75952 44.2579 3.40543C39.6304 5.73662 39.7906 12.288 43.814 13.8723C46.2166 14.8176 46.7267 16.2853 47.7103 16.7762C48.647 17.2498 47.2263 18.559 48.4781 21.5257C48.8263 22.3509 49.4165 23.2875 48.9064 26.4265C48.4537 29.2226 47.5258 32.8386 47.2455 33.6151C46.5265 35.619 45.4871 40.6365 45.3913 40.9185C43.034 47.9539 33.9478 60.3967 31.0421 62.2509C29.3133 63.3547 28.7945 63.8752 26.6026 65.4108C26.4389 65.1897 27.2781 62.9839 27.3442 62.8219C29.1096 58.4851 26.4964 58.5861 28.5177 56.3768C31.486 53.1438 33.7058 49.7993 31.601 45.5391C30.5459 43.4012 30.8436 42.5882 30.4345 41.8099C29.6006 40.2187 27.9936 40.8176 26.5973 41.951C23.1415 44.7592 22.5548 45.3076 22.3093 46.5454C21.5711 50.2659 20.2967 51.8798 22.7411 55.3531C23.5593 56.5126 24.3428 57.8828 26.1377 58.2466C28.8798 58.8072 25.9984 62.761 25.5249 64.7562C24.5012 69.0181 19.4871 70.6338 17.492 73.6022C15.7928 76.1179 15.5821 75.9473 15.1712 76.7603C14.9362 77.2304 13.9891 77.1468 12.8522 77.7614C7.40641 80.6862 7.66408 81.7239 6.90501 86.4977C6.61078 88.3414 6.70305 88.5764 7.14004 90.0528C7.30195 90.5855 4.50941 96.4022 4.36142 96.8914C3.17581 100.814 3.6128 99.8633 2.35406 103.131C0.801096 107.195 -0.292246 107.416 0.0576935 107.708C0.586954 108.149 2.704 104.043 3.96448 99.6874C5.13094 95.6535 4.14728 98.615 7.39597 90.8136C7.47431 91.658 8.17071 90.7631 7.13308 92.6486C5.72113 95.1974 5.92309 96.3778 5.6219 97.2291C3.4474 103.469 3.92966 102.315 3.09398 104.174C1.19978 108.394 0.741903 108.241 1.09532 108.46C1.94144 108.99 5.0909 99.9294 5.09786 99.912C6.34789 96.8966 6.19468 95.4429 6.84581 94.1371C8.53109 90.7561 8.70519 90.9024 8.81662 90.0615C9.01161 88.5729 11.4124 83.0697 12.2864 83.6024C13.4825 84.3319 14.0239 83.834 13.963 84.3388C13.7697 85.9771 13.6061 87.3124 15.0824 88.6095C16.7225 90.0528 17.5059 89.7533 19.5341 90.8223C23.6969 93.0142 26.0054 88.6669 28.0998 86.6735C28.6169 86.1843 27.6263 85.8709 27.0448 85.1014C24.2505 81.4209 18.641 80.4669 15.5769 82.6727C14.978 83.1097 14.8021 83.3186 14.4783 83.3064C13.8568 83.2838 12.3613 82.9739 12.7373 82.4829C14.4696 80.2266 14.8718 76.8073 19.2713 77.0493C21.8706 77.1973 20.9148 78.5274 24.0816 80.298C25.8818 81.306 28.8432 81.125 30.1089 80.5626C32.1424 79.6556 32.3113 77.9825 35.0237 77.0754C37.6161 76.2102 40.4051 72.1397 35.7288 70.9437C32.7065 70.1637 30.7252 69.3837 28.4254 70.4127C26.136 71.4311 22.7428 70.8514 21.3604 75.0037C20.7232 76.9205 20.295 76.003 16.9697 76.2432C18.641 73.9817 19.0571 73.2487 20.2984 72.4496C22.3772 71.1108 25.6259 67.9074 25.6729 67.8673C26.5294 67.1622 34.6982 61.3909 37.5099 57.1655C39.8271 53.6852 39.7749 53.5703 40.5496 52.8774C44.4164 49.4146 43.5058 48.8679 45.898 47.3184C48.7027 45.4974 49.1867 45.0482 50.1947 45.0969C55.7763 45.3616 54.9215 43.1714 56.6172 43.4186C57.5295 43.5492 57.8533 43.0443 59.953 42.7936C62.4739 42.4889 63.4733 41.9422 65.1777 40.4729C66.8264 39.0522 67.0458 37.2381 67.4897 35.4083C67.972 33.4114 66.7759 32.5809 65.7992 31.9194C67.4131 30.5457 68.6283 29.9016 68.2331 27.4433C67.9964 25.9565 66.6401 26.0487 65.8567 25.7806C64.4447 25.3088 64.1314 26.1689 62.6741 26.0174C59.3593 25.6675 54.4741 28.6184 53.7725 30.4395C52.6373 33.3801 55.019 39.0818 47.108 45.2083C46.0146 46.0545 44.7385 46.629 43.6556 47.5291C43.5528 46.9911 46.3419 43.2306 47.2942 38.65C47.5693 37.3269 50.3706 29.052 49.9841 26.195C49.9562 25.9948 50.1146 23.3485 50.1512 22.8976C50.4176 19.7446 52.2508 18.7157 53.6245 16.0972C53.8055 15.7543 53.9222 15.6446 55.98 13.5014C56.5006 12.9617 56.3944 13.3587 57.6705 12.7981C58.931 12.2427 59.2757 12.0181 60.0122 12.1052C62.2459 12.3733 63.0554 12.5961 65.1759 11.4976C67.8814 10.0961 68.4891 7.88848 69.7756 4.30378C70.1587 3.23655 69.9585 2.19196 69.7252 1.15085C69.6277 0.710378 69.3421 0.388295 68.8233 0.365662C68.3184 0.346511 68.1217 -0.0330249 66.1788 0.00527691C62.6498 0.0783985 62.2145 2.47226 59.7998 4.12446C57.2318 5.87764 55.3881 8.56224 55.9383 11.6229C56.269 13.4544 53.581 12.8468 49.3155 20.7962C48.6801 20.0267 49.1171 17.5179 48.9691 16.2034C48.7741 14.5164 53.5131 12.4481 51.4308 7.62385C50.6874 5.89331 50.6683 4.49703 49.1484 3.3828C47.0209 1.82635 47.3047 1.16129 46.6536 1.63484H46.6623ZM56.1872 12.7615C56.2795 12.8607 56.0688 13 56.0166 12.9739C55.8878 12.906 56.1054 12.664 56.1872 12.7615ZM57.4738 7.16597C57.5313 7.19731 57.5069 7.05803 57.2597 8.00164C56.3613 11.3914 57.2666 11.0101 56.5267 12.1382C55.6649 8.87388 57.4755 7.18338 57.4721 7.16597H57.4738ZM57.8342 6.56185C58.1406 6.60711 57.0734 9.69737 57.2806 10.5609C57.3363 10.8012 57.2457 10.9509 57.002 11.1406C56.9846 9.51282 57.3989 8.03646 57.8342 6.56185ZM58.7117 9.22034C58.5532 9.67299 58.3965 9.72348 57.4547 10.4704C57.3049 9.93937 58.0031 7.24954 58.1806 6.35815C58.2764 5.87764 58.7082 5.65827 59.0198 5.34838C59.3175 5.05589 59.4742 7.07544 58.7134 9.22034H58.7117ZM59.7545 4.77037C60.1306 7.09807 58.5967 10.4617 59.0181 8.86692C60.0522 4.95839 58.6664 5.48591 59.7545 4.77037ZM61.5704 3.37061C61.8054 3.82849 62.084 5.16731 61.8594 6.89437C61.7566 7.70219 61.4676 7.48109 59.946 8.60403C59.6274 8.83732 59.2827 9.08976 59.408 8.71545C60.5745 5.2857 59.4028 4.77037 60.4039 4.25852C60.8322 4.03915 61.1839 3.7101 61.5704 3.37235V3.37061ZM62.7455 1.96911C62.9161 5.20736 61.9464 7.58903 62.0631 6.59667C62.4704 3.31664 60.8043 3.5273 62.7455 1.96911ZM64.0008 1.10732C63.1877 3.10598 63.6004 6.69416 62.3434 7.07544C62.2267 6.9466 62.3364 6.84214 62.373 6.74117C63.6735 2.96148 62.1118 1.9726 63.6282 1.22049C63.717 1.17696 63.7901 1.09514 64.0008 1.10906V1.10732ZM66.5914 0.466639C66.4208 0.926261 65.5694 2.37476 65.3117 4.7164C65.2613 5.15861 63.4715 6.40516 63.1982 6.57055C62.8918 6.31288 63.3357 6.83518 63.6004 4.03741C63.8719 1.15607 63.9033 0.386554 66.5914 0.466639ZM67.3174 0.658148C66.0656 2.38173 65.6826 4.62238 65.5241 4.57015C65.4336 4.54404 65.7627 2.60109 66.5931 0.840952C66.8003 0.397 66.8125 0.402223 67.3539 0.513646C67.3417 0.562394 67.347 0.621587 67.3191 0.658148H67.3174ZM68.8338 0.753903C66.6227 3.42806 65.0506 5.98732 66.426 2.68988C67.528 0.0313916 67.5942 0.5032 68.8338 0.753903ZM69.2185 1.48338C68.8512 1.96041 68.3741 2.28946 67.8344 2.5419C69.027 0.0992904 69.5685 0.997641 69.2185 1.48338ZM69.215 3.30619C68.4125 3.68399 66.2641 4.91313 65.8706 4.66765C66.7028 3.81979 67.4549 2.91621 68.5204 2.3678C68.846 2.20067 69.0201 1.85247 69.3474 1.61569C69.5162 2.15018 69.7217 3.0642 69.2133 3.30619H69.215ZM65.3048 5.21954C65.6965 4.85568 66.2432 4.8905 66.708 4.70073C67.091 4.54578 67.2112 4.47962 69.4884 3.35668C69.5807 4.0879 66.6088 5.20561 65.3048 5.21954ZM68.0921 6.50787C64.0269 5.92638 62.8169 7.25476 64.7268 5.66872C64.9653 5.46676 65.3257 5.51029 66.3163 5.28744C69.5894 4.54404 69.988 2.30861 68.5587 6.24324C68.4716 6.4835 68.3376 6.5427 68.0921 6.50787ZM68.073 7.08762C63.5238 6.48176 63.7187 7.02495 63.4767 6.74465C63.4454 6.7551 63.4332 6.87 63.3566 6.80036C64.1157 6.40167 68.402 6.46435 68.3167 6.82648C68.2871 6.95531 68.2749 7.11548 68.0747 7.08762H68.073ZM60.0557 8.83558C62.9788 5.92812 68.254 7.07021 68.1113 7.42712C66.6401 11.1006 67.8362 7.6813 60.0557 8.83558ZM60.7939 9.31957C59.1469 9.55461 59.2009 9.62773 59.0407 9.52501C59.9791 8.24016 67.0788 8.88259 66.8995 9.47278C66.6314 10.3363 65.6617 8.61099 60.7939 9.31957ZM65.7035 10.1779C62.4757 9.19596 60.9889 9.81924 60.719 9.53546C60.6407 9.45363 60.6894 9.43448 60.6058 9.5076C60.477 9.62425 60.3726 9.61554 60.3795 9.57898C60.3969 9.59117 64.1192 8.85299 66.4747 9.86276C66.1265 10.3102 66.1283 10.305 65.7035 10.1779ZM62.9179 11.2991C60.2768 10.2876 58.5201 10.977 57.15 11.461C57.7437 10.1936 58.3634 10.0264 59.2879 9.90281C62.7856 9.43448 65.7783 10.2266 65.8114 10.4443C65.8271 10.547 64.4308 11.8806 62.9179 11.2991ZM57.291 12.4586C56.2481 12.906 56.5702 12.5961 56.8993 11.8893C57.4059 10.7977 62.8987 10.6967 63.3322 11.6699C63.3566 11.7413 62.5836 11.8858 62.0091 11.8562C59.2635 11.7657 60.4561 11.0832 57.2927 12.4586H57.291ZM54.5228 14.318C54.5089 14.2971 54.5019 14.3145 54.5838 14.2466C54.596 14.2657 54.6081 14.2535 54.5228 14.318ZM25.7895 71.6383C26.0576 71.9743 24.6283 74.6171 23.0335 76.0848C22.4956 76.5792 22.3302 76.6367 21.4597 76.5026C22.748 75.425 23.0997 74.1662 23.3521 73.6439C24.1756 71.9935 24.2279 72.0997 25.7895 71.6383ZM26.4006 71.4468C26.5677 71.4346 26.7262 71.3284 26.902 71.4015C26.4459 73.8859 24.4646 76.0082 22.7759 76.5061C24.0242 75.5399 25.6346 73.3706 25.9688 71.8577C26.0263 71.5983 26.1395 71.4642 26.4006 71.4468ZM29.6824 70.7434C27.3094 73.442 28.2356 75.5851 23.7073 76.5444C22.4869 76.8143 26.0193 75.4824 26.8289 72.2442C27.1458 70.9854 27.6402 71.1857 28.9024 70.6982C29.4613 70.4823 30.0845 70.296 29.6824 70.7417V70.7434ZM29.0678 72.9458C28.8328 73.3636 28.0075 74.4831 27.6437 74.6276C27.5619 74.4883 28.6848 72.1711 29.9139 70.7173C30.1437 70.4475 30.4206 70.3221 30.7722 70.3395C31.251 70.3674 31.3172 70.3343 31.2771 70.3482C31.204 70.7051 30.3057 70.7365 29.0696 72.9441L29.0678 72.9458ZM33.9252 71.2588C33.2462 71.6766 32.2834 72.6638 31.6932 72.8152C30.1159 73.2226 29.0852 73.8581 28.5002 74.1279C31.4181 69.6397 31.2649 70.3012 34.1602 70.975C34.1689 71.1979 34.0157 71.2031 33.9252 71.2588ZM34.8775 71.2205C34.2838 71.6035 33.967 71.6401 33.0582 72.4618C32.9206 72.5854 32.7761 72.6446 32.5585 72.575C33.765 71.4921 34.4231 70.9245 34.8775 71.2205ZM35.5896 71.6731C33.5526 72.3173 34.4214 72.6272 33.3002 72.5158C34.9889 70.9419 35.4955 71.3493 35.9552 71.4677C35.8437 71.6244 35.7062 71.6348 35.5896 71.6731ZM37.6509 73.045C37.6178 73.0381 35.9935 72.5872 34.3517 72.5123C34.7347 72.0579 36.2041 71.5199 36.669 71.7341C37.4455 72.0945 38.2951 73.1774 37.6509 73.045ZM37.6387 73.3375C37.5656 73.1547 37.8232 73.1965 37.8964 73.2505C37.9782 73.3114 37.8546 73.5464 37.6387 73.3375ZM37.6021 73.7937C37.428 73.7484 36.2546 73.0555 36.3208 73.0833C36.5906 72.5262 38.3299 73.9834 37.6021 73.7937ZM33.422 72.723C33.3768 72.8117 34.2821 72.763 34.3813 72.756C35.8298 72.6463 36.5401 73.4629 37.3584 73.8633C37.4559 73.9103 37.6213 73.9347 37.576 74.1001C37.247 75.2752 33.4255 73.0712 33.422 72.723ZM36.1728 74.9897C34.9228 74.7564 34.2281 74.2811 32.7918 73.5168C32.2695 73.24 31.5992 73.059 31.7646 73.0015C31.7646 73.0015 31.7646 72.9963 31.7646 72.9945V73.0015C33.1382 72.5715 33.9182 73.3793 35.2396 74.1297C36.467 74.8278 37.1686 74.4761 37.2243 74.692C37.3149 75.0576 36.5576 75.0611 36.1728 74.988V74.9897ZM33.5979 74.5527C32.9137 74.1001 32.1354 73.4576 31.0769 73.301C31.8847 73.1025 32.4366 73.5377 34.0662 74.3995C36.1502 75.4946 36.81 75.0402 36.7995 75.2787C36.7821 75.6739 35.1003 75.4668 33.5961 74.5527H33.5979ZM34.6163 76.7429C34.3831 76.8178 31.728 74.4135 27.7917 74.9375C27.7795 74.9949 29.6911 73.3375 30.8105 73.4838C32.6281 73.7327 32.663 74.3403 34.2211 75.089C35.7201 75.801 36.2041 75.4685 36.3991 75.7053C35.9203 76.2537 35.2884 76.5322 34.6163 76.7446V76.7429ZM26.9786 75.4006C27.6785 74.5127 32.7813 75.3362 34.0035 76.6054C34.0819 76.6837 34.2734 76.7359 34.195 76.8596C33.7406 77.5873 33.2566 75.3536 26.9786 75.3989V75.4006ZM31.9596 78.0904C29.282 77.9024 28.5507 77.0511 25.8035 76.285C25.3647 76.1649 25.6833 76.0831 26.4685 75.6269C27.0309 75.2979 33.436 76.1127 33.6275 77.1364C32.1006 78.1792 32.5655 78.134 31.9596 78.0904ZM24.6353 76.5792C25.1314 76.1544 25.5232 76.2572 28.9338 77.6047C30.7096 78.3081 31.9404 78.1548 32.0971 78.3237C30.6626 80.5104 25.9793 76.87 24.6335 76.581L24.6353 76.5792ZM23.8866 76.769C23.8292 76.9013 23.7421 76.5845 24.4211 76.6994C24.9539 76.7916 25.41 76.9988 27.4731 78.1844C29.4822 79.337 30.9899 79.0532 31.1587 79.2134C29.3133 82.0164 25.4709 77.5002 23.8866 76.769ZM29.2158 80.4321C29.1984 80.439 29.2158 80.4077 29.2158 80.3903C29.2158 80.4042 29.2158 80.4181 29.2158 80.4321ZM24.7606 79.6695C23.5628 78.1601 23.467 77.7718 22.5426 77.0371C21.874 76.5148 23.8988 76.8508 24.6753 77.4463C26.6043 78.9331 26.8759 79.5024 28.8241 80.1674C28.9721 80.2179 29.1897 80.1866 29.2088 80.4303C27.5688 80.5 25.8296 81.0135 24.7606 79.6678V79.6695ZM22.0986 77.0841C22.036 76.8891 22.0481 77.0511 22.1021 77.0807C22.5478 76.7568 24.2749 79.3979 24.8738 80.0908C23.7265 79.9254 22.5983 76.971 22.0986 77.0824V77.0841ZM21.5084 77.0319C21.2125 76.7325 21.303 76.8891 21.2682 76.8491C21.1759 76.7551 21.5102 76.863 21.6669 76.9657C22.9117 77.7788 23.0649 78.6737 23.7143 79.4084C22.4973 79.1124 22.5583 78.1078 21.5067 77.0319H21.5084ZM21.1132 77.1085C21.2125 77.0754 21.2873 77.1573 21.3152 77.2513C21.4179 77.4114 21.3396 77.0911 21.7191 77.5908C21.5885 77.5281 21.4458 77.2722 21.3465 77.3052C21.1829 77.0511 20.9896 77.1468 21.1132 77.1085ZM20.6641 76.8073C20.8155 76.9048 20.7877 76.9309 20.8434 76.9344C20.8765 76.957 20.9374 76.9222 20.9687 76.9675C21.0018 76.9988 21.0157 77.0424 21.0279 77.0598C20.8312 76.8595 20.584 76.9953 20.2375 76.8143C20.0512 76.7203 20.0216 76.5967 19.9903 76.6715C20.0042 76.6263 20.3681 76.6106 20.6623 76.8073H20.6641ZM23.8065 72.4252C23.2059 73.2365 22.3354 76.2624 20.9739 76.5044C21.834 75.4772 22.4712 72.7769 23.8065 72.4252ZM13.8968 78.55C13.0316 79.4084 13.002 80.1396 11.8163 81.8283C11.5064 82.2723 11.6875 81.7482 9.99701 81.3896C9.02902 81.1824 13.2196 78.0956 13.8951 78.55H13.8968ZM12.1193 82.3646C12.0009 82.2636 12.0914 82.1121 12.269 81.8719C13.2057 80.6009 14.1458 77.9755 15.1173 78.1548C13.6949 79.5354 12.551 82.7232 12.1193 82.3628V82.3646ZM21.0192 82.1243C20.9792 82.1051 19.3688 82.53 17.7392 83.592C17.0654 84.0324 15.9651 84.8072 15.3262 84.3528C15.4184 84.0342 15.9042 84.5077 17.3301 83.0801C17.7357 82.6745 18.4008 82.0094 18.8552 81.9937C21.0558 81.9015 20.9496 82.0982 20.9914 82.093C21.0662 81.9937 21.0697 82.1661 21.0192 82.1226V82.1243ZM21.7435 82.3994C19.945 82.6501 18.4913 84.8124 16.3238 84.6313C19.0745 83.0139 19.3531 82.6396 21.5485 82.2218C21.9889 82.14 22.3267 82.3193 21.7435 82.3994ZM15.9338 84.7863C19.7605 85.265 20.3524 80.8099 24.254 83.2368C19.5864 85.1049 19.3931 88.5277 15.9338 84.7863ZM25.3525 84.2501C23.2372 84.647 21.8688 86.2174 20.7581 87.1662C20.2584 87.5858 19.1041 87.0409 18.5296 86.7379C22.1874 85.3451 23.7352 82.0216 25.4814 84.1822C25.4378 84.2065 25.3978 84.2413 25.3525 84.2501ZM25.6711 84.8751C22.3319 85.8935 22.1265 87.6398 20.8329 87.3891C21.9907 86.2296 25.4378 83.3447 26.0785 84.7253C25.9619 84.8159 25.8104 84.8333 25.6711 84.8751ZM27.5027 86.3218C25.706 86.2209 24.4403 87.4343 22.2518 87.4657C22.0272 87.4674 21.7121 87.4726 21.9541 87.2602C23.0701 86.2661 24.2992 85.4687 25.7373 85.023C26.2874 84.8542 26.2909 84.8489 26.6461 85.2842C27.2572 86.0328 28.1225 86.3671 27.5027 86.3236V86.3218ZM24.9156 87.2237C25.4152 86.7954 26.7767 86.4489 27.6036 86.5377C27.5305 86.731 27.3686 86.7902 27.285 86.9172C26.7401 87.7686 25.9236 87.4361 24.9156 87.2237ZM24.113 87.4587C24.4072 87.0426 24.4316 87.4395 26.5051 87.6519C26.2039 88.2369 24.8964 87.7355 24.113 87.4587ZM25.5249 88.4215C24.7623 88.3257 24.0747 88.0263 23.3556 87.6398C23.7491 87.2933 24.7449 88.0611 26.0524 88.0942C25.8783 88.4545 25.8748 88.465 25.5266 88.4215H25.5249ZM21.3517 87.7007C22.99 87.6311 22.9952 87.6084 23.1415 87.7007C23.9093 88.1777 24.738 88.4876 25.6798 88.606C24.691 90.098 23.8866 90.8362 21.3517 87.699V87.7007ZM23.4462 90.3C21.6111 89.6349 21.2368 88.8689 20.2741 87.6519C21.2299 87.4378 21.4893 88.2352 22.3232 89.0169C23.3991 90.0249 23.951 89.9309 24.0189 90.1607C23.8831 90.4079 23.6725 90.3818 23.4462 90.3ZM19.8806 90.4271C18.3189 88.6582 18.8238 88.1708 17.8628 86.9225C17.3631 86.294 18.3607 86.8859 18.3799 86.8946C19.6804 87.4622 19.9032 87.4291 20.2654 87.9618C21.1968 89.3529 22.2727 90.0771 23.2964 90.4079C24.0259 90.6604 20.8033 91.4786 19.8806 90.4271ZM18.3033 89.372C17.7357 87.8017 17.1264 87.7564 16.3116 85.5802C17.8262 86.2313 18.3033 88.5329 19.4819 90.2512C18.9265 90.0336 18.4896 89.8926 18.3033 89.372ZM16.0557 88.021C15.5246 86.4472 15.8102 86.4977 15.2705 84.5895C15.6866 84.8768 15.9703 85.0143 16.1166 85.5018C16.7991 87.7738 19.5289 90.4741 17.4728 89.5165C16.2611 88.9542 16.4805 89.2746 16.0557 88.0193V88.021ZM14.9815 84.7097C15.603 85.3782 15.1852 86.2574 16.0313 88.4963C16.2228 89.09 14.6333 86.8389 14.9815 84.7097ZM14.4243 84.0847C14.7308 84.2187 14.7604 84.7358 14.7482 84.983C14.6489 86.8215 15.6221 88.1777 15.5838 88.4058C13.7662 87.2289 14.3338 85.2163 14.4226 84.0847H14.4243ZM14.5027 83.6546C15.3384 83.7521 16.4021 82.1922 18.0874 82.1069C17.4067 82.7719 16.8234 83.4091 16.0644 83.8392C14.9014 84.4955 14.4209 83.5833 13.9804 83.7556C13.9403 83.7922 14.0065 83.6007 14.5027 83.6546ZM13.3101 83.491C13.2561 83.5972 13.0246 83.5833 13.3101 83.491C13.3258 83.4683 13.3188 83.4596 13.3293 83.4962C13.4372 83.585 13.5922 83.5206 13.6479 83.6947C13.6653 83.6982 13.6513 83.6895 13.6688 83.6999C13.761 83.5954 13.7854 83.7173 13.8028 83.726C13.8777 83.7069 13.9316 83.7225 13.9682 83.7591C13.7662 83.6842 13.8167 83.7817 13.8011 83.726C13.129 83.592 13.4093 83.4579 13.3101 83.4927V83.491ZM7.51435 85.9075C7.62404 86.4298 7.0025 87.7477 7.85385 89.7759C7.91826 89.9117 7.96179 90.1137 8.15504 90.058C8.36048 90.0005 8.28561 89.8073 8.24035 89.6645C8.10803 89.2363 8.24731 89.6837 8.49105 88.3814C8.91585 86.1268 9.18919 86.0694 11.0486 83.2786C11.1495 83.1254 11.2418 82.9948 11.4594 83.1201C11.6945 83.2577 11.7136 83.3204 11.5186 83.538C8.91237 86.4472 8.59725 90.3331 7.99313 91.0504C7.86081 91.0033 6.60556 88.5695 7.51435 85.9092V85.9075ZM8.10977 85.3921C8.81662 82.8207 8.42837 81.6908 10.7247 82.7424C11.0381 82.8851 10.8501 82.9478 9.73238 84.5286C7.81555 87.2498 8.31869 88.2334 7.93567 88.7923C7.68845 87.7233 7.82077 86.4437 8.10977 85.3921ZM18.2284 76.7185C18.3398 76.574 18.4495 76.4556 18.5888 76.5723C18.6584 76.6332 18.594 76.527 18.8378 76.6297C18.8552 76.6367 18.8969 76.6698 18.9196 76.6646C18.9022 76.6471 18.9196 76.6332 18.9265 76.6489C18.9474 76.7168 18.8795 76.6175 18.7124 76.6297C18.6567 76.6332 18.6097 76.5932 18.5905 76.6001C18.4704 76.6176 18.5017 76.5201 18.4669 76.5288C18.2545 76.9257 10.5176 78.0991 9.35458 81.2434C9.04294 82.093 10.1137 81.2939 11.8999 82.7215C12.5023 83.2055 12.8296 83.3291 12.8627 83.3517C12.9654 83.43 12.9166 83.4527 12.9689 83.4666C13.1203 83.3848 13.1256 83.5571 13.1673 83.5624C13.1639 83.5658 12.9758 83.4823 12.9689 83.4666C12.9045 83.5067 12.7582 83.3186 12.7269 83.2977C12.0862 83.4997 8.75394 79.727 8.01402 84.022C7.97049 84.2709 7.64841 85.7752 7.5161 85.8779C8.25079 86.6126 5.31897 80.4303 14.8857 77.455C15.9164 77.1364 17.9951 76.1701 18.2284 76.7185ZM22.0185 52.7799C22.8368 53.5773 23.3051 54.0944 24.3828 54.6236C24.9974 54.9231 26.2857 56.1348 26.1969 56.5822C25.558 56.389 24.7919 55.5568 24.0381 55.1181C23.1711 54.6201 22.2971 54.7107 22.0203 52.7782L22.0185 52.7799ZM21.8131 50.884C25.0635 55.5498 25.3299 53.7531 25.6624 55.4332C24.3741 53.9185 21.2577 53.4659 21.8131 50.884ZM22.8803 46.5559C23.0335 48.1837 23.709 50.4923 24.5882 51.502C25.0513 52.0365 24.8337 52.1932 25.2846 54.3068C24.1913 53.9255 22.6296 51.8816 22.0011 50.8509C21.7852 50.4957 21.794 50.2433 22.0516 49.4163C22.8664 46.8693 22.5269 46.6255 22.8821 46.5559H22.8803ZM22.8438 46.5419C22.8612 46.5454 22.889 46.5367 22.8786 46.5559L22.8438 46.5419ZM24.0781 47.4699C24.2679 50.0762 24.8999 49.385 24.7745 51.4237C23.38 49.7523 22.8438 46.105 22.9918 45.8386C24.0694 43.9061 23.9476 45.7028 24.0799 47.4716L24.0781 47.4699ZM24.6318 44.2229C24.9852 44.3257 24.8877 45.6297 24.8407 45.9953C24.5325 48.4797 25.1053 49.4773 24.8006 49.9299C24.2052 48.4431 24.2731 47.5065 24.1217 45.7428C24.0607 44.9959 23.7352 44.8097 24.1739 44.5189C24.3288 44.4162 24.4542 44.1707 24.63 44.2229H24.6318ZM27.3129 42.1999C27.7412 45.7132 26.2979 45.0047 25.1558 48.6294C25.0113 49.1256 24.9156 48.2116 24.9121 47.6893C24.8999 46.3696 25.262 45.1579 24.872 44.2055C24.7763 43.9635 24.7571 44.0506 26.8794 42.2434C27.0622 42.0868 27.285 41.9614 27.3146 42.1999H27.3129ZM28.0075 41.5314C28.0493 42.4976 28.1677 43.3733 27.5514 44.1498C27.6332 43.4778 27.5653 42.818 27.4609 42.1599C27.3965 41.7681 27.7464 41.7681 28.0075 41.5314ZM28.2461 43.1052C28.0998 41.413 28.159 41.4356 28.3801 41.3451C28.5977 41.2563 28.8484 41.0352 29.0452 41.1884C29.3551 41.4287 28.6239 42.6143 28.2461 43.1052ZM30.0462 43.0478C29.4195 43.6101 28.2722 44.1237 27.8317 44.2316C28.7126 42.8058 29.127 42.2591 29.2402 41.4652C29.3464 40.6992 30.6904 42.468 30.0462 43.0478ZM26.9943 45.5635C27.675 44.0001 29.0696 44.3065 30.2029 43.0809C30.3979 43.1627 30.3736 43.3194 30.4014 43.4447C30.5999 44.3866 28.3453 44.4475 26.9943 45.5635ZM30.1699 44.8253C27.5375 45.4852 26.8898 46.4862 26.512 46.4149C27.8073 44.7592 28.838 45.0238 30.2256 44.1307C30.6138 43.8747 30.9794 44.6251 30.1699 44.8253ZM31.399 47.2436C27.722 50.494 26.4563 49.5051 25.0601 51.2339C24.8006 49.1203 25.6781 46.9006 27.9884 45.7985C28.4828 45.5618 30.5964 44.7226 30.7757 44.8427C30.9324 44.9489 31.5522 46.5489 31.5592 46.5663C31.681 46.8588 31.6218 47.0468 31.399 47.2453V47.2436ZM31.7211 47.6771C30.3091 49.6183 26.674 50.2537 25.4291 51.6831C24.9922 52.1862 25.0096 51.5943 25.215 51.314C25.8 50.5288 26.4581 50.3808 27.9518 49.7506C30.5233 48.6729 31.5296 47.0486 31.7542 47.2244C31.9196 47.3532 31.829 47.5291 31.7193 47.6771H31.7211ZM31.5818 49.6026C29.0469 51.8259 28.3958 50.4801 25.2725 52.7225C24.5256 51.516 28.5995 50.1266 29.4526 49.6131C31.9039 48.128 31.2736 48.2272 31.9265 47.7693C32.0083 48.229 31.9892 48.6224 31.9631 49.0142C31.9457 49.2788 31.7611 49.4459 31.5801 49.6026H31.5818ZM25.8557 55.0275C25.5075 54.4408 25.3647 53.8158 25.2812 53.1716C25.1819 52.4004 27.7429 51.5612 28.5943 51.3593C30.6922 50.8613 31.587 49.7314 31.8203 49.6305C31.836 49.7872 31.8029 51.2113 31.2597 51.5055C29.8791 52.2472 28.0023 51.6239 25.8539 55.0275H25.8557ZM26.0698 55.6055C25.753 54.93 27.3425 52.7016 29.8095 52.1445C30.3353 52.0261 30.8558 51.8816 31.4042 51.6204C31.2092 52.564 27.9658 51.6239 26.0698 55.6055ZM26.4703 56.3907C26.1395 56.0948 26.2283 55.6195 26.432 55.2956C28.0406 52.7103 29.4508 52.571 31.164 52.1096C30.7722 54.1797 28.4219 52.1671 26.4703 56.3907ZM28.737 55.28C27.4905 55.851 27.1823 56.718 26.9299 57.0018C26.0333 56.4221 27.9919 53.5634 30.3979 53.3858C30.1124 53.9568 29.3377 55.0032 28.737 55.2817V55.28ZM27.3425 57.6146C26.6287 57.0262 28.0702 55.7727 28.6726 55.5759C28.0842 56.187 27.5827 56.7999 27.3425 57.6146ZM27.2137 58.2066C25.6555 57.2438 25.5423 58.5617 23.0074 54.9283C23.5384 54.9666 23.9389 55.2382 24.3184 55.5202C26.9664 57.4928 26.8132 56.7685 27.2137 58.2048V58.2066ZM46.3802 6.67849C46.3437 5.22477 47.3186 4.21325 47.9227 3.0433C48.6922 3.28878 47.5554 4.39954 46.3802 6.67849ZM46.4098 7.46194C46.6083 6.03258 48.0342 4.57886 48.3441 3.39847C49.4844 3.73274 49.0683 4.10183 46.4098 7.46194ZM48.4642 7.66563C47.0366 9.32654 47.336 10.6253 47.0696 10.8482C45.1755 8.02602 47.0401 7.39056 49.0387 4.17669C49.2946 3.76059 49.8622 4.73207 50.0502 5.16383C50.2557 5.62693 49.225 6.78469 48.4642 7.66563ZM48.1543 10.1709C47.6233 11.1528 47.6981 11.5533 47.5206 11.5359C47.2977 11.5167 47.3134 11.071 47.3256 10.8464C47.5101 8.17052 49.1101 7.63255 50.2174 5.58863C50.4158 5.98384 50.482 6.33726 50.576 6.68023C50.7867 7.43756 48.8141 8.94352 48.1525 10.1709H48.1543ZM50.7919 7.35574C50.5743 8.41252 48.4955 10.002 47.8113 11.891C47.7312 11.6542 47.8113 11.4418 47.8792 11.2347C48.5599 9.1594 49.9162 8.69108 50.6004 7.28262C50.6839 7.1207 50.8197 7.21646 50.7919 7.35748V7.35574ZM51.3264 9.39095C50.6195 10.7925 49.6167 11.9537 48.5095 12.9704C48.3458 12.9844 48.3441 12.8938 48.304 12.8468C47.1741 11.6003 49.7612 9.62251 50.9172 7.59599C51.1209 7.9616 51.5457 8.95222 51.3281 9.38921L51.3264 9.39095ZM51.2915 10.688C50.3044 12.0634 50.6091 11.6925 48.8611 13.3256C48.6592 13.5136 48.5303 13.2525 48.64 13.1236C49.1675 12.4795 50.3201 11.6333 51.3403 9.70781C51.5266 9.34221 51.7181 10.0926 51.2915 10.6863V10.688ZM48.9673 14.741C48.5356 13.4631 48.6278 13.8392 50.4245 12.093C50.7919 11.7361 51.0443 11.2817 51.3769 10.8743C51.5614 11.5759 49.9301 14.1247 48.9673 14.7393V14.741ZM56.9097 37.6472C55.503 39.4596 55.5674 40.9795 55.6405 42.1616C55.6963 43.1157 53.5844 43.967 52.8846 44.1254C51.5161 44.4353 51.4622 43.9548 50.2713 43.8695C50.1146 43.6031 51.5074 42.5551 52.4476 39.8652C53.0186 38.2392 55.0765 37.8196 56.908 37.649L56.9097 37.6472ZM56.2969 42.912C56.7287 42.3131 57.2475 42.6003 57.7733 42.7327C57.392 43.0391 56.8784 43.0965 56.2969 42.912ZM51.8713 44.5677C51.8713 44.5677 51.8748 44.5711 51.8748 44.5746C51.873 44.5746 51.8713 44.5729 51.8696 44.5694V44.5659L51.8713 44.5677ZM59.119 42.3949C58.393 42.7866 58.0396 42.7431 57.1778 42.3235C57.1239 42.3392 57.1273 42.3705 57.0925 42.3357C57.0925 42.3357 57.1047 42.3166 57.1134 42.3113C57.3711 42.0902 58.7848 42.334 59.1173 42.3949H59.119ZM57.4442 33.6778C57.62 33.5089 57.8499 33.5298 58.0605 33.4984C60.1898 33.199 61.5791 34.1426 63.233 33.8675C63.2765 34.9591 60.1219 33.4549 57.5173 33.7178C57.4982 33.7178 57.4668 33.6969 57.4442 33.6795C57.2388 33.8849 57.3032 33.528 57.4442 33.6795V33.6778ZM54.1555 37.393C55.6179 35.2325 60.5606 36.9003 60.4022 36.5452C60.39 36.54 60.4091 36.5121 60.4022 36.5452C60.4022 36.5452 60.4056 36.5469 60.4074 36.5452C60.4265 36.5452 60.4196 36.5904 60.3987 36.58C60.39 36.5748 60.4091 36.5452 60.3865 36.5748C59.7841 37.6141 58.4348 35.6956 54.1537 37.3913L54.1555 37.393ZM58.447 36.9648C58.447 36.9648 58.4139 36.9247 58.4383 36.9386C58.4818 36.9874 58.3965 36.9717 58.447 36.9648ZM55.3428 36.3206C56.4867 34.7345 56.4048 34.8373 56.7182 34.7537C58.7151 34.2088 59.4307 34.8512 62.3695 35.2029C61.3527 37.7343 58.353 35.37 55.3411 36.3206H55.3428ZM56.7078 34.5552C57.1709 32.9344 60.9662 34.51 62.9057 34.3951C62.3921 36.0385 60.4579 33.9424 56.7078 34.5552ZM58.2816 33.3174C58.2868 33.3348 58.3025 33.3487 58.2851 33.3539C58.2851 33.3418 58.2816 33.3296 58.2816 33.3174ZM58.6612 33.1224C60.7712 32.7968 61.4816 33.3696 63.4263 33.4236C63.5464 33.4305 63.623 33.5176 63.4715 33.6586C63.0171 34.0799 59.0059 33.0423 58.3669 33.3052C58.2155 33.3922 58.3269 33.1764 58.6612 33.1207V33.1224ZM64.9165 32.6454C65.1133 32.8282 64.6188 33.1816 64.6049 34.8286C64.6032 35.2795 64.4883 35.316 63.5638 36.5922C63.3496 36.3484 63.9607 33.2791 64.9165 32.6436V32.6454ZM62.7211 37.4644C63.1268 35.1628 62.7629 35.3474 63.7396 34.1217C63.9085 34.1652 63.8371 34.1217 63.7675 34.3306C63.092 36.3206 63.6073 36.8864 62.7211 37.4644ZM62.2023 37.9554C62.4113 37.205 62.4025 36.4059 62.7159 35.5702C62.8256 36.2005 62.5244 37.5863 62.2023 37.9554ZM61.2726 38.8085C61.1264 38.6814 61.1926 38.5351 61.2065 38.4098C61.3405 37.2364 61.3562 36.6113 62.3817 36.1082C61.8959 38.6849 61.9447 38.2896 61.2726 38.8102V38.8085ZM60.7155 39.188C60.7434 38.3575 60.8879 37.595 61.2761 36.8864C60.7852 39.4004 61.2361 38.8537 60.7155 39.188ZM60.5397 39.2994C60.5362 39.477 60.2716 39.5693 60.2925 39.3221C60.336 38.6761 60.4805 37.3809 60.9732 36.9473C60.7016 37.985 60.538 38.3854 60.538 39.2994H60.5397ZM60.0348 39.7312C59.2757 40.1751 59.025 40.5616 59.1678 39.8165C59.3071 39.0731 59.5438 38.3575 59.8137 37.6507C59.9356 37.3251 60.1131 37.118 60.5606 37.1615C60.2977 37.9589 60.1149 38.7406 60.1114 39.5501C60.1114 39.6215 60.0975 39.6929 60.0348 39.7312ZM58.844 40.3788C58.6089 40.0202 59.1904 38.1364 59.3454 37.6002C59.4046 37.3983 59.5038 37.2607 59.7945 37.3408C59.3332 38.3088 59.0564 39.3273 58.844 40.3771V40.3788ZM58.5724 40.5129C58.5271 40.6974 58.2468 40.8245 58.2938 40.4763C58.3547 39.9958 58.743 37.595 59.2131 37.4818C58.3826 40.4241 58.6646 40.1699 58.5724 40.5129ZM57.8046 41.0926C57.1569 41.5383 56.8801 42.2817 57.1656 40.9046C57.385 39.8391 57.7698 38.8259 58.1894 37.8248C58.3269 37.4975 58.5358 37.3809 58.891 37.4592C58.7778 38.0442 58.393 38.2618 58.118 40.5442C58.0884 40.7827 58.0135 40.9499 57.8046 41.0926ZM57.9787 37.8387C57.9857 37.8109 57.9857 37.8265 57.9787 37.8387V37.8387ZM56.8975 41.8291C56.8871 42.1442 56.3874 42.6265 56.673 41.0404C57.0246 39.0818 57.97 37.8579 57.9787 37.8405C57.8359 38.4794 56.9567 39.9819 56.8975 41.8291ZM55.8843 42.8772C56.3805 42.1651 55.6388 41.7229 56.2516 39.7904C56.9445 37.6194 58.212 37.0953 57.7663 37.8109C55.6266 41.2232 57.056 42.3897 55.8843 42.8789V42.8772ZM55.5343 43.2602C55.5343 43.2602 55.5535 43.194 55.5744 43.1766C55.745 43.0408 55.644 43.3699 55.5343 43.2602ZM53.7794 37.9153C52.8671 38.2409 56.0688 36.2318 58.4279 36.9334C58.2625 37.2659 56.8105 36.775 53.7794 37.9153ZM54.058 35.4675C53.9953 35.9828 53.4312 38.2409 52.942 38.18C53.4208 36.5591 53.8177 35.9532 53.7359 33.3348C53.6732 31.5729 54.2478 34.0207 54.058 35.4692V35.4675ZM55.2244 29.3601C55.2732 30.2167 54.9859 30.8591 54.8171 32.4486C54.528 35.1472 55.7798 35.612 55.1304 36.1604C54.4131 36.7611 53.5635 37.649 53.809 37.0744C55.1304 33.9598 53.1788 32.8142 54.2843 30.3664C54.4723 29.952 54.7509 29.616 55.2262 29.3601H55.2244ZM56.5807 28.3712C56.5667 29.3497 56.3613 29.6648 55.9348 31.465C55.1983 34.5796 55.8634 35.283 55.6788 35.5424C55.5291 35.753 55.4438 35.5546 55.3446 35.2986C54.7074 33.7074 54.9563 32.4521 55.2471 30.7808C55.5988 28.7664 54.9128 29.5586 56.5807 28.3712ZM57.7976 27.6243C58.0257 27.8071 57.2336 30.1662 57.0438 30.6241C55.8216 33.5785 56.6677 34.4838 55.8616 35.2098C55.5709 33.69 55.9365 31.9403 56.3648 30.4552C56.9498 28.4304 56.5476 28.2859 57.0264 28.0335C57.2823 27.8977 57.5034 27.6922 57.7959 27.6243H57.7976ZM61.2605 26.5258C59.4516 29.4437 59.8172 30.6746 59.3645 31.0053C57.0438 32.7063 56.3787 35.2725 56.4292 34.0364C56.5459 31.4301 57.587 30.4761 57.9857 27.8994C58.0361 27.5739 58.1754 27.3806 58.4871 27.2587C58.8387 27.1212 60.9227 26.3465 61.2587 26.5258H61.2605ZM61.9534 26.7538C60.2176 29.0328 60.5136 30.1436 59.7667 30.6345C60.094 29.1303 60.5623 27.781 61.4206 26.585C61.6191 26.3082 61.8663 26.3134 62.1727 26.4126C62.1484 26.5728 62.0282 26.6546 61.9534 26.7538ZM64.5126 28.1762C64.4639 28.2441 64.3298 28.2476 64.2358 28.279C64.779 27.4694 65.3483 26.7347 66.2205 26.3116C65.6495 26.9314 65.0193 27.4972 64.5126 28.1762ZM64.9322 28.0265C65.6269 27.0707 66.7167 25.7267 67.4862 26.733C68.1321 27.5756 67.4949 27.4294 64.9322 28.0265ZM60.7869 29.9869C60.4004 30.2358 60.477 30.2236 60.376 30.1105C60.618 29.388 61.936 26.2803 62.7194 26.4196C64.0112 26.6459 64.678 25.6518 65.7783 26.2159C65.9089 26.4004 65.6565 26.1393 64.3263 27.7619C63.4419 28.843 63.2156 28.4531 60.7869 29.9886V29.9869ZM67.669 28.0143C67.3278 28.0561 66.9883 28.0457 66.5478 27.9377C67.7787 27.4537 67.8101 27.3858 67.8379 27.6139C67.8588 27.7688 67.9441 27.9795 67.669 28.0143ZM67.683 28.5175C60.2159 29.3984 65.6095 27.9917 66.2101 28.0787C67.7474 28.3051 67.8571 28.0195 67.8553 28.3068C67.8553 28.4252 67.8083 28.5035 67.683 28.5192V28.5175ZM63.0189 29.0589C63.3845 28.4687 62.951 29.4332 67.4949 28.6985C67.6133 28.6811 67.8153 28.6341 67.8083 28.7525C67.7805 29.1338 64.3699 29.529 63.0189 29.0589ZM60.9314 30.4047C60.3151 30.45 61.9046 29.5481 62.4409 29.2435C62.904 28.9875 63.4959 29.872 67.0405 29.1965C67.723 29.0659 67.5872 29.0885 67.6969 29.1094C67.5454 31.5973 64.7303 30.1296 60.9314 30.4047ZM59.8311 31.0019C60.2594 30.1244 64.3316 30.7042 66.4016 30.7668C65.458 32.0499 63.8354 30.5753 59.8311 31.0019ZM64.3542 31.935C61.5495 31.1011 59.516 31.7192 58.8509 31.7905C59.6953 30.3873 63.4854 31.4127 65.5485 31.4719C65.1707 31.841 64.9044 32.0987 64.3559 31.935H64.3542ZM63.811 33.1746C63.3984 33.6569 60.6964 32.4382 58.1127 33.0667C57.9682 33.1015 57.8272 33.1694 57.6253 33.1311C57.9317 32.6314 58.2137 32.177 58.8266 32.0099C60.8844 31.4493 63.428 31.7192 64.6571 32.1753C64.3594 32.5287 64.0878 32.856 63.811 33.1746ZM65.6007 32.4591C65.0941 33.5559 65.4858 33.9232 64.7912 34.7781C64.8069 32.2101 65.8288 31.9507 65.6007 32.4591ZM65.5189 33.5959C65.4371 32.8125 65.8062 32.0273 66.2693 32.7359C66.3772 32.8961 66.0534 32.9883 65.5189 33.5959ZM66.6662 33.3191C64.7477 35.0444 65.498 33.8641 66.3372 33.004C66.5182 32.8212 66.8438 33.159 66.6662 33.3191ZM66.6593 33.5124C66.8664 33.3505 66.9204 33.3713 67.0162 33.6221C67.0963 33.8345 67.0928 34.0103 66.8891 34.167C64.4743 36.0333 63.4506 36.0594 66.661 33.5141L66.6593 33.5124ZM66.8438 35.0619C66.2101 35.5319 64.8661 36.0089 64.1958 36.2196C64.2706 35.5302 65.0767 35.9515 66.9448 34.3306C66.9779 34.301 67.0318 34.2976 67.0771 34.2819C67.2042 34.7903 67.2042 34.7937 66.8421 35.0619H66.8438ZM66.5531 36.8533C63.0067 37.0692 62.6237 38.1086 63.8406 36.5643C63.919 36.4651 65.2752 36.0751 66.2223 35.6172C66.762 35.3561 67.2582 34.7781 67.0928 35.424C66.769 36.7593 66.7585 36.8394 66.5531 36.8516V36.8533ZM62.7629 37.9989C62.7403 38.0041 62.7055 37.971 62.6707 37.9536C62.7299 37.649 66.6088 36.7437 66.6506 37.1197C66.7011 37.5811 64.9931 37.4261 62.7629 37.9989ZM62.359 39.726C60.4579 39.8182 60.3029 39.86 60.7817 39.4735C62.6376 37.9832 61.9186 38.2705 66.56 37.5114C66.3476 38.1364 66.224 38.7232 65.5102 39C64.4883 39.3952 63.4506 39.672 62.359 39.7277V39.726ZM64.8365 39.9018C62.8552 40.3075 60.0296 40.304 60.0348 40.0446C60.0452 39.6581 62.8186 40.4467 65.7783 39.0696C65.6147 39.5345 65.3239 39.8026 64.8365 39.9018ZM63.8423 40.6765C60.3569 40.9429 59.0268 40.398 59.6013 40.2866C59.9599 40.2134 61.9569 40.7061 64.779 40.062C65.2299 39.968 64.6641 40.6104 63.8423 40.6765ZM61.0202 42.1355C58.5149 41.3764 57.8133 41.9335 57.4477 41.7438C57.815 41.1501 59.0633 40.5077 59.3158 40.5843C61.5721 41.2807 63.7744 40.7009 63.9555 40.882C63.9816 41.1797 61.6261 42.3131 61.0202 42.1355ZM57.728 42.0484C57.5852 42.0467 57.6288 41.8761 57.5539 41.9701C57.5278 42.0049 57.3606 42.139 57.3258 42.1512C57.3119 42.1303 57.2806 42.0989 57.2875 42.092C57.331 42.0276 57.3032 42.1755 57.3345 42.1425C57.3781 42.1007 57.573 41.9579 57.5852 41.9214C57.674 42.0606 58.7325 41.6393 60.6407 42.1773C60.5554 42.7361 58.7552 42.0676 57.7297 42.0502L57.728 42.0484ZM52.1916 44.7609C52.2561 44.6251 52.3901 44.6199 52.5311 44.5955C54.0562 44.357 55.0451 43.5387 54.5455 43.9966C53.8421 44.6425 52.2717 44.7156 52.1916 44.7609ZM51.9914 44.6512C51.9496 44.6634 51.9305 44.6634 51.8974 44.6077C51.927 44.6356 52.4406 44.8828 51.9914 44.6512ZM26.9873 62.129C26.9804 62.1116 26.9821 62.129 27.1022 62.0751C27.0639 62.0942 27.0274 62.1116 26.9873 62.129ZM43.2134 13.0488C44.7768 12.6013 48.5878 15.4183 48.5826 16.0259C48.5773 17.0966 48.6835 16.8772 48.5286 17.0809C48.4189 17.2515 48.6557 16.9643 48.6017 17.645C48.5182 18.747 48.4851 20.8536 49.2824 21.6232C49.4026 21.7415 49.5697 21.6893 49.5854 21.5239C49.6933 20.4428 50.132 20.1642 52.8201 16.1321C53.1596 15.622 53.7063 14.9708 54.1415 14.7132C52.9995 16.186 52.075 17.8156 50.9573 19.3146C50.2156 20.307 49.8187 21.4647 49.7403 22.72C49.5836 25.1469 49.4618 24.5968 49.521 24.6577C49.4304 24.7273 49.6376 24.4644 49.5784 25.2966C49.4722 26.7521 49.7142 27.0881 49.5314 27.976C47.6372 37.2607 47.5101 35.4675 46.8572 38.5595C46.0459 42.4367 45.461 42.3392 43.9306 45.8003C43.0358 47.8268 42.6406 47.8999 42.6475 48.6398C42.6597 49.5417 43.3822 48.0113 45.6281 46.6568C49.6724 44.2038 50.3305 42.2783 50.8232 42.1372C50.6265 42.7953 49.9127 43.342 49.6533 43.8765C49.3103 44.5764 49.9197 44.1411 51.0739 44.4319C51.3368 44.498 51.5823 44.6477 51.8661 44.5694C51.7372 45.1317 50.1286 44.0471 48.1299 45.4068C41.5977 49.8446 45.9955 46.9911 39.9943 52.9105C39.3048 53.5895 39.4006 53.593 37.1895 56.9235C34.4492 61.0426 25.8714 67.1744 25.4622 67.507C24.6544 68.1616 25.7495 67.4007 21.2038 71.3354C20.4273 72.0109 19.2782 72.4287 18.2006 73.9051C16.3029 76.4957 16.3499 76.6471 15.7231 76.7307C15.7806 76.3007 15.9878 76.5566 17.8924 73.7275C19.5516 71.2536 22.9343 70.3413 25.4779 66.2743C25.7773 65.799 26.0019 63.9449 26.8898 62.4616C27.0483 62.2004 26.9508 62.0193 27.0639 62.2056C27.1458 62.3014 27.1092 62.1987 26.2283 64.8345C25.699 66.4049 25.7129 66.7392 28.3993 64.6465C33.5282 60.6492 31.251 64.0842 40.776 50.9362C41.6587 49.7175 41.6534 49.4477 43.861 45.3372C46.234 40.9255 45.9363 40.0811 46.3054 38.6883C46.3106 38.6709 48.2309 31.1916 48.6087 30.194C48.8576 29.5307 48.8524 28.6655 49.0091 28.0126C49.4653 26.1584 49.4322 24.9049 49.4391 24.8301C49.4583 24.6768 49.5331 24.689 49.507 24.6612C49.507 24.6612 49.46 24.5585 49.5558 24.5271C49.5558 24.5236 49.4983 24.4627 49.4861 24.4209C49.4217 24.1981 49.7595 23.4912 48.8193 21.2732C47.7695 18.7888 48.6104 16.9625 48.6104 16.9451C46.2496 15.3016 46.4116 14.4503 44.1413 13.5606C43.8384 13.4422 43.5528 13.2925 43.2134 13.0557V13.0488ZM42.2419 12.0965C44.0194 12.6658 46.7598 12.9443 48.3319 14.8159C48.4799 14.9917 48.687 15.2355 48.5199 15.3956C48.1438 15.7456 46.6675 12.9495 43.1994 12.8416C42.7294 12.8259 42.5448 12.4934 42.2419 12.0965ZM41.6935 11.0362C43.4536 12.5996 46.8329 12.0338 48.405 14.4799C48.0916 14.6487 47.7347 13.4562 44.9456 12.6431C42.6127 11.9607 41.878 12.1626 41.6917 11.0362H41.6935ZM41.5995 7.76661C42.1305 8.11307 42.3429 8.44211 43.7252 9.63992C45.4157 11.0971 46.8329 10.8569 47.0209 11.212C47.538 12.187 48.2535 12.6031 48.3876 14.1247C45.5776 11.4714 43.3509 12.4586 41.6917 10.8133C41.0145 10.1413 40.9762 7.35574 41.5995 7.76661ZM43.6921 8.31502C45.3025 10.4443 46.6153 10.4303 46.7023 10.8273C44.9369 10.5505 43.9881 9.70433 42.6945 8.48216C41.6082 7.45149 41.2826 7.60818 41.4776 7.1886C41.8415 6.41386 41.6882 5.66175 43.6939 8.31328L43.6921 8.31502ZM42.4665 5.88112C43.6051 6.68023 44.2614 8.56747 46.2792 10.1674C46.2932 10.1518 46.2862 10.1587 46.2914 10.1761C46.3854 10.2336 46.4533 10.2597 46.415 10.3224C46.2514 10.204 46.3228 10.2092 46.2792 10.1674C45.7343 10.7454 42.8182 6.8996 42.1392 6.36337C41.8832 6.15968 42.2053 5.69831 42.4665 5.88112ZM44.6201 4.0496C45.259 4.77037 46.1643 6.0883 46.0877 6.98142C45.9398 8.82687 46.3315 9.61728 46.2932 9.84187C45.6716 9.90803 43.4675 6.34074 42.5396 5.74532C42.1444 5.49288 43.6782 4.19236 44.0839 3.95732C44.2963 3.83371 44.4547 3.86157 44.6218 4.0496H44.6201ZM45.414 3.49248C45.7012 4.02 46.5386 5.66698 46.1017 6.08481C45.3809 4.12098 44.2179 3.89813 44.7994 3.5952C45.0553 3.4594 45.266 3.22611 45.4122 3.49074L45.414 3.49248ZM45.7082 3.22437C46.0842 3.778 46.3941 4.35775 46.3524 5.05763C46.0912 4.46918 45.8266 3.89639 45.4941 3.35668C45.3879 3.18955 45.6211 3.09379 45.7065 3.22437H45.7082ZM47.1811 2.06487C47.7782 2.90751 47.9576 2.63243 47.578 3.36713C47.5693 3.38454 46.9948 4.35949 46.9269 4.35253C46.9913 4.33164 46.9704 4.33686 46.9843 4.31945C46.7023 4.11575 47.3064 3.65439 47.1602 2.49315C47.1532 2.42874 47.1602 2.35561 47.0401 2.29468C46.9478 2.65855 47.054 3.03634 46.9339 3.38106C46.2671 5.31181 46.8085 4.3299 45.8022 3.09728C45.689 2.95974 45.7569 2.91621 46.7946 2.00045C46.946 1.8664 47.0714 1.9134 47.1828 2.06661L47.1811 2.06487ZM57.493 7.18686C57.493 7.18686 57.4947 7.17816 57.4964 7.17467C57.4964 7.17467 57.4964 7.17467 57.4947 7.17467C57.4895 7.19382 57.4755 7.19383 57.493 7.1886V7.18686ZM57.4947 7.17293C57.4895 7.19034 57.4843 7.19731 57.4964 7.17293C57.4964 7.17293 57.4964 7.17293 57.4947 7.17293Z" fill="#BC90CC"/>
</svg>