<svg width="26" height="24" viewBox="0 0 26 24" fill="none" xmlns="http://www.w3.org/2000/svg">
<g clip-path="url(#clip0_205_403)">
<path d="M26 11.6128C25.9985 11.9027 25.9459 12.1551 25.8423 12.3714C25.7371 12.5862 25.5809 12.7649 25.3751 12.9046C24.95 13.1915 24.4423 13.3402 23.867 13.3462C23.8174 13.3492 23.7649 13.3492 23.7123 13.3492C23.2376 13.3492 22.5962 13.2531 21.8061 13.0608C20.9604 12.8536 19.9375 12.6312 18.6772 12.3804C17.4425 12.137 15.3906 11.8637 14.6831 11.7916C14.1409 11.736 13.4709 11.6654 13.163 11.6338C13.3763 11.9147 13.8555 12.5531 14.0763 12.8536C14.0928 12.8761 15.688 15.0316 16.6088 16.0831C17.465 17.061 18.1665 17.8541 18.7538 18.512L18.904 18.6772C19.4178 19.251 19.7287 19.5965 20.0622 20.1808V20.1838C20.301 20.6525 20.3986 21.1452 20.3506 21.6499C20.307 22.1065 19.9916 22.5166 19.4388 22.8351C19.1534 22.9988 18.874 23.0814 18.6036 23.0814C18.3993 23.0814 18.1996 23.0348 18.0058 22.9402C17.5461 22.7149 17.1646 22.3499 16.8702 21.8557C16.6073 21.4501 16.3444 20.8012 16.0876 19.927C15.8382 19.0753 15.5183 18.0779 15.1112 16.8777C14.7086 15.6955 13.917 13.7789 13.6241 13.1239C13.4003 12.6237 13.1269 12.0139 13.0008 11.73C12.8626 12.0544 12.5501 12.7905 12.4014 13.1299C12.2317 13.516 11.2808 15.7316 10.8708 16.9363C10.4457 18.186 10.1077 19.191 9.83881 20.0096L9.77873 20.1959C9.53689 20.9409 9.39118 21.39 9.0472 21.9759C8.7603 22.419 8.38327 22.7494 7.92212 22.9612C7.7674 23.0333 7.59917 23.0679 7.42192 23.0679C7.11849 23.0679 6.78653 22.9657 6.43804 22.763C5.93784 22.4731 5.66595 22.0735 5.63141 21.5748C5.59686 21.0641 5.72153 20.5519 6.00243 20.0487C6.22173 19.6206 6.65134 19.0678 7.28222 18.4083C7.89959 17.7624 8.62361 16.9648 9.43324 16.038C10.2294 15.1262 11.5092 13.4724 11.9403 12.8746C12.2602 12.43 12.6538 11.8877 12.8355 11.6368C12.484 11.6804 11.6894 11.7765 11.3244 11.8171C10.8137 11.8727 8.48541 12.1521 7.2627 12.3954C6.09105 12.6267 5.02305 12.843 4.08574 13.0383L3.90248 13.0774C3.14842 13.2381 2.68727 13.3357 2.02785 13.3357H1.98729C1.45855 13.3102 0.983881 13.1465 0.570801 12.8536C0.195274 12.5862 0 12.1085 0 11.4701C0.00150211 10.8828 0.205789 10.4607 0.624877 10.1783C1.04847 9.89139 1.55618 9.74268 2.13299 9.73517C2.61667 9.70964 3.31065 9.80727 4.19389 10.0221C5.05159 10.2324 6.07453 10.4547 7.32278 10.701C8.53949 10.9414 10.5989 11.2163 11.3154 11.2899C11.6804 11.3274 12.104 11.371 12.436 11.4055C12.5952 11.422 12.7349 11.4371 12.8355 11.4476C12.6237 11.1667 12.143 10.5268 11.9237 10.2294C11.6203 9.81479 10.2158 7.94166 9.39118 6.99983C8.62811 6.12561 7.9056 5.30846 7.24617 4.56942L7.10948 4.41921C6.58825 3.8394 6.27431 3.48941 5.93934 2.90208L5.93633 2.89908C5.6975 2.42892 5.60136 1.93623 5.64793 1.43302C5.69299 0.973374 6.00843 0.563298 6.56121 0.247855C7.06292 -0.0420519 7.54509 -0.0766004 7.99422 0.142708C8.45537 0.368024 8.83691 0.733036 9.12982 1.22723C9.39269 1.6313 9.65555 2.28021 9.91242 3.15444C10.1663 4.02566 10.4952 5.0516 10.8888 6.20372C11.2868 7.37386 12.08 9.29806 12.3759 9.95899C12.5967 10.4502 12.8716 11.066 12.9977 11.3514C13.1374 11.0255 13.4499 10.291 13.5986 9.95298C13.8059 9.47982 14.7312 7.31678 15.1292 6.14513C15.5483 4.9134 15.8863 3.90849 16.1582 3.07332L16.2213 2.88105C16.4646 2.13901 16.6103 1.69138 16.9528 1.10556C17.2412 0.660935 17.6197 0.330471 18.0779 0.120176C18.497 -0.0705919 19.0107 -0.00299704 19.562 0.318454C20.0622 0.608361 20.334 1.00792 20.3686 1.50662C20.4031 2.01584 20.2785 2.52956 19.9976 3.03276C19.7768 3.46387 19.3457 4.01665 18.7178 4.67457C18.1004 5.32048 17.3764 6.1181 16.5668 7.0449C15.7601 7.96719 14.4848 9.61801 14.0597 10.2083C13.8675 10.4727 13.6271 10.8047 13.4304 11.0766C13.3237 11.2238 13.2291 11.3529 13.163 11.4446C13.5145 11.401 14.3091 11.3049 14.6741 11.2643C15.1893 11.2087 17.5281 10.9278 18.7373 10.6875C19.9555 10.4472 21.025 10.2309 21.9143 10.0431L22.111 10.001C22.8636 9.84182 23.3232 9.74569 23.9857 9.74569H24.0127C24.5399 9.77273 25.0161 9.93646 25.4292 10.2294C25.8047 10.4967 26.0015 10.9744 26 11.6128Z" fill="#3C2A44"/>
</g>
<defs>
<clipPath id="clip0_205_403">
<rect width="26" height="23.0814" fill="white"/>
</clipPath>
</defs>
</svg>