<?xml version="1.0" standalone="no"?>
<!DOCTYPE svg PUBLIC "-//W3C//DTD SVG 1.0//EN" "http://www.w3.org/TR/2001/REC-SVG-20010904/DTD/svg10.dtd">
<svg xmlns="http://www.w3.org/2000/svg" xmlns:xlink="http://www.w3.org/1999/xlink" id="body_1" width="218" height="31">

<g transform="matrix(1.1122448 0 0 1.1071428 0 0)">
	<g transform="matrix(0.4867004 0 0 0.4867004 0.65992993 -0)">
		<g>
            <path d="M43.455 10.167C 43.221 10.35 42.953 10.5 42.857 10.5C 42.761 10.5 42.623 10.602 42.55 10.726C 42.477 10.85 42.105 11.146 41.725 11.384C 41.345 11.622 41.007 11.876 40.975 11.95C 40.943 12.023 40.598 12.291 40.208 12.544C 39.422 13.055 39.308 13.435 39.875 13.652C 40.448 13.871 40.797 14.347 40.986 15.169C 41.229 16.224 41.23 43.357 40.987 44.49C 40.794 45.388 39.474 47 38.932 47C 38.786 47 38.667 47.112 38.667 47.25C 38.667 47.466 39.241 47.5 42.833 47.5C 46.426 47.5 47 47.466 47 47.25C 47 47.112 46.854 47 46.675 47C 46.496 47 46.29 46.901 46.217 46.779C 46.143 46.658 45.849 46.388 45.562 46.179C 44.598 45.479 44.5 44.805 44.5 38.856C 44.5 25.141 44.277 9.833 44.078 9.833C 43.968 9.833 43.688 9.983 43.455 10.167M180.5 9.986C 178.372 10.478 176.672 12.316 175.981 14.875C 175.802 15.54 175.58 16.218 175.488 16.382C 175.396 16.547 175.233 17.878 175.125 19.341L175.125 19.341L174.929 22L173.381 22L171.833 22L171.833 22.583L171.833 23.167L173.417 23.167L175 23.167L174.997 33.708C 174.996 41.586 174.943 44.423 174.789 44.934C 174.567 45.673 173.644 46.712 173.041 46.904C 172.835 46.969 172.667 47.13 172.667 47.261C 172.667 47.462 173.306 47.5 176.667 47.5C 180.111 47.5 180.667 47.465 180.667 47.25C 180.667 47.112 180.533 47 180.37 47C 180.207 47 179.952 46.869 179.803 46.708C 179.654 46.548 179.351 46.253 179.129 46.053C 178.354 45.353 178.333 45.041 178.333 33.772L178.333 33.772L178.333 23.167L180.417 23.167L182.5 23.167L182.5 22.583L182.5 22L180.432 22L178.365 22L178.249 21.161C 177.986 19.244 178.622 13.413 179.161 12.801C 179.267 12.681 179.498 12.339 179.675 12.04C 179.853 11.74 180.279 11.365 180.624 11.206C 180.968 11.047 181.275 10.86 181.306 10.792C 181.389 10.604 182.167 10.641 182.167 10.833C 182.167 10.925 182.327 11 182.522 11C 182.996 11 183.864 11.948 184.135 12.761C 184.767 14.655 185.095 15 186.266 15C 187.71 15 188.37 13.812 187.9 12.059C 187.527 10.67 183.013 9.405 180.5 9.986M370.621 10.167C 370.388 10.35 370.119 10.5 370.024 10.5C 369.928 10.5 369.79 10.601 369.717 10.724C 369.643 10.847 369.358 11.085 369.083 11.254C 368.808 11.423 368.433 11.699 368.25 11.868C 368.067 12.037 367.655 12.345 367.334 12.552C 366.59 13.033 366.515 13.409 367.107 13.695C 368.256 14.25 368.245 14.153 368.299 23.551L368.299 23.551L368.348 32.019L367.507 33.85C 367.045 34.857 366.667 35.79 366.667 35.924C 366.667 36.057 366.603 36.167 366.525 36.167C 366.447 36.167 366.17 36.673 365.909 37.292C 365.647 37.91 365.342 38.492 365.23 38.583C 365.118 38.675 364.863 39.106 364.662 39.542C 364.461 39.977 364.228 40.333 364.144 40.333C 364.06 40.333 363.927 40.502 363.849 40.708C 363.665 41.189 361.952 43.112 361.178 43.706C 360.851 43.957 360.494 44.238 360.384 44.329C 360.103 44.564 358.336 45.333 358.076 45.333C 357.958 45.333 357.83 45.427 357.792 45.542C 357.74 45.696 357.08 45.75 355.25 45.75C 353.42 45.75 352.76 45.696 352.708 45.542C 352.67 45.427 352.542 45.333 352.424 45.333C 351.34 45.333 348.589 43.24 347.851 41.853C 347.723 41.613 347.565 41.379 347.499 41.333C 347.325 41.211 346.719 39.783 346.587 39.184C 346.525 38.899 346.411 38.667 346.335 38.667C 345.437 38.667 345.543 30.304 346.454 29.363C 346.571 29.242 346.667 29.038 346.667 28.909C 346.667 28.598 347.367 27.167 347.52 27.167C 347.586 27.167 347.813 26.885 348.024 26.542C 348.525 25.729 349.253 25.008 350.083 24.505C 350.45 24.283 350.787 24.057 350.833 24.004C 351.829 22.849 356.308 22.89 357.648 24.067C 359.511 25.702 359.992 26.555 359.997 28.228C 360.002 29.686 361.86 30.949 362.726 30.083C 362.864 29.946 363.044 29.833 363.127 29.833C 363.702 29.833 363.947 27.539 363.51 26.25C 363.275 25.559 361.746 23.921 360.991 23.55C 357.925 22.048 353.035 21.668 350.588 22.741C 350.311 22.862 349.577 23.169 348.958 23.423C 348.34 23.676 347.833 23.944 347.833 24.017C 347.833 24.091 347.574 24.274 347.257 24.424C 346.524 24.772 344.784 26.615 344.315 27.541C 344.117 27.931 343.88 28.298 343.788 28.357C 343.599 28.479 342.844 30.6 342.838 31.028C 342.835 31.181 342.76 31.331 342.671 31.361C 342.064 31.569 342.053 39.167 342.66 39.167C 342.72 39.167 342.87 39.56 342.991 40.042C 343.392 41.634 344.482 43.357 346.036 44.857C 346.688 45.486 347.278 46 347.348 46C 347.419 46 347.926 46.268 348.476 46.596C 349.486 47.198 350.965 47.65 351.958 47.661C 352.256 47.664 352.5 47.742 352.5 47.833C 352.5 47.931 353.056 48 353.833 48C 354.567 48 355.167 47.935 355.167 47.857C 355.167 47.778 355.544 47.668 356.004 47.614C 356.893 47.509 358.833 46.866 358.833 46.676C 358.833 46.615 359.115 46.439 359.458 46.287C 360.945 45.627 365 41.646 365 40.845C 365 40.775 365.171 40.52 365.38 40.277C 365.589 40.034 365.905 39.459 366.083 39.001C 366.261 38.542 366.455 38.167 366.514 38.167C 366.572 38.167 366.861 37.594 367.155 36.893C 367.449 36.193 367.797 35.513 367.928 35.381C 368.059 35.25 368.167 35.045 368.167 34.926C 368.167 34.654 368.838 33.112 369.005 33C 369.073 32.954 369.331 32.437 369.577 31.851C 369.823 31.265 370.129 30.68 370.257 30.552C 370.385 30.425 370.66 29.948 370.869 29.493C 371.077 29.039 371.299 28.667 371.36 28.667C 371.422 28.667 371.645 28.388 371.856 28.047C 372.739 26.619 375.435 24.333 376.237 24.333C 376.369 24.333 376.579 24.23 376.706 24.104C 377.041 23.768 379.242 23.443 380.374 23.561C 382.09 23.741 383.902 25.136 384.257 26.552C 384.319 26.798 384.423 27 384.489 27C 385.158 27 385.285 43.933 384.625 45.125C 384.118 46.041 383.511 46.708 382.958 46.955C 381.926 47.416 382.498 47.5 386.667 47.5C 390.259 47.5 390.833 47.466 390.833 47.25C 390.833 47.112 390.732 47 390.608 47C 390.406 47 389.952 46.66 389.153 45.914C 388.498 45.302 388.446 44.679 388.347 36.234C 388.281 30.699 388.191 27.975 388.068 27.817C 387.967 27.689 387.787 27.208 387.667 26.75C 386.708 23.094 383.158 21.294 378.611 22.157C 377.461 22.376 374.74 23.625 374.26 24.155C 374.089 24.345 373.871 24.5 373.778 24.5C 373.684 24.5 373.133 24.993 372.553 25.596L372.553 25.596L371.5 26.691L371.5 18.262C 371.5 9.137 371.534 9.449 370.621 10.167M10.256 12.375C 10.219 12.49 10.06 13.333 9.903 14.25C 9.746 15.167 9.559 15.955 9.488 16.002C 9.417 16.049 9.306 16.555 9.241 17.127C 9.093 18.436 9.38 18.526 10.03 17.375C 10.497 16.548 11.849 15 12.105 15C 12.187 15 12.44 14.83 12.668 14.623C 13.42 13.939 15.195 13.336 16.458 13.334C 16.848 13.334 17.167 13.258 17.167 13.167C 17.167 13.064 17.979 13 19.271 13L19.271 13L21.376 13L21.261 28.708C 21.135 45.849 21.147 45.653 20.199 46.263C 19.952 46.422 19.69 46.653 19.617 46.776C 19.543 46.899 19.337 47 19.158 47C 18.98 47 18.833 47.112 18.833 47.25C 18.833 47.466 19.417 47.5 23.083 47.5C 26.75 47.5 27.333 47.466 27.333 47.25C 27.333 47.112 27.23 47 27.103 47C 26.633 47 25.588 45.763 25.375 44.953C 25.215 44.347 25.167 40.513 25.167 28.581L25.167 28.581L25.167 13L27.25 13C 28.396 13 29.333 13.064 29.333 13.143C 29.333 13.221 29.802 13.331 30.375 13.387C 31.688 13.515 32.978 13.989 33.815 14.652C 34.172 14.935 34.514 15.167 34.574 15.167C 34.802 15.167 36.164 16.749 36.532 17.442C 36.979 18.284 37.617 18.491 37.427 17.731C 37.366 17.491 37.272 17.059 37.216 16.772C 37.16 16.485 37.063 16.212 37.001 16.167C 36.938 16.121 36.715 15.202 36.505 14.125L36.505 14.125L36.123 12.167L23.223 12.167C 13.05 12.167 10.309 12.211 10.256 12.375M104.5 12.32C 104.5 12.405 104.744 12.555 105.042 12.653C 105.759 12.89 106.514 13.866 106.783 14.902C 107.119 16.2 107.097 43.389 106.759 44.69C 106.506 45.662 105.65 46.721 104.883 47.013C 103.855 47.404 104.637 47.5 108.833 47.5C 113.211 47.5 113.664 47.433 112.687 46.927C 112.122 46.635 111.405 45.826 111.239 45.293C 111.175 45.086 111.038 44.863 110.936 44.798C 110.807 44.716 110.734 43.016 110.698 39.278L110.698 39.278L110.646 33.877L115.253 33.802C 118.181 33.754 119.901 33.663 119.972 33.553C 120.033 33.458 120.458 33.327 120.917 33.262C 121.95 33.116 123.955 32.538 124.029 32.365C 124.059 32.295 124.444 32.083 124.884 31.894C 125.959 31.435 128.5 29.311 128.5 28.872C 128.5 28.794 128.66 28.558 128.855 28.348C 129.266 27.907 129.991 25.965 129.996 25.292C 129.998 25.04 130.075 24.833 130.167 24.833C 130.269 24.833 130.333 24.028 130.333 22.75C 130.333 21.604 130.267 20.667 130.186 20.667C 130.104 20.667 129.985 20.315 129.921 19.885C 129.771 18.89 129.211 17.457 128.903 17.283C 128.773 17.21 128.667 17.045 128.667 16.916C 128.667 16.639 126.79 14.667 126.527 14.667C 126.428 14.667 126.212 14.525 126.048 14.353C 125.884 14.18 125.337 13.865 124.833 13.653C 124.329 13.441 123.879 13.214 123.833 13.149C 123.706 12.97 121.912 12.543 120.446 12.344C 118.819 12.123 104.5 12.102 104.5 12.32M237.463 12.509C 237.123 12.689 236.754 13.004 236.645 13.21C 236.535 13.415 236.339 13.662 236.209 13.758C 235.738 14.105 235.505 15.818 235.503 18.958L235.503 18.958L235.5 22L234.5 22L233.5 22L233.5 22.583L233.5 23.167L234.491 23.167L235.483 23.167L235.538 32.792C 235.596 42.621 235.666 43.697 236.283 44.152C 236.357 44.206 236.604 44.609 236.833 45.047C 237.348 46.034 238.827 47.088 239.972 47.284C 241.734 47.585 245.333 47.174 245.333 46.671C 245.333 46.595 245.566 46.451 245.851 46.352C 246.801 46.021 248.317 44.095 247.932 43.71C 247.886 43.663 247.518 43.916 247.114 44.271C 246.711 44.626 246.089 45.021 245.732 45.148C 245.375 45.276 245.03 45.463 244.964 45.565C 244.804 45.815 241.863 45.814 241.703 45.564C 241.637 45.462 241.422 45.328 241.226 45.267C 240.596 45.07 239.354 43.582 239.134 42.759C 239.022 42.342 238.871 42 238.799 42C 238.726 42 238.667 37.762 238.667 32.583L238.667 32.583L238.667 23.167L240.917 23.167L243.167 23.167L243.167 22.583L243.167 22L240.917 22L238.667 22L238.667 17.083C 238.667 11.572 238.736 11.837 237.463 12.509M263.5 12.333C 263.5 12.425 263.61 12.5 263.744 12.5C 264.529 12.5 266.201 13.798 266.776 14.854C 267.225 15.676 267.342 42.646 266.904 44.153C 266.628 45.1 265.599 46.333 265.085 46.333C 264.956 46.333 264.79 46.435 264.717 46.559C 264.643 46.683 264.363 46.856 264.094 46.944C 262.736 47.387 263.46 47.5 267.667 47.5C 271.902 47.5 272.688 47.372 271.197 46.924C 270.905 46.836 270.667 46.706 270.667 46.636C 270.667 46.565 270.368 46.355 270.003 46.168C 269.639 45.982 269.224 45.606 269.082 45.332C 268.941 45.058 268.755 44.833 268.67 44.833C 268.224 44.833 268.169 43.146 268.179 29.667C 268.187 19.01 268.234 15.848 268.382 16.167C 268.488 16.396 268.617 16.621 268.67 16.667C 268.722 16.712 268.974 17.237 269.228 17.831C 269.483 18.426 269.747 18.951 269.814 18.998C 269.882 19.045 270.15 19.59 270.41 20.208C 270.67 20.827 270.93 21.333 270.987 21.333C 271.043 21.333 271.313 21.896 271.587 22.583C 271.86 23.27 272.14 23.832 272.208 23.833C 272.277 23.833 272.333 23.919 272.333 24.024C 272.333 24.13 272.999 25.573 273.814 27.233C 277.286 34.31 278 35.803 278 35.98C 278 36.083 278.067 36.167 278.149 36.167C 278.23 36.167 278.41 36.448 278.547 36.792C 278.685 37.135 279.143 38.146 279.566 39.037C 279.988 39.929 280.333 40.71 280.333 40.774C 280.333 40.838 280.438 41.009 280.567 41.154C 280.695 41.298 281.004 41.904 281.252 42.5C 281.501 43.096 281.761 43.621 281.831 43.667C 281.901 43.712 282.124 44.163 282.327 44.667C 282.529 45.171 282.766 45.696 282.853 45.833C 282.94 45.971 283.134 46.368 283.284 46.715C 283.751 47.799 284.157 47.418 284.932 45.167C 285.105 44.663 285.306 44.207 285.377 44.155C 285.5 44.064 286.083 42.637 286.291 41.917C 286.344 41.733 286.45 41.542 286.526 41.491C 286.602 41.44 286.858 40.84 287.094 40.158C 287.331 39.475 287.619 38.767 287.735 38.583C 287.851 38.4 288.157 37.688 288.416 37C 288.675 36.313 288.937 35.712 288.997 35.667C 289.057 35.621 289.312 35.022 289.564 34.337C 289.816 33.651 290.077 33.051 290.146 33.003C 290.214 32.956 290.481 32.317 290.738 31.583C 290.995 30.85 291.26 30.212 291.328 30.167C 291.441 30.09 292.063 28.527 292.29 27.75C 292.344 27.567 292.452 27.374 292.531 27.321C 292.682 27.22 293.307 25.675 293.453 25.042C 293.5 24.835 293.602 24.667 293.678 24.667C 293.755 24.667 293.89 24.423 293.979 24.125C 294.237 23.26 294.801 21.825 294.966 21.612C 295.05 21.505 295.329 20.854 295.586 20.167C 295.844 19.479 296.104 18.879 296.165 18.833C 296.227 18.787 296.493 18.15 296.756 17.417C 297.714 14.756 297.682 14.287 297.63 30.156C 297.596 40.609 297.531 44.712 297.397 44.798C 297.295 44.863 297.156 45.104 297.087 45.333C 296.932 45.851 296.232 46.619 295.625 46.936C 294.675 47.432 295.14 47.5 299.5 47.5C 303.704 47.5 304.479 47.404 303.444 47.01C 302.92 46.811 301.964 45.866 301.662 45.25C 301.339 44.591 301.19 16.315 301.502 14.874C 301.718 13.874 302.479 12.94 303.313 12.649C 304.403 12.269 303.786 12.16 300.798 12.205L300.798 12.205L297.762 12.25L297.607 12.792C 297.522 13.09 297.394 13.333 297.323 13.333C 297.252 13.333 297.028 13.84 296.826 14.458C 296.624 15.077 296.33 15.808 296.172 16.083C 296.014 16.358 295.789 16.846 295.672 17.167C 295.554 17.487 295.197 18.35 294.878 19.083C 293.902 21.329 293.833 21.503 293.833 21.756C 293.833 21.89 293.762 22 293.675 22C 293.587 22 293.442 22.244 293.351 22.542C 293.046 23.549 292.642 24.579 292.518 24.665C 292.451 24.712 292.22 25.238 292.006 25.833C 291.792 26.429 291.489 27.142 291.333 27.417C 291.178 27.692 290.875 28.404 290.661 29C 290.446 29.596 290.22 30.121 290.157 30.167C 290.094 30.212 289.849 30.775 289.613 31.417C 289.376 32.058 288.994 32.958 288.763 33.417C 288.533 33.875 288.341 34.346 288.339 34.462C 288.336 34.579 288.083 35.179 287.778 35.796C 287.473 36.412 287.091 37.348 286.929 37.875C 286.768 38.402 286.577 38.833 286.504 38.833C 286.382 38.833 286.047 39.668 285.651 40.958C 285.409 41.746 285.089 41.625 284.667 40.583C 284.462 40.079 284.236 39.667 284.165 39.667C 284.094 39.667 283.987 39.46 283.928 39.208C 283.818 38.742 282.018 34.985 281.832 34.833C 281.775 34.787 281.517 34.244 281.256 33.625C 280.996 33.006 280.738 32.5 280.683 32.499C 280.628 32.499 280.441 32.143 280.266 31.708C 280.092 31.273 279.323 29.629 278.558 28.054C 277.793 26.48 277.167 25.111 277.167 25.013C 277.167 24.914 277.103 24.833 277.025 24.833C 276.947 24.833 276.67 24.327 276.41 23.708C 276.15 23.09 275.879 22.543 275.808 22.494C 275.738 22.445 275.557 22.108 275.408 21.744C 275.259 21.381 274.806 20.395 274.401 19.553C 273.997 18.711 273.667 17.942 273.667 17.844C 273.667 17.747 273.602 17.667 273.523 17.667C 273.444 17.667 273.136 17.085 272.838 16.375C 272.54 15.665 272.238 15.046 272.167 15C 272.096 14.954 271.84 14.447 271.599 13.874C 270.838 12.061 271.12 12.167 267.046 12.167C 264.793 12.167 263.5 12.227 263.5 12.333M333.568 12.579C 333.116 12.85 332.751 13.256 332.485 13.785C 332.264 14.224 332.008 14.637 331.917 14.702C 331.817 14.773 331.729 16.268 331.699 18.41L331.699 18.41L331.648 22L330.657 22L329.667 22L329.667 22.583L329.667 23.167L330.66 23.167L331.654 23.167L331.702 32.792C 331.737 39.891 331.802 42.504 331.949 42.75C 332.059 42.933 332.266 43.46 332.409 43.921C 332.668 44.757 333.859 46.333 334.231 46.333C 334.338 46.333 334.551 46.479 334.704 46.658C 335.952 48.116 342.17 47.287 343.235 45.52C 343.318 45.382 343.557 45.11 343.765 44.917C 344.306 44.416 344.475 43.667 344.046 43.667C 343.868 43.667 343.624 43.852 343.503 44.078C 342.864 45.272 338.418 46.438 337.867 45.556C 337.802 45.454 337.425 45.201 337.029 44.995C 336.632 44.788 336.245 44.461 336.17 44.268C 336.094 44.075 335.891 43.767 335.719 43.583C 335.038 42.857 335 42.28 335 32.522L335 32.522L335 23.167L337.25 23.167L339.5 23.167L339.5 22.583L339.5 22L337.25 22L335 22L335 17.083L335 12.167L334.625 12.168C 334.419 12.169 333.943 12.354 333.568 12.579M118.334 13.125C 118.334 13.194 118.934 13.392 119.668 13.565C 122.063 14.129 125.167 16.76 125.167 18.224C 125.167 18.361 125.244 18.498 125.339 18.53C 126.297 18.849 126.306 26.591 125.348 27.333C 125.289 27.379 125.093 27.751 124.913 28.159C 124.733 28.568 124.202 29.28 123.734 29.743C 122.213 31.246 121.71 31.589 120.417 32.002C 120.05 32.119 119.712 32.273 119.666 32.343C 119.489 32.612 116.851 32.833 113.821 32.833L113.821 32.833L110.667 32.833L110.667 22.917L110.667 13L114.5 13C 116.608 13 118.333 13.056 118.334 13.125M51.337 22.183C 49.404 22.561 45.163 25.552 45.74 26.129C 45.856 26.244 46.975 25.692 47.316 25.351C 47.473 25.194 48.122 24.847 48.759 24.58C 49.396 24.313 49.956 24.039 50.005 23.971C 50.178 23.731 52.474 23.458 53.374 23.571C 54.941 23.767 56.758 25.228 57.093 26.562C 57.153 26.803 57.263 27 57.336 27C 58.015 27 58.052 44.28 57.375 45.333C 56.774 46.269 56.226 46.812 55.764 46.928C 55.527 46.988 55.333 47.141 55.333 47.268C 55.333 47.46 56.052 47.5 59.5 47.5C 63.093 47.5 63.667 47.466 63.667 47.25C 63.667 47.112 63.566 47 63.443 47C 63.319 47 63.001 46.813 62.734 46.584C 62.468 46.354 62.191 46.167 62.119 46.167C 61.383 46.166 61.262 44.905 61.171 36.264C 61.103 29.819 61.036 27.929 60.875 27.875C 60.76 27.837 60.667 27.675 60.667 27.516C 60.667 25.55 58.15 22.672 56 22.18C 55.107 21.975 52.387 21.977 51.337 22.183M167.167 22.231C 165.95 22.568 164.596 23.516 162.602 25.426L162.602 25.426L161.5 26.481L161.5 24.324C 161.5 21.914 161.375 21.71 160.432 22.583C 160.185 22.813 159.948 23 159.905 23C 159.771 23 158.42 23.91 158.362 24.038C 158.332 24.105 157.939 24.361 157.487 24.606C 156.525 25.13 156.436 25.516 157.212 25.797C 157.997 26.081 158.187 26.708 158.288 29.346L158.288 29.346L158.374 31.608L157.788 32.846C 156.909 34.701 156.5 35.683 156.5 35.938C 156.5 36.064 156.436 36.167 156.358 36.167C 156.28 36.167 156.003 36.673 155.741 37.292C 155.479 37.91 155.164 38.52 155.04 38.646C 154.917 38.772 154.661 39.203 154.473 39.604C 154.284 40.005 154.075 40.333 154.008 40.333C 153.942 40.333 153.807 40.509 153.709 40.724C 153.026 42.224 149.113 45.333 147.909 45.333C 147.791 45.333 147.669 45.408 147.639 45.5C 147.473 45.996 141.857 46.014 141.5 45.519C 141.454 45.456 140.975 45.257 140.436 45.077C 139.897 44.897 139.297 44.583 139.103 44.378C 138.909 44.173 138.667 44.004 138.565 44.003C 138.31 43.999 136.5 42.016 136.5 41.741C 136.5 41.617 136.387 41.453 136.249 41.376C 136.111 41.299 135.804 40.639 135.567 39.91C 135.33 39.18 135.069 38.455 134.987 38.298C 134.817 37.973 134.503 35.437 134.501 34.375L134.501 34.375L134.5 33.667L143.917 33.667L153.333 33.667L153.333 32.74C 153.333 31.648 153.016 29.453 152.841 29.333C 152.773 29.287 152.556 28.711 152.358 28.052C 152.159 27.393 151.899 26.755 151.781 26.635C 151.662 26.515 151.382 26.111 151.157 25.737C 150.664 24.914 149.187 23.578 148.356 23.203C 148.023 23.053 147.637 22.842 147.5 22.734C 146.465 21.922 141.098 21.992 139.233 22.841C 138.84 23.02 138.449 23.167 138.364 23.167C 138.065 23.167 136.667 23.851 136.667 23.997C 136.667 24.078 136.509 24.194 136.317 24.255C 136.125 24.316 135.476 24.865 134.876 25.475C 133.445 26.929 133.431 26.947 132.975 27.917C 132.76 28.375 132.496 28.843 132.389 28.956C 132.154 29.205 131.5 31.92 131.5 32.646C 131.5 32.932 131.425 33.167 131.333 33.167C 131.127 33.167 131.104 37.108 131.31 37.235C 131.388 37.284 131.495 37.685 131.547 38.126C 131.646 38.962 132.294 41.022 132.503 41.167C 132.569 41.212 132.822 41.644 133.064 42.125C 133.307 42.606 133.561 43.002 133.628 43.004C 133.695 43.006 133.965 43.324 134.227 43.712C 136.854 47.588 144.695 48.975 149.279 46.375C 151.613 45.051 155 41.688 155 40.695C 155 40.588 155.061 40.5 155.134 40.5C 155.208 40.5 155.527 39.956 155.843 39.292C 156.158 38.627 156.475 38.04 156.546 37.988C 156.617 37.935 156.862 37.376 157.091 36.745C 157.32 36.115 157.564 35.558 157.633 35.508C 157.703 35.458 157.976 34.873 158.24 34.208C 158.504 33.544 158.769 33 158.83 33C 158.891 33 159.149 32.494 159.403 31.875C 159.657 31.256 159.918 30.713 159.983 30.667C 160.047 30.621 160.308 30.181 160.562 29.689C 160.816 29.196 161.175 28.634 161.359 28.439C 161.544 28.243 161.803 27.877 161.935 27.625C 162.067 27.373 162.244 27.167 162.328 27.167C 162.412 27.167 162.616 26.938 162.781 26.659C 162.946 26.379 163.419 25.955 163.832 25.715C 164.245 25.475 164.634 25.202 164.696 25.107C 164.858 24.862 167.149 24.868 167.301 25.115C 167.507 25.448 168.307 25.667 169.321 25.667C 170.649 25.667 171.167 25.179 171.167 23.925C 171.167 22.227 169.589 21.559 167.167 22.231M315.5 22.248C 314.904 22.366 314.079 22.614 313.667 22.797C 313.254 22.981 312.523 23.302 312.042 23.511C 311.56 23.72 311.167 23.941 311.167 24.002C 311.167 24.064 310.907 24.254 310.59 24.425C 308.359 25.626 307.723 29.833 309.772 29.833C 309.898 29.833 310 29.908 310 30C 310 30.092 310.225 30.167 310.5 30.167C 310.775 30.167 311 30.092 311 30C 311 29.908 311.174 29.833 311.388 29.833C 312.294 29.833 312.518 29.247 312.465 27.011C 312.421 25.136 312.443 24.955 312.75 24.73C 312.933 24.596 313.252 24.341 313.457 24.162C 314.082 23.619 315.771 23.144 317.093 23.139C 318.929 23.132 319.641 23.537 321.199 25.477C 321.663 26.055 322.025 28.111 322.054 30.329C 322.087 32.886 322.171 32.74 320.415 33.196C 319.958 33.314 319.546 33.453 319.5 33.504C 319.454 33.555 318.368 33.806 317.085 34.061C 315.803 34.316 314.716 34.58 314.669 34.647C 314.622 34.714 314.171 34.867 313.667 34.987C 312.794 35.194 312.302 35.411 310.656 36.312C 309.865 36.745 308.336 38.142 308.334 38.433C 308.334 38.533 308.189 38.782 308.013 38.985C 307.033 40.115 307.203 43.799 308.29 44.998C 308.497 45.227 308.667 45.463 308.667 45.524C 308.667 45.732 310.372 46.862 311.063 47.112C 312.952 47.797 317.205 47.523 319.046 46.596C 320.614 45.807 322.117 44.501 321.458 44.5C 321.207 44.499 319.118 45.361 319 45.514C 318.555 46.091 314.053 46.084 313.667 45.505C 313.621 45.436 313.336 45.253 313.034 45.098C 312.732 44.944 312.343 44.577 312.169 44.284C 311.995 43.99 311.772 43.658 311.673 43.545C 310.307 41.99 311.995 37.778 314.495 36.503C 314.852 36.32 315.186 36.103 315.237 36.02C 315.289 35.937 316.1 35.631 317.04 35.34C 317.981 35.049 318.87 34.748 319.017 34.67C 319.164 34.592 319.801 34.403 320.434 34.251C 321.066 34.098 321.715 33.937 321.875 33.892C 322.149 33.816 322.167 34.153 322.167 39.322C 322.167 42.885 322.226 44.833 322.333 44.833C 322.425 44.833 322.5 45.006 322.5 45.217C 322.5 47.686 326.902 48.309 329.009 46.138C 329.973 45.145 329.864 44.494 328.833 45.083C 328.256 45.414 326.907 45.396 326.322 45.05C 325.379 44.493 325.333 44.067 325.332 35.845C 325.331 28.948 325.206 26.412 324.854 26.17C 324.784 26.123 324.595 25.746 324.435 25.333C 324.102 24.48 323.156 23.41 322.417 23.052C 322.142 22.919 321.728 22.708 321.498 22.582C 320.475 22.023 317.465 21.855 315.5 22.248M75.197 22.353C 74.709 22.434 73.922 22.658 73.447 22.85C 72.972 23.042 72.283 23.318 71.917 23.463C 71.55 23.608 71.175 23.814 71.083 23.921C 70.992 24.028 70.692 24.234 70.417 24.38C 69.991 24.605 69.228 25.358 67.844 26.917C 67.681 27.1 67.406 27.606 67.232 28.041C 67.059 28.476 66.863 28.832 66.798 28.833C 66.62 28.834 66.013 30.917 65.893 31.937C 65.835 32.43 65.723 32.833 65.644 32.833C 65.565 32.833 65.5 33.883 65.5 35.167C 65.5 36.45 65.565 37.5 65.644 37.5C 65.723 37.5 65.833 37.827 65.888 38.227C 66.012 39.133 66.67 41.167 66.839 41.167C 66.908 41.167 67.081 41.459 67.223 41.816C 67.366 42.173 67.656 42.658 67.867 42.895C 68.077 43.132 68.43 43.571 68.65 43.871C 69.695 45.299 72.512 46.975 74.614 47.42C 78.073 48.153 83.148 47.249 84.527 45.653C 84.679 45.477 84.878 45.333 84.968 45.333C 85.209 45.333 86.833 43.514 86.833 43.245C 86.833 43.119 86.935 42.957 87.059 42.883C 87.531 42.605 87.904 41.333 87.514 41.333C 87.431 41.333 87.14 41.636 86.868 42.006C 86.286 42.797 85.155 43.69 84.333 44.006C 84.012 44.13 83.712 44.281 83.667 44.343C 83.349 44.77 79.052 45.406 77.489 45.257C 75.414 45.059 72.843 43.951 72.261 43.004C 72.175 42.864 71.893 42.565 71.636 42.338C 71.378 42.111 71.167 41.873 71.167 41.808C 71.167 41.743 70.911 41.254 70.599 40.72C 70.287 40.187 69.896 39.206 69.729 38.542C 69.562 37.877 69.375 37.333 69.313 37.333C 69.25 37.333 69.152 36.865 69.094 36.292C 69.036 35.719 68.947 34.894 68.896 34.46L68.896 34.46L68.802 33.669L78.193 33.626L87.583 33.583L87.638 32.917C 87.7 32.157 87.37 29.668 87.174 29.417C 87.102 29.325 86.876 28.701 86.671 28.03C 86.466 27.359 86.194 26.769 86.066 26.72C 85.938 26.671 85.833 26.549 85.833 26.449C 85.833 25.596 83.315 23.314 81.583 22.599C 80.552 22.172 77.086 22.039 75.197 22.353M192.833 22.388C 192.237 22.503 191.6 22.684 191.417 22.79C 191.233 22.896 190.702 23.101 190.235 23.246C 189.768 23.391 189.228 23.657 189.033 23.838C 188.839 24.019 188.635 24.167 188.579 24.167C 188.163 24.167 186.39 25.906 185.628 27.06C 185.378 27.44 185.089 27.848 184.987 27.969C 184.885 28.089 184.614 28.764 184.385 29.469C 184.156 30.173 183.901 30.881 183.818 31.04C 183.205 32.211 183.236 39 183.854 39C 183.934 39 184.001 39.131 184.002 39.292C 184.007 39.826 184.711 41.625 184.998 41.833C 185.061 41.879 185.311 42.254 185.553 42.667C 186.298 43.933 187.887 45.411 189.333 46.183C 189.745 46.403 190.129 46.647 190.186 46.725C 190.244 46.803 190.983 47.047 191.83 47.267C 194.897 48.063 199.05 47.712 201.044 46.488C 201.481 46.219 201.908 46 201.993 46C 202.715 46 205.741 42.026 205.418 41.502C 205.239 41.212 205.048 41.315 204.841 41.816C 203.584 44.851 194.148 46.501 191.594 44.133C 191.416 43.968 191.196 43.833 191.105 43.833C 190.877 43.833 189.169 42.127 189.168 41.898C 189.167 41.796 188.989 41.533 188.772 41.314C 188.555 41.096 188.203 40.429 187.99 39.833C 187.777 39.237 187.552 38.712 187.491 38.667C 187.302 38.526 186.833 35.64 186.833 34.626L186.833 34.626L186.833 33.669L196.125 33.626L205.417 33.583L205.467 32.506C 205.495 31.913 205.443 31.275 205.351 31.089C 205.259 30.903 205.1 30.3 204.997 29.75C 204.802 28.706 204.347 27.31 204.156 27.167C 204.095 27.121 203.88 26.758 203.679 26.361C 203.049 25.12 201.576 23.764 200 22.977L200 22.977L198.583 22.269L196.25 22.224C 194.868 22.197 193.475 22.264 192.833 22.388M218.75 22.417C 218.108 22.538 217.268 22.794 216.883 22.985C 216.498 23.177 216.079 23.333 215.952 23.333C 215.826 23.333 215.294 23.633 214.77 24C 214.247 24.367 213.778 24.667 213.728 24.667C 213.633 24.667 212.171 26.171 211.551 26.907C 208.912 30.039 208.376 37.236 210.465 41.477C 210.797 42.152 211.166 42.741 211.284 42.786C 211.403 42.832 211.5 42.961 211.5 43.073C 211.5 43.36 213.315 45.333 213.579 45.333C 213.699 45.333 213.839 45.442 213.891 45.575C 213.942 45.709 214.268 45.963 214.617 46.141C 214.965 46.319 215.565 46.629 215.949 46.829C 217.971 47.88 222.443 47.989 225.375 47.058C 225.81 46.92 226.167 46.749 226.167 46.679C 226.167 46.608 226.448 46.439 226.792 46.302C 227.604 45.979 229.357 44.575 229.858 43.845C 230.073 43.531 230.328 43.194 230.423 43.095C 230.845 42.661 231.167 42.063 231.167 41.713C 231.167 41.294 230.875 41.198 230.732 41.57C 230.59 41.939 228.343 43.665 227.636 43.948C 227.286 44.088 227 44.259 227 44.329C 227 44.398 226.606 44.576 226.125 44.725C 220.76 46.382 216.159 44.796 214.113 40.583C 213.935 40.217 213.736 39.879 213.671 39.833C 213.441 39.672 212.803 36.936 212.711 35.721C 212.66 35.043 212.554 34.45 212.476 34.402C 212.275 34.278 212.298 32.833 212.5 32.833C 212.592 32.833 212.667 32.613 212.667 32.344C 212.667 31.537 213.138 29.55 213.489 28.879C 213.67 28.533 213.97 27.95 214.157 27.583C 214.786 26.346 216.332 24.676 217.208 24.288C 217.46 24.177 217.667 24.034 217.667 23.971C 217.667 23.739 219.544 23.165 220.629 23.065C 222.272 22.914 224.04 23.437 225.036 24.367C 225.311 24.623 225.602 24.833 225.684 24.833C 225.766 24.833 225.833 24.916 225.833 25.016C 225.833 25.116 225.977 25.4 226.152 25.647C 226.328 25.893 226.524 26.373 226.588 26.714C 226.651 27.055 226.77 27.333 226.852 27.333C 226.933 27.333 227 27.706 227 28.161C 227 29.937 229.189 31.006 230.083 29.667C 230.267 29.392 230.473 29.167 230.542 29.167C 230.61 29.167 230.667 28.604 230.667 27.917C 230.667 27.194 230.596 26.667 230.5 26.667C 230.408 26.667 230.333 26.551 230.333 26.41C 230.333 25.961 229.701 24.894 229.267 24.61C 229.037 24.459 228.714 24.197 228.549 24.027C 228.385 23.858 227.8 23.542 227.25 23.325C 226.7 23.109 226.165 22.87 226.061 22.794C 225.267 22.219 220.972 21.998 218.75 22.417M80.542 23.499C 81.16 23.69 81.667 23.903 81.667 23.971C 81.667 24.039 81.91 24.234 82.208 24.404C 84.879 25.927 85.549 30.765 83.249 31.917C 82.883 32.1 82.558 32.306 82.528 32.375C 82.497 32.444 79.431 32.5 75.713 32.5L75.713 32.5L68.954 32.5L69.046 31.477C 69.098 30.914 69.204 30.408 69.283 30.352C 69.361 30.296 69.555 29.83 69.714 29.316C 71.148 24.664 75.956 22.08 80.542 23.499M146.208 23.493C 146.827 23.688 147.333 23.906 147.333 23.979C 147.333 24.051 147.54 24.212 147.792 24.336C 150.475 25.659 151.23 30.757 148.916 31.917C 148.549 32.1 148.225 32.306 148.194 32.375C 148.164 32.444 145.098 32.5 141.381 32.5L141.381 32.5L134.624 32.5L134.741 31.46C 134.806 30.888 134.911 30.382 134.976 30.335C 135.04 30.288 135.22 29.837 135.375 29.332C 136.807 24.686 141.667 22.067 146.208 23.493M198.315 23.504C 198.901 23.698 199.485 23.961 199.613 24.089C 199.741 24.217 200.074 24.456 200.352 24.619C 203.002 26.175 203.197 31.536 200.625 32.107C 200.373 32.163 200.167 32.274 200.167 32.354C 200.167 32.435 197.198 32.5 193.5 32.5L193.5 32.5L186.833 32.5L186.839 32.042C 186.849 31.275 187.296 29.429 187.487 29.365C 187.586 29.332 187.667 29.197 187.667 29.064C 187.667 28.757 188.421 27.26 188.797 26.822C 189.515 25.985 191.009 24.5 191.133 24.5C 191.209 24.5 191.416 24.368 191.594 24.206C 192.876 23.04 195.948 22.719 198.315 23.504M160.578 30.583C 160.327 31.271 160.071 31.833 160.008 31.833C 159.946 31.833 159.72 32.265 159.507 32.792C 159.294 33.319 158.961 34.012 158.768 34.333C 158.438 34.881 158.411 35.215 158.327 39.833C 158.257 43.601 158.181 44.861 158 45.227C 157.696 45.838 156.711 46.825 156.216 47.013C 155.203 47.398 155.959 47.5 159.833 47.5C 163.278 47.5 163.833 47.465 163.833 47.25C 163.833 47.112 163.736 47 163.618 47C 163.499 47 163.087 46.707 162.703 46.348C 161.541 45.265 161.5 44.927 161.5 36.548C 161.5 28.527 161.449 28.196 160.578 30.583M370.771 30.708C 370.641 30.915 370.484 31.252 370.423 31.458C 370.361 31.665 370.253 31.833 370.182 31.833C 370.111 31.833 369.837 32.377 369.573 33.042C 369.309 33.706 369.048 34.287 368.994 34.333C 368.472 34.768 368.333 35.934 368.321 39.962C 368.305 44.984 367.908 46.352 366.292 46.964C 365.146 47.398 365.852 47.5 370 47.5C 374.028 47.5 374.803 47.401 373.792 47.015C 371.79 46.252 371.611 45.481 371.534 37.292C 371.466 30.002 371.427 29.668 370.771 30.708" stroke="none" fill="#040404" fill-rule="nonzero" />
            <path d="" stroke="none" fill="#080404" fill-rule="nonzero" />
            <path d="" stroke="none" fill="#080404" fill-rule="nonzero" />
            <path d="" stroke="none" fill="#080404" fill-rule="nonzero" />
            <path d="" stroke="none" fill="#080404" fill-rule="nonzero" />
            <path d="" stroke="none" fill="#080404" fill-rule="nonzero" />
            <path d="" stroke="none" fill="#080404" fill-rule="nonzero" />
            <path d="" stroke="none" fill="#080404" fill-rule="nonzero" />
            <path d="" stroke="none" fill="#080404" fill-rule="nonzero" />
		</g>
	</g>
</g>
</svg>