<svg width="193" height="28" viewBox="0 0 193 28" fill="none" xmlns="http://www.w3.org/2000/svg">
<g clip-path="url(#clip0_302_71)">
<path d="M29.4244 27.2718H23.3911V27.1336C23.9883 26.8808 24.4197 26.4897 24.6832 25.9606C24.9467 25.4314 25.0806 24.8003 25.0806 24.065V4.68803C25.0806 4.02074 24.9425 3.45333 24.6662 2.98156C24.3899 2.50978 23.9649 2.1485 23.3911 1.89561V1.75748C24.7023 1.57472 25.954 1.41321 27.1483 1.27508C28.3427 1.13694 29.435 1.06894 30.4232 1.06894C32.1466 1.06894 33.6406 1.40896 34.9051 2.08688C36.1695 2.76479 37.1513 3.70622 37.8526 4.9133C38.5539 6.12037 38.9046 7.51658 38.9046 9.10193C38.9046 10.5725 38.6623 11.8433 38.1799 12.9123C37.6975 13.9812 37.0536 14.8717 36.2503 15.5836C35.4448 16.2955 34.5672 16.8246 33.613 17.1689C32.6588 17.5132 31.7344 17.6853 30.8376 17.6853C30.3084 17.6853 29.7622 17.6279 29.1991 17.5132C28.6359 17.3984 28.1365 17.2369 27.6987 17.0308V24.065C27.6987 24.8003 27.8369 25.4335 28.1131 25.9606C28.3894 26.4897 28.8251 26.8808 29.4244 27.1336V27.2718ZM27.7009 16.5484C28.0919 16.6631 28.4829 16.7439 28.8739 16.7906C29.265 16.8374 29.6432 16.8587 30.0109 16.8587C31.8045 16.8587 33.2517 16.2275 34.3547 14.963C35.4576 13.6986 36.0101 11.8837 36.0101 9.51633C36.0101 7.97561 35.7912 6.62615 35.3556 5.46583C34.9178 4.30551 34.293 3.39808 33.477 2.74142C32.6609 2.08688 31.7131 1.75961 30.6336 1.75961C29.6454 1.75961 28.9101 2.01887 28.4277 2.53528C27.9453 3.05168 27.703 3.80611 27.703 4.79429V16.5505L27.7009 16.5484Z" fill="#3B2321"/>
<path d="M49.4731 25.5823C48.9099 26.2942 48.2596 26.8404 47.5243 27.2208C46.789 27.5991 46.007 27.7903 45.1803 27.7903C44.054 27.7903 43.0127 27.4631 42.0606 26.8085C41.1064 26.154 40.3414 25.2062 39.7676 23.9651C39.1917 22.724 38.9048 21.2407 38.9048 19.5172C38.9048 17.679 39.2087 16.0001 39.8186 14.4828C40.4264 12.9654 41.2616 11.7584 42.3177 10.8615C43.3739 9.96474 44.5598 9.51634 45.8688 9.51634C46.9038 9.51634 47.8112 9.81599 48.5932 10.4131C49.3753 11.0103 49.9831 11.8264 50.4209 12.8613C50.8565 13.8962 51.0754 15.0332 51.0754 16.2743V16.7907H41.4209C41.3976 16.9522 41.3869 17.1179 41.3869 17.2901V17.8235C41.3869 19.2494 41.5761 20.5521 41.9565 21.7358C42.3347 22.9195 42.8873 23.8673 43.6119 24.5793C44.3366 25.2912 45.2377 25.6482 46.3194 25.6482C47.2374 25.6482 48.0768 25.4017 48.8355 24.9065C49.5942 24.4135 50.1913 23.7165 50.6291 22.8197L50.8353 22.9238C50.491 23.9821 50.0362 24.8662 49.4731 25.5781V25.5823ZM42.8023 11.7052C42.0904 12.6828 41.642 14.1597 41.4571 16.1361H48.4912C48.4679 14.9418 48.3234 13.9005 48.0598 13.0164C47.7963 12.1324 47.4223 11.4481 46.9399 10.9657C46.4575 10.4833 45.8943 10.241 45.2504 10.241C44.3302 10.241 43.5142 10.7298 42.8023 11.7052Z" fill="#3B2321"/>
<path d="M55.9549 12.704C55.9421 12.9697 55.9379 13.1822 55.9379 13.3416L55.9719 13.3756C56.2248 12.6636 56.5754 12.0197 57.0238 11.4438C57.4722 10.87 57.9653 10.4046 58.5072 10.0476C59.047 9.69059 59.5804 9.51421 60.1095 9.51421C60.6387 9.51421 61.0913 9.68634 61.4717 10.0306C61.85 10.3749 62.0413 10.8127 62.0413 11.3418C62.0413 11.8242 61.8968 12.2089 61.6099 12.4958C61.323 12.7827 60.983 12.9272 60.5919 12.9272C60.2243 12.9272 59.9246 12.8294 59.6951 12.6339C59.4656 12.4384 59.2467 12.2365 59.0406 12.0304C58.8344 11.8242 58.5688 11.7201 58.2479 11.7201C57.8569 11.7201 57.4722 11.9156 57.094 12.3066C56.7157 12.6976 56.3417 13.2374 55.974 13.926V24.4071C55.974 25.0043 56.0994 25.5334 56.3523 25.9925C56.6052 26.4536 56.9388 26.8319 57.3532 27.1294V27.2675H52.1807V27.1294C52.6163 26.8319 52.9627 26.4515 53.2156 25.9925C53.4685 25.5334 53.596 25.0043 53.596 24.4071V13.892C53.596 13.1567 53.4876 12.6041 53.2687 12.2365C53.0498 11.8688 52.6886 11.5692 52.1828 11.3397V11.1676C52.6184 11.1676 53.0668 11.0932 53.528 10.9444C53.987 10.7957 54.4248 10.6065 54.8392 10.3749C55.2536 10.1454 55.5979 9.88185 55.8741 9.58221H55.9783V11.8922C55.9783 12.1685 55.9719 12.4384 55.9613 12.7019L55.9549 12.704Z" fill="#3B2321"/>
<path d="M63.782 25.9797C64.0455 25.5313 64.1794 24.9979 64.1794 24.3774V10.7914H61.6973V10.0327H64.1794V6.23938C64.1794 4.97493 64.3515 3.87836 64.6958 2.94755C65.0401 2.01675 65.5395 1.29208 66.1962 0.775672C66.8507 0.259266 67.6264 0 68.5232 0C69.1671 0 69.7983 0.189137 70.4188 0.569535C71.0393 0.947808 71.3496 1.47271 71.3496 2.13788C71.3496 2.5289 71.2412 2.84555 71.0223 3.08569C70.8034 3.32795 70.5442 3.44696 70.2467 3.44696C69.9024 3.44696 69.6325 3.34283 69.437 3.13669C69.2415 2.93055 69.063 2.67766 68.9036 2.37802C68.7421 2.0805 68.5359 1.82549 68.283 1.61935C68.0301 1.41321 67.6965 1.30908 67.2842 1.30908C66.5022 1.30908 65.956 1.6661 65.6458 2.37802C65.3355 3.08994 65.191 4.07812 65.2144 5.34257L65.2484 5.54871C65.2484 6.07787 65.3121 6.62403 65.4375 7.18719C65.5629 7.75035 65.735 8.27313 65.9539 8.75553C66.1728 9.23794 66.3959 9.66296 66.6254 10.0306H69.3839V10.7893H66.5914V24.4092C66.5914 25.0064 66.7062 25.5419 66.9357 26.0116C67.1652 26.4834 67.4882 26.8553 67.9005 27.1315V27.2697H62.728V27.1315C63.1636 26.8106 63.5142 26.4239 63.7799 25.9776L63.782 25.9797Z" fill="#3B2321"/>
<path d="M80.4677 25.5823C79.9045 26.2942 79.2542 26.8404 78.5189 27.2208C77.7836 27.5991 77.0016 27.7903 76.1749 27.7903C75.0486 27.7903 74.0073 27.4631 73.0552 26.8085C72.101 26.154 71.336 25.2062 70.7622 23.9651C70.1863 22.724 69.8994 21.2407 69.8994 19.5172C69.8994 17.679 70.2033 16.0001 70.8132 14.4828C71.421 12.9654 72.2562 11.7584 73.3124 10.8615C74.3686 9.96474 75.5544 9.51634 76.8635 9.51634C77.8984 9.51634 78.8058 9.81599 79.5879 10.4131C80.3699 11.0103 80.9777 11.8264 81.4155 12.8613C81.8511 13.8962 82.07 15.0332 82.07 16.2743V16.7907H72.4156C72.3922 16.9522 72.3816 17.1179 72.3816 17.2901V17.8235C72.3816 19.2494 72.5707 20.5521 72.9511 21.7358C73.3294 22.9195 73.8819 23.8673 74.6066 24.5793C75.3312 25.2912 76.2323 25.6482 77.314 25.6482C78.232 25.6482 79.0715 25.4017 79.8301 24.9065C80.5888 24.4135 81.186 23.7165 81.6237 22.8197L81.8299 22.9238C81.4856 23.9821 81.0308 24.8662 80.4677 25.5781V25.5823ZM73.7969 11.7052C73.085 12.6828 72.6366 14.1597 72.4517 16.1361H79.4859C79.4625 14.9418 79.318 13.9005 79.0545 13.0164C78.791 12.1324 78.4169 11.4481 77.9345 10.9657C77.4521 10.4833 76.889 10.241 76.245 10.241C75.3249 10.241 74.5088 10.7298 73.7969 11.7052Z" fill="#3B2321"/>
<path d="M92.7765 9.9116C93.3843 10.0604 93.9538 10.2622 94.483 10.5151L93.1038 15.6516H92.9996C92.7935 13.9748 92.3387 12.7146 91.6374 11.8752C90.9361 11.0358 90.1711 10.6171 89.3444 10.6171C88.2415 10.6171 87.3319 11.2547 86.62 12.5298C85.9081 13.8048 85.551 15.5007 85.551 17.6152C85.551 19.0858 85.7232 20.431 86.0675 21.6487C86.4117 22.8664 86.9409 23.8376 87.6528 24.5622C88.3647 25.2869 89.2615 25.6482 90.3432 25.6482C91.2846 25.6482 92.1071 25.3889 92.8084 24.8725C93.5097 24.3561 94.0898 23.6144 94.5488 22.6496L94.721 22.7538C94.398 23.8333 93.9687 24.7535 93.4289 25.5122C92.8891 26.2708 92.2558 26.8404 91.5333 27.2187C90.8086 27.5969 90.0329 27.7882 89.2063 27.7882C88.3796 27.7882 87.6379 27.5927 86.9133 27.2017C86.1886 26.8106 85.551 26.2538 85.0006 25.5292C84.4481 24.8045 84.0125 23.9311 83.6894 22.9089C83.3664 21.8867 83.207 20.7306 83.207 19.4449C83.207 17.5833 83.5343 15.9172 84.1888 14.4466C84.8434 12.976 85.7508 11.8157 86.9133 10.9635C88.0736 10.1135 89.4124 9.68846 90.9297 9.68846C91.5503 9.68846 92.1644 9.76284 92.7744 9.9116H92.7765Z" fill="#3B2321"/>
<path d="M97.5179 10.7914H95.312V10.5852C96.3682 10.1262 97.2778 9.45893 98.0364 8.5855C98.7951 7.71207 99.4029 6.68989 99.864 5.51682H100.002V10.0327H103.968V10.7914H100.002V24.1351C100.002 24.779 100.151 25.289 100.451 25.6694C100.748 26.0477 101.186 26.239 101.762 26.239C102.268 26.239 102.733 26.1348 103.158 25.9287C103.583 25.7225 104.025 25.4335 104.486 25.0659L104.624 25.204C104.119 25.9159 103.498 26.5258 102.763 27.0316C102.027 27.5374 101.235 27.7903 100.385 27.7903C99.8322 27.7903 99.3391 27.6585 98.9014 27.3929C98.4636 27.1294 98.1257 26.7554 97.8834 26.273C97.6412 25.7905 97.5221 25.1934 97.5221 24.4793V10.7914H97.5179Z" fill="#3B2321"/>
<path d="M118.289 2.6543L121.806 20.0315H121.874L125.425 2.6543H132.769V27.2718H128.217V7.6186H128.149L123.771 27.2718H119.91L115.532 7.6186H115.462V27.2718H110.91V2.6543H118.289Z" fill="#3B2321"/>
<path d="M136.146 13.9642C136.146 12.8847 136.318 11.9815 136.662 11.2568C137.006 10.5321 137.472 9.94561 138.058 9.49933C138.645 9.05093 139.333 8.73004 140.126 8.53452C140.919 8.33901 141.765 8.24126 142.659 8.24126C144.085 8.24126 145.233 8.37939 146.106 8.65566C146.98 8.93192 147.658 9.32295 148.14 9.82873C148.622 10.3345 148.95 10.938 149.122 11.6393C149.294 12.3406 149.381 13.1057 149.381 13.9324V23.6888C149.381 24.5623 149.421 25.2402 149.502 25.7226C149.583 26.205 149.738 26.7235 149.968 27.2739H145.416C145.254 26.9764 145.133 26.6598 145.054 26.3261C144.974 25.9925 144.899 25.6652 144.831 25.3443H144.763C144.211 26.3091 143.573 26.936 142.851 27.2229C142.126 27.5098 141.189 27.6543 140.041 27.6543C139.214 27.6543 138.513 27.5098 137.937 27.2229C137.361 26.936 136.902 26.5386 136.558 26.0328C136.214 25.5271 135.961 24.9596 135.799 24.3264C135.638 23.6952 135.557 23.0683 135.557 22.4477C135.557 21.5743 135.649 20.822 135.833 20.1887C136.016 19.5576 136.299 19.0157 136.677 18.5694C137.055 18.121 137.54 17.747 138.124 17.4494C138.711 17.1519 139.416 16.8863 140.245 16.6568L142.933 15.9321C143.645 15.7472 144.141 15.4964 144.417 15.1734C144.693 14.8525 144.831 14.3808 144.831 13.7602C144.831 13.0483 144.663 12.4915 144.332 12.0877C143.998 11.6861 143.429 11.4842 142.625 11.4842C141.89 11.4842 141.337 11.7031 140.97 12.1387C140.602 12.5765 140.417 13.1609 140.417 13.8962V14.4126H136.142V13.9642H136.146ZM143.801 18.6013C143.433 18.75 143.099 18.8605 142.8 18.9285C141.835 19.1347 141.144 19.4811 140.732 19.9635C140.317 20.4459 140.111 21.1004 140.111 21.9292C140.111 22.6411 140.249 23.251 140.526 23.7568C140.802 24.2626 141.261 24.5155 141.905 24.5155C142.226 24.5155 142.559 24.4645 142.906 24.3604C143.25 24.2562 143.567 24.0905 143.854 23.861C144.141 23.6314 144.376 23.3318 144.561 22.9642C144.744 22.5965 144.838 22.1587 144.838 21.6529V17.9977C144.515 18.2506 144.17 18.4525 143.803 18.6013H143.801Z" fill="#3B2321"/>
<path d="M158.558 3.41293V8.72151H161.316V11.9623H158.558V21.9951C158.558 22.7304 158.666 23.2531 158.885 23.5634C159.104 23.8737 159.557 24.0288 160.248 24.0288C160.43 24.0288 160.615 24.0224 160.8 24.0118C160.983 24.0012 161.157 23.9842 161.316 23.9608V27.2718C160.787 27.2718 160.275 27.2888 159.782 27.3228C159.287 27.3568 158.764 27.3738 158.214 27.3738C157.294 27.3738 156.541 27.31 155.955 27.1846C155.368 27.0592 154.92 26.8042 154.61 26.426C154.299 26.0456 154.087 25.5462 153.972 24.9256C153.857 24.3051 153.8 23.523 153.8 22.5816V11.9645H151.386V8.72363H153.8V3.41293H158.558Z" fill="#3B2321"/>
<path d="M171.814 14.0662C171.757 13.6306 171.653 13.2332 171.504 12.8762C171.353 12.5191 171.143 12.2322 170.867 12.0134C170.59 11.7945 170.223 11.6861 169.764 11.6861C169.188 11.6861 168.718 11.8178 168.35 12.0835C167.983 12.347 167.707 12.738 167.524 13.2566C167.339 13.773 167.214 14.4296 167.146 15.2223C167.077 16.015 167.041 16.9522 167.041 18.0317C167.041 19.1814 167.075 20.1632 167.146 20.9793C167.214 21.7953 167.341 22.4669 167.524 22.996C167.709 23.5252 167.966 23.9098 168.299 24.15C168.633 24.3922 169.062 24.5112 169.592 24.5112C170.397 24.5112 170.981 24.167 171.349 23.4763C171.717 22.7878 171.902 21.6827 171.902 20.1675H176.454C176.454 22.605 175.907 24.4602 174.815 25.7353C173.723 27.0104 171.912 27.6479 169.385 27.6479C168.191 27.6479 167.15 27.5034 166.266 27.2165C165.38 26.9296 164.644 26.4111 164.06 25.6652C163.473 24.9193 163.031 23.9183 162.732 22.6645C162.432 21.4128 162.283 19.8551 162.283 17.9935C162.283 16.1319 162.468 14.5061 162.836 13.2523C163.203 12.0006 163.72 10.9997 164.387 10.2537C165.054 9.50783 165.847 8.98505 166.767 8.6854C167.685 8.38788 168.697 8.237 169.802 8.237C172.008 8.237 173.67 8.88091 174.783 10.1687C175.899 11.4566 176.456 13.2034 176.456 15.4093H171.904C171.904 14.9503 171.874 14.5019 171.817 14.0641L171.814 14.0662Z" fill="#3B2321"/>
<path d="M183.692 2.6543V10.6193H183.762C184.68 9.03394 186.186 8.24126 188.278 8.24126C189.795 8.24126 190.962 8.65566 191.778 9.48234C192.594 10.309 193.002 11.6542 193.002 13.5158V27.2718H188.244V14.4806C188.244 13.5158 188.082 12.8422 187.761 12.4639C187.438 12.0856 186.922 11.8944 186.21 11.8944C184.531 11.8944 183.694 12.9165 183.694 14.963V27.2718H178.936V2.6543H183.694H183.692Z" fill="#3B2321"/>
<path d="M4.65323 1.78724C4.82961 1.78724 4.98687 1.75536 5.12501 1.68948C5.26314 1.6236 5.3779 1.53435 5.46928 1.41959H5.52666L5.95168 3.81036L5.88368 3.84436C5.69242 3.52347 5.49691 3.22595 5.29714 2.95393C5.09738 2.68192 4.89762 2.46303 4.69998 2.29939C4.50235 2.13576 4.30471 2.05288 4.11345 2.05288C3.94556 2.05288 3.81805 2.09963 3.73305 2.19101C3.64804 2.28239 3.60767 2.42478 3.60767 2.61604V9.39733C3.60767 9.59709 3.64592 9.7756 3.72242 9.93711C3.79893 10.0986 3.93706 10.2389 4.13682 10.3621V10.4089H1.80343V10.3621C2.00319 10.2389 2.14133 10.0986 2.22208 9.93711C2.30284 9.7756 2.34321 9.59709 2.34321 9.39733V2.61391C2.34321 2.42265 2.30071 2.28027 2.21571 2.18889C2.1307 2.09751 1.99257 2.05075 1.80131 2.05075C1.62492 2.05075 1.43791 2.13576 1.23815 2.30364C1.03838 2.47153 0.838622 2.69042 0.640985 2.95818C0.441222 3.22595 0.254211 3.52134 0.0778252 3.84224L-0.00292969 3.80824L0.413596 1.41747H0.494351C0.585731 1.54072 0.698363 1.6321 0.827996 1.69373C0.957629 1.75536 1.11064 1.78511 1.28702 1.78511H4.65535L4.65323 1.78724Z" fill="#3B2321"/>
<path d="M8.60776 10.4068H6.13623V10.36C6.30412 10.275 6.44862 10.139 6.56763 9.94561C6.68664 9.75435 6.74614 9.52908 6.74614 9.26769V2.92418C6.74614 2.70954 6.69514 2.49703 6.59738 2.28664C6.4975 2.07625 6.34449 1.92537 6.13836 1.83186V1.78511H8.60988V1.83186C8.40374 1.92324 8.24861 2.07625 8.14448 2.28664C8.04035 2.49703 7.98934 2.70954 7.98934 2.92418V4.93455H10.7818V2.92418C10.7818 2.70954 10.7286 2.49703 10.6203 2.28664C10.5119 2.07625 10.3631 1.92537 10.1719 1.83186V1.78511H12.6306V1.83186C12.4309 1.92324 12.28 2.07625 12.1758 2.28664C12.0717 2.49703 12.0207 2.70954 12.0207 2.92418V9.26769C12.0207 9.52908 12.0781 9.75435 12.1928 9.94561C12.3076 10.1369 12.4542 10.275 12.6285 10.36V10.4068H10.1697V10.36C10.3312 10.275 10.4715 10.139 10.5948 9.94561C10.718 9.75435 10.7796 9.52908 10.7796 9.26769V5.25757H7.98722V9.26769C7.98722 9.52908 8.04672 9.75435 8.16573 9.94561C8.28474 10.1369 8.43137 10.275 8.60776 10.36V10.4068Z" fill="#3B2321"/>
<path d="M17.2845 1.78723C17.4843 1.78723 17.6564 1.75536 17.8009 1.68948C17.9455 1.6236 18.0602 1.53434 18.1452 1.41959H18.192L18.5129 3.82098L18.4449 3.84436C18.2153 3.49159 17.9795 3.17919 17.7372 2.90718C17.4949 2.63516 17.2272 2.42477 16.9318 2.27601C16.6364 2.12725 16.3006 2.05287 15.9266 2.05287C15.5823 2.05287 15.3379 2.12938 15.1977 2.28239C15.0553 2.4354 14.9851 2.68191 14.9851 3.01768V5.51259H16.4217C16.7129 5.51259 16.9743 5.44033 17.2038 5.2937C17.4333 5.14919 17.6373 4.90692 17.8137 4.56903H17.8711V6.81104H17.8137C17.6288 6.5114 17.4248 6.27551 17.1995 6.09912C16.9743 5.92274 16.7193 5.8356 16.4345 5.8356H14.9873V9.18056C14.9873 9.50145 15.0723 9.74372 15.2402 9.90523C15.4081 10.0667 15.6609 10.1475 15.9988 10.1475C16.4196 10.1475 16.7979 10.0604 17.1315 9.88398C17.4652 9.70759 17.7669 9.4717 18.039 9.17631C18.311 8.88092 18.5702 8.5494 18.8146 8.18175L18.8614 8.20512L18.3662 10.7787H18.3089C18.2175 10.649 18.1048 10.5555 17.9752 10.496C17.8456 10.4365 17.6798 10.4089 17.4801 10.4089H13.1235V10.3621C13.2914 10.2708 13.4359 10.1432 13.5549 9.98386C13.6739 9.82235 13.7334 9.58646 13.7334 9.27194V2.92418C13.7334 2.66279 13.6824 2.43752 13.5847 2.24626C13.4848 2.055 13.3318 1.91687 13.1257 1.83186V1.78511H17.2867L17.2845 1.78723Z" fill="#3B2321"/>
</g>
<defs>
<clipPath id="clip0_302_71">
<rect width="193" height="27.7882" fill="white"/>
</clipPath>
</defs>
</svg>