<svg width="236" height="236" viewBox="0 0 236 236" fill="none" xmlns="http://www.w3.org/2000/svg">
<circle cx="118" cy="118" r="118" fill="#F8ECFD"/>
<g clip-path="url(#clip0_1093_128)">
<path d="M192.7 139.62L192.77 139.65C192.84 140.5 193.42 141.12 194.43 141.48L207.87 146.22C209 146.62 209.75 146.38 210.31 145.84L210.38 145.86L208.98 149.82L208.91 149.79C208.81 149.01 208.38 148.36 207.25 147.96L194.16 143.34C192.72 142.83 191.93 142.98 191.45 144.32C190.78 146.21 191.77 147.93 193.24 149.91L193.16 149.99L188.97 147.88L189 147.81C189.56 147.72 189.98 147.28 190.24 146.55L192.69 139.62H192.7Z" fill="#3C2A44"/>
<path d="M185.7 155.36C186.08 154.6 186.92 154.32 188.06 154.89C188.17 154.95 188.31 155.01 188.44 155.08V155.06C187.76 153.59 187.48 151.86 188.06 150.7C188.65 149.52 190.18 149.08 191.59 149.79C193.49 150.74 194.54 153.56 193.38 157.59C194.46 158.16 195.42 158.64 196.03 158.94C197.15 159.5 198.01 159.34 198.42 158.52C199.45 156.46 196.24 155.33 196.96 153.9C197.16 153.5 197.64 153.37 198.07 153.59C199.3 154.21 199.68 156.97 198.73 158.87C197.9 160.52 196.46 161.06 195.03 160.34C193.17 159.41 189.52 157.5 187.49 156.48C186.75 156.11 186.28 156.1 186.04 156.59C185.89 156.88 185.88 157.18 185.99 157.57H185.9C185.51 156.91 185.38 156 185.7 155.36V155.36ZM188.65 152.14C188.3 152.83 188.23 153.81 188.73 155.22C190.05 155.88 191.69 156.73 193.14 157.46C193.94 153.86 192.76 152.35 191.29 151.61C190.11 151.02 189.13 151.17 188.65 152.13V152.14ZM199.73 159.71L199.71 159.59C202.07 158.62 203.29 157.8 204.16 157.57C204.7 157.45 205.36 157.69 205.49 158.26C205.61 158.91 205.18 159.33 204.63 159.48C203.77 159.69 202.32 159.47 199.73 159.71V159.71Z" fill="#3C2A44"/>
<path d="M190.48 172.12C188.89 174.24 185.26 174.08 182.4 171.93C179.52 169.77 178.34 166.26 179.9 164.18C181.46 162.1 185.2 162.25 188.05 164.39C190.89 166.52 192.05 170.02 190.47 172.12H190.48ZM180.22 164.42C179.15 165.84 180.65 168.18 183.57 170.37C186.47 172.55 189.03 173.38 190.16 171.88C191.27 170.4 189.79 168.13 186.89 165.96C183.97 163.77 181.31 162.99 180.23 164.43L180.22 164.42Z" fill="#3C2A44"/>
<path d="M173.84 175.6L173.86 175.58C173.51 173.8 173.54 171.62 174.56 170.59C175.54 169.59 176.9 169.77 177.99 170.84L183.36 176.12C184.07 176.82 184.61 176.96 185.28 176.78L185.33 176.83C184.72 177.45 184.35 178.47 184.4 179.38L184.35 179.43L177.25 172.45C176.48 171.7 175.58 171.47 174.83 172.24C174.36 172.72 173.94 173.86 174.03 175.73L178.97 180.59C179.68 181.29 180.2 181.45 180.89 181.25L180.94 181.3C180.33 181.92 179.96 182.94 180.01 183.85L179.96 183.9L172.61 176.68C171.9 175.98 171.36 175.88 170.64 176.08L170.59 176.03C171.22 175.39 171.67 174.5 171.72 173.56L171.77 173.51L172.97 174.68C173.31 175.01 173.67 175.36 173.86 175.59L173.84 175.6ZM183.03 182.66L183.05 182.54C185.59 182.34 187.01 181.94 187.91 181.99C188.46 182.04 189.01 182.48 188.96 183.06C188.88 183.72 188.33 183.98 187.76 183.95C186.88 183.89 185.56 183.23 183.03 182.66V182.66Z" fill="#3C2A44"/>
<path d="M163.85 182.74L163.2 180.68L163.46 180.49L172.48 186.75C173.85 187.71 174.36 187.86 174.88 187.85L174.92 187.91L171.9 190.09L171.86 190.03C172.12 189.32 171.95 188.49 170.98 187.83L164.42 183.19L166.88 190.57C167.34 191.93 168.19 192.34 168.69 192.31L168.73 192.37L166.8 193.76L166.76 193.7C166.95 193.19 166.89 192.22 166.34 190.55L163.87 182.77L163.82 182.74L163.84 182.72L163.85 182.74Z" fill="#3C2A44"/>
<path d="M162.2 196.8C159.89 198.09 156.63 196.47 154.89 193.34C153.14 190.19 153.49 186.51 155.76 185.24C158.03 183.97 161.38 185.63 163.13 188.75C164.86 191.85 164.5 195.52 162.2 196.79V196.8ZM155.96 185.6C154.41 186.46 154.82 189.21 156.6 192.4C158.37 195.57 160.37 197.37 162.01 196.46C163.63 195.56 163.19 192.88 161.43 189.71C159.65 186.52 157.54 184.72 155.96 185.6V185.6Z" fill="#3C2A44"/>
<path d="M154.85 199.5L156.27 198.89L156.32 199C155.18 200.22 154.67 201.83 154.79 203.62L154.72 203.65L153.44 200.66L150.87 201.76L150.66 201.28L153.23 200.18L149.39 191.22C149.02 190.35 148.4 189.99 147.64 190.31C146.95 190.61 146.55 191.13 146.19 191.88L146.09 191.84C146.36 190.64 147.04 189.42 148.1 188.97C149.2 188.5 150.33 188.97 150.93 190.37L154.84 199.49L154.85 199.5Z" fill="#3C2A44"/>
<path d="M146.2 200.81V200.79C146.2 202.45 145.36 204.07 144.26 204.43C143.57 204.66 142.8 204.31 142.56 203.6C142.36 202.98 142.64 202.42 143.16 202.24C143.9 202 144.43 202.74 145.02 202.54C145.57 202.36 145.89 201.59 146.03 200.44L143.63 193.2C143.37 192.42 142.81 191.92 142.17 191.66L142.15 191.59L145.52 190.47L145.54 190.54C145.14 191.15 144.96 191.89 145.22 192.67L147.68 200.1C147.98 201 148.38 201.34 149.16 201.48L149.18 201.55C148.3 201.84 147.46 202.62 147.07 203.44L147.02 203.46L146.48 201.82C146.36 201.46 146.24 201.03 146.17 200.82L146.2 200.81Z" fill="#3C2A44"/>
<path d="M135.03 193.15C137.37 192.62 139.87 194.37 140.69 198C141.57 201.9 140.19 205.55 137.46 206.16C135.32 206.64 133.42 204.84 132.83 202.21L132.75 201.87L139.39 200.37C139.36 200.12 139.3 199.85 139.24 199.58C138.57 196.63 136.87 194.3 134.6 194.81C133.33 195.1 132.37 196.06 132.05 197.46L131.92 197.44C132.13 195.09 133.32 193.54 135.05 193.15H135.03ZM139.45 200.79L134.6 201.88C135.21 204.46 136.45 205.9 137.82 205.59C139.06 205.31 139.85 203.67 139.45 200.79Z" fill="#3C2A44"/>
<path d="M124.45 205.17V205.15C124.03 206.76 122.81 208.11 121.66 208.19C120.94 208.24 120.28 207.7 120.23 206.95C120.19 206.3 120.61 205.82 121.16 205.79C121.93 205.74 122.26 206.6 122.89 206.56C123.46 206.52 123.97 205.86 124.4 204.78L123.91 197.17C123.86 196.35 123.44 195.72 122.89 195.31V195.24L126.43 195.01V195.09C125.89 195.58 125.53 196.25 125.59 197.07L126.09 204.88C126.15 205.83 126.45 206.26 127.18 206.59V206.67C126.26 206.73 125.24 207.27 124.66 207.96H124.61L124.5 206.24C124.48 205.87 124.47 205.41 124.46 205.19L124.45 205.17Z" fill="#3C2A44"/>
<path d="M115.56 194.93C117.96 195.01 119.93 197.33 119.8 201.06C119.66 205.06 117.4 208.23 114.6 208.13C112.4 208.05 111.03 205.83 111.12 203.13V202.78L117.93 203.02C117.96 202.77 117.97 202.5 117.98 202.22C118.09 199.2 117.03 196.51 114.71 196.43C113.41 196.38 112.24 197.07 111.57 198.35L111.45 198.3C112.25 196.08 113.8 194.88 115.57 194.94L115.56 194.93ZM115.74 213.52C115.29 214.28 114.29 214.19 113.94 213.46L111.81 209.23L111.91 209.16L114.85 212.21H114.9L118.05 209.37L118.15 209.45L115.73 213.52H115.74ZM117.89 203.44L112.92 203.27C112.85 205.92 113.69 207.62 115.09 207.67C116.36 207.71 117.54 206.33 117.89 203.44V203.44Z" fill="#3C2A44"/>
<path d="M105.69 196.13L106.66 194.2L106.98 194.25L109.05 205.03C109.36 206.67 109.62 207.14 109.99 207.5V207.57L106.3 207.02V206.95C106.99 206.62 107.45 205.91 107.22 204.76L105.78 196.86L102.38 203.86C101.76 205.16 102.08 206.04 102.46 206.37V206.44L100.1 206.09V206.02C100.6 205.79 101.24 205.05 102.01 203.47L105.68 196.18L105.66 196.13H105.68H105.69Z" fill="#3C2A44"/>
<path d="M98.4202 192.35C100.74 192.96 102.15 195.66 101.2 199.26C100.18 203.13 97.2702 205.72 94.5602 205C92.4302 204.44 91.5902 201.96 92.2802 199.36L92.3702 199.02L98.9402 200.76C99.0302 200.53 99.1002 200.26 99.1702 199.99C99.9402 197.07 99.5102 194.21 97.2602 193.62C96.0002 193.29 94.7102 193.69 93.7702 194.79L93.6602 194.71C94.9402 192.72 96.7002 191.89 98.4202 192.35V192.35ZM98.8102 201.16L94.0002 199.89C93.3502 202.46 93.7902 204.31 95.1402 204.66C96.3702 204.99 97.8202 203.9 98.8102 201.16Z" fill="#3C2A44"/>
<path d="M89.0803 184.19L92.1203 185.61L92.0903 185.68C91.4703 185.77 90.9703 186.07 90.5103 187.04L85.1503 198.5C84.6903 199.47 84.6903 200.08 85.1303 200.67L85.1003 200.74C84.3103 200.37 83.2003 200.38 82.3803 200.71L82.3103 200.68L83.3803 198.39C82.0603 199.21 80.4103 199.84 79.0303 199.2C77.1503 198.32 76.7003 195.46 78.0603 192.53C79.6503 189.13 83.0303 186.63 86.2003 188.11C86.8103 188.4 87.2703 188.78 87.6803 189.13L88.9903 186.32C89.4503 185.35 89.3503 184.78 89.0503 184.25L89.0803 184.18V184.19ZM86.0503 188.43C84.1703 187.55 81.5703 189.26 79.9903 192.72C78.6903 195.56 78.9303 197.69 80.4903 198.42C81.3503 198.82 82.1403 198.72 83.4703 198.13L86.7903 191.04C87.3603 189.82 87.0503 188.9 86.0503 188.43V188.43Z" fill="#3C2A44"/>
<path d="M72.9602 192.67V192.65C71.7002 193.72 69.9202 194.12 68.9502 193.52C68.3302 193.14 68.1002 192.32 68.4902 191.68C68.8302 191.13 69.4502 190.98 69.9202 191.27C70.5802 191.68 70.3602 192.57 70.8902 192.89C71.3802 193.19 72.1802 192.95 73.1502 192.31L77.1502 185.82C77.5802 185.12 77.6002 184.37 77.3902 183.71L77.4302 183.65L80.4502 185.51L80.4102 185.57C79.6802 185.65 79.0002 186 78.5702 186.7L74.4702 193.36C73.9702 194.17 73.9702 194.7 74.3702 195.38L74.3302 195.44C73.5402 194.96 72.4002 194.81 71.5302 195.04L71.4902 195.01L72.3902 193.54C72.5902 193.22 72.8402 192.85 72.9602 192.66V192.67Z" fill="#3C2A44"/>
<path d="M71.6204 179.18C73.5304 180.63 73.8004 183.66 71.5404 186.63C69.1204 189.81 65.4404 191.1 63.2104 189.4C61.4604 188.07 61.6204 185.46 63.2604 183.31L63.4704 183.03L68.8804 187.15C69.0504 186.97 69.2204 186.75 69.3804 186.53C71.2104 184.12 71.9004 181.32 70.0504 179.91C69.0204 179.12 67.6604 179 66.3804 179.66L66.3104 179.54C68.2504 178.19 70.2004 178.1 71.6104 179.18H71.6204ZM68.6104 187.47L64.6504 184.46C63.0704 186.58 62.7704 188.46 63.8804 189.31C64.8904 190.08 66.6504 189.63 68.6104 187.47Z" fill="#3C2A44"/>
<path d="M65.5303 177.35L60.0403 182.93C59.3603 183.63 59.2703 184.14 59.4903 184.88L59.4403 184.93C58.7803 184.28 57.7503 183.86 56.8003 183.91L56.7603 183.87L57.9003 182.71C58.2303 182.37 58.5503 182.05 58.7803 181.85L58.7603 181.83C56.9603 182.16 54.8503 182.06 53.8403 181.06C52.8603 180.1 53.0103 178.7 54.0803 177.61L59.8503 171.75C60.4303 171.16 60.6903 170.51 60.6303 169.82L60.6803 169.77L63.0903 172.14L63.0403 172.19C62.2603 172.13 61.6303 172.34 61.0703 172.91L55.7003 178.36C54.9503 179.13 54.7403 180.05 55.4903 180.78C55.9903 181.27 57.0903 181.72 58.9603 181.64L64.3603 176.15C64.9203 175.58 65.1303 174.94 65.0503 174.16L65.1003 174.11L67.6303 176.6L67.5803 176.65C66.8203 176.57 66.1103 176.75 65.5303 177.34V177.35Z" fill="#3C2A44"/>
<path d="M56.0304 172.41C53.0604 174.7 48.9304 175.41 46.8004 172.66C46.3904 172.13 46.1404 171.56 45.9204 171.03L42.6604 173.55C41.9304 174.12 41.5704 174.8 41.6204 175.43L41.5604 175.48C41.0104 174.77 40.0504 174.31 39.1604 174.21L39.1304 174.17L52.5404 163.8C53.3704 163.16 53.7104 162.58 53.6104 161.87L53.6704 161.82C54.2104 162.51 55.0704 162.98 55.9604 163.18L56.0004 163.24L55.1104 163.93C54.7704 164.19 54.3604 164.48 54.0704 164.71V164.75C55.5404 164.65 57.3004 164.81 58.2404 166.01C59.5204 167.67 58.6004 170.44 56.0504 172.41H56.0304ZM53.8304 164.91L47.5804 169.74C46.5104 170.57 46.3904 171.55 47.0704 172.44C48.3104 174.04 51.4004 173.71 54.3904 171.36C56.8304 169.44 57.6004 167.42 56.5504 166.06C55.9704 165.31 55.2404 165.05 53.8304 164.91V164.91Z" fill="#3C2A44"/>
<path d="M48.0102 154.28L50.1402 153.91L50.2902 154.2L42.8602 162.28C41.7302 163.5 41.5002 163.99 41.4402 164.51L41.3702 164.55L39.6202 161.26L39.6902 161.22C40.3602 161.57 41.2102 161.52 41.9902 160.65L47.4802 154.79L39.8302 156.22C38.4102 156.49 37.9002 157.27 37.8502 157.78L37.7802 157.82L36.6602 155.72L36.7302 155.68C37.2102 155.94 38.1802 156.01 39.9102 155.68L47.9502 154.3L47.9802 154.26V154.28H48.0102Z" fill="#3C2A44"/>
<path d="M32.83 155.91C32.16 156.2 31.44 155.96 31.19 155.39C30.93 154.79 31.26 154.08 31.92 153.8C32.56 153.52 33.3 153.78 33.55 154.38C33.8 154.95 33.46 155.64 32.82 155.92L32.83 155.91ZM47.82 149.95C47.28 149.58 46.57 149.56 45.72 149.93L38.71 152.93C37.97 153.25 37.28 153.71 37.24 154.51L37.17 154.54C36.81 153.69 35.95 152.97 35.13 152.64L35.11 152.59L45.04 148.34C45.89 147.98 46.41 147.48 46.53 146.94L46.6 146.91L47.89 149.92L47.82 149.95V149.95Z" fill="#3C2A44"/>
<path d="M45.1302 141.71C45.8802 143.99 44.3702 146.64 40.8302 147.8C37.0302 149.04 33.2702 148.01 32.4002 145.35C31.7202 143.26 33.3302 141.2 35.9002 140.37L36.2302 140.26L38.3402 146.72C38.5902 146.67 38.8502 146.58 39.1102 146.5C41.9902 145.56 44.1502 143.64 43.4302 141.43C43.0302 140.19 41.9802 139.33 40.5502 139.14V139.01C42.9202 139.01 44.5802 140.04 45.1302 141.73V141.71ZM37.9402 146.82L36.3902 142.09C33.8802 142.94 32.5702 144.31 33.0002 145.64C33.4002 146.85 35.1002 147.48 37.9302 146.82H37.9402Z" fill="#3C2A44"/>
<path d="M43.7402 97.26L43.6702 97.24C43.5902 96.39 43.0102 95.77 41.9902 95.43L28.5002 90.83C27.3702 90.44 26.6202 90.69 26.0602 91.24L25.9902 91.22L27.3502 87.25L27.4202 87.27C27.5302 88.05 27.9602 88.7 29.1002 89.08L42.2302 93.56C43.6702 94.05 44.4602 93.9 44.9202 92.55C45.5702 90.66 44.5702 88.94 43.0702 86.98L43.1502 86.9L47.3602 88.97L47.3402 89.04C46.7802 89.14 46.3602 89.58 46.1102 90.31L43.7302 97.27L43.7402 97.26Z" fill="#3C2A44"/>
<path d="M36.4902 77.25L36.5102 77.37C34.1602 78.37 32.9502 79.2 32.0802 79.44C31.5402 79.57 30.8802 79.33 30.7402 78.76C30.6102 78.11 31.0402 77.68 31.5902 77.53C32.4502 77.31 33.9002 77.52 36.4802 77.25H36.4902ZM50.5802 81.45C50.2102 82.21 49.3702 82.5 48.2302 81.94C48.1202 81.88 47.9802 81.82 47.8502 81.75V81.77C48.5502 83.23 48.8402 84.96 48.2702 86.13C47.6902 87.32 46.1602 87.77 44.7502 87.08C42.8402 86.15 41.7602 83.34 42.8702 79.29C41.7802 78.73 40.8102 78.26 40.2102 77.96C39.0902 77.41 38.2302 77.58 37.8202 78.41C36.8102 80.48 40.0302 81.58 39.3302 83.01C39.1302 83.42 38.6502 83.54 38.2302 83.34C36.9902 82.74 36.5902 79.98 37.5202 78.07C38.3302 76.41 39.7702 75.86 41.2002 76.56C43.0702 77.47 46.7402 79.34 48.7902 80.34C49.5302 80.7 50.0002 80.71 50.2402 80.21C50.3802 79.92 50.3902 79.62 50.2802 79.23H50.3702C50.7702 79.88 50.9102 80.79 50.5902 81.44L50.5802 81.45ZM47.6602 84.7C48.0002 84 48.0602 83.03 47.5502 81.62C46.2202 80.97 44.5702 80.14 43.1102 79.43C42.3502 83.04 43.5402 84.54 45.0302 85.26C46.2202 85.84 47.1902 85.67 47.6602 84.71V84.7Z" fill="#3C2A44"/>
<path d="M45.6001 64.75C47.1701 62.61 50.8001 62.73 53.6801 64.85C56.5801 66.98 57.8001 70.48 56.2601 72.57C54.7201 74.67 50.9901 74.56 48.1001 72.45C45.2401 70.35 44.0401 66.87 45.5901 64.75H45.6001ZM55.9401 72.33C56.9901 70.9 55.4701 68.58 52.5301 66.42C49.6101 64.28 47.0301 63.47 45.9201 64.99C44.8301 66.48 46.3401 68.74 49.2601 70.88C52.2001 73.04 54.8801 73.79 55.9401 72.34V72.33Z" fill="#3C2A44"/>
<path d="M52.9404 54.13V54.25C50.3804 54.48 48.9804 54.89 48.0704 54.86C47.5204 54.82 46.9604 54.39 47.0104 53.8C47.0904 53.14 47.6304 52.87 48.1904 52.89C49.0804 52.94 50.4004 53.59 52.9404 54.12V54.13ZM62.2004 61.09L62.1804 61.11C62.5504 62.89 62.5404 65.07 61.5404 66.11C60.5704 67.12 59.2004 66.95 58.1004 65.9L52.6704 60.68C51.9504 59.99 51.4204 59.86 50.7504 60.05L50.7004 60C51.3104 59.37 51.6604 58.35 51.6004 57.43L51.6504 57.38L58.8204 64.28C59.6004 65.03 60.5004 65.24 61.2504 64.46C61.7204 63.97 62.1204 62.83 62.0104 60.96L57.0204 56.16C56.3004 55.47 55.7804 55.32 55.1004 55.53L55.0504 55.48C55.6604 54.85 56.0104 53.83 55.9504 52.92L56.0004 52.87L63.4304 60.01C64.1504 60.7 64.6804 60.8 65.4004 60.59L65.4504 60.64C64.8304 61.29 64.3804 62.18 64.3504 63.12L64.3004 63.17L63.0904 62.01C62.7504 61.68 62.3904 61.33 62.1904 61.11L62.2004 61.09Z" fill="#3C2A44"/>
<path d="M72.12 53.84L72.79 55.89L72.53 56.08L63.45 49.92C62.07 48.98 61.56 48.83 61.04 48.84L61 48.78L64 46.57L64.04 46.63C63.79 47.34 63.97 48.17 64.94 48.82L71.54 53.39L69 46.04C68.53 44.68 67.67 44.29 67.17 44.32L67.12 44.26L69.03 42.85L69.07 42.91C68.89 43.42 68.95 44.39 69.53 46.05L72.08 53.8L72.13 53.83L72.11 53.85L72.12 53.84Z" fill="#3C2A44"/>
<path d="M73.6102 39.76C75.9102 38.44 79.1802 40.03 80.9502 43.13C82.7402 46.25 82.4302 49.94 80.1702 51.24C77.9102 52.53 74.5402 50.92 72.7702 47.81C71.0102 44.73 71.3302 41.06 73.6102 39.76V39.76ZM79.9802 50.89C81.5202 50.01 81.0802 47.27 79.2602 44.1C77.4602 40.95 75.4302 39.17 73.8102 40.11C72.2002 41.03 72.6702 43.7 74.4702 46.85C76.2802 50.02 78.4202 51.79 79.9802 50.9V50.89Z" fill="#3C2A44"/>
<path d="M80.9402 36.9799L79.5202 37.5999L79.4702 37.4899C80.5902 36.2599 81.0902 34.6499 80.9502 32.8499L81.0202 32.8199L82.3302 35.7899L84.8902 34.6599L85.1002 35.1399L82.5402 36.2699L86.4702 45.1899C86.8502 46.0599 87.4702 46.4099 88.2302 46.0799C88.9202 45.7799 89.3102 45.2499 89.6602 44.4899L89.7602 44.5299C89.5002 45.7399 88.8402 46.9599 87.7802 47.4199C86.6802 47.8999 85.5502 47.4499 84.9402 46.0499L80.9402 36.9699V36.9799Z" fill="#3C2A44"/>
<path d="M89.5701 35.58V35.6C89.5701 33.94 90.3801 32.31 91.4601 31.94C92.1401 31.7 92.9201 32.04 93.1701 32.75C93.3801 33.36 93.1001 33.94 92.5801 34.12C91.8501 34.37 91.3001 33.63 90.7101 33.84C90.1701 34.03 89.8501 34.8 89.7201 35.95L92.2001 43.16C92.4701 43.94 93.0301 44.43 93.6801 44.69L93.7001 44.76L90.3401 45.91L90.3201 45.84C90.7201 45.23 90.8801 44.48 90.6201 43.7L88.0801 36.3C87.7701 35.4 87.3601 35.07 86.5801 34.94L86.5601 34.87C87.4301 34.57 88.2701 33.78 88.6501 32.96L88.7001 32.94L89.2601 34.57C89.3801 34.92 89.5001 35.36 89.5801 35.57L89.5701 35.58Z" fill="#3C2A44"/>
<path d="M100.84 43.11C98.5 43.66 95.99 41.95 95.13 38.32C94.21 34.43 95.55 30.77 98.28 30.12C100.42 29.61 102.33 31.4 102.96 34.02L103.04 34.36L96.42 35.93C96.45 36.18 96.52 36.45 96.58 36.72C97.28 39.66 99.01 41.98 101.27 41.44C102.53 41.14 103.49 40.17 103.8 38.76L103.93 38.78C103.74 41.14 102.57 42.7 100.84 43.11V43.11ZM96.34 35.52L101.18 34.37C100.54 31.8 99.28 30.37 97.92 30.7C96.68 30.99 95.91 32.64 96.34 35.52Z" fill="#3C2A44"/>
<path d="M111.28 30.98V31.01C111.69 29.4 112.89 28.03 114.03 27.95C114.75 27.9 115.42 28.42 115.48 29.17C115.53 29.82 115.11 30.3 114.56 30.34C113.79 30.4 113.45 29.55 112.83 29.59C112.26 29.63 111.75 30.3 111.33 31.38L111.9 38.98C111.96 39.8 112.39 40.42 112.94 40.83V40.9L109.4 41.17V41.1C109.94 40.61 110.28 39.93 110.22 39.11L109.63 31.31C109.56 30.36 109.25 29.93 108.52 29.61V29.53C109.44 29.46 110.45 28.91 111.02 28.21H111.07L111.2 29.93C111.23 30.31 111.24 30.76 111.25 30.98H111.28Z" fill="#3C2A44"/>
<path d="M120.26 41.13C117.86 41.07 115.87 38.78 115.95 35.05C116.04 31.05 118.27 27.85 121.07 27.92C123.27 27.97 124.67 30.18 124.6 32.88V33.23L117.8 33.07C117.77 33.32 117.76 33.59 117.76 33.87C117.69 36.89 118.78 39.57 121.1 39.62C122.4 39.65 123.57 38.95 124.22 37.67L124.34 37.72C123.56 39.95 122.03 41.17 120.26 41.12V41.13ZM119.87 22.54C120.31 21.78 121.31 21.85 121.67 22.58L123.85 26.78L123.75 26.85L120.77 23.83H120.72L117.6 26.71L117.5 26.63L119.87 22.54V22.54ZM117.83 32.64L122.8 32.76C122.84 30.11 121.98 28.42 120.58 28.38C119.31 28.35 118.15 29.75 117.83 32.64V32.64Z" fill="#3C2A44"/>
<path d="M130.14 39.8199L129.19 41.7599L128.87 41.7199L126.69 30.9699C126.36 29.3399 126.1 28.8699 125.72 28.5099V28.4399L129.42 28.9499V29.0199C128.73 29.3499 128.28 30.0699 128.52 31.2199L130.04 39.0999L133.37 32.0699C133.98 30.7699 133.65 29.8899 133.27 29.5599V29.4799L135.63 29.8099V29.8799C135.13 30.1199 134.5 30.8599 133.75 32.4499L130.15 39.7699L130.17 39.8199H130.15H130.14Z" fill="#3C2A44"/>
<path d="M137.42 43.52C135.09 42.93 133.66 40.25 134.57 36.64C135.55 32.76 138.43 30.14 141.15 30.82C143.28 31.36 144.16 33.82 143.5 36.44L143.41 36.78L136.82 35.11C136.73 35.35 136.67 35.61 136.6 35.88C135.86 38.81 136.33 41.67 138.58 42.23C139.84 42.55 141.13 42.13 142.06 41.02L142.17 41.1C140.92 43.1 139.15 43.95 137.43 43.51L137.42 43.52ZM136.94 34.71L141.77 35.93C142.39 33.35 141.93 31.51 140.57 31.17C139.33 30.86 137.89 31.96 136.94 34.72V34.71Z" fill="#3C2A44"/>
<path d="M146.87 51.57L143.82 50.18L143.85 50.11C144.47 50.01 144.97 49.71 145.41 48.73L150.65 37.21C151.1 36.23 151.1 35.63 150.65 35.04L150.68 34.97C151.48 35.33 152.58 35.31 153.4 34.97L153.47 35L152.42 37.3C153.73 36.47 155.38 35.82 156.76 36.45C158.65 37.31 159.13 40.17 157.8 43.1C156.25 46.51 152.89 49.05 149.71 47.6C149.1 47.32 148.63 46.95 148.22 46.59L146.94 49.41C146.49 50.39 146.59 50.95 146.9 51.48L146.87 51.55V51.57ZM149.86 47.3C151.75 48.16 154.33 46.42 155.88 42.95C157.15 40.09 156.88 37.97 155.31 37.25C154.44 36.86 153.66 36.96 152.33 37.57L149.09 44.69C148.53 45.92 148.85 46.84 149.86 47.29V47.3Z" fill="#3C2A44"/>
<path d="M162.91 42.93V42.95C164.16 41.87 165.93 41.45 166.91 42.04C167.53 42.41 167.77 43.23 167.38 43.87C167.05 44.43 166.43 44.58 165.96 44.3C165.3 43.9 165.51 43.01 164.97 42.69C164.48 42.39 163.68 42.65 162.72 43.29L158.8 49.83C158.37 50.54 158.36 51.29 158.58 51.94L158.54 52L155.5 50.17L155.54 50.11C156.26 50.02 156.94 49.67 157.37 48.96L161.4 42.25C161.89 41.44 161.88 40.91 161.48 40.23L161.52 40.17C162.31 40.65 163.46 40.78 164.33 40.54L164.37 40.57L163.48 42.05C163.29 42.37 163.03 42.74 162.92 42.94L162.91 42.93Z" fill="#3C2A44"/>
<path d="M164.37 56.3899C162.44 54.9599 162.14 51.9299 164.37 48.9399C166.76 45.7299 170.42 44.4099 172.67 46.0799C174.44 47.3899 174.3 49.9999 172.69 52.1699L172.48 52.4499L167.02 48.3899C166.85 48.5799 166.69 48.7999 166.52 49.0199C164.71 51.4499 164.06 54.2599 165.92 55.6499C166.96 56.4299 168.32 56.5299 169.6 55.8599L169.67 55.9699C167.74 57.3399 165.79 57.4499 164.37 56.3899V56.3899ZM167.29 48.0599L171.28 51.0299C172.84 48.8899 173.12 47.0099 171.99 46.1699C170.97 45.4099 169.22 45.8799 167.28 48.0599H167.29Z" fill="#3C2A44"/>
<path d="M170.49 58.16L175.92 52.52C176.6 51.82 176.67 51.3 176.45 50.56L176.5 50.51C177.17 51.15 178.2 51.56 179.15 51.5L179.19 51.54L178.06 52.71C177.73 53.05 177.42 53.38 177.19 53.57L177.21 53.59C179.01 53.24 181.11 53.32 182.14 54.31C183.13 55.26 183 56.66 181.94 57.76L176.23 63.68C175.66 64.27 175.41 64.93 175.47 65.62L175.42 65.67L172.99 63.33L173.04 63.28C173.82 63.34 174.45 63.11 175.01 62.54L180.32 57.03C181.07 56.26 181.26 55.33 180.5 54.6C180 54.11 178.89 53.68 177.02 53.78L171.68 59.33C171.13 59.91 170.92 60.55 171.01 61.32L170.96 61.37L168.4 58.91L168.45 58.86C169.21 58.93 169.92 58.74 170.49 58.15V58.16Z" fill="#3C2A44"/>
<path d="M180.05 62.99C182.99 60.66 187.12 59.92 189.27 62.64C189.69 63.17 189.94 63.73 190.17 64.26L193.41 61.7C194.13 61.12 194.48 60.44 194.43 59.81L194.49 59.76C195.05 60.47 196.01 60.92 196.91 61L196.94 61.04L183.65 71.56C182.83 72.21 182.49 72.8 182.61 73.5L182.55 73.55C182.01 72.86 181.13 72.41 180.25 72.21L180.2 72.15L181.08 71.45C181.41 71.19 181.82 70.9 182.12 70.66V70.63C180.65 70.74 178.89 70.61 177.94 69.41C176.64 67.76 177.53 64.98 180.06 62.98L180.05 62.99ZM182.33 70.46L188.53 65.56C189.59 64.72 189.7 63.74 189 62.86C187.74 61.27 184.66 61.64 181.69 64.02C179.27 65.96 178.52 67.99 179.59 69.35C180.18 70.1 180.92 70.34 182.32 70.47L182.33 70.46Z" fill="#3C2A44"/>
<path d="M188.26 81.04L186.14 81.43L185.98 81.1399L193.31 72.9799C194.43 71.7399 194.65 71.25 194.71 70.74L194.78 70.7L196.56 73.97L196.49 74.0099C195.82 73.6699 194.97 73.73 194.2 74.61L188.78 80.5299L196.41 79.0099C197.82 78.7199 198.33 77.93 198.37 77.43L198.43 77.3899L199.57 79.47L199.5 79.5099C199.02 79.2599 198.04 79.19 196.32 79.54L188.3 81.02L188.27 81.07V81.0499L188.26 81.04Z" fill="#3C2A44"/>
<path d="M188.48 85.33C189.02 85.69 189.74 85.7 190.58 85.33L197.56 82.25C198.29 81.93 198.99 81.46 199.01 80.65L199.08 80.62C199.45 81.47 200.32 82.18 201.14 82.5L201.16 82.55L191.28 86.91C190.43 87.28 189.92 87.78 189.8 88.33L189.73 88.36L188.41 85.36L188.48 85.33ZM203.4 79.21C204.06 78.92 204.79 79.14 205.04 79.71C205.3 80.3 204.99 81.02 204.33 81.31C203.69 81.59 202.95 81.34 202.69 80.75C202.44 80.18 202.76 79.49 203.4 79.21Z" fill="#3C2A44"/>
<path d="M191.28 93.57C190.51 91.3 191.98 88.63 195.51 87.44C199.3 86.15 203.07 87.15 203.97 89.8C204.68 91.88 203.08 93.96 200.53 94.82L200.2 94.93L198.02 88.49C197.77 88.55 197.51 88.64 197.25 88.72C194.39 89.69 192.24 91.63 192.99 93.83C193.41 95.06 194.46 95.92 195.9 96.09V96.22C193.53 96.26 191.86 95.24 191.29 93.56L191.28 93.57ZM198.42 88.38L200.02 93.09C202.52 92.22 203.82 90.83 203.37 89.5C202.96 88.29 201.25 87.68 198.42 88.38V88.38Z" fill="#3C2A44"/>
<path d="M31.42 123.51C31.31 121.68 31.25 119.84 31.25 118.03C31.25 115.8 31.33 113.56 31.5 111.35L32.49 111.43C32.32 113.61 32.24 115.84 32.24 118.04C32.24 119.83 32.3 121.66 32.41 123.46L31.42 123.52V123.51Z" fill="#3C2A44"/>
<path d="M205.23 123.86L204.24 123.79C204.37 121.89 204.43 119.95 204.43 118.02C204.43 115.83 204.35 113.61 204.18 111.43L205.17 111.36C205.34 113.56 205.42 115.8 205.42 118.02C205.42 119.97 205.36 121.93 205.23 123.85V123.86Z" fill="#3C2A44"/>
<path d="M136.738 82.5918C136.734 82.6045 136.729 82.6109 136.738 82.5918V82.5918ZM99.7997 140.64C99.7892 140.678 99.7617 140.769 99.7807 140.72C99.787 140.693 99.7934 140.665 99.7997 140.64ZM136.738 82.5918C136.734 82.6045 136.729 82.6109 136.738 82.5918V82.5918ZM128.706 78.4853C127.863 79.0964 127.884 79.3184 126.924 79.7984C123.494 81.5261 123.612 86.3833 126.594 87.5569C128.374 88.2569 128.753 89.3459 129.483 89.7096C130.178 90.0606 129.123 91.0312 130.051 93.2304C130.309 93.8416 130.747 94.5373 130.369 96.8633C130.032 98.9357 129.345 101.617 129.138 102.192C128.605 103.677 127.833 107.396 127.763 107.608C126.017 112.824 119.28 122.046 117.127 123.421C115.845 124.239 115.461 124.626 113.837 125.764C113.716 125.599 114.338 123.964 114.386 123.846C115.695 120.632 113.756 120.706 115.255 119.069C117.455 116.673 119.102 114.193 117.541 111.035C116.759 109.452 116.981 108.849 116.676 108.272C116.059 107.092 114.866 107.536 113.832 108.375C111.271 110.458 110.836 110.864 110.654 111.78C110.108 114.539 109.161 115.734 110.975 118.31C111.582 119.17 112.162 120.185 113.494 120.454C115.526 120.871 113.39 123.801 113.039 125.279C112.28 128.439 108.563 129.638 107.085 131.837C105.826 133.702 105.67 133.575 105.365 134.178C105.192 134.527 104.488 134.463 103.646 134.92C99.6094 137.087 99.7997 137.857 99.2372 141.397C99.0194 142.763 99.0871 142.936 99.4128 144.032C99.5333 144.425 97.4631 148.739 97.3531 149.101C96.4734 152.008 96.7991 151.304 95.8666 153.727C94.7141 156.741 93.9042 156.903 94.1643 157.121C94.5576 157.447 96.1245 154.404 97.0613 151.175C97.9262 148.185 97.1966 150.38 99.6052 144.596C99.6644 145.222 100.18 144.56 99.4106 145.956C98.3639 147.847 98.514 148.72 98.2899 149.352C96.6764 153.977 97.0359 153.123 96.4164 154.499C95.0122 157.627 94.6739 157.515 94.934 157.675C95.5599 158.066 97.8945 151.35 97.9008 151.338C98.827 149.103 98.7128 148.024 99.1971 147.058C100.447 144.552 100.576 144.66 100.658 144.036C100.804 142.932 102.583 138.853 103.23 139.249C104.118 139.79 104.517 139.42 104.473 139.794C104.329 141.008 104.209 142 105.304 142.96C106.52 144.03 107.101 143.808 108.603 144.601C111.688 146.225 113.399 143.002 114.953 141.526C115.336 141.164 114.602 140.93 114.171 140.361C112.098 137.633 107.941 136.925 105.67 138.561C105.226 138.885 105.095 139.039 104.856 139.031C104.395 139.014 103.287 138.785 103.566 138.42C104.852 136.747 105.148 134.212 108.408 134.391C110.335 134.501 109.626 135.487 111.974 136.8C113.308 137.546 115.503 137.413 116.442 136.997C117.949 136.324 118.074 135.083 120.085 134.412C122.007 133.77 124.075 130.754 120.607 129.866C118.368 129.289 116.898 128.709 115.194 129.473C113.498 130.228 110.982 129.798 109.958 132.875C109.485 134.296 109.167 133.615 106.704 133.793C107.943 132.116 108.252 131.573 109.172 130.98C110.713 129.989 113.12 127.614 113.156 127.584C113.79 127.062 119.846 122.782 121.929 119.65C123.648 117.071 123.608 116.986 124.181 116.472C127.046 113.905 126.372 113.501 128.146 112.351C130.225 111 130.584 110.668 131.331 110.703C135.469 110.9 134.835 109.276 136.093 109.46C136.769 109.557 137.008 109.183 138.565 108.997C140.434 108.771 141.174 108.367 142.437 107.276C143.659 106.223 143.822 104.878 144.149 103.522C144.507 102.042 143.619 101.427 142.898 100.936C144.094 99.9189 144.995 99.4389 144.701 97.6183C144.526 96.5165 143.519 96.5842 142.94 96.3854C141.893 96.0344 141.661 96.673 140.58 96.5609C138.123 96.3008 134.503 98.4895 133.98 99.8386C133.139 102.019 134.904 106.246 129.041 110.788C128.231 111.416 127.283 111.841 126.48 112.507C126.404 112.11 128.47 109.321 129.176 105.924C129.381 104.943 131.455 98.8109 131.17 96.6921C131.149 96.544 131.267 94.5817 131.295 94.2476C131.491 91.9109 132.851 91.1475 133.868 89.2063C134.001 88.9526 134.088 88.8701 135.615 87.282C136 86.8824 135.921 87.1763 136.869 86.7618C137.804 86.3516 138.059 86.1824 138.605 86.248C140.261 86.4468 140.861 86.6117 142.432 85.7976C144.439 84.7593 144.887 83.1226 145.841 80.4645C146.124 79.6737 145.976 78.8997 145.803 78.1258C145.731 77.8001 145.52 77.5591 145.135 77.5443C144.761 77.5295 144.615 77.2482 143.175 77.2778C140.559 77.3307 140.235 79.107 138.446 80.3313C136.543 81.6297 135.175 83.6195 135.583 85.8906C135.828 87.2482 133.836 86.7978 130.675 92.6912C130.206 92.1203 130.529 90.2615 130.419 89.2867C130.275 88.037 133.788 86.5039 132.244 82.9281C131.692 81.6445 131.68 80.6104 130.553 79.7836C128.975 78.6291 129.186 78.1363 128.702 78.4874L128.706 78.4853ZM135.767 86.7322C135.835 86.8062 135.678 86.9078 135.64 86.8908C135.545 86.8401 135.706 86.6603 135.767 86.7322ZM136.721 82.5834C136.763 82.6066 136.744 82.503 136.562 83.203C135.896 85.7151 136.566 85.4339 136.019 86.2691C135.38 83.85 136.723 82.5961 136.721 82.5834ZM136.987 82.1351C137.214 82.1689 136.423 84.459 136.577 85.0998C136.619 85.2774 136.552 85.3895 136.372 85.529C136.359 84.3237 136.666 83.2283 136.989 82.1351H136.987ZM137.639 84.1059C137.522 84.44 137.404 84.4781 136.706 85.0321C136.594 84.6388 137.112 82.6447 137.243 81.9828C137.313 81.6255 137.634 81.4647 137.865 81.2343C138.085 81.0164 138.201 82.5157 137.636 84.1059H137.639ZM138.41 80.8071C138.69 82.5326 137.552 85.0257 137.865 83.8437C138.632 80.9467 137.605 81.3379 138.41 80.8071ZM139.757 79.7688C139.931 80.1093 140.138 81.101 139.971 82.3804C139.895 82.9788 139.679 82.816 138.552 83.647C138.315 83.8204 138.059 84.0065 138.152 83.7295C139.017 81.1856 138.148 80.805 138.89 80.4244C139.208 80.2615 139.468 80.0184 139.755 79.7667L139.757 79.7688ZM140.629 78.7306C140.755 81.1306 140.037 82.8963 140.123 82.1605C140.426 79.7287 139.191 79.8851 140.629 78.7306ZM141.559 78.0919C140.956 79.5743 141.263 82.2345 140.33 82.5157C140.244 82.4205 140.326 82.3423 140.352 82.2683C141.316 79.4664 140.157 78.7327 141.282 78.1744C141.348 78.1427 141.403 78.0814 141.559 78.0919ZM143.479 77.6183C143.352 77.9587 142.722 79.0329 142.53 80.769C142.492 81.0968 141.166 82.0209 140.963 82.1435C140.736 81.9511 141.064 82.3402 141.261 80.2658C141.462 78.13 141.485 77.5591 143.479 77.6183V77.6183ZM144.018 77.7599C143.09 79.0372 142.807 80.6993 142.688 80.6591C142.621 80.64 142.866 79.2 143.481 77.8953C143.636 77.5654 143.644 77.5696 144.044 77.6521C144.035 77.6881 144.037 77.7325 144.018 77.7599ZM145.143 77.8318C143.504 79.8132 142.339 81.7122 143.359 79.2656C144.175 77.2947 144.223 77.6458 145.143 77.8318ZM145.429 78.3732C145.156 78.7263 144.803 78.9695 144.403 79.1577C145.287 77.3476 145.689 78.0137 145.429 78.3732ZM145.427 79.7244C144.832 80.0035 143.238 80.9149 142.948 80.7331C143.566 80.1051 144.122 79.4347 144.913 79.0287C145.154 78.904 145.283 78.6481 145.526 78.4705C145.651 78.8659 145.803 79.5447 145.427 79.7244V79.7244ZM142.53 81.1433C142.819 80.8727 143.225 80.898 143.57 80.7585C143.853 80.6443 143.944 80.5956 145.632 79.7625C145.699 80.3038 143.498 81.1328 142.532 81.1433H142.53ZM144.596 82.0991C141.582 81.6677 140.686 82.6532 142.1 81.4774C142.278 81.3273 142.544 81.359 143.278 81.1941C145.704 80.6422 146 78.9864 144.94 81.9025C144.875 82.0801 144.775 82.1245 144.594 82.0991H144.596ZM144.581 82.5284C141.208 82.0801 141.352 82.4819 141.174 82.2746C141.151 82.281 141.142 82.3677 141.085 82.3148C141.648 82.0188 144.826 82.0653 144.763 82.3339C144.742 82.429 144.731 82.5474 144.583 82.5284H144.581ZM138.639 83.8246C140.806 81.6699 144.716 82.5157 144.61 82.78C143.521 85.5037 144.405 82.9682 138.639 83.8246ZM139.186 84.1841C137.966 84.3575 138.007 84.4125 137.888 84.3364C138.584 83.3827 143.847 83.8606 143.714 84.2962C143.515 84.9369 142.796 83.6576 139.189 84.182L139.186 84.1841ZM142.826 84.8206C140.434 84.0932 139.332 84.5542 139.129 84.3448C139.072 84.2856 139.106 84.2708 139.045 84.3237C138.95 84.4104 138.871 84.4041 138.878 84.3766C138.89 84.3871 141.65 83.8373 143.397 84.588C143.139 84.92 143.139 84.9158 142.826 84.8206ZM140.762 85.6517C138.804 84.901 137.501 85.4127 136.486 85.7722C136.926 84.8333 137.387 84.7086 138.07 84.6176C140.662 84.2708 142.881 84.8587 142.906 85.0194C142.919 85.0955 141.883 86.0852 140.76 85.6538L140.762 85.6517ZM136.59 86.5123C135.816 86.8443 136.055 86.6159 136.3 86.0894C136.674 85.2795 140.747 85.2055 141.068 85.9266C141.087 85.9794 140.514 86.0873 140.087 86.064C138.053 85.9985 138.937 85.491 136.59 86.5102V86.5123ZM134.539 87.891C134.528 87.8762 134.524 87.8889 134.583 87.8382C134.591 87.853 134.602 87.8445 134.539 87.891ZM113.234 130.38C113.433 130.629 112.373 132.588 111.191 133.677C110.791 134.045 110.669 134.087 110.024 133.985C110.98 133.186 111.24 132.253 111.426 131.866C112.037 130.642 112.075 130.722 113.232 130.38H113.234ZM113.686 130.238C113.811 130.23 113.927 130.149 114.059 130.204C113.72 132.046 112.251 133.619 111.001 133.99C111.927 133.273 113.12 131.666 113.367 130.543C113.409 130.35 113.494 130.251 113.686 130.238V130.238ZM116.12 129.716C114.361 131.716 115.048 133.307 111.692 134.017C110.787 134.218 113.407 133.23 114.006 130.83C114.24 129.898 114.608 130.046 115.543 129.684C115.957 129.523 116.421 129.386 116.12 129.716V129.716ZM115.666 131.348C115.492 131.659 114.879 132.488 114.61 132.596C114.551 132.492 115.382 130.775 116.294 129.699C116.463 129.498 116.668 129.405 116.93 129.42C117.285 129.441 117.334 129.416 117.304 129.426C117.249 129.691 116.583 129.714 115.668 131.351L115.666 131.348ZM119.267 130.099C118.764 130.407 118.049 131.141 117.613 131.253C116.444 131.556 115.68 132.027 115.247 132.226C117.41 128.9 117.296 129.388 119.442 129.889C119.449 130.054 119.337 130.058 119.269 130.099H119.267ZM119.973 130.069C119.533 130.352 119.299 130.38 118.624 130.989C118.522 131.08 118.415 131.124 118.254 131.074C119.148 130.27 119.635 129.851 119.973 130.069ZM120.502 130.405C118.992 130.883 119.637 131.112 118.806 131.029C120.058 129.862 120.432 130.164 120.775 130.251C120.692 130.367 120.591 130.376 120.504 130.403L120.502 130.405ZM122.029 131.422C122.005 131.418 120.8 131.082 119.582 131.027C119.867 130.691 120.954 130.291 121.299 130.45C121.874 130.718 122.504 131.52 122.026 131.422H122.029ZM122.02 131.64C121.967 131.505 122.157 131.534 122.21 131.577C122.272 131.623 122.179 131.797 122.02 131.64ZM121.993 131.979C121.864 131.945 120.994 131.431 121.043 131.452C121.242 131.04 122.532 132.12 121.993 131.979ZM118.895 131.186C118.861 131.251 119.531 131.215 119.605 131.211C120.679 131.131 121.206 131.735 121.813 132.031C121.885 132.067 122.007 132.084 121.974 132.207C121.73 133.078 118.897 131.446 118.895 131.186ZM120.933 132.867C120.007 132.693 119.491 132.342 118.427 131.776C118.04 131.57 117.543 131.437 117.666 131.395V131.391V131.397C118.683 131.08 119.263 131.676 120.242 132.232C121.151 132.75 121.671 132.49 121.713 132.649C121.779 132.92 121.219 132.922 120.935 132.869L120.933 132.867ZM119.024 132.543C118.516 132.207 117.939 131.731 117.156 131.615C117.755 131.469 118.163 131.79 119.373 132.429C120.916 133.241 121.407 132.905 121.398 133.08C121.386 133.372 120.138 133.22 119.024 132.543ZM119.779 134.167C119.605 134.222 117.639 132.44 114.718 132.829C114.71 132.871 116.127 131.642 116.956 131.75C118.303 131.934 118.328 132.385 119.485 132.941C120.595 133.469 120.954 133.222 121.1 133.397C120.745 133.806 120.278 134.011 119.779 134.167V134.167ZM114.118 133.171C114.636 132.514 118.419 133.123 119.326 134.064C119.383 134.123 119.527 134.161 119.468 134.252C119.131 134.791 118.772 133.135 114.118 133.169V133.171ZM117.81 135.165C115.824 135.026 115.283 134.393 113.247 133.827C112.921 133.738 113.158 133.677 113.739 133.338C114.156 133.095 118.903 133.7 119.047 134.457C117.916 135.229 118.26 135.197 117.81 135.163V135.165ZM112.382 134.045C112.75 133.729 113.039 133.806 115.568 134.804C116.886 135.326 117.797 135.212 117.913 135.337C116.85 136.958 113.378 134.258 112.382 134.045V134.045ZM111.828 134.186C111.785 134.283 111.722 134.049 112.225 134.135C112.621 134.203 112.957 134.357 114.488 135.237C115.976 136.091 117.095 135.88 117.22 136.001C115.852 138.077 113.003 134.73 111.83 134.188L111.828 134.186ZM115.778 136.901C115.765 136.906 115.778 136.884 115.778 136.87C115.778 136.88 115.778 136.891 115.778 136.901ZM112.475 136.337C111.587 135.218 111.515 134.931 110.83 134.385C110.335 133.998 111.834 134.248 112.411 134.689C113.841 135.791 114.044 136.214 115.486 136.707C115.596 136.745 115.757 136.722 115.771 136.901C114.555 136.952 113.266 137.333 112.475 136.337V136.337ZM110.502 134.421C110.455 134.277 110.464 134.396 110.504 134.419C110.834 134.18 112.115 136.136 112.559 136.65C111.709 136.527 110.874 134.338 110.502 134.421ZM110.064 134.383C109.846 134.161 109.912 134.277 109.886 134.248C109.819 134.178 110.066 134.258 110.182 134.334C111.107 134.937 111.219 135.601 111.701 136.144C110.798 135.924 110.844 135.18 110.064 134.383V134.383ZM109.772 134.44C109.846 134.417 109.901 134.476 109.922 134.546C109.998 134.664 109.939 134.427 110.221 134.797C110.123 134.751 110.018 134.56 109.944 134.586C109.823 134.398 109.679 134.47 109.77 134.44H109.772ZM109.44 134.218C109.552 134.29 109.531 134.309 109.573 134.311C109.597 134.328 109.643 134.303 109.666 134.336C109.692 134.36 109.7 134.391 109.711 134.404C109.565 134.256 109.383 134.355 109.125 134.222C108.988 134.152 108.964 134.061 108.941 134.116C108.952 134.083 109.222 134.07 109.44 134.218ZM111.771 130.97C111.326 131.573 110.679 133.814 109.671 133.994C110.309 133.233 110.781 131.23 111.771 130.97ZM104.424 135.51C103.784 136.146 103.76 136.688 102.883 137.94C102.652 138.267 102.788 137.88 101.534 137.614C100.817 137.462 103.923 135.172 104.424 135.508V135.51ZM103.107 138.337C103.02 138.263 103.086 138.151 103.217 137.973C103.913 137.03 104.608 135.085 105.329 135.218C104.274 136.242 103.426 138.604 103.107 138.337V138.337ZM109.705 138.16C109.675 138.145 108.48 138.46 107.273 139.249C106.774 139.576 105.957 140.149 105.484 139.813C105.551 139.576 105.913 139.927 106.968 138.87C107.269 138.57 107.763 138.077 108.1 138.064C109.732 137.997 109.652 138.141 109.683 138.138C109.741 138.064 109.741 138.193 109.705 138.162V138.16ZM110.242 138.365C108.909 138.551 107.831 140.154 106.224 140.018C108.265 138.819 108.47 138.542 110.098 138.231C110.424 138.172 110.675 138.303 110.242 138.363V138.365ZM105.934 140.135C108.772 140.49 109.21 137.187 112.103 138.986C108.643 140.371 108.499 142.909 105.934 140.135ZM112.917 139.737C111.35 140.031 110.335 141.196 109.51 141.898C109.14 142.209 108.284 141.805 107.859 141.581C110.569 140.549 111.718 138.086 113.012 139.686C112.98 139.703 112.95 139.731 112.917 139.737V139.737ZM113.153 140.2C110.677 140.955 110.527 142.249 109.567 142.063C110.426 141.205 112.982 139.065 113.456 140.088C113.369 140.156 113.257 140.168 113.153 140.198V140.2ZM114.511 141.272C113.179 141.198 112.24 142.097 110.618 142.12C110.451 142.12 110.218 142.127 110.398 141.968C111.225 141.232 112.136 140.64 113.202 140.31C113.61 140.185 113.612 140.181 113.877 140.503C114.329 141.057 114.972 141.306 114.511 141.272ZM112.593 141.94C112.963 141.623 113.972 141.367 114.585 141.431C114.53 141.575 114.412 141.619 114.35 141.712C113.946 142.342 113.342 142.097 112.593 141.94V141.94ZM111.997 142.114C112.215 141.805 112.232 142.099 113.771 142.258C113.547 142.691 112.578 142.319 111.997 142.114ZM113.044 142.826C112.479 142.757 111.969 142.533 111.434 142.247C111.726 141.991 112.464 142.56 113.433 142.583C113.304 142.852 113.302 142.858 113.044 142.826V142.826ZM109.95 142.292C111.164 142.239 111.168 142.224 111.276 142.292C111.845 142.645 112.46 142.875 113.158 142.962C112.424 144.068 111.828 144.615 109.95 142.289V142.292ZM111.502 144.218C110.142 143.725 109.865 143.158 109.151 142.256C109.859 142.097 110.051 142.687 110.669 143.268C111.466 144.017 111.876 143.945 111.925 144.116C111.823 144.3 111.669 144.279 111.5 144.22L111.502 144.218ZM108.859 144.311C107.7 143 108.076 142.638 107.364 141.712C106.994 141.247 107.732 141.685 107.746 141.691C108.711 142.112 108.876 142.086 109.144 142.482C109.834 143.514 110.633 144.051 111.392 144.296C111.933 144.484 109.544 145.089 108.861 144.311H108.859ZM107.689 143.529C107.269 142.366 106.816 142.332 106.213 140.718C107.336 141.2 107.689 142.907 108.563 144.182C108.15 144.019 107.827 143.916 107.689 143.531V143.529ZM106.023 142.528C105.63 141.361 105.841 141.399 105.442 139.984C105.75 140.196 105.96 140.3 106.067 140.661C106.573 142.344 108.597 144.347 107.072 143.639C106.175 143.222 106.336 143.459 106.021 142.528H106.023ZM105.226 140.073C105.687 140.57 105.378 141.219 106.004 142.879C106.146 143.319 104.968 141.651 105.226 140.073ZM104.811 139.61C105.04 139.71 105.061 140.092 105.052 140.276C104.978 141.638 105.699 142.645 105.672 142.814C104.325 141.943 104.746 140.45 104.811 139.61ZM104.871 139.291C105.49 139.363 106.279 138.206 107.529 138.143C107.023 138.635 106.592 139.107 106.029 139.426C105.167 139.913 104.811 139.236 104.486 139.365C104.456 139.392 104.505 139.251 104.873 139.291H104.871ZM103.987 139.168C103.946 139.246 103.775 139.236 103.987 139.168C103.999 139.151 103.993 139.145 104.001 139.172C104.082 139.238 104.196 139.191 104.238 139.32C104.251 139.32 104.24 139.316 104.253 139.325C104.321 139.246 104.34 139.337 104.352 139.344C104.407 139.329 104.448 139.342 104.475 139.367C104.325 139.312 104.363 139.384 104.35 139.342C103.851 139.242 104.061 139.143 103.987 139.168V139.168ZM99.6898 140.959C99.7701 141.346 99.3091 142.323 99.9414 143.827C99.9879 143.928 100.022 144.076 100.163 144.036C100.316 143.994 100.261 143.85 100.227 143.744C100.13 143.427 100.231 143.759 100.413 142.793C100.728 141.122 100.931 141.078 102.31 139.01C102.384 138.895 102.454 138.8 102.614 138.891C102.79 138.993 102.802 139.039 102.659 139.202C100.728 141.359 100.493 144.239 100.045 144.77C99.9456 144.736 99.0173 142.93 99.6898 140.959V140.959ZM100.132 140.577C100.656 138.669 100.369 137.832 102.071 138.612C102.303 138.718 102.164 138.764 101.335 139.936C99.9139 141.953 100.286 142.683 100.003 143.097C99.8188 142.304 99.9181 141.357 100.132 140.577V140.577ZM107.632 134.146C107.715 134.038 107.797 133.951 107.899 134.038C107.949 134.083 107.903 134.004 108.083 134.08C108.095 134.085 108.127 134.11 108.144 134.106C108.131 134.093 108.144 134.083 108.148 134.095C108.163 134.146 108.112 134.072 107.99 134.08C107.949 134.083 107.913 134.053 107.899 134.059C107.81 134.072 107.833 134 107.808 134.006C107.649 134.3 101.914 135.169 101.054 137.502C100.823 138.132 101.616 137.54 102.94 138.597C103.386 138.957 103.629 139.048 103.653 139.065C103.729 139.122 103.693 139.139 103.731 139.151C103.843 139.09 103.847 139.219 103.879 139.221C103.879 139.223 103.737 139.162 103.731 139.151C103.682 139.181 103.574 139.041 103.551 139.027C103.077 139.177 100.605 136.379 100.058 139.564C100.026 139.748 99.787 140.864 99.6898 140.94C100.233 141.484 98.0615 136.903 105.152 134.696C105.917 134.459 107.457 133.744 107.63 134.15L107.632 134.146ZM110.443 116.4C111.049 116.99 111.396 117.375 112.196 117.768C112.652 117.99 113.606 118.889 113.54 119.221C113.067 119.077 112.5 118.462 111.94 118.136C111.297 117.766 110.65 117.834 110.443 116.402V116.4ZM110.29 114.994C112.699 118.451 112.898 117.121 113.143 118.367C112.189 117.244 109.878 116.91 110.29 114.994V114.994ZM111.081 111.786C111.195 112.994 111.697 114.704 112.346 115.453C112.688 115.848 112.528 115.965 112.862 117.532C112.05 117.248 110.893 115.734 110.428 114.971C110.267 114.709 110.273 114.52 110.464 113.907C111.066 112.019 110.815 111.839 111.079 111.786H111.081ZM111.054 111.776C111.066 111.778 111.088 111.771 111.079 111.786L111.054 111.776ZM111.969 112.465C112.109 114.396 112.578 113.886 112.485 115.396C111.451 114.157 111.054 111.452 111.164 111.255C111.963 109.822 111.872 111.154 111.969 112.465V112.465ZM112.38 110.059C112.642 110.135 112.568 111.101 112.534 111.374C112.306 113.216 112.731 113.956 112.504 114.29C112.062 113.188 112.113 112.492 112.001 111.186C111.957 110.632 111.716 110.494 112.039 110.278C112.153 110.202 112.246 110.02 112.377 110.059H112.38ZM114.367 108.559C114.684 111.164 113.614 110.638 112.769 113.326C112.661 113.694 112.591 113.017 112.587 112.628C112.578 111.651 112.847 110.752 112.557 110.046C112.485 109.866 112.473 109.932 114.046 108.591C114.181 108.475 114.346 108.382 114.367 108.559V108.559ZM114.883 108.064C114.915 108.781 115.002 109.428 114.545 110.006C114.606 109.509 114.555 109.018 114.479 108.532C114.433 108.242 114.691 108.242 114.883 108.067V108.064ZM115.059 109.232C114.949 107.978 114.993 107.995 115.158 107.927C115.319 107.861 115.505 107.696 115.651 107.811C115.879 107.988 115.338 108.868 115.059 109.232ZM116.393 109.189C115.928 109.606 115.078 109.987 114.75 110.067C115.403 109.01 115.71 108.606 115.795 108.016C115.873 107.447 116.869 108.76 116.393 109.189V109.189ZM114.13 111.054C114.636 109.896 115.67 110.122 116.509 109.215C116.653 109.276 116.636 109.392 116.655 109.483C116.801 110.181 115.131 110.228 114.128 111.054H114.13ZM116.484 110.507C114.532 110.995 114.052 111.738 113.773 111.685C114.733 110.458 115.499 110.655 116.526 109.991C116.814 109.801 117.085 110.357 116.484 110.505V110.507ZM117.395 112.3C114.67 114.709 113.733 113.977 112.697 115.258C112.504 113.691 113.156 112.046 114.868 111.228C115.234 111.052 116.801 110.431 116.934 110.519C117.051 110.598 117.51 111.784 117.516 111.797C117.607 112.012 117.562 112.154 117.398 112.3H117.395ZM117.634 112.621C116.588 114.061 113.891 114.531 112.972 115.592C112.648 115.965 112.661 115.527 112.813 115.318C113.247 114.736 113.735 114.626 114.843 114.159C116.748 113.359 117.495 112.156 117.662 112.285C117.784 112.38 117.717 112.511 117.636 112.621H117.634ZM117.531 114.049C115.651 115.696 115.169 114.7 112.853 116.362C112.299 115.468 115.319 114.438 115.951 114.057C117.768 112.958 117.3 113.03 117.784 112.691C117.846 113.032 117.831 113.323 117.812 113.613C117.799 113.81 117.662 113.932 117.529 114.049H117.531ZM113.287 118.069C113.029 117.633 112.923 117.17 112.862 116.692C112.788 116.121 114.687 115.497 115.319 115.349C116.873 114.979 117.537 114.142 117.71 114.068C117.721 114.184 117.698 115.239 117.294 115.457C116.27 116.007 114.879 115.544 113.287 118.069ZM113.445 118.496C113.211 117.997 114.388 116.343 116.218 115.931C116.607 115.842 116.994 115.736 117.4 115.542C117.256 116.242 114.852 115.544 113.445 118.496ZM113.741 119.079C113.496 118.86 113.562 118.506 113.712 118.267C114.904 116.352 115.949 116.248 117.22 115.905C116.928 117.441 115.188 115.948 113.741 119.079V119.079ZM115.422 118.257C114.498 118.68 114.27 119.323 114.082 119.532C113.418 119.103 114.868 116.984 116.653 116.851C116.442 117.274 115.867 118.05 115.422 118.255V118.257ZM114.388 119.987C113.86 119.551 114.928 118.621 115.374 118.475C114.936 118.927 114.566 119.382 114.388 119.987V119.987ZM114.293 120.426C113.139 119.714 113.054 120.689 111.174 117.997C111.568 118.024 111.864 118.225 112.147 118.437C114.109 119.898 113.995 119.363 114.293 120.426ZM128.503 82.2281C128.476 81.1497 129.199 80.4011 129.647 79.5341C130.218 79.716 129.375 80.5385 128.503 82.2281ZM128.527 82.8096C128.673 81.7502 129.732 80.6739 129.96 79.7984C130.806 80.0458 130.498 80.3186 128.527 82.8096ZM130.049 82.9619C128.99 84.1926 129.214 85.1569 129.015 85.3218C127.611 83.2304 128.994 82.7589 130.474 80.3757C130.665 80.067 131.085 80.7881 131.225 81.1074C131.377 81.4521 130.614 82.3085 130.049 82.9619V82.9619ZM129.819 84.8185C129.425 85.5459 129.48 85.842 129.349 85.8314C129.184 85.8166 129.195 85.4867 129.205 85.3197C129.343 83.3362 130.529 82.9365 131.35 81.4225C131.498 81.7164 131.546 81.9786 131.616 82.2323C131.773 82.7948 130.311 83.9092 129.819 84.8206V84.8185ZM131.773 82.7314C131.61 83.5138 130.07 84.6938 129.563 86.0936C129.504 85.9181 129.563 85.7616 129.614 85.6073C130.119 84.0699 131.123 83.721 131.631 82.6764C131.692 82.5559 131.794 82.6278 131.773 82.7314V82.7314ZM132.17 84.2412C131.646 85.2816 130.904 86.1423 130.081 86.8951C129.958 86.9056 129.958 86.838 129.929 86.8041C129.091 85.8801 131.009 84.4146 131.866 82.9111C132.018 83.1818 132.333 83.9156 132.17 84.2412ZM132.145 85.2034C131.413 86.2226 131.639 85.9477 130.343 87.1594C130.193 87.299 130.098 87.1044 130.178 87.0093C130.569 86.5314 131.424 85.9033 132.181 84.4781C132.318 84.2074 132.46 84.7635 132.145 85.2034V85.2034ZM130.421 88.2082C130.1 87.2609 130.17 87.54 131.502 86.2459C131.775 85.9816 131.961 85.6432 132.208 85.3429C132.346 85.8631 131.136 87.7536 130.421 88.2082ZM136.308 105.189C135.266 106.531 135.315 107.658 135.367 108.536C135.408 109.244 133.843 109.875 133.325 109.991C132.31 110.221 132.27 109.864 131.388 109.801C131.271 109.604 132.303 108.826 133.001 106.832C133.424 105.626 134.949 105.315 136.308 105.189V105.189ZM135.854 109.09C136.175 108.646 136.558 108.86 136.947 108.957C136.664 109.183 136.283 109.227 135.854 109.09ZM132.572 110.316C132.572 110.316 132.574 110.319 132.574 110.321C132.574 110.321 132.572 110.321 132.57 110.316H132.572ZM137.945 108.703C137.406 108.995 137.146 108.961 136.507 108.65C136.467 108.663 136.469 108.686 136.444 108.659C136.444 108.659 136.452 108.644 136.461 108.64C136.651 108.477 137.7 108.657 137.947 108.701L137.945 108.703ZM136.704 102.241C136.835 102.116 137.004 102.131 137.161 102.108C138.738 101.886 139.77 102.585 140.994 102.38C141.026 103.19 138.687 102.074 136.757 102.268C136.742 102.268 136.719 102.251 136.702 102.239C136.55 102.391 136.596 102.127 136.702 102.239L136.704 102.241ZM134.266 104.994C135.351 103.393 139.013 104.628 138.897 104.366C138.888 104.362 138.903 104.341 138.897 104.366C138.897 104.366 138.899 104.366 138.901 104.366C138.916 104.366 138.909 104.4 138.895 104.391C138.888 104.387 138.903 104.366 138.886 104.387C138.44 105.157 137.44 103.736 134.266 104.992V104.994ZM137.446 104.677C137.446 104.677 137.421 104.647 137.44 104.658C137.472 104.694 137.41 104.681 137.446 104.677ZM135.145 104.199C135.993 103.023 135.932 103.099 136.165 103.038C137.645 102.634 138.176 103.11 140.354 103.372C139.599 105.248 137.376 103.497 135.143 104.201L135.145 104.199ZM136.156 102.89C136.499 101.689 139.313 102.856 140.751 102.772C140.371 103.99 138.937 102.435 136.156 102.89ZM137.323 101.972C137.328 101.985 137.338 101.995 137.326 102C137.326 101.991 137.326 101.983 137.323 101.972ZM137.605 101.828C139.17 101.587 139.696 102.01 141.136 102.053C141.225 102.057 141.282 102.122 141.17 102.226C140.834 102.539 137.861 101.769 137.387 101.964C137.275 102.027 137.357 101.869 137.605 101.828ZM142.242 101.475C142.388 101.611 142.022 101.873 142.012 103.093C142.012 103.427 141.925 103.455 141.24 104.402C141.081 104.22 141.534 101.945 142.242 101.475V101.475ZM140.616 105.047C140.916 103.34 140.646 103.478 141.371 102.569C141.496 102.602 141.443 102.569 141.392 102.723C140.891 104.199 141.274 104.618 140.616 105.045V105.047ZM140.231 105.411C140.385 104.854 140.379 104.262 140.612 103.643C140.692 104.11 140.47 105.138 140.231 105.411V105.411ZM139.542 106.043C139.434 105.948 139.483 105.84 139.493 105.747C139.592 104.878 139.603 104.415 140.364 104.04C140.005 105.952 140.041 105.658 139.542 106.043ZM139.129 106.324C139.151 105.709 139.256 105.144 139.544 104.618C139.18 106.481 139.514 106.077 139.129 106.324ZM138.998 106.407C138.996 106.538 138.799 106.607 138.816 106.423C138.848 105.946 138.956 104.986 139.322 104.662C139.121 105.432 138.998 105.728 139 106.407H138.998ZM138.624 106.726C138.061 107.054 137.875 107.341 137.981 106.789C138.085 106.237 138.26 105.709 138.459 105.184C138.55 104.943 138.681 104.789 139.013 104.823C138.819 105.415 138.683 105.992 138.681 106.595C138.681 106.648 138.67 106.701 138.624 106.728V106.726ZM137.742 107.206C137.569 106.939 137.998 105.544 138.114 105.146C138.159 104.996 138.231 104.895 138.446 104.954C138.104 105.671 137.899 106.426 137.742 107.206ZM137.541 107.305C137.507 107.443 137.3 107.536 137.334 107.278C137.378 106.923 137.666 105.142 138.015 105.057C137.4 107.238 137.609 107.049 137.539 107.305H137.541ZM136.972 107.735C136.492 108.064 136.287 108.616 136.499 107.595C136.662 106.804 136.947 106.053 137.258 105.311C137.359 105.068 137.516 104.983 137.778 105.041C137.694 105.474 137.41 105.635 137.205 107.326C137.182 107.504 137.127 107.629 136.972 107.732V107.735ZM137.101 105.322C137.108 105.301 137.106 105.313 137.101 105.322V105.322ZM136.3 108.28C136.292 108.513 135.921 108.87 136.133 107.696C136.393 106.246 137.095 105.337 137.101 105.324C136.996 105.798 136.344 106.912 136.3 108.28V108.28ZM135.549 109.056C135.917 108.528 135.367 108.202 135.822 106.768C136.336 105.159 137.275 104.77 136.945 105.301C135.359 107.832 136.418 108.695 135.549 109.056ZM135.291 109.34C135.291 109.34 135.304 109.291 135.321 109.278C135.448 109.179 135.372 109.422 135.291 109.34ZM133.991 105.377C133.314 105.618 135.687 104.129 137.438 104.649C137.315 104.895 136.239 104.531 133.991 105.377ZM134.198 103.562C134.152 103.945 133.733 105.618 133.371 105.573C133.727 104.372 134.02 103.924 133.959 101.981C133.913 100.674 134.338 102.488 134.198 103.562V103.562ZM135.063 99.035C135.099 99.6694 134.887 100.147 134.761 101.325C134.547 103.326 135.475 103.67 134.993 104.076C134.462 104.522 133.83 105.18 134.014 104.753C134.993 102.444 133.547 101.596 134.367 99.7815C134.507 99.4749 134.714 99.2254 135.065 99.035H135.063ZM136.07 98.3013C136.059 99.0266 135.907 99.2592 135.592 100.596C135.046 102.905 135.539 103.427 135.401 103.617C135.291 103.774 135.228 103.626 135.154 103.438C134.682 102.258 134.866 101.327 135.082 100.088C135.342 98.5952 134.835 99.1831 136.07 98.3013V98.3013ZM136.97 97.7472C137.14 97.8826 136.552 99.6314 136.412 99.9697C135.507 102.16 136.133 102.831 135.537 103.368C135.321 102.241 135.592 100.945 135.911 99.8428C136.344 98.3414 136.046 98.2357 136.402 98.0475C136.592 97.946 136.755 97.7959 136.972 97.7451L136.97 97.7472ZM139.537 96.9331C138.197 99.0964 138.467 100.01 138.133 100.253C136.412 101.513 135.919 103.417 135.957 102.499C136.044 100.566 136.816 99.8597 137.112 97.9502C137.148 97.7092 137.254 97.5654 137.484 97.4766C137.744 97.3751 139.29 96.7999 139.54 96.9331H139.537ZM140.051 97.1023C138.766 98.7919 138.983 99.6166 138.429 99.9782C138.673 98.8638 139.019 97.8614 139.656 96.9754C139.802 96.7703 139.986 96.7745 140.214 96.8485C140.197 96.967 140.106 97.0283 140.051 97.1023ZM141.948 98.1554C141.912 98.2061 141.813 98.2082 141.743 98.2315C142.145 97.6309 142.568 97.0875 143.215 96.7724C142.792 97.2313 142.325 97.6521 141.948 98.1554V98.1554ZM142.259 98.0454C142.773 97.337 143.581 96.341 144.154 97.0875C144.632 97.7134 144.16 97.6034 142.259 98.0454ZM139.186 99.4981C138.899 99.6821 138.956 99.6737 138.882 99.5912C139.062 99.0562 140.039 96.7534 140.618 96.8549C141.576 97.0219 142.071 96.286 142.885 96.7026C142.982 96.8401 142.794 96.6455 141.809 97.8487C141.153 98.6502 140.984 98.3626 139.184 99.4981H139.186ZM144.289 98.0348C144.035 98.0665 143.784 98.0581 143.458 97.9777C144.369 97.6183 144.395 97.5675 144.414 97.7367C144.429 97.8509 144.492 98.0073 144.289 98.0348ZM144.3 98.407C138.764 99.0604 142.762 98.0179 143.208 98.0814C144.348 98.2505 144.429 98.0391 144.429 98.2505C144.429 98.3372 144.393 98.3964 144.302 98.407H144.3ZM140.842 98.8088C141.113 98.3711 140.791 99.0858 144.16 98.5423C144.249 98.5296 144.397 98.4937 144.393 98.5825C144.371 98.8659 141.845 99.1577 140.842 98.8088ZM139.294 99.8069C138.838 99.8407 140.015 99.1725 140.413 98.9462C140.755 98.7559 141.195 99.4114 143.822 98.9124C144.327 98.8151 144.228 98.832 144.308 98.849C144.196 100.693 142.109 99.606 139.292 99.809L139.294 99.8069ZM138.478 100.249C138.795 99.5975 141.815 100.029 143.348 100.075C142.65 101.027 141.445 99.9337 138.478 100.249V100.249ZM141.832 100.94C139.753 100.323 138.245 100.78 137.753 100.832C138.379 99.7921 141.187 100.553 142.718 100.596C142.437 100.871 142.24 101.061 141.834 100.938L141.832 100.94ZM141.43 101.86C141.126 102.218 139.121 101.315 137.205 101.78C137.099 101.805 136.994 101.856 136.843 101.828C137.072 101.458 137.279 101.122 137.734 100.997C139.258 100.583 141.145 100.782 142.056 101.12C141.834 101.382 141.635 101.623 141.428 101.86H141.43ZM142.756 101.329C142.382 102.144 142.671 102.414 142.155 103.049C142.168 101.145 142.923 100.953 142.756 101.329ZM142.695 102.171C142.633 101.592 142.908 101.008 143.251 101.532C143.331 101.651 143.09 101.718 142.695 102.171ZM143.545 101.966C142.122 103.245 142.68 102.37 143.301 101.733C143.435 101.598 143.678 101.847 143.545 101.966ZM143.54 102.11C143.693 101.989 143.735 102.006 143.805 102.19C143.864 102.349 143.862 102.478 143.71 102.594C141.921 103.977 141.159 103.996 143.54 102.11ZM143.678 103.258C143.208 103.607 142.212 103.96 141.716 104.116C141.771 103.605 142.369 103.918 143.754 102.717C143.779 102.695 143.817 102.691 143.851 102.681C143.946 103.057 143.946 103.059 143.678 103.26V103.258ZM143.462 104.586C140.834 104.747 140.548 105.516 141.451 104.372C141.51 104.298 142.515 104.011 143.217 103.67C143.617 103.478 143.985 103.049 143.862 103.529C143.621 104.518 143.614 104.577 143.462 104.588V104.586ZM140.654 105.436C140.637 105.44 140.612 105.415 140.586 105.402C140.631 105.176 143.507 104.506 143.536 104.785C143.574 105.127 142.308 105.011 140.654 105.436V105.436ZM140.354 106.715C138.943 106.785 138.829 106.815 139.184 106.527C140.561 105.423 140.026 105.635 143.469 105.072C143.312 105.535 143.219 105.971 142.69 106.176C141.933 106.47 141.164 106.673 140.354 106.715V106.715ZM142.191 106.846C140.722 107.147 138.628 107.145 138.632 106.952C138.639 106.667 140.696 107.25 142.891 106.229C142.771 106.574 142.555 106.772 142.193 106.846H142.191ZM141.453 107.422C138.869 107.618 137.884 107.214 138.309 107.134C138.575 107.081 140.056 107.445 142.147 106.967C142.481 106.897 142.062 107.375 141.453 107.422ZM139.36 108.502C137.503 107.94 136.983 108.352 136.71 108.212C136.983 107.773 137.907 107.297 138.095 107.354C139.768 107.87 141.4 107.441 141.534 107.576C141.553 107.796 139.808 108.637 139.358 108.504L139.36 108.502ZM136.92 108.437C136.814 108.437 136.846 108.31 136.791 108.377C136.772 108.403 136.647 108.502 136.621 108.511C136.611 108.496 136.588 108.47 136.592 108.466C136.624 108.418 136.605 108.53 136.628 108.504C136.659 108.473 136.803 108.369 136.814 108.341C136.879 108.445 137.664 108.132 139.079 108.532C139.015 108.946 137.681 108.449 136.922 108.437H136.92ZM132.815 110.448C132.862 110.346 132.961 110.342 133.067 110.325C134.198 110.147 134.93 109.543 134.56 109.881C134.039 110.361 132.874 110.414 132.815 110.448ZM132.667 110.365C132.638 110.374 132.623 110.374 132.597 110.333C132.618 110.355 133.001 110.536 132.667 110.365ZM114.133 123.321C114.128 123.309 114.128 123.321 114.217 123.281C114.19 123.296 114.16 123.309 114.133 123.321ZM126.16 86.9416C127.319 86.6096 130.144 88.6967 130.14 89.1492C130.136 89.9422 130.216 89.7794 130.1 89.9316C130.02 90.0585 130.195 89.8449 130.155 90.3503C130.094 91.1666 130.068 92.7293 130.66 93.2981C130.749 93.3848 130.872 93.3467 130.884 93.2241C130.965 92.4227 131.288 92.2175 133.282 89.2275C133.534 88.849 133.938 88.3668 134.262 88.1744C133.416 89.2677 132.731 90.4751 131.902 91.5853C131.352 92.3212 131.058 93.1797 130.999 94.1101C130.882 95.9096 130.791 95.5015 130.836 95.5459C130.768 95.5988 130.923 95.4021 130.878 96.0196C130.8 97.0981 130.98 97.3476 130.842 98.0052C129.438 104.888 129.345 103.558 128.861 105.85C128.258 108.724 127.827 108.652 126.691 111.217C126.027 112.719 125.735 112.774 125.74 113.323C125.748 113.992 126.285 112.858 127.949 111.854C130.948 110.035 131.436 108.608 131.8 108.502C131.654 108.991 131.126 109.397 130.933 109.79C130.679 110.308 131.132 109.987 131.986 110.202C132.181 110.251 132.363 110.361 132.574 110.304C132.479 110.72 131.286 109.917 129.806 110.925C124.964 114.214 128.224 112.101 123.775 116.487C123.263 116.99 123.335 116.992 121.697 119.462C119.664 122.516 113.306 127.062 113.003 127.307C112.405 127.794 113.217 127.229 109.846 130.145C109.271 130.646 108.419 130.957 107.62 132.05C106.213 133.971 106.247 134.083 105.784 134.144C105.826 133.825 105.981 134.015 107.391 131.917C108.622 130.084 111.128 129.407 113.014 126.392C113.236 126.041 113.403 124.666 114.061 123.565C114.179 123.372 114.105 123.237 114.19 123.374C114.249 123.444 114.223 123.368 113.57 125.322C113.179 126.485 113.187 126.732 115.179 125.182C118.981 122.22 117.294 124.766 124.355 115.019C125.008 114.116 125.004 113.916 126.643 110.868C128.402 107.597 128.182 106.973 128.455 105.939C128.459 105.927 129.882 100.382 130.161 99.6419C130.347 99.1513 130.343 98.5085 130.457 98.0243C130.796 96.6498 130.77 95.7214 130.777 95.6665C130.791 95.5544 130.846 95.5629 130.827 95.5417C130.827 95.5417 130.791 95.4656 130.863 95.4423C130.863 95.4402 130.821 95.3958 130.81 95.3641C130.762 95.1991 131.013 94.6747 130.316 93.0317C129.537 91.1898 130.161 89.8365 130.161 89.8238C128.413 88.6058 128.531 87.9756 126.848 87.3159C126.624 87.2292 126.412 87.1171 126.16 86.9416V86.9416ZM125.439 86.2353C126.757 86.6582 128.789 86.8633 129.954 88.2505C130.064 88.3795 130.218 88.5614 130.094 88.6798C129.815 88.9399 128.721 86.8655 126.15 86.7872C125.801 86.7766 125.664 86.5292 125.439 86.2353V86.2353ZM125.033 85.4487C126.338 86.6075 128.842 86.1888 130.009 88.001C129.776 88.1258 129.512 87.2419 127.444 86.6392C125.714 86.1338 125.169 86.2818 125.033 85.4487V85.4487ZM124.964 83.0253C125.357 83.2812 125.516 83.5265 126.539 84.4146C127.793 85.4952 128.842 85.3154 128.983 85.5798C129.366 86.303 129.897 86.6096 129.996 87.7388C127.913 85.7722 126.262 86.5039 125.033 85.2837C124.532 84.7847 124.503 82.7208 124.966 83.0253H124.964ZM126.516 83.4313C127.708 85.0088 128.683 85.0004 128.747 85.2922C127.438 85.0871 126.734 84.4611 125.776 83.554C124.97 82.7906 124.729 82.9069 124.873 82.5961C125.143 82.0209 125.029 81.4647 126.516 83.4313ZM125.606 81.6276C126.45 82.2197 126.937 83.6195 128.434 84.8037C128.444 84.7931 128.438 84.7974 128.442 84.8101C128.512 84.8524 128.563 84.8714 128.533 84.9179C128.413 84.8312 128.463 84.8354 128.432 84.8016C128.028 85.2309 125.867 82.3783 125.363 81.9807C125.173 81.8306 125.412 81.488 125.606 81.6233V81.6276ZM127.203 80.27C127.677 80.8029 128.347 81.7819 128.29 82.4438C128.18 83.812 128.47 84.3977 128.442 84.5648C127.981 84.6134 126.347 81.9701 125.659 81.5282C125.367 81.34 126.503 80.3778 126.803 80.2023C126.962 80.1114 127.078 80.1304 127.201 80.27H127.203ZM127.791 79.8576C128.004 80.2488 128.624 81.469 128.3 81.7798C127.765 80.325 126.905 80.16 127.336 79.9338C127.526 79.8323 127.683 79.661 127.791 79.8555V79.8576ZM128.009 79.6589C128.288 80.0691 128.518 80.5005 128.487 81.0186C128.294 80.583 128.095 80.1579 127.85 79.7583C127.772 79.6335 127.945 79.5637 128.009 79.6589ZM129.1 78.8003C129.542 79.4263 129.675 79.2211 129.394 79.7646C129.387 79.7773 128.962 80.5005 128.912 80.4963C128.96 80.4815 128.943 80.4836 128.954 80.4709C128.745 80.3186 129.193 79.9782 129.085 79.1175C129.079 79.0689 129.085 79.0139 128.996 78.9695C128.928 79.2402 129.007 79.5193 128.918 79.7752C128.423 81.2068 128.825 80.4793 128.078 79.5637C127.994 79.4622 128.045 79.4305 128.814 78.7496C128.926 78.6502 129.019 78.6861 129.102 78.7982L129.1 78.8003ZM136.744 82.5961C136.744 82.5961 136.744 82.5897 136.746 82.5876C136.742 82.6024 136.731 82.6024 136.746 82.5982L136.744 82.5961ZM136.744 82.5855C136.74 82.5982 136.736 82.6045 136.744 82.5855V82.5855Z" fill="#BC90CC"/>
<path d="M101.702 137.434H94.3899V137.266C95.1132 136.959 95.6355 136.486 95.9567 135.845C96.2764 135.204 96.4378 134.438 96.4378 133.547V110.064C96.4378 109.257 96.2714 108.566 95.937 107.996C95.6025 107.426 95.0868 106.986 94.3915 106.68V106.512C95.9798 106.289 97.4972 106.093 98.9454 105.927C100.394 105.761 101.717 105.677 102.914 105.677C105.004 105.677 106.814 106.088 108.347 106.909C109.879 107.731 111.068 108.873 111.918 110.334C112.769 111.797 113.194 113.489 113.194 115.41C113.194 117.193 112.9 118.732 112.316 120.027C111.731 121.322 110.95 122.403 109.976 123.264C109.001 124.128 107.935 124.769 106.78 125.187C105.623 125.606 104.503 125.813 103.415 125.813C102.774 125.813 102.114 125.744 101.43 125.604C100.748 125.466 100.142 125.27 99.6127 125.019V133.544C99.6127 134.435 99.7808 135.201 100.114 135.842C100.448 136.483 100.977 136.956 101.702 137.262V137.43V137.434ZM99.6127 124.439C100.086 124.579 100.56 124.676 101.033 124.732C101.506 124.788 101.965 124.816 102.412 124.816C104.585 124.816 106.34 124.05 107.678 122.518C109.015 120.986 109.683 118.786 109.683 115.916C109.683 114.05 109.417 112.413 108.889 111.006C108.36 109.599 107.6 108.499 106.612 107.705C105.623 106.911 104.473 106.513 103.165 106.513C101.967 106.513 101.076 106.827 100.491 107.454C99.906 108.082 99.6127 108.993 99.6127 110.191V124.439V124.439Z" fill="#3C2A44"/>
<path d="M124.45 107.599L128.712 128.659H128.796L133.1 107.599H142V137.434H136.484V113.616H136.4L131.093 137.434H126.414L121.107 113.616H121.023V137.434H115.507V107.599H124.448H124.45Z" fill="#3C2A44"/>
<path d="M98.1019 92.1681C98.237 92.1681 98.3589 92.1434 98.466 92.0923C98.5731 92.0429 98.6604 91.972 98.7312 91.8831H98.7757L99.1036 93.7283L99.0509 93.7547C98.9026 93.5059 98.7526 93.2769 98.5978 93.0677C98.4445 92.8584 98.2897 92.6887 98.1365 92.5619C97.9832 92.435 97.8316 92.3707 97.6834 92.3707C97.5532 92.3707 97.456 92.407 97.3901 92.4778C97.3242 92.5487 97.2929 92.6574 97.2929 92.8057V98.0384C97.2929 98.1916 97.3225 98.3317 97.3819 98.4552C97.4412 98.5788 97.5466 98.6892 97.7015 98.7831V98.8194H95.9007V98.7831C96.0539 98.6892 96.1627 98.5788 96.2236 98.4552C96.2862 98.3317 96.3175 98.1916 96.3175 98.0384V92.8057C96.3175 92.6574 96.2846 92.5487 96.2203 92.4778C96.1561 92.407 96.049 92.3707 95.9007 92.3707C95.7639 92.3707 95.619 92.4366 95.4657 92.5652C95.3125 92.6937 95.1576 92.8634 95.0044 93.071C94.8512 93.2786 94.7062 93.5059 94.5694 93.7547L94.5068 93.7283L94.8265 91.8831H94.8891C94.9599 91.977 95.0456 92.0495 95.1461 92.0956C95.2466 92.1434 95.3652 92.1664 95.5003 92.1664H98.0986L98.1019 92.1681Z" fill="#3C2A44"/>
<path d="M101.153 98.8194H99.2471V98.7831C99.3772 98.7189 99.4876 98.6118 99.5799 98.4635C99.6721 98.3152 99.7166 98.1406 99.7166 97.9396V93.043C99.7166 92.8782 99.6787 92.7134 99.6013 92.5503C99.5239 92.3872 99.4069 92.2702 99.2471 92.1994V92.1648H101.153V92.1994C100.994 92.2702 100.873 92.3872 100.794 92.5503C100.715 92.7134 100.674 92.8765 100.674 93.043V94.595H102.829V93.043C102.829 92.8782 102.788 92.7134 102.705 92.5503C102.623 92.3872 102.508 92.2702 102.359 92.1994V92.1648H104.257V92.1994C104.104 92.2702 103.987 92.3872 103.906 92.5503C103.826 92.7134 103.786 92.8765 103.786 93.043V97.9396C103.786 98.1406 103.831 98.3152 103.92 98.4635C104.009 98.6118 104.121 98.7172 104.257 98.7831V98.8194H102.359V98.7831C102.483 98.7189 102.593 98.6118 102.687 98.4635C102.781 98.3152 102.829 98.1406 102.829 97.9396V94.8438H100.674V97.9396C100.674 98.1406 100.72 98.3152 100.811 98.4635C100.903 98.6118 101.017 98.7172 101.152 98.7831V98.8194H101.153Z" fill="#3C2A44"/>
<path d="M107.849 92.1681C108.002 92.1681 108.136 92.1434 108.248 92.0923C108.36 92.0429 108.449 91.972 108.513 91.8831H108.549L108.798 93.7366L108.745 93.7547C108.567 93.4829 108.386 93.2423 108.2 93.0314C108.014 92.8222 107.806 92.6591 107.579 92.5437C107.351 92.4284 107.093 92.3707 106.803 92.3707C106.538 92.3707 106.35 92.4301 106.239 92.5487C106.131 92.6673 106.075 92.8568 106.075 93.1171V95.0415H107.183C107.407 95.0415 107.608 94.9854 107.786 94.8734C107.964 94.7614 108.121 94.5752 108.256 94.3149H108.3V96.0448H108.256C108.114 95.8142 107.956 95.6313 107.781 95.4945C107.607 95.3578 107.411 95.2902 107.192 95.2902H106.075V97.872C106.075 98.1208 106.139 98.307 106.269 98.4305C106.399 98.5541 106.594 98.6167 106.854 98.6167C107.178 98.6167 107.47 98.5492 107.727 98.4124C107.984 98.2757 108.218 98.0944 108.427 97.8671C108.637 97.6397 108.836 97.3843 109.025 97.0993L109.062 97.1174L108.679 99.1044H108.635C108.564 99.0039 108.478 98.9314 108.378 98.8869C108.277 98.8424 108.151 98.821 107.997 98.821H104.636V98.7848C104.766 98.7139 104.877 98.6167 104.969 98.4915C105.061 98.3679 105.106 98.1834 105.106 97.9412V93.0446C105.106 92.8436 105.068 92.669 104.99 92.5207C104.913 92.3724 104.796 92.2669 104.636 92.201V92.1664H107.847L107.849 92.1681Z" fill="#3C2A44"/>
</g>
<defs>
<clipPath id="clip0_1093_128">
<rect width="184.39" height="192.05" fill="white" transform="translate(26 22)"/>
</clipPath>
</defs>
</svg>
