<svg width="236" height="236" viewBox="0 0 236 236" fill="none" xmlns="http://www.w3.org/2000/svg" class="rotate">
<circle cx="118" cy="118" r="118" fill="#F8ECFD"/>
<g clip-path="url(#clip0_205_405)">
<path d="M192.7 139.62L192.77 139.65C192.84 140.5 193.42 141.12 194.43 141.48L207.87 146.22C209 146.62 209.75 146.38 210.31 145.84L210.38 145.86L208.98 149.82L208.91 149.79C208.81 149.01 208.38 148.36 207.25 147.96L194.16 143.34C192.72 142.83 191.93 142.98 191.45 144.32C190.78 146.21 191.77 147.93 193.24 149.91L193.16 149.99L188.97 147.88L189 147.81C189.56 147.72 189.98 147.28 190.24 146.55L192.69 139.62H192.7Z" fill="#3C2A44"/>
<path d="M185.7 155.36C186.08 154.6 186.92 154.32 188.06 154.89C188.17 154.95 188.31 155.01 188.44 155.08V155.06C187.76 153.59 187.48 151.86 188.06 150.7C188.65 149.52 190.18 149.08 191.59 149.79C193.49 150.74 194.54 153.56 193.38 157.59C194.46 158.16 195.42 158.64 196.03 158.94C197.15 159.5 198.01 159.34 198.42 158.52C199.45 156.46 196.24 155.33 196.96 153.9C197.16 153.5 197.64 153.37 198.07 153.59C199.3 154.21 199.68 156.97 198.73 158.87C197.9 160.52 196.46 161.06 195.03 160.34C193.17 159.41 189.52 157.5 187.49 156.48C186.75 156.11 186.28 156.1 186.04 156.59C185.89 156.88 185.88 157.18 185.99 157.57H185.9C185.51 156.91 185.38 156 185.7 155.36ZM188.65 152.14C188.3 152.83 188.23 153.81 188.73 155.22C190.05 155.88 191.69 156.73 193.14 157.46C193.94 153.86 192.76 152.35 191.29 151.61C190.11 151.02 189.13 151.17 188.65 152.13V152.14ZM199.73 159.71L199.71 159.59C202.07 158.62 203.29 157.8 204.16 157.57C204.7 157.45 205.36 157.69 205.49 158.26C205.61 158.91 205.18 159.33 204.63 159.48C203.77 159.69 202.32 159.47 199.73 159.71Z" fill="#3C2A44"/>
<path d="M190.48 172.12C188.89 174.24 185.26 174.08 182.4 171.93C179.52 169.77 178.34 166.26 179.9 164.18C181.46 162.1 185.2 162.25 188.05 164.39C190.89 166.52 192.05 170.02 190.47 172.12H190.48ZM180.22 164.42C179.15 165.84 180.65 168.18 183.57 170.37C186.47 172.55 189.03 173.38 190.16 171.88C191.27 170.4 189.79 168.13 186.89 165.96C183.97 163.77 181.31 162.99 180.23 164.43L180.22 164.42Z" fill="#3C2A44"/>
<path d="M173.84 175.6L173.86 175.58C173.51 173.8 173.54 171.62 174.56 170.59C175.54 169.59 176.9 169.77 177.99 170.84L183.36 176.12C184.07 176.82 184.61 176.96 185.28 176.78L185.33 176.83C184.72 177.45 184.35 178.47 184.4 179.38L184.35 179.43L177.25 172.45C176.48 171.7 175.58 171.47 174.83 172.24C174.36 172.72 173.94 173.86 174.03 175.73L178.97 180.59C179.68 181.29 180.2 181.45 180.89 181.25L180.94 181.3C180.33 181.92 179.96 182.94 180.01 183.85L179.96 183.9L172.61 176.68C171.9 175.98 171.36 175.88 170.64 176.08L170.59 176.03C171.22 175.39 171.67 174.5 171.72 173.56L171.77 173.51L172.97 174.68C173.31 175.01 173.67 175.36 173.86 175.59L173.84 175.6ZM183.03 182.66L183.05 182.54C185.59 182.34 187.01 181.94 187.91 181.99C188.46 182.04 189.01 182.48 188.96 183.06C188.88 183.72 188.33 183.98 187.76 183.95C186.88 183.89 185.56 183.23 183.03 182.66Z" fill="#3C2A44"/>
<path d="M163.85 182.74L163.2 180.68L163.46 180.49L172.48 186.75C173.85 187.71 174.36 187.86 174.88 187.85L174.92 187.91L171.9 190.09L171.86 190.03C172.12 189.32 171.95 188.49 170.98 187.83L164.42 183.19L166.88 190.57C167.34 191.93 168.19 192.34 168.69 192.31L168.73 192.37L166.8 193.76L166.76 193.7C166.95 193.19 166.89 192.22 166.34 190.55L163.87 182.77L163.82 182.74L163.84 182.72L163.85 182.74Z" fill="#3C2A44"/>
<path d="M162.2 196.8C159.89 198.09 156.63 196.47 154.89 193.34C153.14 190.19 153.49 186.51 155.76 185.24C158.03 183.97 161.38 185.63 163.13 188.75C164.86 191.85 164.5 195.52 162.2 196.79V196.8ZM155.96 185.6C154.41 186.46 154.82 189.21 156.6 192.4C158.37 195.57 160.37 197.37 162.01 196.46C163.63 195.56 163.19 192.88 161.43 189.71C159.65 186.52 157.54 184.72 155.96 185.6Z" fill="#3C2A44"/>
<path d="M154.85 199.5L156.27 198.89L156.32 199C155.18 200.22 154.67 201.83 154.79 203.62L154.72 203.65L153.44 200.66L150.87 201.76L150.66 201.28L153.23 200.18L149.39 191.22C149.02 190.35 148.4 189.99 147.64 190.31C146.95 190.61 146.55 191.13 146.19 191.88L146.09 191.84C146.36 190.64 147.04 189.42 148.1 188.97C149.2 188.5 150.33 188.97 150.93 190.37L154.84 199.49L154.85 199.5Z" fill="#3C2A44"/>
<path d="M146.2 200.81V200.79C146.2 202.45 145.36 204.07 144.26 204.43C143.57 204.66 142.8 204.31 142.56 203.6C142.36 202.98 142.64 202.42 143.16 202.24C143.9 202 144.43 202.74 145.02 202.54C145.57 202.36 145.89 201.59 146.03 200.44L143.63 193.2C143.37 192.42 142.81 191.92 142.17 191.66L142.15 191.59L145.52 190.47L145.54 190.54C145.14 191.15 144.96 191.89 145.22 192.67L147.68 200.1C147.98 201 148.38 201.34 149.16 201.48L149.18 201.55C148.3 201.84 147.46 202.62 147.07 203.44L147.02 203.46L146.48 201.82C146.36 201.46 146.24 201.03 146.17 200.82L146.2 200.81Z" fill="#3C2A44"/>
<path d="M135.03 193.15C137.37 192.62 139.87 194.37 140.69 198C141.57 201.9 140.19 205.55 137.46 206.16C135.32 206.64 133.42 204.84 132.83 202.21L132.75 201.87L139.39 200.37C139.36 200.12 139.3 199.85 139.24 199.58C138.57 196.63 136.87 194.3 134.6 194.81C133.33 195.1 132.37 196.06 132.05 197.46L131.92 197.44C132.13 195.09 133.32 193.54 135.05 193.15H135.03ZM139.45 200.79L134.6 201.88C135.21 204.46 136.45 205.9 137.82 205.59C139.06 205.31 139.85 203.67 139.45 200.79Z" fill="#3C2A44"/>
<path d="M124.45 205.17V205.15C124.03 206.76 122.81 208.11 121.66 208.19C120.94 208.24 120.28 207.7 120.23 206.95C120.19 206.3 120.61 205.82 121.16 205.79C121.93 205.74 122.26 206.6 122.89 206.56C123.46 206.52 123.97 205.86 124.4 204.78L123.91 197.17C123.86 196.35 123.44 195.72 122.89 195.31V195.24L126.43 195.01V195.09C125.89 195.58 125.53 196.25 125.59 197.07L126.09 204.88C126.15 205.83 126.45 206.26 127.18 206.59V206.67C126.26 206.73 125.24 207.27 124.66 207.96H124.61L124.5 206.24C124.48 205.87 124.47 205.41 124.46 205.19L124.45 205.17Z" fill="#3C2A44"/>
<path d="M115.56 194.93C117.96 195.01 119.93 197.33 119.8 201.06C119.66 205.06 117.4 208.23 114.6 208.13C112.4 208.05 111.03 205.83 111.12 203.13V202.78L117.93 203.02C117.96 202.77 117.97 202.5 117.98 202.22C118.09 199.2 117.03 196.51 114.71 196.43C113.41 196.38 112.24 197.07 111.57 198.35L111.45 198.3C112.25 196.08 113.8 194.88 115.57 194.94L115.56 194.93ZM115.74 213.52C115.29 214.28 114.29 214.19 113.94 213.46L111.81 209.23L111.91 209.16L114.85 212.21H114.9L118.05 209.37L118.15 209.45L115.73 213.52H115.74ZM117.89 203.44L112.92 203.27C112.85 205.92 113.69 207.62 115.09 207.67C116.36 207.71 117.54 206.33 117.89 203.44Z" fill="#3C2A44"/>
<path d="M105.69 196.13L106.66 194.2L106.98 194.25L109.05 205.03C109.36 206.67 109.62 207.14 109.99 207.5V207.57L106.3 207.02V206.95C106.99 206.62 107.45 205.91 107.22 204.76L105.78 196.86L102.38 203.86C101.76 205.16 102.08 206.04 102.46 206.37V206.44L100.1 206.09V206.02C100.6 205.79 101.24 205.05 102.01 203.47L105.68 196.18L105.66 196.13H105.68H105.69Z" fill="#3C2A44"/>
<path d="M98.4202 192.35C100.74 192.96 102.15 195.66 101.2 199.26C100.18 203.13 97.2702 205.72 94.5602 205C92.4302 204.44 91.5902 201.96 92.2802 199.36L92.3702 199.02L98.9402 200.76C99.0302 200.53 99.1002 200.26 99.1702 199.99C99.9402 197.07 99.5102 194.21 97.2602 193.62C96.0002 193.29 94.7102 193.69 93.7702 194.79L93.6602 194.71C94.9402 192.72 96.7002 191.89 98.4202 192.35ZM98.8102 201.16L94.0002 199.89C93.3502 202.46 93.7902 204.31 95.1402 204.66C96.3702 204.99 97.8202 203.9 98.8102 201.16Z" fill="#3C2A44"/>
<path d="M89.0803 184.19L92.1203 185.61L92.0903 185.68C91.4703 185.77 90.9703 186.07 90.5103 187.04L85.1503 198.5C84.6903 199.47 84.6903 200.08 85.1303 200.67L85.1003 200.74C84.3103 200.37 83.2003 200.38 82.3803 200.71L82.3103 200.68L83.3803 198.39C82.0603 199.21 80.4103 199.84 79.0303 199.2C77.1503 198.32 76.7003 195.46 78.0603 192.53C79.6503 189.13 83.0303 186.63 86.2003 188.11C86.8103 188.4 87.2703 188.78 87.6803 189.13L88.9903 186.32C89.4503 185.35 89.3503 184.78 89.0503 184.25L89.0803 184.18V184.19ZM86.0503 188.43C84.1703 187.55 81.5703 189.26 79.9903 192.72C78.6903 195.56 78.9303 197.69 80.4903 198.42C81.3503 198.82 82.1403 198.72 83.4703 198.13L86.7903 191.04C87.3603 189.82 87.0503 188.9 86.0503 188.43Z" fill="#3C2A44"/>
<path d="M72.9602 192.67V192.65C71.7002 193.72 69.9202 194.12 68.9502 193.52C68.3302 193.14 68.1002 192.32 68.4902 191.68C68.8302 191.13 69.4502 190.98 69.9202 191.27C70.5802 191.68 70.3602 192.57 70.8902 192.89C71.3802 193.19 72.1802 192.95 73.1502 192.31L77.1502 185.82C77.5802 185.12 77.6002 184.37 77.3902 183.71L77.4302 183.65L80.4502 185.51L80.4102 185.57C79.6802 185.65 79.0002 186 78.5702 186.7L74.4702 193.36C73.9702 194.17 73.9702 194.7 74.3702 195.38L74.3302 195.44C73.5402 194.96 72.4002 194.81 71.5302 195.04L71.4902 195.01L72.3902 193.54C72.5902 193.22 72.8402 192.85 72.9602 192.66V192.67Z" fill="#3C2A44"/>
<path d="M71.6204 179.18C73.5304 180.63 73.8004 183.66 71.5404 186.63C69.1204 189.81 65.4404 191.1 63.2104 189.4C61.4604 188.07 61.6204 185.46 63.2604 183.31L63.4704 183.03L68.8804 187.15C69.0504 186.97 69.2204 186.75 69.3804 186.53C71.2104 184.12 71.9004 181.32 70.0504 179.91C69.0204 179.12 67.6604 179 66.3804 179.66L66.3104 179.54C68.2504 178.19 70.2004 178.1 71.6104 179.18H71.6204ZM68.6104 187.47L64.6504 184.46C63.0704 186.58 62.7704 188.46 63.8804 189.31C64.8904 190.08 66.6504 189.63 68.6104 187.47Z" fill="#3C2A44"/>
<path d="M65.5303 177.35L60.0403 182.93C59.3603 183.63 59.2703 184.14 59.4903 184.88L59.4403 184.93C58.7803 184.28 57.7503 183.86 56.8003 183.91L56.7603 183.87L57.9003 182.71C58.2303 182.37 58.5503 182.05 58.7803 181.85L58.7603 181.83C56.9603 182.16 54.8503 182.06 53.8403 181.06C52.8603 180.1 53.0103 178.7 54.0803 177.61L59.8503 171.75C60.4303 171.16 60.6903 170.51 60.6303 169.82L60.6803 169.77L63.0903 172.14L63.0403 172.19C62.2603 172.13 61.6303 172.34 61.0703 172.91L55.7003 178.36C54.9503 179.13 54.7403 180.05 55.4903 180.78C55.9903 181.27 57.0903 181.72 58.9603 181.64L64.3603 176.15C64.9203 175.58 65.1303 174.94 65.0503 174.16L65.1003 174.11L67.6303 176.6L67.5803 176.65C66.8203 176.57 66.1103 176.75 65.5303 177.34V177.35Z" fill="#3C2A44"/>
<path d="M56.0304 172.41C53.0604 174.7 48.9304 175.41 46.8004 172.66C46.3904 172.13 46.1404 171.56 45.9204 171.03L42.6604 173.55C41.9304 174.12 41.5704 174.8 41.6204 175.43L41.5604 175.48C41.0104 174.77 40.0504 174.31 39.1604 174.21L39.1304 174.17L52.5404 163.8C53.3704 163.16 53.7104 162.58 53.6104 161.87L53.6704 161.82C54.2104 162.51 55.0704 162.98 55.9604 163.18L56.0004 163.24L55.1104 163.93C54.7704 164.19 54.3604 164.48 54.0704 164.71V164.75C55.5404 164.65 57.3004 164.81 58.2404 166.01C59.5204 167.67 58.6004 170.44 56.0504 172.41H56.0304ZM53.8304 164.91L47.5804 169.74C46.5104 170.57 46.3904 171.55 47.0704 172.44C48.3104 174.04 51.4004 173.71 54.3904 171.36C56.8304 169.44 57.6004 167.42 56.5504 166.06C55.9704 165.31 55.2404 165.05 53.8304 164.91Z" fill="#3C2A44"/>
<path d="M48.0102 154.28L50.1402 153.91L50.2902 154.2L42.8602 162.28C41.7302 163.5 41.5002 163.99 41.4402 164.51L41.3702 164.55L39.6202 161.26L39.6902 161.22C40.3602 161.57 41.2102 161.52 41.9902 160.65L47.4802 154.79L39.8302 156.22C38.4102 156.49 37.9002 157.27 37.8502 157.78L37.7802 157.82L36.6602 155.72L36.7302 155.68C37.2102 155.94 38.1802 156.01 39.9102 155.68L47.9502 154.3L47.9802 154.26V154.28H48.0102Z" fill="#3C2A44"/>
<path d="M32.83 155.91C32.16 156.2 31.44 155.96 31.19 155.39C30.93 154.79 31.26 154.08 31.92 153.8C32.56 153.52 33.3 153.78 33.55 154.38C33.8 154.95 33.46 155.64 32.82 155.92L32.83 155.91ZM47.82 149.95C47.28 149.58 46.57 149.56 45.72 149.93L38.71 152.93C37.97 153.25 37.28 153.71 37.24 154.51L37.17 154.54C36.81 153.69 35.95 152.97 35.13 152.64L35.11 152.59L45.04 148.34C45.89 147.98 46.41 147.48 46.53 146.94L46.6 146.91L47.89 149.92L47.82 149.95Z" fill="#3C2A44"/>
<path d="M45.1302 141.71C45.8802 143.99 44.3702 146.64 40.8302 147.8C37.0302 149.04 33.2702 148.01 32.4002 145.35C31.7202 143.26 33.3302 141.2 35.9002 140.37L36.2302 140.26L38.3402 146.72C38.5902 146.67 38.8502 146.58 39.1102 146.5C41.9902 145.56 44.1502 143.64 43.4302 141.43C43.0302 140.19 41.9802 139.33 40.5502 139.14V139.01C42.9202 139.01 44.5802 140.04 45.1302 141.73V141.71ZM37.9402 146.82L36.3902 142.09C33.8802 142.94 32.5702 144.31 33.0002 145.64C33.4002 146.85 35.1002 147.48 37.9302 146.82H37.9402Z" fill="#3C2A44"/>
<path d="M43.7402 97.26L43.6702 97.24C43.5902 96.39 43.0102 95.77 41.9902 95.43L28.5002 90.83C27.3702 90.44 26.6202 90.69 26.0602 91.24L25.9902 91.22L27.3502 87.25L27.4202 87.27C27.5302 88.05 27.9602 88.7 29.1002 89.08L42.2302 93.56C43.6702 94.05 44.4602 93.9 44.9202 92.55C45.5702 90.66 44.5702 88.94 43.0702 86.98L43.1502 86.9L47.3602 88.97L47.3402 89.04C46.7802 89.14 46.3602 89.58 46.1102 90.31L43.7302 97.27L43.7402 97.26Z" fill="#3C2A44"/>
<path d="M36.4902 77.25L36.5102 77.37C34.1602 78.37 32.9502 79.2 32.0802 79.44C31.5402 79.57 30.8802 79.33 30.7402 78.76C30.6102 78.11 31.0402 77.68 31.5902 77.53C32.4502 77.31 33.9002 77.52 36.4802 77.25H36.4902ZM50.5802 81.45C50.2102 82.21 49.3702 82.5 48.2302 81.94C48.1202 81.88 47.9802 81.82 47.8502 81.75V81.77C48.5502 83.23 48.8402 84.96 48.2702 86.13C47.6902 87.32 46.1602 87.77 44.7502 87.08C42.8402 86.15 41.7602 83.34 42.8702 79.29C41.7802 78.73 40.8102 78.26 40.2102 77.96C39.0902 77.41 38.2302 77.58 37.8202 78.41C36.8102 80.48 40.0302 81.58 39.3302 83.01C39.1302 83.42 38.6502 83.54 38.2302 83.34C36.9902 82.74 36.5902 79.98 37.5202 78.07C38.3302 76.41 39.7702 75.86 41.2002 76.56C43.0702 77.47 46.7402 79.34 48.7902 80.34C49.5302 80.7 50.0002 80.71 50.2402 80.21C50.3802 79.92 50.3902 79.62 50.2802 79.23H50.3702C50.7702 79.88 50.9102 80.79 50.5902 81.44L50.5802 81.45ZM47.6602 84.7C48.0002 84 48.0602 83.03 47.5502 81.62C46.2202 80.97 44.5702 80.14 43.1102 79.43C42.3502 83.04 43.5402 84.54 45.0302 85.26C46.2202 85.84 47.1902 85.67 47.6602 84.71V84.7Z" fill="#3C2A44"/>
<path d="M45.6001 64.75C47.1701 62.61 50.8001 62.73 53.6801 64.85C56.5801 66.98 57.8001 70.48 56.2601 72.57C54.7201 74.67 50.9901 74.56 48.1001 72.45C45.2401 70.35 44.0401 66.87 45.5901 64.75H45.6001ZM55.9401 72.33C56.9901 70.9 55.4701 68.58 52.5301 66.42C49.6101 64.28 47.0301 63.47 45.9201 64.99C44.8301 66.48 46.3401 68.74 49.2601 70.88C52.2001 73.04 54.8801 73.79 55.9401 72.34V72.33Z" fill="#3C2A44"/>
<path d="M52.9404 54.13V54.25C50.3804 54.48 48.9804 54.89 48.0704 54.86C47.5204 54.82 46.9604 54.39 47.0104 53.8C47.0904 53.14 47.6304 52.87 48.1904 52.89C49.0804 52.94 50.4004 53.59 52.9404 54.12V54.13ZM62.2004 61.09L62.1804 61.11C62.5504 62.89 62.5404 65.07 61.5404 66.11C60.5704 67.12 59.2004 66.95 58.1004 65.9L52.6704 60.68C51.9504 59.99 51.4204 59.86 50.7504 60.05L50.7004 60C51.3104 59.37 51.6604 58.35 51.6004 57.43L51.6504 57.38L58.8204 64.28C59.6004 65.03 60.5004 65.24 61.2504 64.46C61.7204 63.97 62.1204 62.83 62.0104 60.96L57.0204 56.16C56.3004 55.47 55.7804 55.32 55.1004 55.53L55.0504 55.48C55.6604 54.85 56.0104 53.83 55.9504 52.92L56.0004 52.87L63.4304 60.01C64.1504 60.7 64.6804 60.8 65.4004 60.59L65.4504 60.64C64.8304 61.29 64.3804 62.18 64.3504 63.12L64.3004 63.17L63.0904 62.01C62.7504 61.68 62.3904 61.33 62.1904 61.11L62.2004 61.09Z" fill="#3C2A44"/>
<path d="M72.12 53.84L72.79 55.89L72.53 56.08L63.45 49.92C62.07 48.98 61.56 48.83 61.04 48.84L61 48.78L64 46.57L64.04 46.63C63.79 47.34 63.97 48.17 64.94 48.82L71.54 53.39L69 46.04C68.53 44.68 67.67 44.29 67.17 44.32L67.12 44.26L69.03 42.85L69.07 42.91C68.89 43.42 68.95 44.39 69.53 46.05L72.08 53.8L72.13 53.83L72.11 53.85L72.12 53.84Z" fill="#3C2A44"/>
<path d="M73.6102 39.76C75.9102 38.44 79.1802 40.03 80.9502 43.13C82.7402 46.25 82.4302 49.94 80.1702 51.24C77.9102 52.53 74.5402 50.92 72.7702 47.81C71.0102 44.73 71.3302 41.06 73.6102 39.76ZM79.9802 50.89C81.5202 50.01 81.0802 47.27 79.2602 44.1C77.4602 40.95 75.4302 39.17 73.8102 40.11C72.2002 41.03 72.6702 43.7 74.4702 46.85C76.2802 50.02 78.4202 51.79 79.9802 50.9V50.89Z" fill="#3C2A44"/>
<path d="M80.9402 36.9799L79.5202 37.5999L79.4702 37.4899C80.5902 36.2599 81.0902 34.6499 80.9502 32.8499L81.0202 32.8199L82.3302 35.7899L84.8902 34.6599L85.1002 35.1399L82.5402 36.2699L86.4702 45.1899C86.8502 46.0599 87.4702 46.4099 88.2302 46.0799C88.9202 45.7799 89.3102 45.2499 89.6602 44.4899L89.7602 44.5299C89.5002 45.7399 88.8402 46.9599 87.7802 47.4199C86.6802 47.8999 85.5502 47.4499 84.9402 46.0499L80.9402 36.9699V36.9799Z" fill="#3C2A44"/>
<path d="M89.5701 35.58V35.6C89.5701 33.94 90.3801 32.31 91.4601 31.94C92.1401 31.7 92.9201 32.04 93.1701 32.75C93.3801 33.36 93.1001 33.94 92.5801 34.12C91.8501 34.37 91.3001 33.63 90.7101 33.84C90.1701 34.03 89.8501 34.8 89.7201 35.95L92.2001 43.16C92.4701 43.94 93.0301 44.43 93.6801 44.69L93.7001 44.76L90.3401 45.91L90.3201 45.84C90.7201 45.23 90.8801 44.48 90.6201 43.7L88.0801 36.3C87.7701 35.4 87.3601 35.07 86.5801 34.94L86.5601 34.87C87.4301 34.57 88.2701 33.78 88.6501 32.96L88.7001 32.94L89.2601 34.57C89.3801 34.92 89.5001 35.36 89.5801 35.57L89.5701 35.58Z" fill="#3C2A44"/>
<path d="M100.84 43.11C98.5 43.66 95.99 41.95 95.13 38.32C94.21 34.43 95.55 30.77 98.28 30.12C100.42 29.61 102.33 31.4 102.96 34.02L103.04 34.36L96.42 35.93C96.45 36.18 96.52 36.45 96.58 36.72C97.28 39.66 99.01 41.98 101.27 41.44C102.53 41.14 103.49 40.17 103.8 38.76L103.93 38.78C103.74 41.14 102.57 42.7 100.84 43.11ZM96.34 35.52L101.18 34.37C100.54 31.8 99.28 30.37 97.92 30.7C96.68 30.99 95.91 32.64 96.34 35.52Z" fill="#3C2A44"/>
<path d="M111.28 30.98V31.01C111.69 29.4 112.89 28.03 114.03 27.95C114.75 27.9 115.42 28.42 115.48 29.17C115.53 29.82 115.11 30.3 114.56 30.34C113.79 30.4 113.45 29.55 112.83 29.59C112.26 29.63 111.75 30.3 111.33 31.38L111.9 38.98C111.96 39.8 112.39 40.42 112.94 40.83V40.9L109.4 41.17V41.1C109.94 40.61 110.28 39.93 110.22 39.11L109.63 31.31C109.56 30.36 109.25 29.93 108.52 29.61V29.53C109.44 29.46 110.45 28.91 111.02 28.21H111.07L111.2 29.93C111.23 30.31 111.24 30.76 111.25 30.98H111.28Z" fill="#3C2A44"/>
<path d="M120.26 41.13C117.86 41.07 115.87 38.78 115.95 35.05C116.04 31.05 118.27 27.85 121.07 27.92C123.27 27.97 124.67 30.18 124.6 32.88V33.23L117.8 33.07C117.77 33.32 117.76 33.59 117.76 33.87C117.69 36.89 118.78 39.57 121.1 39.62C122.4 39.65 123.57 38.95 124.22 37.67L124.34 37.72C123.56 39.95 122.03 41.17 120.26 41.12V41.13ZM119.87 22.54C120.31 21.78 121.31 21.85 121.67 22.58L123.85 26.78L123.75 26.85L120.77 23.83H120.72L117.6 26.71L117.5 26.63L119.87 22.54ZM117.83 32.64L122.8 32.76C122.84 30.11 121.98 28.42 120.58 28.38C119.31 28.35 118.15 29.75 117.83 32.64Z" fill="#3C2A44"/>
<path d="M130.14 39.8199L129.19 41.7599L128.87 41.7199L126.69 30.9699C126.36 29.3399 126.1 28.8699 125.72 28.5099V28.4399L129.42 28.9499V29.0199C128.73 29.3499 128.28 30.0699 128.52 31.2199L130.04 39.0999L133.37 32.0699C133.98 30.7699 133.65 29.8899 133.27 29.5599V29.4799L135.63 29.8099V29.8799C135.13 30.1199 134.5 30.8599 133.75 32.4499L130.15 39.7699L130.17 39.8199H130.15H130.14Z" fill="#3C2A44"/>
<path d="M137.42 43.52C135.09 42.93 133.66 40.25 134.57 36.64C135.55 32.76 138.43 30.14 141.15 30.82C143.28 31.36 144.16 33.82 143.5 36.44L143.41 36.78L136.82 35.11C136.73 35.35 136.67 35.61 136.6 35.88C135.86 38.81 136.33 41.67 138.58 42.23C139.84 42.55 141.13 42.13 142.06 41.02L142.17 41.1C140.92 43.1 139.15 43.95 137.43 43.51L137.42 43.52ZM136.94 34.71L141.77 35.93C142.39 33.35 141.93 31.51 140.57 31.17C139.33 30.86 137.89 31.96 136.94 34.72V34.71Z" fill="#3C2A44"/>
<path d="M146.87 51.57L143.82 50.18L143.85 50.11C144.47 50.01 144.97 49.71 145.41 48.73L150.65 37.21C151.1 36.23 151.1 35.63 150.65 35.04L150.68 34.97C151.48 35.33 152.58 35.31 153.4 34.97L153.47 35L152.42 37.3C153.73 36.47 155.38 35.82 156.76 36.45C158.65 37.31 159.13 40.17 157.8 43.1C156.25 46.51 152.89 49.05 149.71 47.6C149.1 47.32 148.63 46.95 148.22 46.59L146.94 49.41C146.49 50.39 146.59 50.95 146.9 51.48L146.87 51.55V51.57ZM149.86 47.3C151.75 48.16 154.33 46.42 155.88 42.95C157.15 40.09 156.88 37.97 155.31 37.25C154.44 36.86 153.66 36.96 152.33 37.57L149.09 44.69C148.53 45.92 148.85 46.84 149.86 47.29V47.3Z" fill="#3C2A44"/>
<path d="M162.91 42.93V42.95C164.16 41.87 165.93 41.45 166.91 42.04C167.53 42.41 167.77 43.23 167.38 43.87C167.05 44.43 166.43 44.58 165.96 44.3C165.3 43.9 165.51 43.01 164.97 42.69C164.48 42.39 163.68 42.65 162.72 43.29L158.8 49.83C158.37 50.54 158.36 51.29 158.58 51.94L158.54 52L155.5 50.17L155.54 50.11C156.26 50.02 156.94 49.67 157.37 48.96L161.4 42.25C161.89 41.44 161.88 40.91 161.48 40.23L161.52 40.17C162.31 40.65 163.46 40.78 164.33 40.54L164.37 40.57L163.48 42.05C163.29 42.37 163.03 42.74 162.92 42.94L162.91 42.93Z" fill="#3C2A44"/>
<path d="M164.37 56.3899C162.44 54.9599 162.14 51.9299 164.37 48.9399C166.76 45.7299 170.42 44.4099 172.67 46.0799C174.44 47.3899 174.3 49.9999 172.69 52.1699L172.48 52.4499L167.02 48.3899C166.85 48.5799 166.69 48.7999 166.52 49.0199C164.71 51.4499 164.06 54.2599 165.92 55.6499C166.96 56.4299 168.32 56.5299 169.6 55.8599L169.67 55.9699C167.74 57.3399 165.79 57.4499 164.37 56.3899ZM167.29 48.0599L171.28 51.0299C172.84 48.8899 173.12 47.0099 171.99 46.1699C170.97 45.4099 169.22 45.8799 167.28 48.0599H167.29Z" fill="#3C2A44"/>
<path d="M170.49 58.16L175.92 52.52C176.6 51.82 176.67 51.3 176.45 50.56L176.5 50.51C177.17 51.15 178.2 51.56 179.15 51.5L179.19 51.54L178.06 52.71C177.73 53.05 177.42 53.38 177.19 53.57L177.21 53.59C179.01 53.24 181.11 53.32 182.14 54.31C183.13 55.26 183 56.66 181.94 57.76L176.23 63.68C175.66 64.27 175.41 64.93 175.47 65.62L175.42 65.67L172.99 63.33L173.04 63.28C173.82 63.34 174.45 63.11 175.01 62.54L180.32 57.03C181.07 56.26 181.26 55.33 180.5 54.6C180 54.11 178.89 53.68 177.02 53.78L171.68 59.33C171.13 59.91 170.92 60.55 171.01 61.32L170.96 61.37L168.4 58.91L168.45 58.86C169.21 58.93 169.92 58.74 170.49 58.15V58.16Z" fill="#3C2A44"/>
<path d="M180.05 62.99C182.99 60.66 187.12 59.92 189.27 62.64C189.69 63.17 189.94 63.73 190.17 64.26L193.41 61.7C194.13 61.12 194.48 60.44 194.43 59.81L194.49 59.76C195.05 60.47 196.01 60.92 196.91 61L196.94 61.04L183.65 71.56C182.83 72.21 182.49 72.8 182.61 73.5L182.55 73.55C182.01 72.86 181.13 72.41 180.25 72.21L180.2 72.15L181.08 71.45C181.41 71.19 181.82 70.9 182.12 70.66V70.63C180.65 70.74 178.89 70.61 177.94 69.41C176.64 67.76 177.53 64.98 180.06 62.98L180.05 62.99ZM182.33 70.46L188.53 65.56C189.59 64.72 189.7 63.74 189 62.86C187.74 61.27 184.66 61.64 181.69 64.02C179.27 65.96 178.52 67.99 179.59 69.35C180.18 70.1 180.92 70.34 182.32 70.47L182.33 70.46Z" fill="#3C2A44"/>
<path d="M188.26 81.04L186.14 81.43L185.98 81.1399L193.31 72.9799C194.43 71.7399 194.65 71.25 194.71 70.74L194.78 70.7L196.56 73.97L196.49 74.0099C195.82 73.6699 194.97 73.73 194.2 74.61L188.78 80.5299L196.41 79.0099C197.82 78.7199 198.33 77.93 198.37 77.43L198.43 77.3899L199.57 79.47L199.5 79.5099C199.02 79.2599 198.04 79.19 196.32 79.54L188.3 81.02L188.27 81.07V81.0499L188.26 81.04Z" fill="#3C2A44"/>
<path d="M188.48 85.33C189.02 85.69 189.74 85.7 190.58 85.33L197.56 82.25C198.29 81.93 198.99 81.46 199.01 80.65L199.08 80.62C199.45 81.47 200.32 82.18 201.14 82.5L201.16 82.55L191.28 86.91C190.43 87.28 189.92 87.78 189.8 88.33L189.73 88.36L188.41 85.36L188.48 85.33ZM203.4 79.21C204.06 78.92 204.79 79.14 205.04 79.71C205.3 80.3 204.99 81.02 204.33 81.31C203.69 81.59 202.95 81.34 202.69 80.75C202.44 80.18 202.76 79.49 203.4 79.21Z" fill="#3C2A44"/>
<path d="M191.28 93.57C190.51 91.3 191.98 88.63 195.51 87.44C199.3 86.15 203.07 87.15 203.97 89.8C204.68 91.88 203.08 93.96 200.53 94.82L200.2 94.93L198.02 88.49C197.77 88.55 197.51 88.64 197.25 88.72C194.39 89.69 192.24 91.63 192.99 93.83C193.41 95.06 194.46 95.92 195.9 96.09V96.22C193.53 96.26 191.86 95.24 191.29 93.56L191.28 93.57ZM198.42 88.38L200.02 93.09C202.52 92.22 203.82 90.83 203.37 89.5C202.96 88.29 201.25 87.68 198.42 88.38Z" fill="#3C2A44"/>
<path d="M31.42 123.51C31.31 121.68 31.25 119.84 31.25 118.03C31.25 115.8 31.33 113.56 31.5 111.35L32.49 111.43C32.32 113.61 32.24 115.84 32.24 118.04C32.24 119.83 32.3 121.66 32.41 123.46L31.42 123.52V123.51Z" fill="#3C2A44"/>
<path d="M205.23 123.86L204.24 123.79C204.37 121.89 204.43 119.95 204.43 118.02C204.43 115.83 204.35 113.61 204.18 111.43L205.17 111.36C205.34 113.56 205.42 115.8 205.42 118.02C205.42 119.97 205.36 121.93 205.23 123.85V123.86Z" fill="#3C2A44"/>
<g clip-path="url(#clip1_205_405)">
<path d="M131 117.613C130.998 117.903 130.946 118.155 130.842 118.371C130.737 118.586 130.581 118.765 130.375 118.905C129.95 119.192 129.442 119.34 128.867 119.346C128.817 119.349 128.765 119.349 128.712 119.349C128.238 119.349 127.596 119.253 126.806 119.061C125.96 118.854 124.937 118.631 123.677 118.38C122.442 118.137 120.391 117.864 119.683 117.792C119.141 117.736 118.471 117.665 118.163 117.634C118.376 117.915 118.855 118.553 119.076 118.854C119.093 118.876 120.688 121.032 121.609 122.083C122.465 123.061 123.167 123.854 123.754 124.512L123.904 124.677C124.418 125.251 124.729 125.597 125.062 126.181V126.184C125.301 126.653 125.399 127.145 125.351 127.65C125.307 128.107 124.992 128.517 124.439 128.835C124.153 128.999 123.874 129.081 123.604 129.081C123.399 129.081 123.2 129.035 123.006 128.94C122.546 128.715 122.165 128.35 121.87 127.856C121.607 127.45 121.344 126.801 121.088 125.927C120.838 125.075 120.518 124.078 120.111 122.878C119.709 121.696 118.917 119.779 118.624 119.124C118.4 118.624 118.127 118.014 118.001 117.73C117.863 118.054 117.55 118.79 117.401 119.13C117.232 119.516 116.281 121.732 115.871 122.936C115.446 124.186 115.108 125.191 114.839 126.01L114.779 126.196C114.537 126.941 114.391 127.39 114.047 127.976C113.76 128.419 113.383 128.749 112.922 128.961C112.767 129.033 112.599 129.068 112.422 129.068C112.118 129.068 111.787 128.966 111.438 128.763C110.938 128.473 110.666 128.073 110.631 127.575C110.597 127.064 110.722 126.552 111.002 126.049C111.222 125.621 111.651 125.068 112.282 124.408C112.9 123.762 113.624 122.965 114.433 122.038C115.229 121.126 116.509 119.472 116.94 118.875C117.26 118.43 117.654 117.888 117.836 117.637C117.484 117.68 116.689 117.777 116.324 117.817C115.814 117.873 113.485 118.152 112.263 118.395C111.091 118.627 110.023 118.843 109.086 119.038L108.902 119.077C108.148 119.238 107.687 119.336 107.028 119.336H106.987C106.459 119.31 105.984 119.146 105.571 118.854C105.195 118.586 105 118.109 105 117.47C105.002 116.883 105.206 116.461 105.625 116.178C106.048 115.891 106.556 115.743 107.133 115.735C107.617 115.71 108.311 115.807 109.194 116.022C110.052 116.232 111.075 116.455 112.323 116.701C113.539 116.941 115.599 117.216 116.315 117.29C116.68 117.327 117.104 117.371 117.436 117.406C117.595 117.422 117.735 117.437 117.836 117.448C117.624 117.167 117.143 116.527 116.924 116.229C116.62 115.815 115.216 113.942 114.391 113C113.628 112.126 112.906 111.308 112.246 110.569L112.109 110.419C111.588 109.839 111.274 109.489 110.939 108.902L110.936 108.899C110.697 108.429 110.601 107.936 110.648 107.433C110.693 106.973 111.008 106.563 111.561 106.248C112.063 105.958 112.545 105.923 112.994 106.143C113.455 106.368 113.837 106.733 114.13 107.227C114.393 107.631 114.656 108.28 114.912 109.154C115.166 110.026 115.495 111.052 115.889 112.204C116.287 113.374 117.08 115.298 117.376 115.959C117.597 116.45 117.872 117.066 117.998 117.351C118.137 117.025 118.45 116.291 118.599 115.953C118.806 115.48 119.731 113.317 120.129 112.145C120.548 110.913 120.886 109.908 121.158 109.073L121.221 108.881C121.465 108.139 121.61 107.691 121.953 107.106C122.241 106.661 122.62 106.33 123.078 106.12C123.497 105.929 124.011 105.997 124.562 106.318C125.062 106.608 125.334 107.008 125.369 107.507C125.403 108.016 125.278 108.53 124.998 109.033C124.777 109.464 124.346 110.017 123.718 110.675C123.1 111.32 122.376 112.118 121.567 113.045C120.76 113.967 119.485 115.618 119.06 116.208C118.867 116.473 118.627 116.805 118.43 117.077C118.324 117.224 118.229 117.353 118.163 117.445C118.514 117.401 119.309 117.305 119.674 117.264C120.189 117.209 122.528 116.928 123.737 116.688C124.956 116.447 126.025 116.231 126.914 116.043L127.111 116.001C127.864 115.842 128.323 115.746 128.986 115.746H129.013C129.54 115.773 130.016 115.936 130.429 116.229C130.805 116.497 131.002 116.974 131 117.613Z" fill="#3C2A44"/>
</g>
</g>
<defs>
<clipPath id="clip0_205_405">
<rect width="184.39" height="192.05" fill="white" transform="translate(26 22)"/>
</clipPath>
<clipPath id="clip1_205_405">
<rect width="26" height="23.0814" fill="white" transform="translate(105 106)"/>
</clipPath>
</defs>
</svg>
