<svg width="337" height="114" viewBox="0 0 337 114" fill="none" xmlns="http://www.w3.org/2000/svg">
  <path d="M30.4112 10.8924L44.844 82.2019H45.1231L59.6954 10.8924H89.8343V111.913H71.1545V31.264H70.8754L52.9107 111.913H37.0651L19.1004 31.264H18.8126V111.913H0.132812V10.8924H30.4112Z" fill="#3B2321"/>
  <path d="M103.681 57.3042C103.681 52.8741 104.388 49.1677 105.8 46.194C107.213 43.2202 109.123 40.8133 111.53 38.9819C113.937 37.1418 116.762 35.825 120.015 35.0227C123.268 34.2204 126.739 33.8192 130.41 33.8192C136.262 33.8192 140.971 34.3861 144.555 35.5198C148.14 36.6535 150.922 38.2581 152.901 40.3336C154.881 42.4092 156.224 44.8859 156.93 47.7637C157.636 50.6415 157.994 53.781 157.994 57.1734V97.2103C157.994 100.795 158.16 103.576 158.491 105.556C158.822 107.536 159.459 109.664 160.401 111.922H141.721C141.058 110.701 140.561 109.402 140.239 108.033C139.907 106.664 139.602 105.321 139.323 104.004H139.044C136.776 107.963 134.16 110.536 131.195 111.713C128.221 112.89 124.376 113.483 119.666 113.483C116.274 113.483 113.396 112.89 111.033 111.713C108.67 110.536 106.786 108.905 105.373 106.829C103.96 104.754 102.923 102.425 102.26 99.8265C101.597 97.2365 101.266 94.6638 101.266 92.1174C101.266 88.5332 101.641 85.446 102.399 82.8472C103.149 80.2572 104.309 78.0334 105.861 76.202C107.414 74.362 109.402 72.8271 111.8 71.6062C114.207 70.3853 117.102 69.2952 120.504 68.3534L131.535 65.3796C134.457 64.6209 136.489 63.5918 137.622 62.2663C138.756 60.9495 139.323 59.0135 139.323 56.467C139.323 53.5456 138.634 51.2607 137.274 49.6038C135.904 47.9556 133.567 47.1271 130.271 47.1271C127.253 47.1271 124.986 48.0253 123.477 49.8131C121.969 51.6096 121.21 54.0078 121.21 57.0251V59.1443H103.664V57.3042H103.681ZM135.093 76.3328C133.585 76.9433 132.216 77.3968 130.986 77.6758C127.027 78.5217 124.192 79.9432 122.501 81.9228C120.8 83.9024 119.954 86.5884 119.954 89.9895C119.954 92.911 120.521 95.4138 121.655 97.4894C122.788 99.5649 124.672 100.603 127.314 100.603C128.631 100.603 130 100.393 131.422 99.966C132.835 99.5387 134.134 98.8585 135.311 97.9167C136.489 96.9748 137.457 95.7452 138.215 94.2365C138.965 92.7278 139.349 90.9314 139.349 88.8558V73.8562C138.024 74.8939 136.611 75.7224 135.102 76.3328H135.093Z" fill="#3B2321"/>
  <path d="M195.667 14.0057V35.7901H206.986V49.0893H195.667V90.2599C195.667 93.2773 196.112 95.4226 197.01 96.6958C197.908 97.969 199.766 98.6056 202.6 98.6056C203.35 98.6056 204.109 98.5795 204.867 98.5359C205.617 98.4923 206.332 98.4225 206.986 98.3266V111.913C204.815 111.913 202.713 111.983 200.69 112.123C198.658 112.262 196.513 112.332 194.254 112.332C190.478 112.332 187.391 112.07 184.984 111.556C182.577 111.041 180.737 109.995 179.464 108.443C178.191 106.882 177.318 104.832 176.848 102.286C176.377 99.7393 176.141 96.5301 176.141 92.6668V49.098H166.234V35.7989H176.141V14.0057H195.667V14.0057Z" fill="#3B2321"/>
  <path d="M250.05 57.7228C249.815 55.9351 249.387 54.3043 248.777 52.8392C248.158 51.3741 247.294 50.1968 246.161 49.2986C245.027 48.4003 243.518 47.9556 241.635 47.9556C239.271 47.9556 237.344 48.4963 235.835 49.5864C234.327 50.6677 233.193 52.2723 232.443 54.4002C231.684 56.5193 231.17 59.214 230.891 62.4669C230.611 65.7197 230.463 69.5656 230.463 73.9957C230.463 78.7136 230.603 82.7426 230.891 86.0914C231.17 89.4401 231.693 92.1959 232.443 94.3673C233.202 96.5388 234.257 98.1173 235.626 99.1027C236.995 100.097 238.757 100.585 240.928 100.585C244.233 100.585 246.631 99.1725 248.14 96.3382C249.649 93.5127 250.408 88.9779 250.408 82.76H269.087C269.087 92.7627 266.846 100.376 262.364 105.608C257.881 110.841 250.451 113.457 240.082 113.457C235.181 113.457 230.908 112.864 227.28 111.687C223.644 110.509 220.626 108.382 218.228 105.321C215.821 102.26 214.007 98.1521 212.778 93.0069C211.548 87.8704 210.938 81.4781 210.938 73.8387C210.938 66.1994 211.696 59.528 213.205 54.3828C214.714 49.2462 216.833 45.1388 219.571 42.0778C222.309 39.0168 225.562 36.8715 229.338 35.6419C233.106 34.421 237.257 33.8018 241.791 33.8018C250.844 33.8018 257.663 36.4442 262.233 41.729C266.811 47.0137 269.096 54.1822 269.096 63.2343H250.416C250.416 61.3506 250.294 59.5106 250.059 57.7141L250.05 57.7228Z" fill="#3B2321"/>
  <path d="M298.79 10.8924V43.5777H299.078C302.846 37.0721 309.029 33.8192 317.61 33.8192C323.836 33.8192 328.624 35.5198 331.973 38.9121C335.322 42.3045 336.996 47.8247 336.996 55.4641V111.913H317.47V59.4233C317.47 55.4641 316.808 52.6996 315.491 51.1473C314.165 49.595 312.046 48.8102 309.125 48.8102C302.235 48.8102 298.799 53.0048 298.799 61.4029V111.913H279.273V10.8924H298.799H298.79Z" fill="#3B2321"/>
</svg>