<?xml version="1.0" standalone="no"?>
<!DOCTYPE svg PUBLIC "-//W3C//DTD SVG 20010904//EN"
 "http://www.w3.org/TR/2001/REC-SVG-20010904/DTD/svg10.dtd">
<svg version="1.0" xmlns="http://www.w3.org/2000/svg"
 width="350.000000pt" height="171.000000pt" viewBox="0 0 350.000000 171.000000"
 preserveAspectRatio="xMidYMid meet">

<g transform="translate(0.000000,171.000000) scale(0.100000,-0.100000)"
fill="#000000" stroke="none">
<path d="M2867 1450 l-57 -41 22 -19 c23 -18 23 -23 26 -245 l3 -227 -54 -112
c-90 -183 -174 -256 -298 -256 -150 0 -250 124 -252 315 -1 93 26 167 84 224
107 107 276 70 298 -66 8 -48 39 -69 69 -47 51 35 14 121 -72 167 -34 18 -57
22 -136 22 -84 0 -102 -3 -152 -28 -101 -50 -164 -149 -175 -275 -15 -181 96
-331 265 -358 99 -16 230 53 306 159 24 34 74 124 110 200 100 208 175 277
301 277 52 0 97 -28 120 -76 15 -32 19 -70 23 -211 6 -213 -1 -273 -35 -313
l-25 -30 97 0 97 0 -25 29 c-24 29 -25 33 -29 253 -5 252 -13 285 -81 345 -78
69 -217 46 -327 -53 l-40 -36 -2 222 -3 221 -58 -41z"/>
<path d="M134 1427 c11 -7 30 -23 43 -36 l23 -24 0 -392 0 -392 -23 -24 c-13
-13 -32 -29 -43 -36 -15 -10 -1 -12 79 -12 53 -1 97 1 97 3 0 2 -15 13 -34 24
-55 32 -57 53 -54 460 l3 363 204 -420 c113 -232 208 -418 212 -414 4 5 82
186 174 403 92 217 171 402 176 410 5 9 9 -153 9 -377 l0 -391 -26 -31 -26
-31 104 0 c100 0 102 1 81 18 -13 9 -27 33 -33 52 -13 46 -13 744 0 790 6 19
20 43 33 53 21 17 20 17 -51 15 l-73 -3 -164 -385 c-90 -212 -167 -384 -171
-384 -5 1 -92 175 -195 385 l-188 384 -88 2 c-72 2 -85 0 -69 -10z"/>
<path d="M1931 1406 c-28 -30 -40 -81 -41 -168 0 -66 -1 -68 -25 -68 -14 0
-25 -4 -25 -10 0 -5 11 -10 24 -10 l24 0 4 -252 c4 -278 9 -302 66 -350 17
-14 47 -29 67 -32 52 -10 134 16 170 54 l30 32 -45 -26 c-76 -43 -152 -28
-187 37 -16 28 -18 66 -21 285 l-4 252 61 0 c34 0 61 4 61 10 0 6 -27 10 -60
10 l-60 0 0 130 c0 72 -4 130 -8 130 -5 0 -19 -11 -31 -24z"/>
<path d="M1460 1164 c-103 -28 -170 -82 -170 -138 0 -49 52 -73 85 -39 13 12
15 26 11 55 -4 21 -2 47 4 58 27 51 144 68 195 28 36 -28 53 -72 61 -156 8
-83 13 -79 -126 -112 -113 -28 -154 -43 -199 -77 -85 -65 -80 -201 11 -250 49
-26 170 -24 225 5 52 27 66 46 19 27 -54 -23 -147 -20 -179 6 -33 26 -50 84
-37 128 14 51 36 78 82 105 42 23 166 66 194 66 11 0 14 -28 14 -145 0 -86 5
-154 11 -169 22 -48 88 -57 145 -19 34 22 30 30 -18 29 -64 -1 -68 11 -68 261
0 125 -4 223 -11 240 -33 88 -135 128 -249 97z"/>
<path d="M2895 895 c-27 -55 -30 -71 -35 -192 -5 -129 -6 -133 -35 -163 l-29
-30 104 0 c97 0 103 1 82 16 -42 29 -47 52 -52 244 l-5 185 -30 -60z"/>
</g>
</svg>
