<?xml version="1.0" standalone="no"?>
<!DOCTYPE svg PUBLIC "-//W3C//DTD SVG 20010904//EN"
 "http://www.w3.org/TR/2001/REC-SVG-20010904/DTD/svg10.dtd">
<svg version="1.0" xmlns="http://www.w3.org/2000/svg"
 width="392.000000pt" height="171.000000pt" viewBox="0 0 392.000000 171.000000"
 preserveAspectRatio="xMidYMid meet">

<g transform="translate(0.000000,171.000000) scale(0.100000,-0.100000)"
fill="#000000" stroke="none">
<path d="M2072 1490 c-46 -11 -98 -64 -117 -119 -9 -25 -19 -81 -22 -123 l-6
-78 -38 0 c-22 0 -39 -4 -39 -10 0 -5 18 -10 40 -10 l40 0 0 -275 c0 -218 -3
-283 -14 -310 -8 -19 -20 -35 -25 -35 -6 0 -11 -4 -11 -10 0 -6 37 -10 91 -10
l91 0 -26 31 -26 31 0 289 0 289 55 0 c30 0 55 5 55 10 0 6 -25 10 -56 10
l-56 0 3 113 c3 90 8 119 25 147 18 32 24 35 65 35 42 0 45 -2 65 -44 25 -52
46 -66 74 -51 26 14 26 61 1 84 -18 17 -103 47 -125 45 -6 -1 -26 -5 -44 -9z"/>
<path d="M114 1409 l26 -31 0 -403 0 -403 -26 -31 -26 -31 102 0 102 0 -26 31
c-25 30 -26 34 -26 178 l0 148 123 6 c138 6 203 22 273 70 92 61 132 171 104
285 -17 74 -60 126 -133 161 -82 40 -158 51 -355 51 l-164 0 26 -31z m403 -21
c162 -83 177 -353 25 -452 -49 -33 -108 -45 -214 -46 l-88 0 0 266 0 267 115
-5 c96 -5 123 -9 162 -30z"/>
<path d="M3546 1405 c-28 -31 -36 -65 -36 -161 0 -72 -1 -74 -25 -74 -14 0
-25 -4 -25 -10 0 -5 11 -10 24 -10 l25 0 3 -257 c3 -283 5 -294 67 -346 38
-31 89 -41 143 -27 45 12 108 54 108 71 0 5 -14 -1 -31 -13 -41 -31 -127 -32
-159 -3 -46 40 -50 69 -50 330 l0 245 60 0 c33 0 60 4 60 10 0 6 -27 10 -60
10 l-60 0 0 130 c0 84 -4 130 -10 130 -6 0 -21 -11 -34 -25z"/>
<path d="M1717 1166 c-20 -8 -62 -35 -92 -61 l-55 -47 0 56 c0 31 -2 56 -5 56
-2 0 -28 -17 -58 -38 l-54 -38 18 -23 c14 -17 19 -40 19 -88 0 -59 -6 -77 -54
-177 -64 -131 -116 -195 -192 -232 -49 -24 -63 -26 -134 -22 -66 4 -87 10
-127 34 -64 39 -111 129 -120 227 l-6 67 247 0 246 0 0 34 c0 92 -67 202 -144
237 -81 37 -218 18 -296 -40 -50 -36 -68 -59 -98 -121 -23 -48 -27 -68 -27
-150 0 -82 4 -103 26 -151 77 -164 262 -230 423 -150 97 48 141 103 240 304
118 240 164 284 262 250 51 -17 84 -5 84 31 0 43 -46 62 -103 42z m-514 -39
c51 -28 77 -73 77 -131 0 -36 -5 -52 -25 -71 -24 -25 -26 -25 -210 -25 l-185
0 6 28 c13 61 26 92 54 131 70 96 184 123 283 68z"/>
<path d="M2355 1152 c-136 -47 -205 -155 -205 -318 0 -171 101 -294 264 -325
105 -19 237 36 289 121 l22 35 -43 -36 c-24 -20 -64 -43 -90 -50 -64 -19 -179
-17 -217 3 -76 40 -130 131 -141 236 l-7 62 248 0 248 0 -7 53 c-14 101 -65
180 -139 216 -54 26 -151 27 -222 3z m171 -7 c96 -28 148 -121 113 -198 -19
-41 -48 -47 -234 -47 -196 0 -185 -6 -159 80 27 91 125 173 215 179 8 1 38 -6
65 -14z"/>
<path d="M3032 1152 c-70 -25 -120 -67 -159 -132 -104 -171 -44 -404 124 -486
45 -22 69 -27 128 -27 63 0 84 4 139 32 39 19 77 47 95 70 38 48 40 63 4 29
-49 -45 -112 -71 -188 -75 -62 -4 -76 -1 -125 24 -96 49 -143 142 -143 285 -1
69 3 85 34 145 53 106 147 158 238 133 53 -14 99 -61 106 -108 8 -51 18 -66
44 -70 55 -8 70 64 25 118 -43 50 -98 73 -189 77 -60 3 -93 -1 -133 -15z"/>
<path d="M1530 910 c-34 -64 -35 -68 -40 -207 -5 -132 -7 -143 -29 -167 l-24
-26 93 0 93 0 -24 26 c-23 25 -24 31 -29 232 l-5 207 -35 -65z"/>
</g>
</svg>
