<svg width="335" height="115" viewBox="0 0 335 115" fill="none" xmlns="http://www.w3.org/2000/svg">
  <path d="M25.7426 111.913H0.984375V111.346C3.4349 110.309 5.20521 108.704 6.28659 106.533C7.36796 104.361 7.91736 101.771 7.91736 98.7536V19.238C7.91736 16.4996 7.35051 14.1712 6.21682 12.2352C5.08312 10.2992 3.33897 8.81667 0.984375 7.7789V7.21206C6.36507 6.46207 11.5016 5.7993 16.4026 5.23245C21.3037 4.6656 25.7862 4.38654 29.8413 4.38654C36.9138 4.38654 43.0445 5.78185 48.2333 8.56377C53.4222 11.3457 57.4512 15.209 60.329 20.1624C63.2068 25.1157 64.6458 30.8453 64.6458 37.3509C64.6458 43.3857 63.6516 48.6007 61.672 52.9872C59.6924 57.3737 57.05 61.0277 53.7536 63.9492C50.4484 66.8706 46.8467 69.0421 42.9311 70.4549C39.0155 71.8676 35.222 72.574 31.5418 72.574C29.3704 72.574 27.1291 72.3385 24.8181 71.8676C22.5072 71.3967 20.4578 70.7339 18.6613 69.888V98.7536C18.6613 101.771 19.2282 104.37 20.3618 106.533C21.4955 108.704 23.2833 110.309 25.7426 111.346V111.913V111.913ZM18.67 67.9084C20.2747 68.3793 21.8793 68.7107 23.4839 68.9026C25.0885 69.0944 26.6408 69.1816 28.1495 69.1816C35.5098 69.1816 41.4486 66.5916 45.9747 61.4027C50.5007 56.2139 52.7681 48.7664 52.7681 39.0515C52.7681 32.7289 51.8699 27.1913 50.0821 22.4297C48.2857 17.6682 45.7218 13.9445 42.373 11.2498C39.0242 8.56377 35.1348 7.22078 30.7046 7.22078C26.6495 7.22078 23.6321 8.28471 21.6525 10.4038C19.6729 12.523 18.6788 15.6188 18.6788 19.674V67.9171L18.67 67.9084Z" fill="#3B2321"/>
  <path d="M108.009 104.98C105.698 107.902 103.029 110.143 100.012 111.704C96.9946 113.256 93.7853 114.041 90.393 114.041C85.771 114.041 81.4978 112.698 77.5909 110.012C73.6753 107.326 70.5358 103.437 68.1812 98.3439C65.8179 93.251 64.6406 87.1639 64.6406 80.0914C64.6406 72.5479 65.8877 65.6585 68.3905 59.4319C70.8847 53.2053 74.3119 48.252 78.6461 44.5718C82.9803 40.8917 87.8465 39.0516 93.2185 39.0516C97.4655 39.0516 101.189 40.2812 104.398 42.7317C107.608 45.1823 110.102 48.531 111.898 52.778C113.686 57.025 114.584 61.6906 114.584 66.7835V68.9027H74.966C74.87 69.5654 74.8264 70.2457 74.8264 70.952V73.1409C74.8264 78.9926 75.6026 84.3384 77.1636 89.1958C78.7159 94.0533 80.9833 97.9427 83.9571 100.864C86.9308 103.786 90.6284 105.251 95.0673 105.251C98.8346 105.251 102.279 104.239 105.393 102.207C108.506 100.184 110.956 97.3235 112.753 93.6434L113.599 94.0707C112.186 98.4136 110.32 102.041 108.009 104.963V104.98ZM80.6345 48.0339C77.713 52.0455 75.8729 58.1064 75.1142 66.2167H103.98C103.884 61.3156 103.291 57.0425 102.21 53.4146C101.128 49.7868 99.5933 46.9787 97.6137 44.9991C95.6341 43.0195 93.3231 42.0253 90.6807 42.0253C86.9047 42.0253 83.5559 44.0311 80.6345 48.0339V48.0339Z" fill="#3B2321"/>
  <path d="M134.601 52.1325C134.549 53.2226 134.532 54.0947 134.532 54.7487L134.671 54.8883C135.709 51.9668 137.148 49.3244 138.988 46.9611C140.828 44.6065 142.851 42.6967 145.075 41.2316C147.29 39.7665 149.479 39.0427 151.65 39.0427C153.822 39.0427 155.679 39.7491 157.24 41.1618C158.793 42.5746 159.578 44.3711 159.578 46.5425C159.578 48.5221 158.985 50.1006 157.807 51.2779C156.63 52.4552 155.235 53.0482 153.63 53.0482C152.121 53.0482 150.892 52.647 149.95 51.8447C149.008 51.0424 148.11 50.214 147.264 49.368C146.418 48.5221 145.328 48.0948 144.011 48.0948C142.406 48.0948 140.828 48.8971 139.276 50.5017C137.723 52.1064 136.189 54.3214 134.68 57.1469V100.158C134.68 102.608 135.194 104.78 136.232 106.663C137.27 108.556 138.639 110.108 140.34 111.329V111.896H119.113V111.329C120.901 110.108 122.323 108.547 123.36 106.663C124.398 104.78 124.921 102.608 124.921 100.158V57.0074C124.921 53.99 124.477 51.7226 123.578 50.214C122.68 48.7053 121.198 47.4756 119.122 46.5338V45.8274C120.91 45.8274 122.75 45.5222 124.642 44.9118C126.526 44.3013 128.322 43.5252 130.023 42.5746C131.723 41.6328 133.136 40.5514 134.27 39.3218H134.697V48.8012C134.697 49.9349 134.671 51.0424 134.627 52.1238L134.601 52.1325Z" fill="#3B2321"/>
  <path d="M166.735 106.611C167.816 104.771 168.366 102.582 168.366 100.036V44.2839H158.18V41.1706H168.366V25.6041C168.366 20.4152 169.072 15.9153 170.485 12.0957C171.897 8.27598 173.947 5.30221 176.641 3.18307C179.327 1.06393 182.511 0 186.191 0C188.833 0 191.423 0.776146 193.97 2.33716C196.516 3.88945 197.789 6.04347 197.789 8.77306C197.789 10.3777 197.345 11.6771 196.446 12.6625C195.548 13.6567 194.484 14.145 193.263 14.145C191.85 14.145 190.743 13.7177 189.941 12.8718C189.138 12.0259 188.406 10.9881 187.752 9.75851C187.089 8.5376 186.243 7.49111 185.205 6.6452C184.167 5.79929 182.798 5.37197 181.106 5.37197C177.897 5.37197 175.656 6.83706 174.383 9.75851C173.11 12.68 172.517 16.7351 172.612 21.9239L172.752 22.7698C172.752 24.9413 173.014 27.1825 173.528 29.4935C174.043 31.8045 174.749 33.9498 175.647 35.9294C176.546 37.909 177.461 39.6532 178.403 41.1619H189.723V44.2752H178.264V100.166C178.264 102.617 178.734 104.815 179.676 106.742C180.618 108.678 181.944 110.204 183.636 111.338V111.905H162.409V111.338C164.197 110.021 165.636 108.434 166.726 106.602L166.735 106.611Z" fill="#3B2321"/>
  <path d="M235.204 104.98C232.893 107.902 230.225 110.143 227.207 111.704C224.19 113.256 220.981 114.041 217.588 114.041C212.966 114.041 208.693 112.698 204.786 110.012C200.871 107.326 197.731 103.437 195.377 98.3439C193.013 93.251 191.836 87.1639 191.836 80.0914C191.836 72.5479 193.083 65.6585 195.586 59.4319C198.08 53.2053 201.507 48.252 205.841 44.5718C210.176 40.8917 215.042 39.0516 220.414 39.0516C224.661 39.0516 228.385 40.2812 231.594 42.7317C234.803 45.1823 237.297 48.531 239.094 52.778C240.881 57.025 241.78 61.6906 241.78 66.7835V68.9027H202.161C202.065 69.5654 202.022 70.2457 202.022 70.952V73.1409C202.022 78.9926 202.798 84.3384 204.359 89.1958C205.911 94.0533 208.179 97.9427 211.152 100.864C214.126 103.786 217.824 105.251 222.263 105.251C226.03 105.251 229.475 104.239 232.588 102.207C235.701 100.184 238.152 97.3235 239.948 93.6434L240.794 94.0707C239.381 98.4136 237.515 102.041 235.204 104.963V104.98ZM207.83 48.0339C204.908 52.0455 203.068 58.1064 202.31 66.2167H231.175C231.079 61.3156 230.486 57.0425 229.405 53.4146C228.323 49.7868 226.789 46.9787 224.809 44.9991C222.829 43.0195 220.518 42.0253 217.876 42.0253C214.1 42.0253 210.751 44.0311 207.83 48.0339V48.0339Z" fill="#3B2321"/>
  <path d="M285.719 40.6737C288.213 41.2841 290.55 42.1126 292.721 43.1504L287.062 64.2284H286.634C285.788 57.3477 283.922 52.1763 281.044 48.7316C278.167 45.2869 275.027 43.569 271.635 43.569C267.109 43.569 263.376 46.1852 260.455 51.4176C257.533 56.6501 256.068 63.6092 256.068 72.2863C256.068 78.3211 256.775 83.8413 258.187 88.8383C259.6 93.8353 261.772 97.8207 264.693 100.794C267.614 103.768 271.295 105.251 275.733 105.251C279.597 105.251 282.972 104.187 285.85 102.068C288.727 99.9485 291.108 96.905 292.992 92.9458L293.698 93.3731C292.373 97.8032 290.611 101.579 288.396 104.693C286.181 107.806 283.582 110.143 280.617 111.695C277.643 113.248 274.46 114.033 271.068 114.033C267.675 114.033 264.632 113.23 261.658 111.626C258.684 110.021 256.068 107.736 253.81 104.762C251.542 101.789 249.754 98.2044 248.429 94.0097C247.103 89.815 246.449 85.0709 246.449 79.7949C246.449 72.1555 247.792 65.3185 250.478 59.2837C253.164 53.249 256.888 48.4875 261.658 44.9904C266.42 41.5021 271.914 39.758 278.14 39.758C280.687 39.758 283.207 40.0632 285.71 40.6737H285.719Z" fill="#3B2321"/>
  <path d="M305.177 44.2838H296.125V43.4379C300.459 41.5543 304.192 38.8159 307.305 35.2317C310.418 31.6475 312.912 27.4528 314.805 22.639H315.372V41.1705H331.645V44.2838H315.372V99.0414C315.372 101.684 315.982 103.777 317.212 105.338C318.433 106.89 320.229 107.675 322.592 107.675C324.668 107.675 326.578 107.248 328.322 106.402C330.066 105.556 331.88 104.37 333.772 102.861L334.339 103.428C332.264 106.349 329.717 108.852 326.7 110.928C323.683 113.003 320.43 114.041 316.941 114.041C314.674 114.041 312.651 113.5 310.854 112.41C309.058 111.329 307.671 109.794 306.677 107.814C305.683 105.835 305.195 103.384 305.195 100.454V44.2838H305.177Z" fill="#3B2321"/>
</svg>