<?xml version="1.0" standalone="no"?>
<!DOCTYPE svg PUBLIC "-//W3C//DTD SVG 20010904//EN"
 "http://www.w3.org/TR/2001/REC-SVG-20010904/DTD/svg10.dtd">
<svg version="1.0" xmlns="http://www.w3.org/2000/svg"
 width="230.000000pt" height="171.000000pt" viewBox="0 0 230.000000 171.000000"
 preserveAspectRatio="xMidYMid meet">

<g transform="translate(0.000000,171.000000) scale(0.100000,-0.100000)"
fill="#000000" stroke="none">
<path d="M1014 1453 c-27 -20 -51 -38 -53 -39 -2 -2 4 -10 12 -19 9 -9 19 -30
22 -48 3 -18 5 -199 3 -404 l-3 -372 -29 -30 -30 -31 97 0 c53 0 97 2 97 5 0
2 -11 15 -25 29 l-25 25 0 461 c0 253 -4 460 -9 460 -4 0 -30 -17 -57 -37z"/>
<path d="M180 1388 c-6 -29 -13 -64 -17 -78 -5 -21 0 -18 33 19 53 62 101 81
202 81 l82 0 0 -398 c0 -235 -4 -411 -10 -432 -6 -19 -20 -43 -33 -52 -21 -17
-19 -18 82 -18 l104 0 -24 26 -24 26 -3 424 -3 424 83 0 c100 0 147 -19 202
-80 l38 -42 -7 33 c-4 19 -13 52 -19 74 l-12 40 -331 3 -331 2 -12 -52z"/>
<path d="M1249 1165 c-25 -8 -64 -32 -86 -52 -22 -21 -32 -33 -24 -26 69 52
173 67 228 33 59 -36 67 -64 71 -273 5 -220 0 -266 -34 -307 l-26 -30 97 0 97
0 -26 31 c-26 30 -26 31 -26 218 0 195 -8 268 -36 328 -36 74 -140 108 -235
78z"/>
<path d="M1845 1152 c-132 -45 -205 -159 -205 -318 0 -138 59 -238 175 -295
138 -67 312 -25 379 92 l20 34 -34 -32 c-60 -58 -191 -86 -281 -60 -57 17
-114 65 -142 122 -16 33 -37 123 -37 160 l0 25 245 0 245 0 0 28 c0 90 -64
199 -139 239 -55 28 -152 31 -226 5z m205 -17 c80 -42 116 -146 70 -205 -19
-25 -19 -25 -211 -28 l-191 -3 7 37 c17 94 97 191 173 213 43 11 116 5 152
-14z"/>
</g>
</svg>
