<?xml version="1.0" standalone="no"?>
<!DOCTYPE svg PUBLIC "-//W3C//DTD SVG 1.0//EN" "http://www.w3.org/TR/2001/REC-SVG-20010904/DTD/svg10.dtd">
<svg xmlns="http://www.w3.org/2000/svg" xmlns:xlink="http://www.w3.org/1999/xlink" id="body_1" width="280" height="209">

<g transform="matrix(1 0 0 1 0 0)">
	<g transform="matrix(0.6986572 0 0 0.6986572 0.2685634 -0)">
		<g>
            <path d="M371.877 244.129C 371.372 244.622 370.887 245.026 370.799 245.026C 370.53 245.026 369.911 245.743 369.701 246.298C 369.592 246.586 369.364 246.821 369.194 246.821C 369.024 246.821 368.886 247.162 368.886 247.579C 368.886 247.995 368.684 248.413 368.437 248.508C 368.076 248.647 367.988 249.318 367.988 251.939C 367.988 254.637 368.065 255.198 368.437 255.198C 368.711 255.198 368.886 255.477 368.886 255.914C 368.886 256.308 369.088 256.708 369.334 256.802C 369.581 256.897 369.783 257.155 369.783 257.377C 369.783 257.852 371.196 259.217 371.971 259.49C 372.269 259.596 372.43 259.817 372.327 259.983C 372.214 260.167 372.624 260.284 373.377 260.284C 374.076 260.284 374.807 260.479 375.061 260.733C 375.645 261.317 378.103 261.326 378.743 260.747C 379.007 260.508 379.725 260.278 380.337 260.237C 381.011 260.192 381.451 260.009 381.451 259.774C 381.451 259.561 381.653 259.387 381.9 259.387C 382.147 259.387 382.349 259.202 382.349 258.975C 382.349 258.749 382.753 258.483 383.248 258.384C 383.743 258.285 384.131 258.1 384.111 257.973C 383.997 257.275 384.19 256.703 384.518 256.769C 384.729 256.811 384.933 256.479 384.988 256.003C 385.041 255.541 385.277 255.089 385.511 254.999C 386.151 254.754 386.131 248.754 385.49 248.508C 385.243 248.413 385.041 248.067 385.041 247.738C 385.041 247.134 383.173 245.026 382.638 245.026C 382.479 245.026 382.349 244.824 382.349 244.577C 382.349 244.331 382.204 244.129 382.028 244.129C 381.852 244.129 381.506 243.927 381.259 243.68C 380.904 243.326 379.966 243.231 376.803 243.231L376.803 243.231L372.795 243.231L371.877 244.129" stroke="none" fill="#DCAC94" fill-rule="nonzero" />
            <path d="M175.567 23.859C 175.512 23.983 174.963 24.341 174.346 24.654C 173.728 24.968 173.224 25.406 173.224 25.627C 173.224 25.848 173.022 26.028 172.775 26.028C 172.528 26.028 172.326 26.23 172.326 26.477C 172.326 26.776 172.027 26.926 171.429 26.926C 170.83 26.926 170.531 27.076 170.531 27.375C 170.531 27.622 170.329 27.823 170.082 27.823C 169.835 27.823 169.634 28.025 169.634 28.272C 169.634 28.519 169.432 28.721 169.185 28.721C 168.938 28.721 168.736 28.923 168.736 29.17C 168.736 29.429 168.466 29.619 168.097 29.619C 167.746 29.619 167.146 29.955 166.765 30.366C 166.384 30.778 165.931 31.114 165.758 31.114C 165.586 31.114 165.445 31.316 165.445 31.563C 165.445 31.862 165.146 32.012 164.547 32.012C 163.949 32.012 163.65 32.162 163.65 32.461C 163.65 32.708 163.448 32.909 163.201 32.909C 162.954 32.909 162.752 33.111 162.752 33.358C 162.752 33.605 162.55 33.807 162.304 33.807C 162.057 33.807 161.855 34.009 161.855 34.256C 161.855 34.535 161.572 34.705 161.107 34.705C 160.642 34.705 160.359 34.874 160.359 35.153C 160.359 35.4 160.157 35.602 159.91 35.602C 159.663 35.602 159.461 35.726 159.461 35.878C 159.461 36.029 159.058 36.242 158.564 36.35C 157.753 36.528 157.666 36.66 157.666 37.72C 157.666 38.824 157.719 38.893 158.564 38.893C 159.162 38.893 159.461 39.043 159.461 39.342C 159.461 39.641 159.761 39.791 160.359 39.791C 160.957 39.791 161.257 39.94 161.257 40.239C 161.257 40.486 161.377 40.688 161.523 40.688C 161.67 40.688 161.875 41.025 161.978 41.436C 162.081 41.847 162.298 42.184 162.459 42.184C 162.62 42.184 162.752 42.525 162.752 42.941C 162.752 43.358 162.954 43.776 163.201 43.871C 163.506 43.988 163.65 44.465 163.65 45.357C 163.65 46.326 163.768 46.672 164.099 46.672C 164.496 46.672 164.547 53.47 164.547 106.058C 164.547 158.647 164.496 165.445 164.099 165.445C 163.766 165.445 163.65 165.794 163.65 166.791C 163.65 167.789 163.534 168.138 163.201 168.138C 162.877 168.138 162.752 168.47 162.752 169.334C 162.752 170.199 162.628 170.531 162.304 170.531C 162.057 170.531 161.855 170.733 161.855 170.98C 161.855 171.227 161.72 171.429 161.556 171.429C 161.391 171.429 161.257 171.832 161.257 172.326C 161.257 172.924 161.107 173.224 160.808 173.224C 160.561 173.224 160.359 173.358 160.359 173.523C 160.359 173.687 160.157 173.822 159.91 173.822C 159.663 173.822 159.461 174.024 159.461 174.271C 159.461 174.551 159.178 174.72 158.704 174.72C 158.288 174.72 157.869 174.921 157.775 175.168C 157.68 175.415 157.295 175.617 156.918 175.617C 156.542 175.617 156.157 175.819 156.062 176.066C 155.968 176.313 155.549 176.515 155.133 176.515C 154.491 176.515 154.375 176.651 154.375 177.412L154.375 177.412L154.375 178.31L171.429 178.31L188.482 178.31L188.482 177.412C 188.482 176.614 188.382 176.515 187.584 176.515C 186.986 176.515 186.687 176.365 186.687 176.066C 186.687 175.819 186.429 175.617 186.113 175.617C 185.798 175.617 184.963 175.079 184.257 174.42C 183.551 173.762 182.866 173.224 182.736 173.224C 182.605 173.224 182.498 173.022 182.498 172.775C 182.498 172.528 182.296 172.326 182.049 172.326C 181.803 172.326 181.601 172.124 181.601 171.877C 181.601 171.631 181.399 171.429 181.152 171.429C 180.871 171.429 180.703 171.145 180.703 170.671C 180.703 170.255 180.501 169.836 180.254 169.742C 180.007 169.647 179.806 169.247 179.806 168.854C 179.806 168.46 179.671 168.138 179.506 168.138C 179.342 168.138 179.207 167.595 179.207 166.932C 179.207 166.135 179.055 165.667 178.758 165.553C 178.361 165.401 178.31 157.23 178.31 94.508L178.31 94.508L178.31 23.635L176.988 23.635C 176.262 23.635 175.622 23.736 175.567 23.859zM37.996 33.807C 37.996 34.405 37.846 34.705 37.547 34.705C 37.191 34.705 37.098 35.133 37.098 36.767C 37.098 38.324 36.988 38.871 36.649 39.001C 36.325 39.126 36.2 39.633 36.2 40.828C 36.2 41.738 36.066 42.483 35.901 42.483C 35.73 42.483 35.602 43.381 35.602 44.577C 35.602 46.24 35.509 46.672 35.153 46.672C 34.797 46.672 34.705 47.104 34.705 48.766C 34.705 50.428 34.612 50.86 34.256 50.86C 33.9 50.86 33.807 51.292 33.807 52.954C 33.807 54.616 33.714 55.049 33.358 55.049C 32.731 55.049 32.712 58.283 33.338 58.523C 33.997 58.776 35.602 57.44 35.602 56.638C 35.602 56.257 35.737 55.946 35.901 55.946C 36.066 55.946 36.2 55.744 36.2 55.497C 36.2 55.251 36.402 55.049 36.649 55.049C 36.928 55.049 37.098 54.766 37.098 54.301C 37.098 53.835 37.268 53.553 37.547 53.553C 37.794 53.553 37.996 53.365 37.996 53.136C 37.996 52.907 38.197 52.642 38.444 52.547C 38.691 52.452 38.893 52.034 38.893 51.617C 38.893 51.144 39.061 50.86 39.342 50.86C 39.589 50.86 39.791 50.658 39.791 50.411C 39.791 50.165 39.993 49.963 40.239 49.963C 40.486 49.963 40.688 49.761 40.688 49.514C 40.688 49.267 40.89 49.065 41.137 49.065C 41.384 49.065 41.586 48.921 41.586 48.745C 41.586 48.33 42.347 47.569 42.761 47.569C 42.937 47.569 43.082 47.367 43.082 47.12C 43.082 46.874 43.283 46.672 43.53 46.672C 43.777 46.672 43.979 46.47 43.979 46.223C 43.979 45.976 44.181 45.774 44.428 45.774C 44.675 45.774 44.877 45.572 44.877 45.325C 44.877 45.045 45.16 44.877 45.634 44.877C 46.05 44.877 46.469 44.675 46.563 44.428C 46.658 44.181 46.923 43.979 47.152 43.979C 47.382 43.979 47.569 43.777 47.569 43.53C 47.569 43.251 47.852 43.082 48.317 43.082C 48.783 43.082 49.065 42.912 49.065 42.633C 49.065 42.386 49.267 42.184 49.514 42.184C 49.761 42.184 49.963 42.049 49.963 41.885C 49.963 41.72 50.303 41.586 50.72 41.586C 51.136 41.586 51.555 41.384 51.649 41.137C 51.744 40.89 52.148 40.688 52.547 40.688C 52.946 40.688 53.35 40.486 53.445 40.239C 53.557 39.947 54.022 39.791 54.781 39.791C 55.617 39.791 55.946 39.664 55.946 39.342C 55.946 38.997 56.328 38.893 57.592 38.893C 58.855 38.893 59.237 38.789 59.237 38.444C 59.237 38.075 59.77 37.996 62.238 37.996C 64.63 37.996 65.274 37.904 65.412 37.547C 65.559 37.162 66.854 37.098 74.527 37.098L74.527 37.098L83.47 37.098L83.47 99.444C 83.47 154.588 83.419 161.811 83.022 161.963C 82.671 162.098 82.573 162.695 82.573 164.688C 82.573 166.757 82.488 167.24 82.124 167.24C 81.8 167.24 81.675 167.573 81.675 168.437C 81.675 169.301 81.551 169.634 81.227 169.634C 80.927 169.634 80.778 169.933 80.778 170.531C 80.778 171.129 80.628 171.429 80.329 171.429C 80.082 171.429 79.88 171.616 79.88 171.845C 79.88 172.075 79.678 172.34 79.432 172.434C 79.185 172.529 78.983 172.813 78.983 173.065C 78.983 173.717 77.895 174.72 77.188 174.72C 76.855 174.72 76.589 174.919 76.589 175.168C 76.589 175.449 76.306 175.617 75.832 175.617C 75.416 175.617 74.997 175.819 74.903 176.066C 74.803 176.325 74.356 176.515 73.845 176.515C 73.056 176.515 72.97 176.604 73.054 177.337L73.054 177.337L73.149 178.16L90.576 178.237L108.003 178.314L108.003 177.415C 108.003 176.665 107.884 176.515 107.287 176.515C 106.893 176.515 106.494 176.313 106.399 176.066C 106.304 175.819 105.886 175.617 105.469 175.617C 104.996 175.617 104.712 175.449 104.712 175.168C 104.712 174.921 104.571 174.72 104.399 174.72C 104.226 174.72 103.773 174.383 103.392 173.972C 103.011 173.56 102.546 173.224 102.359 173.224C 102.172 173.224 102.019 173.022 102.019 172.775C 102.019 172.528 101.896 172.326 101.744 172.326C 101.593 172.326 101.38 171.922 101.272 171.429C 101.163 170.935 100.95 170.531 100.799 170.531C 100.647 170.531 100.524 170.19 100.524 169.774C 100.524 169.357 100.322 168.939 100.075 168.844C 99.782 168.732 99.626 168.267 99.626 167.507C 99.626 166.671 99.499 166.343 99.177 166.343C 98.78 166.343 98.728 158.963 98.728 101.72L98.728 101.72L98.728 37.098L107.704 37.098C 115.482 37.098 116.679 37.158 116.679 37.547C 116.679 37.916 117.211 37.996 119.671 37.996C 122.131 37.996 122.663 38.075 122.663 38.444C 122.663 38.788 123.041 38.893 124.276 38.893C 125.434 38.893 125.938 39.02 126.062 39.342C 126.157 39.589 126.56 39.791 126.959 39.791C 127.358 39.791 127.762 39.993 127.857 40.239C 127.971 40.536 128.439 40.688 129.235 40.688C 130.108 40.688 130.441 40.812 130.441 41.137C 130.441 41.416 130.724 41.586 131.189 41.586C 131.601 41.586 131.937 41.72 131.937 41.885C 131.937 42.049 132.125 42.184 132.354 42.184C 132.583 42.184 132.848 42.386 132.943 42.633C 133.038 42.88 133.456 43.082 133.872 43.082C 134.346 43.082 134.63 43.25 134.63 43.53C 134.63 43.777 134.832 43.979 135.079 43.979C 135.325 43.979 135.527 44.181 135.527 44.428C 135.527 44.727 135.826 44.877 136.425 44.877C 136.918 44.877 137.322 45.022 137.322 45.199C 137.322 45.62 139.87 48.168 140.291 48.168C 140.468 48.168 140.613 48.369 140.613 48.616C 140.613 48.863 140.815 49.065 141.062 49.065C 141.309 49.065 141.511 49.267 141.511 49.514C 141.511 49.761 141.713 49.963 141.96 49.963C 142.206 49.963 142.408 50.165 142.408 50.411C 142.408 50.658 142.61 50.86 142.857 50.86C 143.104 50.86 143.306 51.062 143.306 51.309C 143.306 51.556 143.426 51.758 143.573 51.758C 143.719 51.758 143.924 52.094 144.027 52.506C 144.13 52.917 144.347 53.254 144.508 53.254C 144.67 53.254 144.802 53.455 144.802 53.702C 144.802 53.949 145.004 54.151 145.251 54.151C 145.531 54.151 145.699 54.435 145.699 54.908C 145.699 55.325 145.901 55.743 146.148 55.838C 146.395 55.933 146.597 56.198 146.597 56.427C 146.597 56.656 146.799 56.844 147.046 56.844C 147.326 56.844 147.494 57.127 147.494 57.601C 147.494 58.574 148.339 58.927 148.884 58.181C 149.455 57.4 149.423 54.566 148.841 54.342C 148.511 54.216 148.392 53.696 148.392 52.387C 148.392 51.201 148.242 50.453 147.943 50.155C 147.662 49.874 147.494 49.139 147.494 48.189C 147.494 47.04 147.386 46.672 147.046 46.672C 146.701 46.672 146.597 46.288 146.597 45.017C 146.597 43.822 146.472 43.314 146.148 43.19C 145.826 43.066 145.699 42.562 145.699 41.404C 145.699 40.169 145.594 39.791 145.251 39.791C 144.906 39.791 144.802 39.407 144.802 38.136C 144.802 36.941 144.677 36.433 144.353 36.309C 144.031 36.185 143.904 35.681 143.904 34.523L143.904 34.523L143.904 32.909L90.95 32.909L37.996 32.909L37.996 33.807zM214.211 73.448C 214.211 73.817 213.679 73.897 211.219 73.897C 208.759 73.897 208.227 73.977 208.227 74.346C 208.227 74.695 207.828 74.794 206.432 74.794C 205.036 74.794 204.637 74.894 204.637 75.243C 204.637 75.567 204.305 75.692 203.441 75.692C 202.576 75.692 202.244 75.817 202.244 76.141C 202.244 76.473 201.895 76.589 200.898 76.589C 199.9 76.589 199.551 76.706 199.551 77.038C 199.551 77.285 199.293 77.487 198.977 77.487C 198.362 77.487 196.475 78.386 196.31 78.758C 196.255 78.882 196.02 78.983 195.787 78.983C 195.553 78.983 195.363 79.185 195.363 79.432C 195.363 79.731 195.064 79.88 194.465 79.88C 193.867 79.88 193.568 80.03 193.568 80.329C 193.568 80.576 193.366 80.778 193.119 80.778C 192.872 80.778 192.67 80.98 192.67 81.227C 192.67 81.506 192.388 81.675 191.922 81.675C 191.457 81.675 191.174 81.845 191.174 82.124C 191.174 82.371 190.972 82.573 190.726 82.573C 190.479 82.573 190.277 82.775 190.277 83.022C 190.277 83.269 190.075 83.47 189.828 83.47C 189.581 83.47 189.379 83.605 189.379 83.77C 189.379 83.934 189.177 84.069 188.93 84.069C 188.684 84.069 188.482 84.271 188.482 84.518C 188.482 84.776 188.211 84.966 187.844 84.966C 187.226 84.966 185.191 86.819 185.191 87.381C 185.191 87.534 184.989 87.659 184.742 87.659C 184.495 87.659 184.293 87.861 184.293 88.108C 184.293 88.355 184.091 88.556 183.844 88.556C 183.545 88.556 183.396 88.856 183.396 89.454C 183.396 90.052 183.246 90.352 182.947 90.352C 182.668 90.352 182.498 90.634 182.498 91.099C 182.498 91.773 182.618 91.847 183.695 91.847C 184.559 91.847 184.892 91.723 184.892 91.399C 184.892 91.152 185.093 90.95 185.34 90.95C 185.587 90.95 185.789 90.748 185.789 90.501C 185.789 90.254 185.991 90.052 186.238 90.052C 186.485 90.052 186.687 89.918 186.687 89.753C 186.687 89.589 187.027 89.454 187.444 89.454C 187.86 89.454 188.279 89.252 188.373 89.005C 188.468 88.758 188.733 88.556 188.962 88.556C 189.192 88.556 189.379 88.355 189.379 88.108C 189.379 87.827 189.663 87.659 190.137 87.659C 190.553 87.659 190.971 87.457 191.066 87.21C 191.161 86.963 191.56 86.761 191.954 86.761C 192.391 86.761 192.67 86.587 192.67 86.313C 192.67 86.066 192.872 85.864 193.119 85.864C 193.366 85.864 193.568 85.662 193.568 85.415C 193.568 85.116 193.867 84.966 194.465 84.966C 195.064 84.966 195.363 84.817 195.363 84.518C 195.363 84.218 195.662 84.069 196.26 84.069C 196.754 84.069 197.158 83.934 197.158 83.77C 197.158 83.605 197.633 83.47 198.214 83.47C 198.877 83.47 199.335 83.303 199.443 83.022C 199.548 82.749 200 82.573 200.594 82.573C 201.132 82.573 201.74 82.371 201.945 82.124C 202.159 81.866 202.811 81.675 203.477 81.675C 204.309 81.675 204.637 81.548 204.637 81.227C 204.637 80.863 205.119 80.778 207.18 80.778C 209.241 80.778 209.723 80.693 209.723 80.329C 209.723 79.97 210.172 79.88 211.967 79.88C 213.762 79.88 214.211 79.97 214.211 80.329C 214.211 80.685 214.643 80.778 216.305 80.778C 217.967 80.778 218.399 80.87 218.399 81.227C 218.399 81.522 218.695 81.675 219.265 81.675C 219.758 81.675 220.204 81.868 220.303 82.124C 220.397 82.371 220.67 82.573 220.909 82.573C 221.415 82.573 223.29 83.516 223.436 83.844C 223.49 83.968 223.726 84.069 223.959 84.069C 224.192 84.069 224.383 84.271 224.383 84.518C 224.383 84.764 224.585 84.966 224.832 84.966C 225.079 84.966 225.28 85.168 225.28 85.415C 225.28 85.662 225.482 85.864 225.729 85.864C 225.976 85.864 226.178 86.066 226.178 86.313C 226.178 86.559 226.38 86.761 226.627 86.761C 226.874 86.761 227.076 86.914 227.076 87.101C 227.076 87.288 227.412 87.753 227.823 88.134C 228.235 88.515 228.571 89.04 228.571 89.3C 228.571 89.559 228.773 89.849 229.02 89.944C 229.276 90.042 229.469 90.489 229.469 90.982C 229.469 91.552 229.622 91.847 229.918 91.847C 230.198 91.847 230.366 92.131 230.366 92.605C 230.366 93.021 230.568 93.44 230.815 93.534C 231.108 93.647 231.264 94.112 231.264 94.871C 231.264 95.707 231.391 96.036 231.713 96.036C 232.044 96.036 232.162 96.382 232.162 97.357C 232.162 98.084 232.304 98.726 232.478 98.784C 232.66 98.845 232.869 100.31 232.971 102.25C 233.069 104.098 233.263 105.61 233.403 105.61C 233.543 105.61 233.657 118.13 233.657 133.433C 233.657 148.736 233.542 161.257 233.401 161.257C 233.26 161.257 233.069 162.364 232.976 163.717C 232.883 165.07 232.662 166.226 232.484 166.285C 232.307 166.344 232.162 166.92 232.162 167.564C 232.162 168.406 232.035 168.736 231.713 168.736C 231.414 168.736 231.264 169.035 231.264 169.634C 231.264 170.232 231.114 170.531 230.815 170.531C 230.516 170.531 230.366 170.83 230.366 171.429C 230.366 172.027 230.217 172.326 229.918 172.326C 229.671 172.326 229.469 172.528 229.469 172.775C 229.469 173.022 229.316 173.224 229.129 173.224C 228.942 173.224 228.478 173.56 228.096 173.972C 227.715 174.383 227.191 174.72 226.931 174.72C 226.671 174.72 226.381 174.921 226.286 175.168C 226.191 175.415 225.926 175.617 225.697 175.617C 225.468 175.617 225.28 175.819 225.28 176.066C 225.28 176.399 224.929 176.515 223.914 176.515C 222.6 176.515 222.552 176.546 222.643 177.337L222.643 177.337L222.737 178.16L240.09 178.16L257.442 178.16L257.537 177.337C 257.626 176.559 257.565 176.515 256.415 176.515C 255.533 176.515 255.198 176.391 255.198 176.066C 255.198 175.767 254.899 175.617 254.301 175.617C 253.702 175.617 253.403 175.467 253.403 175.168C 253.403 174.921 253.262 174.72 253.09 174.72C 252.917 174.72 252.464 174.383 252.083 173.972C 251.702 173.56 251.237 173.224 251.05 173.224C 250.863 173.224 250.711 173.022 250.711 172.775C 250.711 172.528 250.576 172.326 250.411 172.326C 250.247 172.326 250.112 172.066 250.112 171.749C 250.112 171.432 249.91 170.97 249.663 170.723C 249.417 170.477 249.215 170.13 249.215 169.954C 249.215 169.778 249.013 169.634 248.766 169.634C 248.442 169.634 248.317 169.301 248.317 168.437C 248.317 167.573 248.192 167.24 247.868 167.24C 247.505 167.24 247.42 166.758 247.42 164.697C 247.42 162.636 247.335 162.154 246.971 162.154C 246.575 162.154 246.522 158.531 246.522 131.339C 246.522 104.147 246.469 100.524 246.073 100.524C 245.718 100.524 245.625 100.095 245.625 98.461C 245.625 96.904 245.515 96.357 245.176 96.227C 244.88 96.113 244.727 95.645 244.727 94.849C 244.727 94.185 244.592 93.642 244.428 93.642C 244.263 93.642 244.129 93.1 244.129 92.436C 244.129 91.64 243.976 91.172 243.68 91.058C 243.433 90.963 243.231 90.564 243.231 90.17C 243.231 89.733 243.056 89.454 242.782 89.454C 242.483 89.454 242.334 89.155 242.334 88.556C 242.334 87.958 242.184 87.659 241.885 87.659C 241.586 87.659 241.436 87.36 241.436 86.761C 241.436 86.163 241.286 85.864 240.987 85.864C 240.708 85.864 240.539 85.581 240.539 85.116C 240.539 84.651 240.369 84.368 240.09 84.368C 239.843 84.368 239.641 84.166 239.641 83.919C 239.641 83.672 239.439 83.47 239.192 83.47C 238.945 83.47 238.743 83.269 238.743 83.022C 238.743 82.775 238.609 82.573 238.444 82.573C 238.28 82.573 238.145 82.371 238.145 82.124C 238.145 81.877 237.943 81.675 237.696 81.675C 237.45 81.675 237.248 81.473 237.248 81.227C 237.248 80.98 237.046 80.778 236.799 80.778C 236.552 80.778 236.35 80.576 236.35 80.329C 236.35 80.082 236.148 79.88 235.901 79.88C 235.654 79.88 235.453 79.678 235.453 79.432C 235.453 79.185 235.251 78.983 235.004 78.983C 234.757 78.983 234.555 78.851 234.555 78.689C 234.555 78.528 234.185 78.305 233.732 78.194C 233.28 78.083 232.613 77.677 232.251 77.291C 231.888 76.905 231.316 76.589 230.979 76.589C 230.634 76.589 230.366 76.393 230.366 76.141C 230.366 75.808 230.017 75.692 229.02 75.692C 228.023 75.692 227.674 75.576 227.674 75.243C 227.674 74.919 227.341 74.794 226.477 74.794C 225.613 74.794 225.28 74.67 225.28 74.346C 225.28 73.977 224.752 73.897 222.321 73.897C 219.966 73.897 219.326 73.805 219.189 73.448C 219.055 73.101 218.474 72.999 216.614 72.999C 214.677 72.999 214.211 73.086 214.211 73.448M315.034 74.346C 315.034 74.725 314.318 74.794 310.387 74.794C 306.533 74.794 305.711 74.871 305.568 75.243C 305.438 75.582 304.891 75.692 303.334 75.692C 301.7 75.692 301.272 75.785 301.272 76.141C 301.272 76.465 300.938 76.589 300.065 76.589C 299.269 76.589 298.801 76.742 298.687 77.038C 298.575 77.331 298.109 77.487 297.35 77.487C 296.71 77.487 296.185 77.622 296.185 77.786C 296.185 77.951 295.724 78.085 295.16 78.085C 294.596 78.085 293.932 78.287 293.685 78.534C 293.438 78.781 292.958 78.983 292.617 78.983C 292.265 78.983 291.997 79.177 291.997 79.432C 291.997 79.731 291.698 79.88 291.099 79.88C 290.501 79.88 290.202 80.03 290.202 80.329C 290.202 80.628 289.903 80.778 289.304 80.778C 288.706 80.778 288.407 80.927 288.407 81.227C 288.407 81.506 288.124 81.675 287.659 81.675C 287.194 81.675 286.911 81.845 286.911 82.124C 286.911 82.371 286.709 82.573 286.462 82.573C 286.215 82.573 286.013 82.775 286.013 83.022C 286.013 83.307 285.726 83.47 285.225 83.47C 284.768 83.47 284.145 83.785 283.743 84.218C 283.362 84.63 282.909 84.966 282.737 84.966C 282.564 84.966 282.423 85.168 282.423 85.415C 282.423 85.662 282.221 85.864 281.975 85.864C 281.728 85.864 281.526 86.066 281.526 86.313C 281.526 86.559 281.324 86.761 281.077 86.761C 280.83 86.761 280.628 86.963 280.628 87.21C 280.628 87.489 280.346 87.659 279.88 87.659C 279.415 87.659 279.132 87.828 279.132 88.108C 279.132 88.355 278.93 88.556 278.684 88.556C 278.404 88.556 278.235 88.839 278.235 89.304C 278.235 89.77 278.065 90.052 277.786 90.052C 277.539 90.052 277.337 90.254 277.337 90.501C 277.337 90.748 277.135 90.95 276.889 90.95C 276.642 90.95 276.44 91.152 276.44 91.399C 276.44 91.645 276.238 91.847 275.991 91.847C 275.744 91.847 275.542 92.049 275.542 92.296C 275.542 92.543 275.408 92.745 275.243 92.745C 275.079 92.745 274.944 93.005 274.944 93.322C 274.944 93.639 274.742 94.101 274.495 94.348C 274.248 94.595 274.046 94.941 274.046 95.117C 274.046 95.293 273.844 95.438 273.598 95.438C 273.318 95.438 273.149 95.72 273.149 96.185C 273.149 96.651 272.979 96.933 272.7 96.933C 272.453 96.933 272.251 97.121 272.251 97.35C 272.251 97.579 272.049 97.844 271.803 97.939C 271.556 98.034 271.354 98.438 271.354 98.837C 271.354 99.236 271.152 99.64 270.905 99.734C 270.658 99.829 270.456 100.233 270.456 100.632C 270.456 101.031 270.254 101.435 270.007 101.529C 269.742 101.631 269.559 102.081 269.559 102.63C 269.559 103.14 269.357 103.76 269.11 104.007C 268.863 104.254 268.661 104.715 268.661 105.033C 268.661 105.35 268.527 105.61 268.362 105.61C 268.197 105.61 268.063 106.215 268.063 106.956C 268.063 107.953 267.946 108.302 267.614 108.302C 267.27 108.302 267.165 108.684 267.165 109.948C 267.165 111.211 267.061 111.593 266.717 111.593C 266.36 111.593 266.268 112.025 266.268 113.687C 266.268 115.349 266.175 115.782 265.819 115.782C 265.443 115.782 265.37 116.413 265.37 119.671C 265.37 122.929 265.297 123.56 264.921 123.56C 264.542 123.56 264.473 124.275 264.473 128.197C 264.473 132.12 264.542 132.835 264.921 132.835C 265.294 132.835 265.37 133.416 265.37 136.275C 265.37 139.134 265.446 139.716 265.819 139.716C 266.164 139.716 266.268 140.099 266.268 141.371C 266.268 142.566 266.392 143.073 266.717 143.198C 267.039 143.321 267.165 143.825 267.165 144.983C 267.165 146.218 267.271 146.597 267.614 146.597C 267.938 146.597 268.063 146.929 268.063 147.794C 268.063 148.452 268.187 148.99 268.338 148.99C 268.49 148.99 268.702 149.394 268.811 149.888C 268.919 150.381 269.132 150.785 269.283 150.785C 269.435 150.785 269.559 151.189 269.559 151.683C 269.559 152.281 269.708 152.58 270.007 152.58C 270.288 152.58 270.456 152.864 270.456 153.338C 270.456 153.754 270.658 154.173 270.905 154.267C 271.152 154.362 271.354 154.762 271.354 155.155C 271.354 155.592 271.529 155.871 271.803 155.871C 272.102 155.871 272.251 156.171 272.251 156.769C 272.251 157.367 272.401 157.666 272.7 157.666C 272.947 157.666 273.149 157.868 273.149 158.115C 273.149 158.362 273.351 158.564 273.598 158.564C 273.862 158.564 274.048 158.84 274.052 159.237C 274.054 159.607 274.391 160.227 274.799 160.615C 275.208 161.002 275.542 161.44 275.542 161.587C 275.542 161.734 275.744 161.855 275.991 161.855C 276.238 161.855 276.44 162.057 276.44 162.304C 276.44 162.55 276.642 162.752 276.889 162.752C 277.135 162.752 277.337 162.954 277.337 163.201C 277.337 163.448 277.539 163.65 277.786 163.65C 278.048 163.65 278.235 163.922 278.235 164.306C 278.235 165.022 280.402 167.24 281.102 167.24C 281.335 167.24 281.526 167.375 281.526 167.539C 281.526 167.704 281.728 167.838 281.975 167.838C 282.221 167.838 282.423 168.04 282.423 168.287C 282.423 168.534 282.625 168.736 282.872 168.736C 283.119 168.736 283.321 168.938 283.321 169.185C 283.321 169.432 283.523 169.634 283.77 169.634C 284.016 169.634 284.218 169.835 284.218 170.082C 284.218 170.329 284.406 170.531 284.635 170.531C 284.864 170.531 285.129 170.733 285.224 170.98C 285.319 171.227 285.737 171.429 286.154 171.429C 286.588 171.429 286.911 171.6 286.911 171.83C 286.911 172.051 287.416 172.489 288.033 172.803C 288.65 173.116 289.2 173.474 289.255 173.598C 289.309 173.721 289.747 173.822 290.227 173.822C 290.803 173.822 291.099 173.974 291.099 174.271C 291.099 174.551 291.383 174.72 291.857 174.72C 292.273 174.72 292.692 174.921 292.786 175.168C 292.881 175.415 293.281 175.617 293.674 175.617C 294.111 175.617 294.39 175.792 294.39 176.066C 294.39 176.398 294.739 176.515 295.737 176.515C 296.734 176.515 297.083 176.631 297.083 176.963C 297.083 177.285 297.412 177.412 298.248 177.412C 299.007 177.412 299.472 177.568 299.585 177.861C 299.697 178.154 300.163 178.31 300.931 178.31C 301.699 178.31 302.165 178.465 302.277 178.758C 302.406 179.094 302.943 179.207 304.403 179.207C 305.507 179.207 306.358 179.337 306.358 179.506C 306.358 179.699 309.399 179.806 314.884 179.806C 320.369 179.806 323.411 179.699 323.411 179.506C 323.411 179.341 324.201 179.207 325.184 179.207C 326.362 179.207 327.109 179.056 327.407 178.758C 327.659 178.506 328.39 178.31 329.074 178.31C 329.957 178.31 330.292 178.186 330.292 177.861C 330.292 177.536 330.625 177.412 331.498 177.412C 332.294 177.412 332.762 177.26 332.876 176.963C 332.971 176.717 333.37 176.515 333.764 176.515C 334.201 176.515 334.48 176.34 334.48 176.066C 334.48 175.767 334.779 175.617 335.378 175.617C 335.976 175.617 336.275 175.467 336.275 175.168C 336.275 174.869 336.574 174.72 337.173 174.72C 337.771 174.72 338.07 174.57 338.07 174.271C 338.07 173.972 338.369 173.822 338.968 173.822C 339.461 173.822 339.865 173.687 339.865 173.523C 339.865 173.358 340.139 173.224 340.473 173.224C 340.807 173.224 341.158 173.022 341.253 172.775C 341.348 172.528 341.613 172.326 341.842 172.326C 342.071 172.326 342.259 172.124 342.259 171.877C 342.259 171.597 342.542 171.429 343.016 171.429C 343.433 171.429 343.851 171.227 343.946 170.98C 344.04 170.733 344.305 170.531 344.535 170.531C 344.764 170.531 344.951 170.329 344.951 170.082C 344.951 169.835 345.153 169.634 345.4 169.634C 345.647 169.634 345.849 169.432 345.849 169.185C 345.849 168.938 345.984 168.736 346.148 168.736C 346.313 168.736 346.447 168.534 346.447 168.287C 346.447 168.04 346.649 167.838 346.896 167.838C 347.143 167.838 347.345 167.704 347.345 167.539C 347.345 167.375 347.547 167.24 347.794 167.24C 348.04 167.24 348.242 167.038 348.242 166.791C 348.242 166.545 348.444 166.343 348.691 166.343C 348.938 166.343 349.14 166.141 349.14 165.894C 349.14 165.647 349.342 165.445 349.589 165.445C 349.835 165.445 350.037 165.243 350.037 164.996C 350.037 164.749 350.239 164.547 350.486 164.547C 350.733 164.547 350.935 164.36 350.935 164.131C 350.935 163.902 351.137 163.636 351.384 163.542C 351.631 163.447 351.832 163.061 351.832 162.683C 351.832 162.3 352.163 161.749 352.58 161.435C 353.008 161.114 353.328 160.571 353.328 160.168C 353.328 159.739 353.505 159.461 353.777 159.461C 354.076 159.461 354.226 159.162 354.226 158.564C 354.226 157.966 354.375 157.666 354.675 157.666C 354.974 157.666 355.123 157.367 355.123 156.769C 355.123 156.155 355.271 155.871 355.59 155.871C 356.413 155.871 356.04 153.651 355.197 153.532C 354.792 153.474 354.45 153.624 354.342 153.906C 354.243 154.164 353.974 154.375 353.745 154.375C 353.516 154.375 353.328 154.651 353.328 154.988C 353.328 155.325 352.992 155.913 352.58 156.294C 352.169 156.675 351.832 157.14 351.832 157.327C 351.832 157.514 351.631 157.666 351.384 157.666C 351.137 157.666 350.935 157.868 350.935 158.115C 350.935 158.362 350.733 158.564 350.486 158.564C 350.239 158.564 350.037 158.766 350.037 159.013C 350.037 159.26 349.835 159.461 349.589 159.461C 349.342 159.461 349.14 159.663 349.14 159.91C 349.14 160.157 348.938 160.359 348.691 160.359C 348.444 160.359 348.242 160.561 348.242 160.808C 348.242 161.055 348.04 161.257 347.794 161.257C 347.547 161.257 347.345 161.391 347.345 161.556C 347.345 161.72 347.071 161.855 346.737 161.855C 346.403 161.855 346.052 162.057 345.957 162.304C 345.862 162.55 345.459 162.752 345.06 162.752C 344.661 162.752 344.257 162.954 344.162 163.201C 344.067 163.448 343.663 163.65 343.265 163.65C 342.866 163.65 342.462 163.852 342.367 164.099C 342.272 164.346 341.873 164.547 341.479 164.547C 341.042 164.547 340.763 164.722 340.763 164.996C 340.763 165.295 340.464 165.445 339.865 165.445C 339.267 165.445 338.968 165.595 338.968 165.894C 338.968 166.226 338.619 166.343 337.622 166.343C 336.624 166.343 336.275 166.459 336.275 166.791C 336.275 167.115 335.943 167.24 335.079 167.24C 334.42 167.24 333.882 167.375 333.882 167.539C 333.882 167.704 333.137 167.838 332.227 167.838C 331.032 167.838 330.524 167.963 330.4 168.287C 330.266 168.637 329.673 168.736 327.717 168.736C 325.684 168.736 325.206 168.821 325.206 169.185C 325.206 169.571 324.192 169.634 317.876 169.634C 311.56 169.634 310.546 169.571 310.546 169.185C 310.546 168.829 310.117 168.736 308.484 168.736C 306.927 168.736 306.379 168.626 306.249 168.287C 306.141 168.006 305.684 167.838 305.021 167.838C 304.44 167.838 303.964 167.704 303.964 167.539C 303.964 167.375 303.56 167.24 303.067 167.24C 302.468 167.24 302.169 167.091 302.169 166.791C 302.169 166.492 301.87 166.343 301.272 166.343C 300.673 166.343 300.374 166.193 300.374 165.894C 300.374 165.595 300.075 165.445 299.476 165.445C 298.878 165.445 298.579 165.295 298.579 164.996C 298.579 164.749 298.377 164.547 298.13 164.547C 297.883 164.547 297.681 164.346 297.681 164.099C 297.681 163.819 297.399 163.65 296.933 163.65C 296.468 163.65 296.185 163.48 296.185 163.201C 296.185 162.954 296.044 162.752 295.872 162.752C 295.7 162.752 295.247 162.416 294.865 162.004C 294.484 161.593 294.019 161.257 293.833 161.257C 293.646 161.257 293.493 161.055 293.493 160.808C 293.493 160.561 293.291 160.359 293.044 160.359C 292.797 160.359 292.595 160.224 292.595 160.06C 292.595 159.895 292.057 159.222 291.399 158.564C 290.74 157.906 290.202 157.233 290.202 157.068C 290.202 156.904 290.067 156.769 289.903 156.769C 289.383 156.769 288.407 155.597 288.407 154.974C 288.407 154.641 288.207 154.375 287.958 154.375C 287.711 154.375 287.509 154.174 287.509 153.927C 287.509 153.68 287.307 153.478 287.061 153.478C 286.761 153.478 286.612 153.179 286.612 152.58C 286.612 152.087 286.492 151.683 286.345 151.683C 286.198 151.683 285.994 151.346 285.891 150.935C 285.787 150.524 285.571 150.187 285.409 150.187C 285.248 150.187 285.116 149.846 285.116 149.43C 285.116 149.013 284.914 148.595 284.667 148.5C 284.411 148.402 284.218 147.956 284.218 147.462C 284.218 146.892 284.065 146.597 283.77 146.597C 283.446 146.597 283.321 146.264 283.321 145.4C 283.321 144.536 283.196 144.203 282.872 144.203C 282.54 144.203 282.423 143.854 282.423 142.857C 282.423 141.86 282.307 141.511 281.975 141.511C 281.642 141.511 281.526 141.162 281.526 140.165C 281.526 139.167 281.409 138.818 281.077 138.818C 280.733 138.818 280.628 138.436 280.628 137.173C 280.628 136.268 280.494 135.527 280.329 135.527C 280.152 135.527 280.03 134.437 280.03 132.856C 280.03 130.881 279.913 130.068 279.581 129.736C 279.225 129.38 279.132 128.421 279.132 125.077L279.132 125.077L279.132 120.868L317.577 120.868L356.021 120.868L356.021 117.128C 356.021 114.003 355.947 113.388 355.572 113.388C 355.203 113.388 355.123 112.856 355.123 110.396C 355.123 107.937 355.044 107.405 354.675 107.405C 354.326 107.405 354.226 107.006 354.226 105.61C 354.226 104.213 354.126 103.815 353.777 103.815C 353.453 103.815 353.328 103.482 353.328 102.618C 353.328 101.754 353.204 101.421 352.88 101.421C 352.547 101.421 352.431 101.072 352.431 100.075C 352.431 99.334 352.296 98.728 352.132 98.728C 351.967 98.728 351.832 98.388 351.832 97.971C 351.832 97.555 351.631 97.136 351.384 97.042C 351.137 96.947 350.935 96.547 350.935 96.153C 350.935 95.717 350.76 95.438 350.486 95.438C 350.187 95.438 350.037 95.138 350.037 94.54C 350.037 93.942 349.888 93.642 349.589 93.642C 349.289 93.642 349.14 93.343 349.14 92.745C 349.14 92.147 348.99 91.847 348.691 91.847C 348.412 91.847 348.242 91.565 348.242 91.099C 348.242 90.634 348.073 90.352 347.794 90.352C 347.547 90.352 347.345 90.15 347.345 89.903C 347.345 89.656 347.143 89.454 346.896 89.454C 346.611 89.454 346.447 89.167 346.447 88.666C 346.447 88.209 346.133 87.585 345.699 87.184C 345.288 86.803 344.951 86.35 344.951 86.177C 344.951 86.005 344.749 85.864 344.503 85.864C 344.256 85.864 344.054 85.662 344.054 85.415C 344.054 85.168 343.913 84.966 343.74 84.966C 343.568 84.966 343.115 84.63 342.734 84.218C 342.353 83.807 341.888 83.47 341.701 83.47C 341.514 83.47 341.361 83.269 341.361 83.022C 341.361 82.775 341.159 82.573 340.912 82.573C 340.666 82.573 340.464 82.371 340.464 82.124C 340.464 81.877 340.262 81.675 340.015 81.675C 339.768 81.675 339.566 81.473 339.566 81.227C 339.566 80.947 339.284 80.778 338.818 80.778C 338.353 80.778 338.07 80.608 338.07 80.329C 338.07 80.082 337.883 79.88 337.654 79.88C 337.424 79.88 337.159 79.678 337.065 79.432C 336.97 79.185 336.566 78.983 336.167 78.983C 335.768 78.983 335.364 78.781 335.27 78.534C 335.175 78.287 334.824 78.085 334.49 78.085C 334.155 78.085 333.882 77.951 333.882 77.786C 333.882 77.622 333.478 77.487 332.984 77.487C 332.386 77.487 332.087 77.337 332.087 77.038C 332.087 76.706 331.738 76.589 330.74 76.589C 329.743 76.589 329.394 76.473 329.394 76.141C 329.394 75.819 329.065 75.692 328.229 75.692C 327.47 75.692 327.005 75.536 326.893 75.243C 326.752 74.877 326.028 74.794 322.971 74.794C 319.838 74.794 319.222 74.721 319.222 74.346C 319.222 73.989 318.79 73.897 317.128 73.897C 315.466 73.897 315.034 73.989 315.034 74.346M321.915 78.534C 321.915 78.879 322.297 78.983 323.56 78.983C 324.823 78.983 325.206 79.087 325.206 79.432C 325.206 79.731 325.505 79.88 326.103 79.88C 326.702 79.88 327.001 80.03 327.001 80.329C 327.001 80.653 327.333 80.778 328.197 80.778C 329.062 80.778 329.394 80.903 329.394 81.227C 329.394 81.526 329.693 81.675 330.292 81.675C 330.89 81.675 331.189 81.825 331.189 82.124C 331.189 82.371 331.391 82.573 331.638 82.573C 331.885 82.573 332.087 82.693 332.087 82.84C 332.087 82.986 332.434 83.194 332.859 83.3C 333.612 83.489 338.968 88.647 338.968 89.184C 338.968 89.332 339.112 89.454 339.288 89.454C 339.792 89.454 340.344 90.133 340.569 91.028C 340.682 91.479 340.906 91.847 341.068 91.847C 341.229 91.847 341.361 92.188 341.361 92.605C 341.361 93.021 341.563 93.44 341.81 93.534C 342.103 93.647 342.259 94.112 342.259 94.871C 342.259 95.707 342.386 96.036 342.708 96.036C 343.057 96.036 343.156 96.435 343.156 97.831C 343.156 99.227 343.256 99.626 343.605 99.626C 343.974 99.626 344.054 100.158 344.054 102.618C 344.054 105.078 343.974 105.61 343.605 105.61C 343.273 105.61 343.156 105.959 343.156 106.956C 343.156 107.953 343.04 108.302 342.708 108.302C 342.383 108.302 342.259 108.635 342.259 109.499C 342.259 110.363 342.134 110.696 341.81 110.696C 341.563 110.696 341.361 110.898 341.361 111.144C 341.361 111.391 341.227 111.593 341.062 111.593C 340.898 111.593 340.763 111.795 340.763 112.042C 340.763 112.289 340.561 112.491 340.314 112.491C 340.067 112.491 339.865 112.693 339.865 112.939C 339.865 113.186 339.713 113.388 339.526 113.388C 339.339 113.388 338.874 113.725 338.493 114.136C 338.112 114.547 337.52 114.884 337.178 114.884C 336.836 114.884 336.478 115.086 336.383 115.333C 336.289 115.58 335.885 115.782 335.486 115.782C 335.087 115.782 334.683 115.984 334.588 116.23C 334.437 116.625 331.069 116.679 306.774 116.679L306.774 116.679L279.132 116.679L279.132 115.066C 279.132 113.907 279.259 113.404 279.581 113.28C 279.921 113.15 280.03 112.598 280.03 111.004C 280.03 109.801 280.158 108.901 280.329 108.901C 280.494 108.901 280.628 108.376 280.628 107.736C 280.628 106.977 280.784 106.511 281.077 106.399C 281.373 106.285 281.526 105.817 281.526 105.021C 281.526 104.148 281.65 103.815 281.975 103.815C 282.274 103.815 282.423 103.515 282.423 102.917C 282.423 102.319 282.573 102.019 282.872 102.019C 283.196 102.019 283.321 101.687 283.321 100.823C 283.321 99.958 283.446 99.626 283.77 99.626C 284.016 99.626 284.218 99.438 284.218 99.209C 284.218 98.98 284.42 98.715 284.667 98.62C 284.914 98.526 285.116 98.122 285.116 97.723C 285.116 97.324 285.318 96.92 285.565 96.825C 285.812 96.731 286.013 96.38 286.013 96.045C 286.013 95.711 286.148 95.438 286.313 95.438C 286.477 95.438 286.612 95.25 286.612 95.021C 286.612 94.792 286.814 94.527 287.061 94.432C 287.307 94.337 287.509 93.919 287.509 93.502C 287.509 93.029 287.677 92.745 287.958 92.745C 288.205 92.745 288.407 92.543 288.407 92.296C 288.407 92.049 288.609 91.847 288.856 91.847C 289.102 91.847 289.304 91.645 289.304 91.399C 289.304 91.152 289.506 90.95 289.753 90.95C 290 90.95 290.202 90.819 290.202 90.659C 290.202 90.279 292.822 87.659 293.202 87.659C 293.362 87.659 293.493 87.457 293.493 87.21C 293.493 86.963 293.695 86.761 293.942 86.761C 294.188 86.761 294.39 86.559 294.39 86.313C 294.39 86.066 294.592 85.864 294.839 85.864C 295.086 85.864 295.288 85.662 295.288 85.415C 295.288 85.168 295.49 84.966 295.737 84.966C 295.984 84.966 296.185 84.764 296.185 84.518C 296.185 84.238 296.468 84.069 296.933 84.069C 297.345 84.069 297.681 83.934 297.681 83.77C 297.681 83.605 297.883 83.47 298.13 83.47C 298.377 83.47 298.579 83.269 298.579 83.022C 298.579 82.723 298.878 82.573 299.476 82.573C 300.075 82.573 300.374 82.423 300.374 82.124C 300.374 81.843 300.658 81.675 301.131 81.675C 301.548 81.675 301.966 81.473 302.061 81.227C 302.156 80.98 302.541 80.778 302.917 80.778C 303.293 80.778 303.678 80.576 303.773 80.329C 303.868 80.082 304.286 79.88 304.703 79.88C 305.176 79.88 305.46 79.712 305.46 79.432C 305.46 79.087 305.843 78.983 307.115 78.983C 308.31 78.983 308.818 78.858 308.942 78.534C 309.088 78.154 310.101 78.085 315.514 78.085C 321.004 78.085 321.915 78.149 321.915 78.534" stroke="none" fill="#040404" fill-rule="nonzero" />
            <path d="" stroke="none" fill="#A8B04C" fill-rule="nonzero" />
            <path d="" stroke="none" fill="#385C4C" fill-rule="nonzero" />
            <path d="" stroke="none" fill="#380450" fill-rule="nonzero" />
            <path d="" stroke="none" fill="#3C0404" fill-rule="nonzero" />
            <path d="" stroke="none" fill="#080404" fill-rule="nonzero" />
            <path d="" stroke="none" fill="#080404" fill-rule="nonzero" />
            <path d="" stroke="none" fill="#080404" fill-rule="nonzero" />
		</g>
	</g>
</g>
</svg>