<svg width="78" height="45" viewBox="0 0 78 45" fill="none" xmlns="http://www.w3.org/2000/svg">
    <path d="M19.0876 7.33412C19.8114 7.33412 20.4568 7.20331 21.0236 6.93297C21.5905 6.66262 22.0614 6.29635 22.4364 5.82543H22.6718L24.416 15.6363L24.1369 15.7758C23.352 14.459 22.5497 13.2381 21.73 12.1218C20.9102 11.0056 20.0905 10.1073 19.2795 9.43582C18.4684 8.76432 17.6574 8.42421 16.8725 8.42421C16.1836 8.42421 15.6604 8.61607 15.3115 8.99106C14.9627 9.36605 14.797 9.95034 14.797 10.7352V38.5631C14.797 39.3828 14.954 40.1154 15.2679 40.7781C15.5819 41.4409 16.1487 42.0165 16.9685 42.5223V42.7142H7.3931V42.5223C8.21285 42.0165 8.77969 41.4409 9.11108 40.7781C9.44247 40.1154 9.60816 39.3828 9.60816 38.5631V10.7265C9.60816 9.94162 9.43375 9.35733 9.08492 8.98234C8.73609 8.60735 8.16924 8.41549 7.38438 8.41549C6.66055 8.41549 5.89313 8.76432 5.07338 9.45326C4.25363 10.1422 3.43388 11.0404 2.62285 12.1392C1.8031 13.2381 1.03568 14.4502 0.311857 15.7671L-0.0195312 15.6275L1.68973 5.81671H2.02112C2.39611 6.32251 2.85831 6.69751 3.39028 6.95041C3.92224 7.20331 4.55014 7.3254 5.27396 7.3254H19.0963L19.0876 7.33412Z" fill="#3B2321"/>
    <path d="M35.3219 42.7054H25.1797V42.5135C25.8686 42.1647 26.4616 41.6066 26.95 40.813C27.4384 40.0281 27.6825 39.1037 27.6825 38.0311V11.9997C27.6825 11.1189 27.4732 10.2468 27.0721 9.38344C26.6622 8.52009 26.0343 7.90092 25.1884 7.5172V7.32535H35.3306V7.5172C34.4847 7.8922 33.8481 8.52009 33.4208 9.38344C32.9935 10.2468 32.7842 11.1189 32.7842 11.9997V20.2495H44.2432V11.9997C44.2432 11.1189 44.0252 10.2468 43.5804 9.38344C43.1357 8.52009 42.5252 7.90092 41.7404 7.5172V7.32535H51.8303V7.5172C51.0105 7.8922 50.3913 8.52009 49.964 9.38344C49.5367 10.2468 49.3274 11.1189 49.3274 11.9997V38.0311C49.3274 39.1037 49.5629 40.0281 50.0338 40.813C50.5047 41.5979 51.1064 42.1647 51.8215 42.5135V42.7054H41.7317V42.5135C42.3944 42.1647 42.97 41.6066 43.4758 40.813C43.9816 40.0281 44.2345 39.1037 44.2345 38.0311V21.575H32.7755V38.0311C32.7755 39.1037 33.0196 40.0281 33.508 40.813C33.9964 41.5979 34.5981 42.1647 35.3219 42.5135V42.7054V42.7054Z" fill="#3B2321"/>
    <path d="M70.9229 7.3341C71.7426 7.3341 72.449 7.20329 73.042 6.93294C73.635 6.6626 74.1059 6.29633 74.4548 5.82541H74.6466L75.9635 15.6798L75.6844 15.7758C74.7426 14.3281 73.7745 13.0462 72.7804 11.9299C71.7862 10.8137 70.6874 9.95032 69.4752 9.33987C68.263 8.72941 66.8852 8.42419 65.3503 8.42419C63.9375 8.42419 62.9347 8.73814 62.3591 9.36603C61.7748 9.99392 61.487 11.0055 61.487 12.3834V22.6216H67.3822C68.577 22.6216 69.6496 22.325 70.5915 21.7233C71.5333 21.1303 72.3705 20.1361 73.0943 18.7495H73.3298V27.9499H73.0943C72.3356 26.7203 71.4984 25.7523 70.574 25.0285C69.6496 24.3047 68.6031 23.9471 67.4346 23.9471H61.4957V37.6735C61.4957 38.9904 61.8446 39.9845 62.5335 40.6473C63.2225 41.3101 64.2602 41.6415 65.6468 41.6415C67.3735 41.6415 68.9258 41.2839 70.295 40.5601C71.6641 39.8363 72.9025 38.8683 74.0187 37.6561C75.135 36.4439 76.1989 35.0835 77.2018 33.5748L77.3937 33.6707L75.3617 44.2315H75.1263C74.7513 43.6996 74.2891 43.3159 73.7571 43.0717C73.2251 42.8275 72.5449 42.7141 71.7252 42.7141H53.8477V42.5223C54.5366 42.1473 55.1296 41.624 55.618 40.97C56.1063 40.3072 56.3505 39.3392 56.3505 38.0485V11.9997C56.3505 10.927 56.1412 10.0026 55.7401 9.21778C55.3302 8.43291 54.7023 7.86606 53.8564 7.51723V7.32538H70.9316L70.9229 7.3341Z" fill="#3B2321"/>
  </svg>